/* XPM */
static char *result[] = {
/* columns rows colors chars-per-pixel */
"64 64 14 1 ",
"  c #F8A14C",
". c #F9A14D",
"X c #FCA350",
"o c #FCA351",
"O c #FFFF99",
"+ c #FFFF9A",
"@ c #FFFF9D",
"# c #FFFF9E",
"$ c #FFFFA1",
"% c #FFFFE6",
"& c #FFFFEA",
"* c #FFFFEE",
"= c white",
"- c None",
/* pixels */
"----------------------------------------------------------------",
"----------------------------------------------------------------",
"----------------------------------------------------------------",
"----------------------------------------------------------------",
"----------------------------------------------------------------",
"----------------------------------------------------------------",
"----------------------------------------------------------------",
"----------------------------------------------------------------",
"----------------------------------------------------------------",
"----------------------------------------------------------------",
"----------------------------------------------------------------",
"----------------------------------------------------------------",
"----------------------------------------------------------------",
"----------------------------------------------------------------",
"----------------------------------------------------------------",
"----------------------------------------------------------------",
"----------------------------------------------------------------",
"----------------------------------------------------------------",
"----------------------------------------------------------------",
"----------------------------------------------------------------",
"----------------------------------------------------------------",
"----------------------------------------------------------------",
"--------------------------- ------------------------------------",
"--------------------------- ------------------------------------",
"--------------------------   -----------------------------------",
"--------------------------    ----------------------------------",
"--------------------------    ----------------------------------",
"-------------------------- O  .---------------------------------",
"------------------------...OOOO...------------------------------",
"-------------------------..OOOO.++------------------------------",
"--------------------------..OOO+...-----------------------------",
"----------------------------. %+++.-----------------------------",
"------------------------------++++#-----------------------------",
"----------------------------..+++=$$X---------------------------",
"---------------------------..++&&$$XXXX-------------------------",
"--------------------------...+&&*$$$XX--------------------------",
"---------------------------.-+&@*$$$----------------------------",
"----------------------------.@@X$$oo----------------------------",
"-----------------------------XX$$ooo----------------------------",
"-------------------------------ooooo----------------------------",
"-------------------------------oooo-----------------------------",
"-------------------------------ooo------------------------------",
"----------------------------------------------------------------",
"----------------------------------------------------------------",
"----------------------------------------------------------------",
"----------------------------------------------------------------",
"----------------------------------------------------------------",
"----------------------------------------------------------------",
"----------------------------------------------------------------",
"----------------------------------------------------------------",
"----------------------------------------------------------------",
"----------------------------------------------------------------",
"----------------------------------------------------------------",
"----------------------------------------------------------------",
"----------------------------------------------------------------",
"----------------------------------------------------------------",
"----------------------------------------------------------------",
"----------------------------------------------------------------",
"----------------------------------------------------------------",
"----------------------------------------------------------------",
"----------------------------------------------------------------",
"----------------------------------------------------------------",
"----------------------------------------------------------------",
"----------------------------------------------------------------"
};
