/* XPM */
static char *result[] = {
/* columns rows colors chars-per-pixel */
"64 64 64 1 ",
"  c #D37F5B",
". c #CF7B65",
"X c #E1932E",
"o c #E39430",
"O c #E49531",
"+ c #E59633",
"@ c #E69633",
"# c #E99838",
"$ c #EA9939",
"% c #EB993A",
"& c #EC9A3C",
"* c #D88748",
"= c #D48157",
"- c #F09C41",
"; c #F19D42",
": c #F29D44",
"> c #F39E45",
", c #F49F47",
"< c #F6A049",
"1 c #F7A04A",
"2 c #F8A14B",
"3 c #FBA24F",
"4 c #FCA350",
"5 c #FDA452",
"6 c #FFFF63",
"7 c #FFFF68",
"8 c #FFFF6B",
"9 c #FFFF70",
"0 c #FFFF74",
"q c #FFFF7B",
"w c #FFFF7D",
"e c #FFFF81",
"r c #FFFF83",
"t c #FFFF86",
"y c #FFFF8A",
"u c #FFFF8B",
"i c #FFFF8E",
"p c #FFFF8F",
"a c #FFFF90",
"s c #FFFF91",
"d c #FFFF92",
"f c #FFFF96",
"g c #FFFF9A",
"h c #FFFF9B",
"j c #FFFF9D",
"k c #FFFFA0",
"l c #FFFFA1",
"z c #FFFFA2",
"x c #FFFFA3",
"c c #FFFFB2",
"v c #FFFFBF",
"b c #FFFFC4",
"n c #FFFFC7",
"m c #FFFFD3",
"M c #FFFFD6",
"N c #FFFFD7",
"B c #FFFFDB",
"V c #FFFFDE",
"C c #FFFFDF",
"Z c #FFFFEC",
"A c #FFFFED",
"S c #FFFFF1",
"D c white",
"F c None",
/* pixels */
"FFFFFFFFFFFFFFFFFFFFFFFFFFFFFFFFFFFFFFFFFFFFFFFFFFFFFFFFFFFFFFFF",
"FFFFFFFFFFFFFFFFFFFFFFFFFFFFFFFFFFFFFFFFFFFFFFFFFFFFFFFFFFFFFFFF",
"FFFFFFFFFFFFFFFFFFFFFFFFFFFFFFFFFFFFFFFFFFFFFFFFFFFFFFFFFFFFFFFF",
"FFFFFFFFFFFFFFFFFFFFFFFFFFFFFFFFFFFFFFFFFFFFFFFFFFFFFFFFFFFFFFFF",
"FFFFFFFFFFFFFFFFFFFFFFFFFFFFFFFFFFFFFFFFFFFFFFFFFFFFFFFFFFFFFFFF",
"FFFFFFFFFFFFFFFFFFFFFFFFFFFFFFFFFFFFFFFFFFFFFFFFFFFFFFFFFFFFFFFF",
"FFFFFFFFFFFFFFFFFFFFFFFFFFFFFFFFFFFFFFFFFFFFFFFFFFFFFFFFFFFFFFFF",
"FFFFFFFFFFFFFFFFFFFFFFFFFFFFFFFFFFFFFFFFFFFFFFFFFFFFFFFFFFFFFFFF",
"FFFFFFFFFFFFFFFFFFFFFFFFFFFFFFFFFFFFFFFFFFFFFFFFFFFFFFFFFFFFFFFF",
"FFFFFFFFFFFFFFFFFFFFFFFFFFFFFFFFFFFFFFFFFFFFFFFFFFFFFFFFFFFFFFFF",
"FFFFFFFFFFFFFFFFFFFFFFFFFFFFFFFFFFFFFFFFFFFFFFFFFFFFFFFFFFFFFFFF",
"FFFFFFFFFFFFFFFFFFFFFFFFFFFFFFFFFFFFFFFFFFFFFFFFFFFFFFFFFFFFFFFF",
"FFFFFFFFFFFFFFFFFFFFFFFFFFFFFFFFFFFFFFFFFFFFFFFFFFFFFFFFFFFFFFFF",
"FFFFFFFFFFFFFFFFFFFFFFFFFFFFFFFFFFFFFFFFFFFFFFFFFFFFFFFFFFFFFFFF",
"FFFFFFFFFFFFFFFFFFFFFFFFFFFFFFFFFFFFFFFFFFFFFFFFFFFFFFFFFFFFFFFF",
"FFFFFFFFFFFFFFFFFFFFFFFFFFFFFFFFFFFFFFFFFFFFFFFFFFFFFFFFFFFFFFFF",
"FFFFFFFFFFFFFFFFFFFFFFFFFFFFFFFFFFFFFFFFFFFFFFFFFFFFFFFFFFFFFFFF",
"FFFFFFFFFFFFFFFFFFFFFFFFFFFFFFFFFFFFF5F54F444FFFFFFFFFFFFFFFFFFF",
"FFFFFFFFFFFFFFFFFFFFFFFFFFFFFFFFFFFFF5zzzz4444FFFFFFFFFFFFFFFFFF",
"FFFFFFFFFFFFFFFFFFFFFFFFFFFFFFFFFFFFF5zzzzzz4hh2FFFFFFFFFFFFFFFF",
"FFFFFFFFFFFFFFFFFFFFFFFFFFFFFFFFFFFFFF5zSSSAAAh44FFFFFFFFFFFFFFF",
"FFFFFFFFFFFFFFFFFFFFFFFFFFFFFFFFFFFFFFF5llZjAjAFFFFFFFFFFFFFFFFF",
"FFFFFFFFFFFFFFFFFFFFFFFFFFFFFFFFFFFFFFFFFlZZ2j2FFFFFFFFFFFFFFFFF",
"FFFFFFFFFFFFFFFFFFFFFFFFFFFFFFFFFFFFFFFF33gggd,FFFFFFFFFFFFFFFFF",
"FFFFFFFFFFFFFFFFFFFFFFFFFFFFFFFFFFFFFFFFFgggDCa<<<FFFFFFFFFFFFFF",
"FFFFFFFFFFFXFFFFFFFFFFFFFFFFFFFFFFFFFFFFF3gDDDDiiFFFFFFFFFFFFFFF",
"FFFFFFFFFFFXXFFFFFFFFFFFFFFFFFFFFFFFFFFFF2NDDDDip>FFFFFFFFFFFFFF",
"FFFFFFFFFFFXXFFFFFFFFFFFFFFFFFFFFFFFFFFFFFBaDDDVppFFFFFFFFFFFFFF",
"FFFFFFFFFFFXXXFFFFFFFFFFFFFFFFFFFFFFFFFFFFaaaMppp>>FFFFFFFFFFFFF",
"FFFFFFFFFFFXXXFFFFFFFFFFFFFFFFFFFFFFFFFF-yaa,s1pp>>>FFFFFFFFFFFF",
"FFFFFFFFFFFFXXFFFFFFFFFFFFFFFFFFFFFFFFFF--F,s1111FFFFFFFFFFFFFFF",
"FFFFFFFFFFFFXXFFFFFF.....FFFFFFFFFFFFFF;---,s111FFFFFFFFFFFFFFFF",
"FFFFFFFFFFFFFXXFFFF.....FFFFFFFFFFFFFFFrb--s1111FFFFFFFFFFFFFFFF",
"FFFFFFFFFFFFOOOOOOff...FFFFFFFFFFFFFFFFrDrDu1FFFFFFFFFFFFFFFFFFF",
"FFFFFFFFFFFFFOOOOfff.FF==FFFFFFFFFFFFF--nnnnn::FFFFFFFFFFFFFFFFF",
"FFFFFFFFFFFFFFFOOOFFFF===FFFFFFFFFFFF&wwvDnnnt:FFFFFFFFFFFFFFFFF",
"FFFFFFFFFFFFFFFFFFFFFFc=FF#8@FFoF++F&wwww;nnntt:FFFFFFFFFFFFFFFF",
"FFFFFFFFFFFFFFFFFFFF cccFqq88#7h8++F&&ww-FF-rtt::FFFFFFFFFFFFFFF",
"FFFFFFFFFFFFFFFFFF   cc=Fqqx9khh88F&&&w--FFFFFFFFFFFFFFFFFFFFFFF",
"FFFFFFFFFFFFFFFF    cc=F*qq@#kmhh80&&&---F%%FFFFFFFFFFFFFFFFFFFF",
"FFFFFFFFFFFFFFFFF  F=FFFqqqF#7hh8#00FFF--%%FFFFFFFFFFFFFFFFFFFFF",
"FFFFFFFFFFFFFFFFFFFFFFF*qqqFFhh6+FFFFFFFq%%%FFFFFFFFFFFFFFFFFFFF",
"FFFFFFFFFFFFFFFFFFFFFFF**q@FF6h6FFFFFFFF%%%FFFFFFFFFFFFFFFFFFFFF",
"FFFFFFFFFFFFFFFFFFFFFFF*q@FFFo67FFFFFFF%%%%FFFFFFFFFFFFFFFFFFFFF",
"FFFFFFFFFFFFFFFFFFFFF$$e$$$$FFooFFFFFFF%%%%FFFFFFFFFFFFFFFFFFFFF",
"FFFFFFFFFFFFFFFFFFFF$$$$$$$FFFFFFFFFFF%%%%FFFFFFFFFFFFFFFFFFFFFF",
"FFFFFFFFFFFFFFFFFFFFFF$$$$FFFFFFFFFFFF%%%FFFFFFFFFFFFFFFFFFFFFFF",
"FFFFFFFFFFFFFFFFFFFFFFFFFFFFFFFFFFFFFFFFFFFFFFFFFFFFFFFFFFFFFFFF",
"FFFFFFFFFFFFFFFFFFFFFFFFFFFFFFFFFFFFFFFFFFFFFFFFFFFFFFFFFFFFFFFF",
"FFFFFFFFFFFFFFFFFFFFFFFFFFFFFFFFFFFFFFFFFFFFFFFFFFFFFFFFFFFFFFFF",
"FFFFFFFFFFFFFFFFFFFFFFFFFFFFFFFFFFFFFFFFFFFFFFFFFFFFFFFFFFFFFFFF",
"FFFFFFFFFFFFFFFFFFFFFFFFFFFFFFFFFFFFFFFFFFFFFFFFFFFFFFFFFFFFFFFF",
"FFFFFFFFFFFFFFFFFFFFFFFFFFFFFFFFFFFFFFFFFFFFFFFFFFFFFFFFFFFFFFFF",
"FFFFFFFFFFFFFFFFFFFFFFFFFFFFFFFFFFFFFFFFFFFFFFFFFFFFFFFFFFFFFFFF",
"FFFFFFFFFFFFFFFFFFFFFFFFFFFFFFFFFFFFFFFFFFFFFFFFFFFFFFFFFFFFFFFF",
"FFFFFFFFFFFFFFFFFFFFFFFFFFFFFFFFFFFFFFFFFFFFFFFFFFFFFFFFFFFFFFFF",
"FFFFFFFFFFFFFFFFFFFFFFFFFFFFFFFFFFFFFFFFFFFFFFFFFFFFFFFFFFFFFFFF",
"FFFFFFFFFFFFFFFFFFFFFFFFFFFFFFFFFFFFFFFFFFFFFFFFFFFFFFFFFFFFFFFF",
"FFFFFFFFFFFFFFFFFFFFFFFFFFFFFFFFFFFFFFFFFFFFFFFFFFFFFFFFFFFFFFFF",
"FFFFFFFFFFFFFFFFFFFFFFFFFFFFFFFFFFFFFFFFFFFFFFFFFFFFFFFFFFFFFFFF",
"FFFFFFFFFFFFFFFFFFFFFFFFFFFFFFFFFFFFFFFFFFFFFFFFFFFFFFFFFFFFFFFF",
"FFFFFFFFFFFFFFFFFFFFFFFFFFFFFFFFFFFFFFFFFFFFFFFFFFFFFFFFFFFFFFFF",
"FFFFFFFFFFFFFFFFFFFFFFFFFFFFFFFFFFFFFFFFFFFFFFFFFFFFFFFFFFFFFFFF",
"FFFFFFFFFFFFFFFFFFFFFFFFFFFFFFFFFFFFFFFFFFFFFFFFFFFFFFFFFFFFFFFF"
};
