/* XPM */
static char *result[] = {
/* columns rows colors chars-per-pixel */
"64 64 67 1 ",
"  c #CD786C",
". c #CC7670",
"X c #C8707D",
"o c #DD8D3A",
"O c #DF9034",
"+ c #E2942E",
"@ c #E2942F",
"# c #E39430",
"$ c #E79635",
"% c #E79735",
"& c #E89736",
"* c #E89737",
"= c #EA9839",
"- c #ED9A3D",
"; c #EE9B3E",
": c #EE9B3F",
"> c #F09C41",
", c #F09C42",
"< c #F19C42",
"1 c #F49E46",
"2 c #F49F47",
"3 c #F8A14C",
"4 c #F9A14D",
"5 c #FBA24F",
"6 c #FBA350",
"7 c #FCA351",
"8 c #FFFF63",
"9 c #FFFF64",
"0 c #FFFF65",
"q c #FFFF69",
"w c #FFFF6A",
"e c #FFFF6E",
"r c #FFFF77",
"t c #FFFF7C",
"y c #FFFF7D",
"u c #FFFF7F",
"i c #FFFF81",
"p c #FFFF87",
"a c #FFFF88",
"s c #FFFF89",
"d c #FFFF8E",
"f c #FFFF92",
"g c #FFFF93",
"h c #FFFF95",
"j c #FFFF98",
"k c #FFFF9B",
"l c #FFFF9C",
"z c #FFFF9D",
"x c #FFFF9E",
"c c #FFFFA1",
"v c #FFFFAB",
"b c #FFFFB6",
"n c #FFFFBA",
"m c #FFFFBE",
"M c #FFFFCD",
"N c #FFFFCE",
"B c #FFEEDC",
"V c #FFFFD4",
"C c #FFFFD5",
"Z c #FFFFD7",
"A c #FFFFE1",
"S c #FFFFE2",
"D c #FFFFEC",
"F c #FFFFED",
"G c ivory",
"H c white",
"J c None",
/* pixels */
"JJJJJJJJJJJJJJJJJJJJJJJJJJJJJJJJJJJJJJJJJJJJJJJJJJJJJJJJJJJJJJJJ",
"JJJJJJJJJJJJJJJJJJJJJJJJJJJJJJJJJJJJJJJJJJJJJJJJJJJJJJJJJJJJJJJJ",
"JJJJJJJJJJJJJJJJJJJJJJJJJJJJJJJJJJJJJJJJJJJJJJJJJJJJJJJJJJJJJJJJ",
"JJJJJJJJJJJJJJJJJJJJJJJJJJJJJJJJJJJJJJJJJJJJJJJJJJJJJJJJJJJJJJJJ",
"JJJJJJJJJJJJJJJJJJJJJJJJJJJJJJJJJJJJJJJJJJJJJJJJJJJJJJJJJJJJJJJJ",
"JJJJJJJJJJJJJJJJJJJJJJJJJJJJJJJJJJJJJJJJJJJJJJJJJJJJJJJJJJJJJJJJ",
"JJJJJJJJJJJJJJJJJJJJJJJJJJJJJJJJJJJJJJJJJJJJJJJJJJJJJJJJJJJJJJJJ",
"JJJJJJJJJJJJJJJJJJJJJJJJJJJJJJJJJJJJJJJJJJJJJJJJJJJJJJJJJJJJJJJJ",
"JJJJJJJJJJJJJJJJJJJJJJJJJJJJJJJJJJJJJJJJJJJJJJJJJJJJJJJJJJJJJJJJ",
"JJJJJJJJJJJJJJJJJJJJJJJJJJJJJJJJJJJJJJJJJJJJJJJJJJJJJJJJJJJJJJJJ",
"JJJJJJJJJJJJJJJJJJJJJJJJJJJJJJJJJJJJJJJJJJJJJJJJJJJJJJJJJJJJJJJJ",
"JJJJJJJJJJJJJJJJJJJJJJJJJJJJJJJJJJJJJJJJJJJJJJJJJJJJJJJJJJJJJJJJ",
"JJJJJJJJJJJJJJJJJJJJJJJJJJJJJJJJJJJJJJJJJJJJJJJJJJJJJJJJJJJJJJJJ",
"JJJJJJJJJJJJJJJJJJJJJJJJJJJJJJJJJJJJJJJJJJJJJJJJJJJJJJJJJJJJJJJJ",
"JJJJJJJJJJJJJJJJJJJJJJJJJJJJJJJJJJJ7JJJJJJJJJJJJJJJJJJJJJJJJJJJJ",
"JJJJJJJJJJJJJJJJJJJJJJJJJJJJJJJJJJJ77JJJJJJJJJJJJJJJJJJJJJJJJJJJ",
"JJJJJJJJJJJJJJJJJJJJJJJJJJJJJJJJJJ777c66666JJJJJJJJJJJJJJJJJJJJJ",
"JJJJJJJJJJJJJJJJJJJJJJJJJJJJJJJJJJJ7ccc666666JJJJJJJJJJJJJJJJJJJ",
"JJJJJJJJJJJJJJJJJJJJJJJJJJJJJJJJJJ6ccccc66666JJJJJJJJJJJJJJJJJJJ",
"JJJJJJJJJJJJJJJJJJJJJJJJJJJJJJJJJJ6ccGccFl3333JJJJJJJJJJJJJJJJJJ",
"JJJJJJJJJJJJJJJJJJJJJJJJJJJJJJJJJJ666GHDDz3333fJJJJJJJJJJJJJJJJJ",
"JJJJJJJJJJJJJJJJJJJJJJJJJJJJJJJJJJJJJ5DDDD3Afff3JJJJJJJJJJJJJJJJ",
"JJJJJJJJJJJJJJJJJJJJJJJJJJJJJJJJJJJJJJ55HDkAAff3JJJJJJJJJJJJJJJJ",
"JJJJJJJJJJJJJJJJJJJJJJJJJJJJJJJJJJJJJJ55llShhhJJJJJJJJJJJJJJJJJJ",
"JJJJJJJJJJJJJJJJJJJJJJJJJJJJJJJJJJJJJJJ54lSShZJJJJJJJJJJJJJJJJJJ",
"JJJJJJJJJJJJJJJJJJJJJJJJJJJJJJJJJJJJJJJJ44gg1<J1JJJJJJJJJJJJJJJJ",
"JJJJJJJJJJJJJJJJJJJJJJJJJJJJJJJJJJJJJJJJ4gggHC1111JJJJJJJJJJJJJJ",
"JJJJJJJJJJJoJJJJJJJJJJJJJJJJJJJJJJJJJJJJJ4CHHHpppJJJJJJJJJJJJJJJ",
"JJJJJJJJJJJoJJJJJJJJJJJJJJJJJJJJJJJJJJJJJ1HHHHVpa>JJJJJJJJJJJJJJ",
"JJJJJJJJJJJooJJJJJJJJJJJJJJJJJJJJJJJJJJJJJNCCHdaaa>JJJJJJJJJJJJJ",
"JJJJJJJJJJJooJJJJJJJJJJJJJJJJJJJJJJJJJJJJ1aaa42aa>>JJJJJJJJJJJJJ",
"JJJJJJJJJJJooJJJJJJJJJJJJJJJJJJJJJJJJJJJ-1a<<J22aa>>JJJJJJJJJJJJ",
"JJJJJJJJJJJoooJJJJJJJJJJJJJJJJJJJJJJJJJJ--J<<2222JJJJJJJJJJJJJJJ",
"JJJJJJJJJJJJooJJJJJJXXXXXJJJJJJJJJJJJJJJ--u<2222JJJJJJJJJJJJJJJJ",
"JJJJJJJJJJJJJoJJJJXXXXXXJJJJJJJJJJJJJJ:nt--s2222JJJJJJJJJJJJJJJJ",
"JJJJJJJJJJJJ++++JvXXXJJJJJJJJJJJJJJJJJ;ynmmsss2JJJJJJJJJJJJJJJJJ",
"JJJJJJJJJJJJJ++++vv+JJJJ JJJJJJJJJJJJ;rymmmH,,,JJJJJJJJJJJJJJJJJ",
"JJJJJJJJJJJJJJ+++++JJJJ  JJJJJJJJJJJ=rrrbtmmi,,,JJJJJJJJJJJJJJJJ",
"JJJJJJJJJJJJJJJJJJJJJJ   J#0JJJ8@@JJ=rrrbtttii,,JJJJJJJJJJJJJJJJ",
"JJJJJJJJJJJJJJJJJJJJ..BBJ#d0wwqj99J===rr;J:tt::J,JJJJJJJJJJJJJJJ",
"JJJJJJJJJJJJJJJJJJ...BB Jdd#wxMj99$===;;;JJJJJJJJJJJJJJJJJJJJJJJ",
"JJJJJJJJJJJJJJJJJ...BB J#ddJ%jMM9$ee=J;;;J&&JJJJJJJJJJJJJJJJJJJJ",
"JJJJJJJJJJJJJJJJ....  JJdddJJjjjJJe$JJJ;J&&JJJJJJJJJJJJJJJJJJJJJ",
"JJJJJJJJJJJJJJJJJJJJJJJJdddJJjjjJJJJJJJJJ&&&JJJJJJJJJJJJJJJJJJJJ",
"JJJJJJJJJJJJJJJJJJJJJJJJddJJJ8jqJJJJJJJJJ&&JJJJJJJJJJJJJJJJJJJJJ",
"JJJJJJJJJJJJJJJJJJJJJJJJdJJJJOOqJJJJJJJJ&&&JJJJJJJJJJJJJJJJJJJJJ",
"JJJJJJJJJJJJJJJJJJJJJJ*h****JJOJJJJJJJJ&&&&JJJJJJJJJJJJJJJJJJJJJ",
"JJJJJJJJJJJJJJJJJJJJ********JJJJJJJJJJJ&&&JJJJJJJJJJJJJJJJJJJJJJ",
"JJJJJJJJJJJJJJJJJJJJJ******JJJJJJJJJJJJ&&JJJJJJJJJJJJJJJJJJJJJJJ",
"JJJJJJJJJJJJJJJJJJJJJJJJJJJJJJJJJJJJJJJJJJJJJJJJJJJJJJJJJJJJJJJJ",
"JJJJJJJJJJJJJJJJJJJJJJJJJJJJJJJJJJJJJJJJJJJJJJJJJJJJJJJJJJJJJJJJ",
"JJJJJJJJJJJJJJJJJJJJJJJJJJJJJJJJJJJJJJJJJJJJJJJJJJJJJJJJJJJJJJJJ",
"JJJJJJJJJJJJJJJJJJJJJJJJJJJJJJJJJJJJJJJJJJJJJJJJJJJJJJJJJJJJJJJJ",
"JJJJJJJJJJJJJJJJJJJJJJJJJJJJJJJJJJJJJJJJJJJJJJJJJJJJJJJJJJJJJJJJ",
"JJJJJJJJJJJJJJJJJJJJJJJJJJJJJJJJJJJJJJJJJJJJJJJJJJJJJJJJJJJJJJJJ",
"JJJJJJJJJJJJJJJJJJJJJJJJJJJJJJJJJJJJJJJJJJJJJJJJJJJJJJJJJJJJJJJJ",
"JJJJJJJJJJJJJJJJJJJJJJJJJJJJJJJJJJJJJJJJJJJJJJJJJJJJJJJJJJJJJJJJ",
"JJJJJJJJJJJJJJJJJJJJJJJJJJJJJJJJJJJJJJJJJJJJJJJJJJJJJJJJJJJJJJJJ",
"JJJJJJJJJJJJJJJJJJJJJJJJJJJJJJJJJJJJJJJJJJJJJJJJJJJJJJJJJJJJJJJJ",
"JJJJJJJJJJJJJJJJJJJJJJJJJJJJJJJJJJJJJJJJJJJJJJJJJJJJJJJJJJJJJJJJ",
"JJJJJJJJJJJJJJJJJJJJJJJJJJJJJJJJJJJJJJJJJJJJJJJJJJJJJJJJJJJJJJJJ",
"JJJJJJJJJJJJJJJJJJJJJJJJJJJJJJJJJJJJJJJJJJJJJJJJJJJJJJJJJJJJJJJJ",
"JJJJJJJJJJJJJJJJJJJJJJJJJJJJJJJJJJJJJJJJJJJJJJJJJJJJJJJJJJJJJJJJ",
"JJJJJJJJJJJJJJJJJJJJJJJJJJJJJJJJJJJJJJJJJJJJJJJJJJJJJJJJJJJJJJJJ"
};
