/* XPM */
static char *result[] = {
/* columns rows colors chars-per-pixel */
"64 64 59 1 ",
"  c #DE9035",
". c #E1932D",
"X c #E09230",
"o c #E39430",
"O c #E69634",
"+ c #E89736",
"@ c #EA9939",
"# c #EB993B",
"$ c #EC993B",
"% c #EE9B3E",
"& c #EE9B3F",
"* c #F19C42",
"= c #F29D43",
"- c #F59F48",
"; c #F6A049",
": c #F7A04A",
"> c #F9A14D",
", c #FBA24F",
"< c #FBA350",
"1 c #FCA351",
"2 c #FFFF5D",
"3 c #FFFF62",
"4 c #FFFF6A",
"5 c #FFFF6B",
"6 c #FFFF6E",
"7 c #FFFF6F",
"8 c #FFFF74",
"9 c #FFFF79",
"0 c #FFFF7A",
"q c #FFFF7C",
"w c #FFFF81",
"e c #FFFF8A",
"r c #FFFF8B",
"t c #FFFF92",
"y c #FFFF93",
"u c #FFFF94",
"i c #FFFF98",
"p c #FFFF9A",
"a c #FFFF9E",
"s c #FFFF9F",
"d c #FFFFA0",
"f c #FFFFA1",
"g c #FFFFA9",
"h c #FFFFB2",
"j c #FFFFB5",
"k c #FFFFB7",
"l c #FFFFD5",
"z c #FFFFDB",
"x c #FFFFDC",
"c c #FFFFDD",
"v c #FFFFE4",
"b c #FFFFE9",
"n c #FFFFEA",
"m c #FFFFEC",
"M c #FFFFED",
"N c #FFFFEE",
"B c ivory",
"V c white",
"C c None",
/* pixels */
"CCCCCCCCCCCCCCCCCCCCCCCCCCCCCCCCCCCCCCCCCCCCCCCCCCCCCCCCCCCCCCCC",
"CCCCCCCCCCCCCCCCCCCCCCCCCCCCCCCCCCCCCCCCCCCCCCCCCCCCCCCCCCCCCCCC",
"CCCCCCCCCCCCCCCCCCCCCCCCCCCCCCCCCCCCCCCCCCCCCCCCCCCCCCCCCCCCCCCC",
"CCCCCCCCCCCCCCCCCCCCCCCCCCCCCCCCCCCCCCCCCCCCCCCCCCCCCCCCCCCCCCCC",
"CCCCCCCCCCCCCCCCCCCCCCCCCCCCCCCCCCCCCCCCCCCCCCCCCCCCCCCCCCCCCCCC",
"CCCCCCCCCCCCCCCCCCCCCCCCCCCCCCCCCCCCCCCCCCCCCCCCCCCCCCCCCCCCCCCC",
"CCCCCCCCCCCCCCCCCCCCCCCCCCCCCCCCCCCCCCCCCCCCCCCCCCCCCCCCCCCCCCCC",
"CCCCCCCCCCCCCCCCCCCCCCCCCCCCCCCCCCCCCCCCCCCCCCCCCCCCCCCCCCCCCCCC",
"CCCCCCCCCCCCCCCCCCCCCCCCCCCCCCCCCCCCCCCCCCCCCCCCCCCCCCCCCCCCCCCC",
"CCCCCCCCCCCCCCCCCCCCCCCCCCCCCCCCCCCCCCCCCCCCCCCCCCCCCCCCCCCCCCCC",
"CCCCCCCCCCCCCCCCCCCCCCCCCCCCCCCCCCCCCCCCCCCCCCCCCCCCCCCCCCCCCCCC",
"CCCCCCCCCCCCCCCCCCCCCCCCCCCCCCCCCCCCCCCCCCCCCCCCCCCCCCCCCCCCCCCC",
"CCCCCCCCCCCCCCCCCCCCCCCCCCCCCCCCCCCCCCCCCCCCCCCCCCCCCCCCCCCCCCCC",
"CCCCCCCCCCCCCCCCCCCCCCCCCCCCCCCCCCCCCCCCCCCCCCCCCCCCCCCCCCCCCCCC",
"CCCCCCCCCCCCCCCCCCCCCCCCCCCCCCCCCCCCCCCCCCCCCCCCCCCCCCCCCCCCCCCC",
"CCCCCCCCCCCCCCCCCCCCCCCCCCCCCCCCCCCCCCCCCCCCCCCCCCCCCCCCCCCCCCCC",
"CCCCCCCCCCCCCCCCCCCCCCCCCCCCCCCCCCCCCCCCCCCCCCCCCCCCCCCCCCCCCCCC",
"CCCCCCCCCCCCCCCCCCCCCCCCCCCCCCCCCCCCCCCCCCCCCCCCCCCCCCCCCCCCCCCC",
"CCCCCCCCCCCCCCCCCCCCCCCCCCCCCCCCCCCCCCCCCCCCCCCCCCCCCCCCCCCCCCCC",
"CCCCCCCCCCCCCCCCCCCCCCCCCCCCCCCCCCCCCCCCCCCCCCCCCCCCCCCCCCCCCCCC",
"CCCCCCCCCCCCCCCCCCCCCCCCCCCCCCCCCCCCCCCCCCCCCC<<CCCCCCCCCCCCCCCC",
"CCCCCCCCCCCCCCCCCCCCCCCCCCCCCCCCCCCCCCCCCCCCC<sCCCCCCCCCCCCCCCCC",
"CCCCCCCCCCCCOCCCCCCCCCCCCCCCCCCCCCCCCCCCCCCCsssBd,CCCCCCCCCCCCCC",
"CCCCCCCCCCCCOOCCCCCCCCCCCCCCCCCCCCCCCCCCCC>mmmVMMCCCCCCCCCCCCCCC",
"CCCCCCCCCCCOOOCCCCCCCCCCCCCCCCCCCCCCCCCCCC>mmVVM>>CCCCCCCCCCCCCC",
"CCCCCCCCCCCOOOCCCCCCCCCCCCCCCCCCCCCCCCCCC;,mmVVMa>CCCCCCCCCCCCCC",
"CCCCCCCCCCCCOOOCCCCCCCCCCCCCCCCCCCCCCCCCC;iBBBNa>>>CCCCCCCCCCCCC",
"CCCCCCCCCCCCOOOCCCCCCCCCCCCCCCCCCCCCCCCCC;iBBffa>>>>CCCCCCCCCCCC",
"CCCCCCCCCCCCCOOCCCCCCC CCCCCCCCCCCCCCCC::ybpff11CCCCCCCCCCCCCCCC",
"CCCCCCCCCCCC++4++++       CCCCCCCCCCCCCCzyvVnf1CCCCCCCCCCCCCCCCC",
"CCCCCCCCCCCCC+++++555  3.CCCCCCCCCCCCCC-tzvyy:CCCCCCCCCCCCCCCCCC",
"CCCCCCCCCCCCCC+++55   3.CCCCCCCCCCCCCC--xVccycCCCCCCCCCCCCCCCCCC",
"CCCCCCCCCCCCCCCCC   C...CCCCCCCCCCCCCC-tlVccccuCCCCCCCCCCCCCCCCC",
"CCCCCCCCCCCCCCCCCCCCX222C66C##CC@C$$C=rrrl:cccu:CCCCCCCCCCCCCCCC",
"CCCCCCCCCCCCCCCCCXXX222Coo999C%@8$$C===rrr::yy::CCCCCCCCCCCCCCCC",
"CCCCCCCCCCCCCCCCXXXX22.Coogkkq%hh9$====rre*CCC:::CCCCCCCCCCCCCCC",
"CCCCCCCCCCCCCCCXXXX22CCCo55kkqjhh99====-ee*CCCCCCCCCCCCCCCCCCCCC",
"CCCCCCCCCCCCCCCCCCC.CCCoo5##%jBhh9w===CCee*CCCCCCCCCCCCCCCCCCCCC",
"CCCCCCCCCCCCCCCCCCCCCCCoo5##%%h8h%=wCCCCee*CCCCCCCCCCCCCCCCCCCCC",
"CCCCCCCCCCCCCCCCCCCCCCooo5##C%h88CCCCCC****CCCCCCCCCCCCCCCCCCCCC",
"CCCCCCCCCCCCCCCCCCCCCC77&00&&Ch8@CCCCC****CCCCCCCCCCCCCCCCCCCCCC",
"CCCCCCCCCCCCCCCCCCC&&&&&&0&&&CC@@CCCCC****CCCCCCCCCCCCCCCCCCCCCC",
"CCCCCCCCCCCCCCCCCCCCC&&&&&&CCCC@CCCCCC***CCCCCCCCCCCCCCCCCCCCCCC",
"CCCCCCCCCCCCCCCCCCCCCCCC&CCCCCCCCCCCC***CCCCCCCCCCCCCCCCCCCCCCCC",
"CCCCCCCCCCCCCCCCCCCCCCCCCCCCCCCCCCCCCCCCCCCCCCCCCCCCCCCCCCCCCCCC",
"CCCCCCCCCCCCCCCCCCCCCCCCCCCCCCCCCCCCCCCCCCCCCCCCCCCCCCCCCCCCCCCC",
"CCCCCCCCCCCCCCCCCCCCCCCCCCCCCCCCCCCCCCCCCCCCCCCCCCCCCCCCCCCCCCCC",
"CCCCCCCCCCCCCCCCCCCCCCCCCCCCCCCCCCCCCCCCCCCCCCCCCCCCCCCCCCCCCCCC",
"CCCCCCCCCCCCCCCCCCCCCCCCCCCCCCCCCCCCCCCCCCCCCCCCCCCCCCCCCCCCCCCC",
"CCCCCCCCCCCCCCCCCCCCCCCCCCCCCCCCCCCCCCCCCCCCCCCCCCCCCCCCCCCCCCCC",
"CCCCCCCCCCCCCCCCCCCCCCCCCCCCCCCCCCCCCCCCCCCCCCCCCCCCCCCCCCCCCCCC",
"CCCCCCCCCCCCCCCCCCCCCCCCCCCCCCCCCCCCCCCCCCCCCCCCCCCCCCCCCCCCCCCC",
"CCCCCCCCCCCCCCCCCCCCCCCCCCCCCCCCCCCCCCCCCCCCCCCCCCCCCCCCCCCCCCCC",
"CCCCCCCCCCCCCCCCCCCCCCCCCCCCCCCCCCCCCCCCCCCCCCCCCCCCCCCCCCCCCCCC",
"CCCCCCCCCCCCCCCCCCCCCCCCCCCCCCCCCCCCCCCCCCCCCCCCCCCCCCCCCCCCCCCC",
"CCCCCCCCCCCCCCCCCCCCCCCCCCCCCCCCCCCCCCCCCCCCCCCCCCCCCCCCCCCCCCCC",
"CCCCCCCCCCCCCCCCCCCCCCCCCCCCCCCCCCCCCCCCCCCCCCCCCCCCCCCCCCCCCCCC",
"CCCCCCCCCCCCCCCCCCCCCCCCCCCCCCCCCCCCCCCCCCCCCCCCCCCCCCCCCCCCCCCC",
"CCCCCCCCCCCCCCCCCCCCCCCCCCCCCCCCCCCCCCCCCCCCCCCCCCCCCCCCCCCCCCCC",
"CCCCCCCCCCCCCCCCCCCCCCCCCCCCCCCCCCCCCCCCCCCCCCCCCCCCCCCCCCCCCCCC",
"CCCCCCCCCCCCCCCCCCCCCCCCCCCCCCCCCCCCCCCCCCCCCCCCCCCCCCCCCCCCCCCC",
"CCCCCCCCCCCCCCCCCCCCCCCCCCCCCCCCCCCCCCCCCCCCCCCCCCCCCCCCCCCCCCCC",
"CCCCCCCCCCCCCCCCCCCCCCCCCCCCCCCCCCCCCCCCCCCCCCCCCCCCCCCCCCCCCCCC",
"CCCCCCCCCCCCCCCCCCCCCCCCCCCCCCCCCCCCCCCCCCCCCCCCCCCCCCCCCCCCCCCC"
};
