/* XPM */
static char *result[] = {
/* columns rows colors chars-per-pixel */
"64 64 42 1 ",
"  c #E79634",
". c #E79635",
"X c #E79735",
"o c #E99838",
"O c #EB993A",
"+ c #EC9A3C",
"@ c #F19D42",
"# c #F19D43",
"$ c #F29D44",
"% c #F39E44",
"& c #F39E45",
"* c #F6A04A",
"= c #F7A04A",
"- c #FAA24E",
"; c #FBA24F",
": c #FCA351",
"> c #FFFF69",
", c #FFFF6A",
"< c #FFFF71",
"1 c #FFFF76",
"2 c #FFFF7C",
"3 c #FFFF86",
"4 c #FFFF87",
"5 c #FFFF88",
"6 c #FFFF89",
"7 c #FFFF8F",
"8 c #FFFF94",
"9 c #FFFF98",
"0 c #FFFF9D",
"q c #FFFF9E",
"w c #FFFFA0",
"e c #FFFFA2",
"r c #FFFFCA",
"t c #FFFFCB",
"y c #FFFFCC",
"u c #FFFFE2",
"i c #FFFFE7",
"p c #FFFFEE",
"a c ivory",
"s c #FFFFF1",
"d c white",
"f c None",
/* pixels */
"ffffffffffffffffffffffffffffffffffffffffffffffffffffffffffffffff",
"ffffffffffffffffffffffffffffffffffffffffffffffffffffffffffffffff",
"ffffffffffffffffffffffffffffffffffffffffffffffffffffffffffffffff",
"ffffffffffffffffffffffffffffffffffffffffffffffffffffffffffffffff",
"ffffffffffffffffffffffffffffffffffffffffffffffffffffffffffffffff",
"ffffffffffffffffffffffffffffffffffffffffffffffffffffffffffffffff",
"ffffffffffffffffffffffffffffffffffffffffffffffffffffffffffffffff",
"ffffffffffffffffffffffffffffffffffffffffffffffffffffffffffffffff",
"ffffffffffffffffffffffffffffffffffffffffffffffffffffffffffffffff",
"ffffffffffffffffffffffffffffffffffffffffffffffffffffffffffffffff",
"ffffffffffffffffffffffffffffffffffffffffffffffffffffffffffffffff",
"ffffffffffffffffffffffffffffffffffffffffffffffffffffffffffffffff",
"ffffffffffffffffffffffffffffffffffffffffffffffffffffffffffffffff",
"ffffffffffffffffffffffffffffffffffffffffffffffffffffffffffffffff",
"ffffffffffffffffffffffffffffffffffffffffffffffffffffffffffffffff",
"ffffffffffffffffffffffffffffffffffffffffffffffffffffffffffffffff",
"ffffffffffffffffffffffffffffffffffffffffffffffffffffffffffffffff",
"ffffffffffffffffffffffffffffffffffffffffffffffffffffffffffffffff",
"ffffffffffffffffffffffffffffffffffffffffffffffffffffffffffffffff",
"ffffffffffffffffffffffffffffffffffffffffffffffffffffffffffffffff",
"ffffffffffffffOfffffffffffffffffffffffffffffffffffffffffffffffff",
"ffffffffffffffOfffffffffffffffffffffffffffffffffffffffffffffffff",
"fffffffffffffOOfffffffffffffffffffffffffffffffffffffffffffffffff",
"fffffffffffffOOOffffffffffffffffffffffffffffffffffffffffffffffff",
"fffffffffffffOOOfffffffffffffffffffffffffff:ffffffffffffffffffff",
"fffffffffffffOOOOffffffffffffffffffffffffff::fffffffffffffffffff",
"ffffffffffffffOOOfffffffffffffffffffffff:::::fffffffffffffffffff",
"ffffffffffffffOO1+++fffffffffffffffffffff:eee:ffffffffffffffffff",
"fffffffffffff+++1++++<.,,ffffffffffffffff:aeee:fffffffffffffffff",
"fffffffffffffff+++++<..,,..ffffffffffffff-aaeeeeffffffffffffffff",
"fffffffffffffffff+f...,,,.ffffffffffffff0-paeeee:fffffffffffffff",
"ffffffffffffffffff..>>q>foffffffffffffff000dssse::ffffffffffffff",
"ffffffffffffffffff>>>>>Xfo2fff@fff#f$ff=iiiiwwsw:fffffffffffffff",
"fffffffffffffffff   >>>Xoo2$$@@ff##$$f==9di0;;wwffffffffffffffff",
"ffffffffffffffff    >>Xfoo233t4&544$$===9uu-;;;;;fffffffffffffff",
"fffffffffffffffff f>XXffoootttt5yyy$====8u9-f;;f;fffffffffffffff",
"fffffffffffffffffffffffoooo@tt65yyy6===8**9-ffffffffffffffffffff",
"fffffffffffffffffffffffooof@3366yyy77==8**9-ffffffffffffffffffff",
"fffffffffffffffffffffff22233rr$44yyf7=f****fffffffffffffffffffff",
"ffffffffffffffffffff%%%22%%335$f44#ffff****fffffffffffffffffffff",
"ffffffffffffffffffffff%%%%33@f$54##fff****ffffffffffffffffffffff",
"fffffffffffffffffffffff%%%ffffff4#ffff***fffffffffffffffffffffff",
"ffffffffffffffffffffffffffffffffffffff*fffffffffffffffffffffffff",
"ffffffffffffffffffffffffffffffffffffffffffffffffffffffffffffffff",
"ffffffffffffffffffffffffffffffffffffffffffffffffffffffffffffffff",
"ffffffffffffffffffffffffffffffffffffffffffffffffffffffffffffffff",
"ffffffffffffffffffffffffffffffffffffffffffffffffffffffffffffffff",
"ffffffffffffffffffffffffffffffffffffffffffffffffffffffffffffffff",
"ffffffffffffffffffffffffffffffffffffffffffffffffffffffffffffffff",
"ffffffffffffffffffffffffffffffffffffffffffffffffffffffffffffffff",
"ffffffffffffffffffffffffffffffffffffffffffffffffffffffffffffffff",
"ffffffffffffffffffffffffffffffffffffffffffffffffffffffffffffffff",
"ffffffffffffffffffffffffffffffffffffffffffffffffffffffffffffffff",
"ffffffffffffffffffffffffffffffffffffffffffffffffffffffffffffffff",
"ffffffffffffffffffffffffffffffffffffffffffffffffffffffffffffffff",
"ffffffffffffffffffffffffffffffffffffffffffffffffffffffffffffffff",
"ffffffffffffffffffffffffffffffffffffffffffffffffffffffffffffffff",
"ffffffffffffffffffffffffffffffffffffffffffffffffffffffffffffffff",
"ffffffffffffffffffffffffffffffffffffffffffffffffffffffffffffffff",
"ffffffffffffffffffffffffffffffffffffffffffffffffffffffffffffffff",
"ffffffffffffffffffffffffffffffffffffffffffffffffffffffffffffffff",
"ffffffffffffffffffffffffffffffffffffffffffffffffffffffffffffffff",
"ffffffffffffffffffffffffffffffffffffffffffffffffffffffffffffffff",
"ffffffffffffffffffffffffffffffffffffffffffffffffffffffffffffffff"
};
