/* XPM */
static char *result[] = {
/* columns rows colors chars-per-pixel */
"64 64 22 1 ",
"  c #F39E45",
". c #F49E46",
"X c #F59F47",
"o c #F69F49",
"O c #FBA24F",
"+ c #FBA34F",
"@ c #FCA351",
"# c #FDA452",
"$ c #FFFF8A",
"% c #FFFF8C",
"& c #FFFF8D",
"* c #FFFF90",
"= c #FFFF98",
"- c #FFFF9E",
"; c #FFFFA0",
": c #FFFFA3",
"> c #FFFFD1",
", c #FFFFD5",
"< c ivory",
"1 c #FFFFF2",
"2 c white",
"3 c None",
/* pixels */
"3333333333333333333333333333333333333333333333333333333333333333",
"3333333333333333333333333333333333333333333333333333333333333333",
"3333333333333333333333333333333333333333333333333333333333333333",
"3333333333333333333333333333333333333333333333333333333333333333",
"3333333333333333333333333333333333333333333333333333333333333333",
"3333333333333333333333333333333333333333333333333333333333333333",
"3333333333333333333333333333333333333333333333333333333333333333",
"3333333333333333333333333333333333333333333333333333333333333333",
"3333333333333333333333333333333333333333333333333333333333333333",
"3333333333333333333333333333333333333333333333333333333333333333",
"3333333333333333333333333333333333333333333333333333333333333333",
"3333333333333333333333333333333333333333333333333333333333333333",
"3333333333333333333333333333333333333333333333333333333333333333",
"3333333333333333333333333333333333333333333333333333333333333333",
"3333333333333333333333333333333333333333333333333333333333333333",
"3333333333333333333333333333333333333333333333333333333333333333",
"3333333333333333333333333333333333333333333333333333333333333333",
"3333333333333333333333333333333333333333333333333333333333333333",
"3333333333333333333333333333333333333333333333333333333333333333",
"3333333333333333333333333333333333333333333333333333333333333333",
"3333333333333333333333.33333333333333333333333333333333333333333",
"333333333333333333333...3333333333333333333333333333333333333333",
"3333333333333333333333...333333333333333333333333333333333333333",
"333333333333333333333....333333333333333333333333333333333333333",
"333333333333333333333....333333333333333333333333333333333333333",
"333333333333333333333..&..X3333333333333333333333333333333333333",
"33333333333333333333XX&&&&XXXX3333333333333333333333333333333333",
"333333333333333333333XX&&&XXX% 333333333333333333333333333333333",
"3333333333333333333333XX&&XX  3333333333333333333333333333333333",
"333333333333333333333333333$$>>333333333333333333333333333333333",
"33333333333333333333333333 $>>%*XXX33333333333333333333333333333",
"333333333333333333333333  >>>>**X3333333333333333333333333333333",
"33333333333333333333333   >>>,**o3333333333333333333333333333333",
"3333333333333333333333   >>>%*o==33333@@333333333333333333333333",
"3333333333333333333333333>%% oo==OO3@@@@333333333333333333333333",
"3333333333333333333333333 33ooo=OOO;@:@@333333333333333333333333",
"3333333333333333333333333333oo==-<<22:::#33333333333333333333333",
"333333333333333333333333333+====+<<22::###3333333333333333333333",
"333333333333333333333333333+==+++-<21::###3333333333333333333333",
"3333333333333333333333333333o+++++;;1@:#####33333333333333333333",
"33333333333333333333333333333333+33;;@33333333333333333333333333",
"33333333333333333333333333333333333@;333333333333333333333333333",
"333333333333333333333333333333333333@333333333333333333333333333",
"3333333333333333333333333333333333333333333333333333333333333333",
"3333333333333333333333333333333333333333333333333333333333333333",
"3333333333333333333333333333333333333333333333333333333333333333",
"3333333333333333333333333333333333333333333333333333333333333333",
"3333333333333333333333333333333333333333333333333333333333333333",
"3333333333333333333333333333333333333333333333333333333333333333",
"3333333333333333333333333333333333333333333333333333333333333333",
"3333333333333333333333333333333333333333333333333333333333333333",
"3333333333333333333333333333333333333333333333333333333333333333",
"3333333333333333333333333333333333333333333333333333333333333333",
"3333333333333333333333333333333333333333333333333333333333333333",
"3333333333333333333333333333333333333333333333333333333333333333",
"3333333333333333333333333333333333333333333333333333333333333333",
"3333333333333333333333333333333333333333333333333333333333333333",
"3333333333333333333333333333333333333333333333333333333333333333",
"3333333333333333333333333333333333333333333333333333333333333333",
"3333333333333333333333333333333333333333333333333333333333333333",
"3333333333333333333333333333333333333333333333333333333333333333",
"3333333333333333333333333333333333333333333333333333333333333333",
"3333333333333333333333333333333333333333333333333333333333333333",
"3333333333333333333333333333333333333333333333333333333333333333"
};
