/* XPM */
static char *result[] = {
/* columns rows colors chars-per-pixel */
"64 64 48 1 ",
"  c #E39430",
". c #E49530",
"X c #E49531",
"o c #E69634",
"O c #E89737",
"+ c #EA9939",
"@ c #EE9B3E",
"# c #EE9B3F",
"$ c #EF9B40",
"% c #F09C41",
"& c #F09C42",
"* c #F49E46",
"= c #F49F47",
"- c #F8A14B",
"; c #F9A14D",
": c #F9A24E",
"> c #FCA351",
", c #FDA452",
"< c #FFFF61",
"1 c #FFFF69",
"2 c #FFFF70",
"3 c #FFFF73",
"4 c #FFFF75",
"5 c #FFFF76",
"6 c #FFFF7E",
"7 c #FFFF80",
"8 c #FFFF81",
"9 c #FFFF82",
"0 c #FFFF83",
"q c #FFFF89",
"w c #FFFF91",
"e c #FFFF92",
"r c #FFFF98",
"t c #FFFF99",
"y c #FFFF9A",
"u c #FFFF9B",
"i c #FFFF9F",
"p c #FFFFA3",
"a c #FFFFBF",
"s c #FFFFC0",
"d c #FFFFC2",
"f c #FFFFD8",
"g c #FFFFDF",
"h c #FFFFE6",
"j c #FFFFE8",
"k c ivory",
"l c white",
"z c None",
/* pixels */
"zzzzzzzzzzzzzzzzzzzzzzzzzzzzzzzzzzzzzzzzzzzzzzzzzzzzzzzzzzzzzzzz",
"zzzzzzzzzzzzzzzzzzzzzzzzzzzzzzzzzzzzzzzzzzzzzzzzzzzzzzzzzzzzzzzz",
"zzzzzzzzzzzzzzzzzzzzzzzzzzzzzzzzzzzzzzzzzzzzzzzzzzzzzzzzzzzzzzzz",
"zzzzzzzzzzzzzzzzzzzzzzzzzzzzzzzzzzzzzzzzzzzzzzzzzzzzzzzzzzzzzzzz",
"zzzzzzzzzzzzzzzzzzzzzzzzzzzzzzzzzzzzzzzzzzzzzzzzzzzzzzzzzzzzzzzz",
"zzzzzzzzzzzzzzzzzzzzzzzzzzzzzzzzzzzzzzzzzzzzzzzzzzzzzzzzzzzzzzzz",
"zzzzzzzzzzzzzzzzzzzzzzzzzzzzzzzzzzzzzzzzzzzzzzzzzzzzzzzzzzzzzzzz",
"zzzzzzzzzzzzzzzzzzzzzzzzzzzzzzzzzzzzzzzzzzzzzzzzzzzzzzzzzzzzzzzz",
"zzzzzzzzzzzzzzzzzzzzzzzzzzzzzzzzzzzzzzzzzzzzzzzzzzzzzzzzzzzzzzzz",
"zzzzzzzzzzzzzzzzzzzzzzzzzzzzzzzzzzzzzzzzzzzzzzzzzzzzzzzzzzzzzzzz",
"zzzzzzzzzzzzzzzzzzzzzzzzzzzzzzzzzzzzzzzzzzzzzzzzzzzzzzzzzzzzzzzz",
"zzzzzzzzzzzzzzzzzzzzzzzzzzzzzzzzzzzzzzzzzzzzzzzzzzzzzzzzzzzzzzzz",
"zzzzzzzzzzzzzzzzzzzzzzzzzzzzzzzzzzzzzzzzzzzzzzzzzzzzzzzzzzzzzzzz",
"zzzzzzzzzzzzzzzzzzzzzzzzzzzzzzzzzzzzzzzzzzzzzzzzzzzzzzzzzzzzzzzz",
"zzzzzzzzzzzzzzzzzzzzzzzzzzzzzzzzzzzzzzzzzzzzzzzzzzzzzzzzzzzzzzzz",
"zzzzzzzzzzzzzzzzzzzzzzzzzzzzzzzzzzzzzzzzzzzzzzzzzzzzzzzzzzzzzzzz",
"zzzzzzzzzzzzzzzzzzzzzzzzzzzzzzzzzzzzzzzzzzzzzzzzzzzzzzzzzzzzzzzz",
"zzzzzzzzzzzzzzzzzzzzzzzzzzzzzzzzzzzzzzzzzzzzzzzzzzzzzzzzzzzzzzzz",
"zzzzzzzzzzzzzzzzzzzzzzzzzzzzzzzzzzzzzzzzzzzzzzzzzzzzzzzzzzzzzzzz",
"zzzzzzzzzzzzzzzzzzzzzzzzzzzzzzzzzzzzzzzzzzzzzzzzzzzzzzzzzzzzzzzz",
"zzzzzzzzzzzzzzzzzzzzzzzzzzzzzzzzzzzzzzzzzzzzzzzzzzzzzzzzzzzzzzzz",
"zzzzzzzzzzzzzOzzzzzzzzzzzzzzzzzzzzzzzzzzzzzzzz,,,,,zzzzzzzzzzzzz",
"zzzzzzzzzzzzzOOzzzzzzzzzzzzzzzzzzzzzzzzzzzz>zpppp,,zzzzzzzzzzzzz",
"zzzzzzzzzzzzzOOOzzzzzzzzzzzzzzzzzzzzzzzzzz>>ppppppzzzzzzzzzzzzzz",
"zzzzzzzzzzzzzOOOzzzzzzzzzzzzzzzzzzzzzzzzzz;kpppppp>zzzzzzzzzzzzz",
"zzzzzzzzzzzzzOOOzzzzzzzzzzzzzzzzzzzzzzzzzzz;ippp>>>zzzzzzzzzzzzz",
"zzzzzzzzzzzzzOOOOzzzzzzzzzzzzzzzzzzzzzzzz:;ii,,>>>>zzzzzzzzzzzzz",
"zzzzzzzzzzzzzzOOOzzzzzzzzzzzzzzzzzzzzzzzz:uii;zzzzzzzzzzzzzzzzzz",
"zzzzzzzzzzzzz++22++++1  <  zzzzzzzzzzzzzzthuu;zzzzzzzzzzzzzzzzzz",
"zzzzzzzzzzzzzz++++++11 << zzzzzzzzzzzzzzz-huuuuzzzzzzzzzzzzzzzzz",
"zzzzzzzzzzzzzzzz+++   <<Xzzzzzzzzzzzzzzzr-hjjuu:zzzzzzzzzzzzzzzz",
"zzzzzzzzzzzzzzzzzz    <<Xzzzzzzzzzzzzzzzrrhljjj::zzzzzzzzzzzzzzz",
"zzzzzzzzzzzzzzzzzz z.<<<Xo4%zz#zz@zz$z=eegggjjjj:zzzzzzzzzzzzzzz",
"zzzzzzzzzzzzzzzzzz...<<<zo4%7#zz@6$$$z==eeg;;;yy;zzzzzzzzzzzzzzz",
"zzzzzzzzzzzzzzzzz...<<<Xooo7dd&&ss6$$===efwwz;;;;zzzzzzzzzzzzzzz",
"zzzzzzzzzzzzzzzz.z..<Xzzoo3dddd7sss$====eww-zzzz;zzzzzzzzzzzzzzz",
"zzzzzzzzzzzzzzzzzzzzXzzzoo3#7d0lsss9====*wwwzzzzzzzzzzzzzzzzzzzz",
"zzzzzzzzzzzzzzzzzzzzzzzzoo3#7%%ass9qq=zz*wwzzzzzzzzzzzzzzzzzzzzz",
"zzzzzzzzzzzzzzzzzzzzzzzooo8880%a666zzzz****zzzzzzzzzzzzzzzzzzzzz",
"zzzzzzzzzzzzzzzzzzzz&z&55&&88&%a66@zzzz****zzzzzzzzzzzzzzzzzzzzz",
"zzzzzzzzzzzzzzzzzzzz&&&&&&88zzz$6@zzzz*****zzzzzzzzzzzzzzzzzzzzz",
"zzzzzzzzzzzzzzzzzzzzzzz&&&&zzzzz@@zzzzz***zzzzzzzzzzzzzzzzzzzzzz",
"zzzzzzzzzzzzzzzzzzzzzzzzzzzzzzzzzzzzzz*zzzzzzzzzzzzzzzzzzzzzzzzz",
"zzzzzzzzzzzzzzzzzzzzzzzzzzzzzzzzzzzzzzzzzzzzzzzzzzzzzzzzzzzzzzzz",
"zzzzzzzzzzzzzzzzzzzzzzzzzzzzzzzzzzzzzzzzzzzzzzzzzzzzzzzzzzzzzzzz",
"zzzzzzzzzzzzzzzzzzzzzzzzzzzzzzzzzzzzzzzzzzzzzzzzzzzzzzzzzzzzzzzz",
"zzzzzzzzzzzzzzzzzzzzzzzzzzzzzzzzzzzzzzzzzzzzzzzzzzzzzzzzzzzzzzzz",
"zzzzzzzzzzzzzzzzzzzzzzzzzzzzzzzzzzzzzzzzzzzzzzzzzzzzzzzzzzzzzzzz",
"zzzzzzzzzzzzzzzzzzzzzzzzzzzzzzzzzzzzzzzzzzzzzzzzzzzzzzzzzzzzzzzz",
"zzzzzzzzzzzzzzzzzzzzzzzzzzzzzzzzzzzzzzzzzzzzzzzzzzzzzzzzzzzzzzzz",
"zzzzzzzzzzzzzzzzzzzzzzzzzzzzzzzzzzzzzzzzzzzzzzzzzzzzzzzzzzzzzzzz",
"zzzzzzzzzzzzzzzzzzzzzzzzzzzzzzzzzzzzzzzzzzzzzzzzzzzzzzzzzzzzzzzz",
"zzzzzzzzzzzzzzzzzzzzzzzzzzzzzzzzzzzzzzzzzzzzzzzzzzzzzzzzzzzzzzzz",
"zzzzzzzzzzzzzzzzzzzzzzzzzzzzzzzzzzzzzzzzzzzzzzzzzzzzzzzzzzzzzzzz",
"zzzzzzzzzzzzzzzzzzzzzzzzzzzzzzzzzzzzzzzzzzzzzzzzzzzzzzzzzzzzzzzz",
"zzzzzzzzzzzzzzzzzzzzzzzzzzzzzzzzzzzzzzzzzzzzzzzzzzzzzzzzzzzzzzzz",
"zzzzzzzzzzzzzzzzzzzzzzzzzzzzzzzzzzzzzzzzzzzzzzzzzzzzzzzzzzzzzzzz",
"zzzzzzzzzzzzzzzzzzzzzzzzzzzzzzzzzzzzzzzzzzzzzzzzzzzzzzzzzzzzzzzz",
"zzzzzzzzzzzzzzzzzzzzzzzzzzzzzzzzzzzzzzzzzzzzzzzzzzzzzzzzzzzzzzzz",
"zzzzzzzzzzzzzzzzzzzzzzzzzzzzzzzzzzzzzzzzzzzzzzzzzzzzzzzzzzzzzzzz",
"zzzzzzzzzzzzzzzzzzzzzzzzzzzzzzzzzzzzzzzzzzzzzzzzzzzzzzzzzzzzzzzz",
"zzzzzzzzzzzzzzzzzzzzzzzzzzzzzzzzzzzzzzzzzzzzzzzzzzzzzzzzzzzzzzzz",
"zzzzzzzzzzzzzzzzzzzzzzzzzzzzzzzzzzzzzzzzzzzzzzzzzzzzzzzzzzzzzzzz",
"zzzzzzzzzzzzzzzzzzzzzzzzzzzzzzzzzzzzzzzzzzzzzzzzzzzzzzzzzzzzzzzz"
};
