/* XPM */
static char *result[] = {
/* columns rows colors chars-per-pixel */
"64 64 66 1 ",
"  c #CB7573",
". c #DE8F36",
"X c #DC8D3B",
"o c #DF9033",
"O c #E49531",
"+ c #E59532",
"@ c #E59533",
"# c #E69634",
"$ c #E79735",
"% c #EA9839",
"& c #EB993B",
"* c #EC993B",
"= c #ED9A3D",
"- c #EE9B3F",
"; c #D7864C",
": c #D8874A",
"> c #F09C41",
", c #F29D43",
"< c #F59F47",
"1 c #F7A04A",
"2 c #F8A14C",
"3 c #FDA452",
"4 c #FFFF63",
"5 c #FFFF65",
"6 c #FFFF66",
"7 c #FFFF6C",
"8 c #FFFF6D",
"9 c #FFFF70",
"0 c #FFFF74",
"q c #FFFF78",
"w c #FFFF7A",
"e c #FFFF7E",
"r c #C66F81",
"t c #C56D85",
"y c #C06695",
"u c #FFFF80",
"i c #FFFF82",
"p c #FFFF87",
"a c #FFFF88",
"s c #FFFF8B",
"d c #FFFF8D",
"f c #FFFF93",
"g c #FFFF94",
"h c #FFFF96",
"j c #FFFF99",
"k c #FFFFA2",
"l c #FFFFA6",
"z c #FFFFA9",
"x c #FFFFAB",
"c c #FFFFAF",
"v c #FFFFB3",
"b c #FFFFB8",
"n c #FFFFB9",
"m c #FFFFBB",
"M c #FFFFC8",
"N c #FFFFCA",
"B c #FFFFD7",
"V c #FFDCFF",
"C c LightYellow",
"Z c #FFFFE3",
"A c #FFFFE4",
"S c #FFFFEA",
"D c #FFFFEE",
"F c #FFFFEF",
"G c white",
"H c None",
/* pixels */
"HHHHHHHHHHHHHHHHHHHHHHHHHHHHHHHHHHHHHHHHHHHHHHHHHHHHHHHHHHHHHHHH",
"HHHHHHHHHHHHHHHHHHHHHHHHHHHHHHHHHHHHHHHHHHHHHHHHHHHHHHHHHHHHHHHH",
"HHHHHHHHHHHHHHHHHHHHHHHHHHHHHHHHHHHHHHHHHHHHHHHHHHHHHHHHHHHHHHHH",
"HHHHHHHHHHHHHHHHHHHHHHHHHHHHHHHHHHHHHHHHHHHHHHHHHHHHHHHHHHHHHHHH",
"HHHHHHHHHHHHHHHHHHHHHHHHHHHHHHHHHHHHHHHHHHHHHHHHHHHHHHHHHHHHHHHH",
"HHHHHHHHHHHHHHHHHHHHHHHHHHHHHHHHHHHHHHHHHHHHHHHHHHHHHHHHHHHHHHHH",
"HHHHHHHHHHHHHHHHHHHHHHHHHHHHHHHHHHHHHHHHHHHHHHHHHHHHHHHHHHHHHHHH",
"HHHHHHHHHHHHHHHHHHHHHHHHHHHHHHHHHHHHHHHHHHHHHHHHHHHHHHHHHHHHHHHH",
"HHHHHHHHHHHHHHHHHHHHHHHHHHHHHHHHHHHHHHHHHHHHHHHHHHHHHHHHHHHHHHHH",
"HHHHHHHHHHHHHHHHHHHHHHHHHHHHHHHHHHHHHHHHHHHHHHHHHHHHHHHHHHHHHHHH",
"HHHHHHHHHHHHHHHHHHHHHHHHHHHHHHHHHHHHHHHHHHHHHHHHHHHHHHHHHHHHHHHH",
"HHHHHHHHHHHHHHHHHHHHHHHHHHHHHHHHHHHHHHHHHHHHHHHHHHHHHHHHHHHHHHHH",
"HHHHHHHHHHHHHHHHHHHHHHHHHHHHHHHHHHHHHHHHHHHHHHHHHHHHHHHHHHHHHHHH",
"HHHHHHHHHHHHHHHHHHHHHHHHHHHHHHHHHH3kkHHHHHHHHHHHHHHHHHHHHHHHHHHH",
"HHHHHHHHHHHHHHHHHHHHHHHHHHHHHHHHHHkkHHHHHHHHHHHHHHHHHHHHHHHHHHHH",
"HHHHHHHHHHHHHHHHHHHHHHHHHHHHHHHHHHkFFFHH222HHHHHHHHHHHHHHHHHHHHH",
"HHHHHHHHHHHHHHHHHHHHHHHHHHHHHHHHHHkFFFj22222HHHHHHHHHHHHHHHHHHHH",
"HHHHHHHHHHHHHHHHHHHHHHHHHHHHHHHHHHkFFGj2222222HHHHHHHHHHHHHHHHHH",
"HHHHHHHHHHHHHHHHHHHHHHHHHHHHHHHHHHkGGGjj222fH<HHHHHHHHHHHHHHHHHH",
"HHHHHHHHHHHHHHHHHHHHHHHHHHHHHHHHHHkDGGjjg<f<<<<HHHHHHHHHHHHHHHHH",
"HHHHHHHHHHHHHHHHHHHHHHHHHHHHHHHHHHkkFGjCgg<<<<<a<HHHHHHHHHHHHHHH",
"HHHHHHHHHHHHHHHHHHHHHHHHHHHHHHHHHHkkkHjjCCf<aaa<<<HHHHHHHHHHHHHH",
"HHHHHHHHHHHHHHHHHHHHHHHHHHHHHHHHHHkkHH222Z2dda><HHHHHHHHHHHHHHHH",
"HHHHHHHHHHHHHHHHHHHHHHHHHHHHHHHHHHHHHHH22hhddd>HHHHHHHHHHHHHHHHH",
"HHHHHHHHHHHHHHHHHHHHHHHHHHHHHHHHHHHHHHHH2hBBdddHHHHHHHHHHHHHHHHH",
"HHHHHHHHHHHHHHHHHHHHHHHHHHHHHHHHHHHHHHHHH1sBseu,,,HHHHHHHHHHHHHH",
"HHHHHHHHHHHHHHHHHHHHHHHHHHHHHHHHHHHHHHHHH1ssMGu,,,HHHHHHHHHHHHHH",
"HHHHHHHHHHHH:HHHHHHHHHHHHHHHHHHHHHHHHHHHH1sMGGGuu==HHHHHHHHHHHHH",
"HHHHHHHHHHHH:HHHHHHHHHHHHHHHHHHHHHHHHHHHHHeGNGGu====HHHHHHHHHHHH",
"HHHHHHHHHHHH::HHHHHHHHHHHHHHHHHHHHHHHHHHHHHuNNpp=uu=HHHHHHHHHHHH",
"HHHHHHHHHHH:::HHHHHHHHHHHHHHHHHHHHHHHHHHHH,uu=1H,uu==HHHHHHHHHHH",
"HHHHHHHHHHHH::HHHHHHHHHHHHHHHHHHHHHHHHHHH%u===H,,,,H=HHHHHHHHHHH",
"HHHHHHHHHHHH::HHHHHHHHyHHHHHHHHHHHHHHHHHH%%==H,,,,HHHHHHHHHHHHHH",
"HHHHHHHHHHHHH::HHHHHyyyyyyHHHHHHHHHHHHHH%%%==,,,,,HHHHHHHHHHHHHH",
"HHHHHHHHHHHHHH:HHHHyyyyyHHHHHHHHHHHHHHH*0%%%H,,,,,HHHHHHHHHHHHHH",
"HHHHHHHHHHHHHHHHHHyyyyHHHHHHHHHHHHHHHHH&c0vq-ii,,HHHHHHHHHHHHHHH",
"HHHHHHHHHHHHHH.......HHHHrHHHHHHHHHHHH&&Azvvm----HHHHHHHHHHHHHHH",
"HHHHHHHHHHHHHHH.....HHHHrrHHoHHHHHXHH$99xz00vw---HHHHHHHHHHHHHHH",
"HHHHHHHHHHHHHHHHHHHHHHHrrrHo5+H;XXXH$$999*000*w---HHHHHHHHHHHHHH",
"HHHHHHHHHHHHHHHHHHHHHHHVVroll44b777$$$99&&H00**HH-HHHHHHHHHHHHHH",
"HHHHHHHHHHHHHHHHHHHHttVVroolo+cS77OO$$$&&HHHHHHHHHHHHHHHHHHHHHHH",
"HHHHHHHHHHHHHHHHHHttttVrHoll +nnnOO66H&&&HHHHHHHHHHHHHHHHHHHHHHH",
"HHHHHHHHHHHHHHHHHttttVrHHollH;nn8HHHHHH&&HH@@HHHHHHHHHHHHHHHHHHH",
"HHHHHHHHHHHHHHHHHHHHHHHHHll H;pn+HHHHHHHHH@@@HHHHHHHHHHHHHHHHHHH",
"HHHHHHHHHHHHHHHHHHHHHHHHHll HHpe+HHHHHHHHH@@@HHHHHHHHHHHHHHHHHHH",
"HHHHHHHHHHHHHHHHHHHHHHHHHl HHH;;+HHHHHHHH@@@@HHHHHHHHHHHHHHHHHHH",
"HHHHHHHHHHHHHHHHHHHHHHHHH HHHH;;HHHHHHHHH@@@@HHHHHHHHHHHHHHHHHHH",
"HHHHHHHHHHHHHHHHHHHHH########HHHHHHHHHHH@@@@HHHHHHHHHHHHHHHHHHHH",
"HHHHHHHHHHHHHHHHHHHHHH######HHHHHHHHHHHH@@HHHHHHHHHHHHHHHHHHHHHH",
"HHHHHHHHHHHHHHHHHHHHHHHH#HHHHHHHHHHHHHHH@HHHHHHHHHHHHHHHHHHHHHHH",
"HHHHHHHHHHHHHHHHHHHHHHHHHHHHHHHHHHHHHHHHHHHHHHHHHHHHHHHHHHHHHHHH",
"HHHHHHHHHHHHHHHHHHHHHHHHHHHHHHHHHHHHHHHHHHHHHHHHHHHHHHHHHHHHHHHH",
"HHHHHHHHHHHHHHHHHHHHHHHHHHHHHHHHHHHHHHHHHHHHHHHHHHHHHHHHHHHHHHHH",
"HHHHHHHHHHHHHHHHHHHHHHHHHHHHHHHHHHHHHHHHHHHHHHHHHHHHHHHHHHHHHHHH",
"HHHHHHHHHHHHHHHHHHHHHHHHHHHHHHHHHHHHHHHHHHHHHHHHHHHHHHHHHHHHHHHH",
"HHHHHHHHHHHHHHHHHHHHHHHHHHHHHHHHHHHHHHHHHHHHHHHHHHHHHHHHHHHHHHHH",
"HHHHHHHHHHHHHHHHHHHHHHHHHHHHHHHHHHHHHHHHHHHHHHHHHHHHHHHHHHHHHHHH",
"HHHHHHHHHHHHHHHHHHHHHHHHHHHHHHHHHHHHHHHHHHHHHHHHHHHHHHHHHHHHHHHH",
"HHHHHHHHHHHHHHHHHHHHHHHHHHHHHHHHHHHHHHHHHHHHHHHHHHHHHHHHHHHHHHHH",
"HHHHHHHHHHHHHHHHHHHHHHHHHHHHHHHHHHHHHHHHHHHHHHHHHHHHHHHHHHHHHHHH",
"HHHHHHHHHHHHHHHHHHHHHHHHHHHHHHHHHHHHHHHHHHHHHHHHHHHHHHHHHHHHHHHH",
"HHHHHHHHHHHHHHHHHHHHHHHHHHHHHHHHHHHHHHHHHHHHHHHHHHHHHHHHHHHHHHHH",
"HHHHHHHHHHHHHHHHHHHHHHHHHHHHHHHHHHHHHHHHHHHHHHHHHHHHHHHHHHHHHHHH",
"HHHHHHHHHHHHHHHHHHHHHHHHHHHHHHHHHHHHHHHHHHHHHHHHHHHHHHHHHHHHHHHH"
};
