/* XPM */
static char *result[] = {
/* columns rows colors chars-per-pixel */
"64 64 58 1 ",
"  c #DF9133",
". c #E49531",
"X c #E69634",
"o c #E79735",
"O c #E99837",
"+ c #EC993B",
"@ c #EC9A3C",
"# c #EE9B3E",
"$ c #DA8A42",
"% c #D98846",
"& c #D7854D",
"* c #EF9B40",
"= c #F39E45",
"- c #F49E46",
"; c #F59F47",
": c #F69F49",
"> c #F8A14C",
", c #FAA24E",
"< c #FBA350",
"1 c #FDA452",
"2 c #FFFF6A",
"3 c #FFFF6C",
"4 c #FFFF6E",
"5 c #FFFF70",
"6 c #FFFF72",
"7 c #FFFF73",
"8 c #FFFF76",
"9 c #FFFF7B",
"0 c #FFFF81",
"q c #FFFF83",
"w c #FFFF85",
"e c #FFFF88",
"r c #FFFF8B",
"t c #FFFF8C",
"y c #FFFF8D",
"u c #FFFF91",
"i c #FFFF97",
"p c #FFFF98",
"a c #FFFF99",
"s c #FFFF9A",
"d c #FFFF9C",
"f c #FFFFA2",
"g c #FFFFA5",
"h c #FFFFA7",
"j c #FFFFAB",
"k c #FFFFAD",
"l c #FFFFD0",
"z c #FFFFD2",
"x c #FFFFD9",
"c c #FFFFDF",
"v c #FFFFE1",
"b c #FFFFE2",
"n c #FFFFE3",
"m c #FFFFE6",
"M c #FFFFEA",
"N c #FFFFEE",
"B c white",
"V c None",
/* pixels */
"VVVVVVVVVVVVVVVVVVVVVVVVVVVVVVVVVVVVVVVVVVVVVVVVVVVVVVVVVVVVVVVV",
"VVVVVVVVVVVVVVVVVVVVVVVVVVVVVVVVVVVVVVVVVVVVVVVVVVVVVVVVVVVVVVVV",
"VVVVVVVVVVVVVVVVVVVVVVVVVVVVVVVVVVVVVVVVVVVVVVVVVVVVVVVVVVVVVVVV",
"VVVVVVVVVVVVVVVVVVVVVVVVVVVVVVVVVVVVVVVVVVVVVVVVVVVVVVVVVVVVVVVV",
"VVVVVVVVVVVVVVVVVVVVVVVVVVVVVVVVVVVVVVVVVVVVVVVVVVVVVVVVVVVVVVVV",
"VVVVVVVVVVVVVVVVVVVVVVVVVVVVVVVVVVVVVVVVVVVVVVVVVVVVVVVVVVVVVVVV",
"VVVVVVVVVVVVVVVVVVVVVVVVVVVVVVVVVVVVVVVVVVVVVVVVVVVVVVVVVVVVVVVV",
"VVVVVVVVVVVVVVVVVVVVVVVVVVVVVVVVVVVVVVVVVVVVVVVVVVVVVVVVVVVVVVVV",
"VVVVVVVVVVVVVVVVVVVVVVVVVVVVVVVVVVVVVVVVVVVVVVVVVVVVVVVVVVVVVVVV",
"VVVVVVVVVVVVVVVVVVVVVVVVVVVVVVVVVVVVVVVVVVVVVVVVVVVVVVVVVVVVVVVV",
"VVVVVVVVVVVVVVVVVVVVVVVVVVVVVVVVVVVVVVVVVVVVVVVVVVVVVVVVVVVVVVVV",
"VVVVVVVVVVVVVVVVVVVVVVVVVVVVVVVVVVVVVVVVVVVVVVVVVVVVVVVVVVVVVVVV",
"VVVVVVVVVVVVVVVVVVVVVVVVVVVVVVVVVVVVVVVVVVVVVVVVVVVVVVVVVVVVVVVV",
"VVVVVVVVVVVVVVVVVVVVVVVVVVVVVVVVVVVVVVVVVVVVVVVVVVVVVVVVVVVVVVVV",
"VVVVVVVVVVVVVVVVVVVVVVVVVVVVVVVVVVVVVVVVVVVVVVVVVVVVVVVVVVVVVVVV",
"VVVVVVVVVVVVVVVVVVVVVVVVVVVVVVVVVVVVVVVVVVVVVVVVVVVVVVVVVVVVVVVV",
"VVVVVVVVVVVVVVVVVVVVVVVVVVVVVVVVVVVVVVVVVVVVVVVVVVVVVVVVVVVVVVVV",
"VVVVVVVVVVVVVVVVVVVVVVVVVVVVVVVVVVVVVVVVVVVVVVVVVVVVVVVVVVVVVVVV",
"VVVVVVVVVVVVVVVVVVVVVVVVVVVVVVVVVVVVVVVVV1VVV<<<VVVVVVVVVVVVVVVV",
"VVVVVVVVVVVVVVVVVVVVVVVVVVVVVVVVVVVVVVVVV11V<<<VVVVVVVVVVVVVVVVV",
"VVVVVVVVVVVVVVVVVVVVVVVVVVVVVVVVVVVVVVVV111ff<<<VVVVVVVVVVVVVVVV",
"VVVVVVVVVVVVVVVVVVVVVVVVVVVVVVVVVVVVVVVVV11ff<<VVVVVVVVVVVVVVVVV",
"VVVVVVVVVVVVVVVVVVVVVVVVVVVVVVVVVVVVVVVVV1ffffdVVVVVVVVVVVVVVVVV",
"VVVVVVVVVVVVVVVVVVVVVVVVVVVVVVVVVVVVVVVVV1ffNBM>V>VVVVVVVVVVVVVV",
"VVVVVVVVVVVV.VVVVVVVVVVVVVVVVVVVVVVVVVVVVVfBBBB>>>VVVVVVVVVVVVVV",
"VVVVVVVVVVV..VVVVVVVVVVVVVVVVVVVVVVVVVVVVVaBBBBBnVVVVVVVVVVVVVVV",
"VVVVVVVVVVV...VVVVVVVVVVVVVVVVVVVVVVVVVVVVdBBvBBi:VVVVVVVVVVVVVV",
"VVVVVVVVVVV...VVVVVVVVVVVVVVVVVVVVVVVVVVVVppvBiii::VVVVVVVVVVVVV",
"VVVVVVVVVVV....VVVVVVVVVVVVVVVVVVVVVVVVVVu>pmmsii::VVVVVVVVVVVVV",
"VVVVVVVVVVVV...VVVVVVVVVVVVVVVVVVVVVVVVV==umss,,V:::VVVVVVVVVVVV",
"VVVVVVVVVVVVV..VVVVV&&&&VVVVVVVVVVVVVVV-===css,,VVVVVVVVVVVVVVVV",
"VVVVVVVVVVVVVV.XVVV&&&&&&VVVVVVVVVVVVVV-lrrcs,,VVVVVVVVVVVVVVVVV",
"VVVVVVVVVVVVXXXXXX000&&$VVVVVVVVVVVVVVVrlrBx,VVVVVVVVVVVVVVVVVVV",
"VVVVVVVVVVVVVVXXX00&&V$$VVVVVVVVVVVVVV==zzzzzyVVVVVVVVVVVVVVVVVV",
"VVVVVVVVVVVVVVVVX&VVVV$$$VVVVVVVVVVVVVwwBBzzzyyVVVVVVVVVVVVVVVVV",
"VVVVVVVVVVVVVVVVVVVVVeeeV 46OVVooOOVV*wwwzzzzyyyVVVVVVVVVVVVVVVV",
"VVVVVVVVVVVVVVVVVVV%eee$V g66++36OOV**wwwVVVzty;VVVVVVVVVVVVVVVV",
"VVVVVVVVVVVVVVVVV%%%ee$V 22k88hhh6V****w==VVVV;V;VVVVVVVVVVVVVVV",
"VVVVVVVVVVVVVVV%%%%%e$VV 2268jbhh6+***===q#VVVVVVVVVVVVVVVVVVVVV",
"VVVVVVVVVVVVVVVVVVV$VVVV 2OO+5hhh+99*VVVq##VVVVVVVVVVVVVVVVVVVVV",
"VVVVVVVVVVVVVVVVVVVVVVV  2OO+hh3OVVVVVVVq##VVVVVVVVVVVVVVVVVVVVV",
"VVVVVVVVVVVVVVVVVVVVVVV  2OVV+h3oVVVVVV####VVVVVVVVVVVVVVVVVVVVV",
"VVVVVVVVVVVVVVVVVVVVVV@  77@@VhoVVVVVVV###VVVVVVVVVVVVVVVVVVVVVV",
"VVVVVVVVVVVVVVVVVVVV@@@@@@@@@VooVVVVVVV###VVVVVVVVVVVVVVVVVVVVVV",
"VVVVVVVVVVVVVVVVVVVVV@@@@@@VVVooVVVVVV####VVVVVVVVVVVVVVVVVVVVVV",
"VVVVVVVVVVVVVVVVVVVVVV@@@VVVVVVVVVVVVV#VVVVVVVVVVVVVVVVVVVVVVVVV",
"VVVVVVVVVVVVVVVVVVVVVVVVVVVVVVVVVVVVVVVVVVVVVVVVVVVVVVVVVVVVVVVV",
"VVVVVVVVVVVVVVVVVVVVVVVVVVVVVVVVVVVVVVVVVVVVVVVVVVVVVVVVVVVVVVVV",
"VVVVVVVVVVVVVVVVVVVVVVVVVVVVVVVVVVVVVVVVVVVVVVVVVVVVVVVVVVVVVVVV",
"VVVVVVVVVVVVVVVVVVVVVVVVVVVVVVVVVVVVVVVVVVVVVVVVVVVVVVVVVVVVVVVV",
"VVVVVVVVVVVVVVVVVVVVVVVVVVVVVVVVVVVVVVVVVVVVVVVVVVVVVVVVVVVVVVVV",
"VVVVVVVVVVVVVVVVVVVVVVVVVVVVVVVVVVVVVVVVVVVVVVVVVVVVVVVVVVVVVVVV",
"VVVVVVVVVVVVVVVVVVVVVVVVVVVVVVVVVVVVVVVVVVVVVVVVVVVVVVVVVVVVVVVV",
"VVVVVVVVVVVVVVVVVVVVVVVVVVVVVVVVVVVVVVVVVVVVVVVVVVVVVVVVVVVVVVVV",
"VVVVVVVVVVVVVVVVVVVVVVVVVVVVVVVVVVVVVVVVVVVVVVVVVVVVVVVVVVVVVVVV",
"VVVVVVVVVVVVVVVVVVVVVVVVVVVVVVVVVVVVVVVVVVVVVVVVVVVVVVVVVVVVVVVV",
"VVVVVVVVVVVVVVVVVVVVVVVVVVVVVVVVVVVVVVVVVVVVVVVVVVVVVVVVVVVVVVVV",
"VVVVVVVVVVVVVVVVVVVVVVVVVVVVVVVVVVVVVVVVVVVVVVVVVVVVVVVVVVVVVVVV",
"VVVVVVVVVVVVVVVVVVVVVVVVVVVVVVVVVVVVVVVVVVVVVVVVVVVVVVVVVVVVVVVV",
"VVVVVVVVVVVVVVVVVVVVVVVVVVVVVVVVVVVVVVVVVVVVVVVVVVVVVVVVVVVVVVVV",
"VVVVVVVVVVVVVVVVVVVVVVVVVVVVVVVVVVVVVVVVVVVVVVVVVVVVVVVVVVVVVVVV",
"VVVVVVVVVVVVVVVVVVVVVVVVVVVVVVVVVVVVVVVVVVVVVVVVVVVVVVVVVVVVVVVV",
"VVVVVVVVVVVVVVVVVVVVVVVVVVVVVVVVVVVVVVVVVVVVVVVVVVVVVVVVVVVVVVVV",
"VVVVVVVVVVVVVVVVVVVVVVVVVVVVVVVVVVVVVVVVVVVVVVVVVVVVVVVVVVVVVVVV"
};
