/* XPM */
static char *result[] = {
/* columns rows colors chars-per-pixel */
"64 64 78 1 ",
"  c #D27F5C",
". c #D17E5F",
"X c #CE796A",
"o c #CB7474",
"O c #C7707E",
"+ c #DD8D3A",
"@ c #E39430",
"# c #E49531",
"$ c #E69634",
"% c #E99838",
"& c #EB993A",
"* c #EC9A3C",
"= c #ED9A3D",
"- c #D98945",
"; c #DA8945",
": c #D98846",
"> c #D58352",
", c #D58254",
"< c #D38058",
"1 c #F39E44",
"2 c #F39E45",
"3 c #F49E46",
"4 c #F7A04B",
"5 c #F8A14C",
"6 c #F9A24D",
"7 c #FCA352",
"8 c #FDA452",
"9 c #FFFF62",
"0 c #FFFF75",
"q c #FFFF79",
"w c #FFFF7A",
"e c #FFFF7C",
"r c #FFFF7E",
"t c #BF6499",
"y c #B95DAB",
"u c #C06695",
"i c #A43FEF",
"p c #B152C4",
"a c #A947DF",
"s c #FFFF80",
"d c #FFFF81",
"f c #FFFF82",
"g c #FFFF88",
"h c #FFFF8B",
"j c #FFFF8C",
"k c #FFFF90",
"l c #FFFF91",
"z c #FFFF97",
"x c #FFFF98",
"c c #FFFF99",
"v c #FFFF9D",
"b c #FFFF9F",
"n c #FFFFA4",
"m c #FFFFAE",
"M c #FFFFB2",
"N c #FFFEB7",
"B c #FFFFBE",
"V c #FF81FF",
"C c #FF99FF",
"Z c #FFA8FF",
"A c #FFAFFF",
"S c #FFFFC4",
"D c #FFFFC5",
"F c #FFFFC6",
"G c #FFF7C9",
"H c #FFFFCD",
"J c #FFFFD1",
"K c #FFFFDE",
"L c #FFD6FF",
"P c #FFDCFF",
"I c #FFFFE4",
"U c #FFFFEF",
"Y c #FFE7FF",
"T c #FFFFF1",
"R c #FFF6FF",
"E c #FFFFFC",
"W c white",
"Q c None",
/* pixels */
"QQQQQQQQQQQQQQQQQQQQQQQQQQQQQQQQQQQQQQQQQQQQQQQQQQQQQQQQQQQQQQQQ",
"QQQQQQQQQQQQQQQQQQQQQQQQQQQQQQQQQQQQQQQQQQQQQQQQQQQQQQQQQQQQQQQQ",
"QQQQQQQQQQQQQQQQQQQQQQQQQQQQQQQQQQQQQQQQQQQQQQQQQQQQQQQQQQQQQQQQ",
"QQQQQQQQQQQQQQQQQQQQQQQQQQQQQQQQQQQQQQQQQQQQQQQQQQQQQQQQQQQQQQQQ",
"QQQQQQQQQQQQQQQQQQQQQQQQQQQQQQQQQQQQQQQQQQQQQQQQQQQQQQQQQQQQQQQQ",
"QQQQQQQQQQQQQQQQQQQQQQQQQQQQQQQQQQQQQQQQQQQQQQQQQQQQQQQQQQQQQQQQ",
"QQQQQQQQQQQQQQQQQQQQQQQQQQQQQQQQQQQQQQQQQQQQQQQQQQQQQQQQQQQQQQQQ",
"QQQQQQQQQQQQQQQQQQQQQQQQQQQQQQQQQQQQQQQQQQQQQQQQQQQQQQQQQQQQQQQQ",
"QQQQQQQQQQQQQQQQQQQQQQQQQQQQQQQQQQQQQQQQQQQQQQQQQQQQQQQQQQQQQQQQ",
"QQQQQQQQQQQQQQQQQQQQQQQQQQQQQQQQQQQQQQQQQQQQQQQQQQQQQQQQQQQQQQQQ",
"QQQQQQQQQQQQQQQQQQQQQQQQQQQQQQQQQQQQQQQQQQQQQQQQQQQQQQQQQQQQQQQQ",
"QQQQQQQQQQQQQQQQQQQQQQQQQQQQQQQQQQQQQQQQQQQQQQQQQQQQQQQQQQQQQQQQ",
"QQQQQQQQQQQQQQQQQQQQQQQQQQQQQQ&&QQQQQQQQQQQQQQQQQQQQQQQQQQQQQQQQ",
"QQQQQQQQQQQQQQQQQQQQQQQQQQQQ&rr&&&&QQQQQQQQQQQQQQQQQQQQQQQQQQQQQ",
"QQQQQQQQQQQQQQQQQQQQQQQQQQ&&&rrr&&&Qww$$$$$QQQQQQQQQQQQQQQQQQQQQ",
"QQQQQQQQQQQQQQQQQQQQQQQQQsFs&rrr1QQQmm$$$$$$QQQQQQQQQQQQQQQQQQQQ",
"QQQQQQQQQQQQQQQQQQQQQQQQQsFF&Q11eeQmmmm$$Q$QQQQQQQQQQQQQQQQQQQQQ",
"QQQQQQQQQQQQQQQQQQQQQQQQQjjjjQQ11eewwwmQQ@@@@@@QQQQQQQQQQQQQQQQQ",
"QQQQQQQQQQQQQQQQ5QQQQQ22Qjjj3QQ11e%%wwwQ@@@@@@@@QQQQQQQQQQQQQQQQ",
"QQQQQQQQQQQQQQQQ555222222hjjj3Q11eeMMwwQQ@@@0@@@@QQQQQQQQQQQQQQQ",
"QQQQQQQQQQQQQQQQ5lll22222hJjj3QQ1e%%MMwQQQ;;;@QQ@QQQQQQQQQQQQQQQ",
"QQQQQQQQQQQQQQQQQllll2222hjjjQQQQ1QMMM%QQ;;;QQQQQQQQQQQQQQQQQQQQ",
"QQQQQQQQQQQQQQQQQ55cK5QQQ33jjQQQQQQ=U0%QQ;;;QQQQQQQQQQQQQQQQQQQQ",
"QQQQQQQQQQQQQQQQQzzIIz5QQQ3j3QQQQQQQ==0=;;;QQQQQQQQQQQQQQQQQQQQQ",
"QQQQQQQQQQQQQQQ444xIIIz5Q33QQQQQQQQQQ=qqff;,$$$$QQQQQQQQQQQQQQQQ",
"QQQQQQQQQQQQQQQ444xxIxzzQQQQQQQQQQQQQQqqBflD$w$::QQQQQQQQQQQQQQQ",
"QQQQQQQQQQQQQQQQQ4xxxx444QQQQQQQQQQQQQ*dBHDD$w:::::QQQQQQQQQQQQQ",
"QQQQQQQQQQQQQQQQQQ66bx4Q4QQQQQQQQQQQQQQ*kSSgQQQ::::QQQQQQQQQQQQQ",
"QQQQQQQQQQQQQQQQQQ6bbbQQQQQQQQQQQQQQQQQ*kSSQQQQQQ:::QQQQQQQQQQQQ",
"QQQQQQQQQQtQQQQQQ7TTTbQQQQQQQQQQQQQQQQQQkkk*QQQQQQQQ:QQQQQQQQQQQ",
"QQQQQQQQQQtQQQQ88nTTT88QQQQQQQQQQQQQQQQQ,k,*QQQQQQQQQQQQQQQQQQQQ",
"QQQQQQQQQQtQQQ8nnnTTnQQQQQQQQQQQQQQQQQQQ,,QQQQQQQ##QQQQQQQQQQQQQ",
"QQQQQQQQQQtt888nnnnn7QQQQQQQQQQQQQQQQQ<QQ,QQQQQQ##QQQQQQQQQQQQQQ",
"QQQQQQQQQQQtQ88nnnn7QQQQQQQQQQQQQQQQQQ<<QQ#QQQQQ###QQQQQQQQQQQQQ",
"QQQQQQQQQQQtQ777n77QQQQQQQQQQQQQQQQQQ+<<QQ####9###QQQQQQQQQQQQQQ",
"QQQQQQQQQQQQQQQQQQQQQQQQQQQQQQQQQQQQ+cNN<QQQ##99#QQQQQQQQQQQQQQQ",
"QQQQQQQQQQQQQQQQQQQQQQQQQQQQQQQQQQQQccE<<QQQQ#999QQQQQQQQQQQQQQQ",
"QQQQQQQQQQQQOOOOQQQQQQQQQQQQQXXyQQQ.cc-vvQQQQ##QQ#QQQQQQQQQQQQQQ",
"QQQQQQQQQQQQQQOOOOOQQQQQQZQQQWLLXXGcc+-vvvQQQQQQQQQQQQQQQQQQQQQQ",
"QQQQQQQQQQQQQQQQQQQQQQQQZZQQpyPWXGGX++Q-vv-QQQQQQQQQQQQQQQQQQQQQ",
"QQQQQQQQQQQQQQQQQQQQQQQZZQQQRAP  QQQ++QQQ---QQQQQQQQQQQQQQQQQQQQ",
"QQQQQQQQQQQQQQQQQQQQQiiYZQQCAAQ  QQQQ+QQQQQ-QQQQQQQQQQQQQQQQQQQQ",
"QQQQQQQQQQQQQQQQQQQiiiVuQQQCAQQ  QQQQQQQQQQQQQQQQQQQQQQQQQQQQQQQ",
"QQQQQQQQQQQQQQQQQiiiiQQuQQaCpQQQ QQQQQQQQQQQoQQQQQQQQQQQQQQQQQQQ",
"QQQQQQQQQQQQQQQQQQQQQQQQQQaCpQQQQQQQQQQQQQQooQQQQQQQQQQQQQQQQQQQ",
"QQQQQQQQQQQQQQQQQQQQQQQQQQaQpQQQQQQQQQQQQQoooQQQQQQQQQQQQQQQQQQQ",
"QQQQQQQQQQQQQQQQQQQQQQQQQaQQQQQQQQQQQQQQQQoooQQQQQQQQQQQQQQQQQQQ",
"QQQQQQQQQQQQQQQQQQQQQQQQQQQQQQQQQQQQQQQQQoooQQQQQQQQQQQQQQQQQQQQ",
"QQQQQQQQQQQQQQQQQQQQQQQQQ>QQQQQQQQQQQQQQQoooQQQQQQQQQQQQQQQQQQQQ",
"QQQQQQQQQQQQQQQQQQQQ>>>>>>>>QQQQQQQQQQQQQoQQQQQQQQQQQQQQQQQQQQQQ",
"QQQQQQQQQQQQQQQQQQQQQQQ>QQQQQQQQQQQQQQQQQQQQQQQQQQQQQQQQQQQQQQQQ",
"QQQQQQQQQQQQQQQQQQQQQQQQQQQQQQQQQQQQQQQQQQQQQQQQQQQQQQQQQQQQQQQQ",
"QQQQQQQQQQQQQQQQQQQQQQQQQQQQQQQQQQQQQQQQQQQQQQQQQQQQQQQQQQQQQQQQ",
"QQQQQQQQQQQQQQQQQQQQQQQQQQQQQQQQQQQQQQQQQQQQQQQQQQQQQQQQQQQQQQQQ",
"QQQQQQQQQQQQQQQQQQQQQQQQQQQQQQQQQQQQQQQQQQQQQQQQQQQQQQQQQQQQQQQQ",
"QQQQQQQQQQQQQQQQQQQQQQQQQQQQQQQQQQQQQQQQQQQQQQQQQQQQQQQQQQQQQQQQ",
"QQQQQQQQQQQQQQQQQQQQQQQQQQQQQQQQQQQQQQQQQQQQQQQQQQQQQQQQQQQQQQQQ",
"QQQQQQQQQQQQQQQQQQQQQQQQQQQQQQQQQQQQQQQQQQQQQQQQQQQQQQQQQQQQQQQQ",
"QQQQQQQQQQQQQQQQQQQQQQQQQQQQQQQQQQQQQQQQQQQQQQQQQQQQQQQQQQQQQQQQ",
"QQQQQQQQQQQQQQQQQQQQQQQQQQQQQQQQQQQQQQQQQQQQQQQQQQQQQQQQQQQQQQQQ",
"QQQQQQQQQQQQQQQQQQQQQQQQQQQQQQQQQQQQQQQQQQQQQQQQQQQQQQQQQQQQQQQQ",
"QQQQQQQQQQQQQQQQQQQQQQQQQQQQQQQQQQQQQQQQQQQQQQQQQQQQQQQQQQQQQQQQ",
"QQQQQQQQQQQQQQQQQQQQQQQQQQQQQQQQQQQQQQQQQQQQQQQQQQQQQQQQQQQQQQQQ",
"QQQQQQQQQQQQQQQQQQQQQQQQQQQQQQQQQQQQQQQQQQQQQQQQQQQQQQQQQQQQQQQQ"
};
