/* XPM */
static char *result[] = {
/* columns rows colors chars-per-pixel */
"64 64 64 1 ",
"  c #CE7A68",
". c #CE796A",
"X c #C8717C",
"o c #DE8F37",
"O c #DE8E38",
"+ c #E0922F",
"@ c #E2942E",
"# c #E49531",
"$ c #E69634",
"% c #E79634",
"& c #E99837",
"* c #EA9839",
"= c #EC9A3C",
"- c #ED9A3D",
"; c #EE9B3E",
": c #D58353",
"> c #D3805A",
", c #F19C42",
"< c #F29D44",
"1 c #F49E46",
"2 c #F7A04A",
"3 c #FAA24E",
"4 c #FCA351",
"5 c #FFFF62",
"6 c #FFFF65",
"7 c #FFFF66",
"8 c #FFFF68",
"9 c #FFFF6A",
"0 c #FFFF71",
"q c #FFFF75",
"w c #FFFF78",
"e c #FFFF7A",
"r c #FFFF7B",
"t c #FFFF7D",
"y c #BD629E",
"u c #B95DAB",
"i c #B85BB0",
"p c #B151C6",
"a c #FFFF8A",
"s c #FFFF8E",
"d c #FFFF92",
"f c #FFFF93",
"g c #FFFF96",
"h c #FFFF97",
"j c #FFFF98",
"k c #FFFF9B",
"l c #FFFF9F",
"z c #FFFFA2",
"x c #FFFFA5",
"c c #FFFFAF",
"v c #FFFFB1",
"b c #FFFFB5",
"n c #FFFFB7",
"m c #FFB8FF",
"M c #FFFFC1",
"N c #FFFFCE",
"B c #FFFFD4",
"V c #FFFFD6",
"C c #FFDDFF",
"Z c #FFEBE4",
"A c #FFFFE2",
"S c #FFFFEC",
"D c white",
"F c None",
/* pixels */
"FFFFFFFFFFFFFFFFFFFFFFFFFFFFFFFFFFFFFFFFFFFFFFFFFFFFFFFFFFFFFFFF",
"FFFFFFFFFFFFFFFFFFFFFFFFFFFFFFFFFFFFFFFFFFFFFFFFFFFFFFFFFFFFFFFF",
"FFFFFFFFFFFFFFFFFFFFFFFFFFFFFFFFFFFFFFFFFFFFFFFFFFFFFFFFFFFFFFFF",
"FFFFFFFFFFFFFFFFFFFFFFFFFFFFFFFFFFFFFFFFFFFFFFFFFFFFFFFFFFFFFFFF",
"FFFFFFFFFFFFFFFFFFFFFFFFFFFFFFFFFFFFFFFFFFFFFFFFFFFFFFFFFFFFFFFF",
"FFFFFFFFFFFFFFFFFFFFFFFFFFFFFFFFFFFFFFFFFFFFFFFFFFFFFFFFFFFFFFFF",
"FFFFFFFFFFFFFFFFFFFFFFFFFFFFFFFFFFFFFFFFFFFFFFFFFFFFFFFFFFFFFFFF",
"FFFFFFFFFFFFFFFFFFFFFFFFFFFFFFFFFFFFFFFFFFFFFFFFFFFFFFFFFFFFFFFF",
"FFFFFFFFFFFFFFFFFFFFFFFFFFFFFFFFFFFFFFFFFFFFFFFFFFFFFFFFFFFFFFFF",
"FFFFFFFFFFFFFFFFFFFFFFFFFFFFFFFFFFFFFFFFFFFFFFFFFFFFFFFFFFFFFFFF",
"FFFFFFFFFFFFFFFFFFFFFFFFFFFFFFFFFFFFFFFFFFFFFFFFFFFFFFFFFFFFFFFF",
"FFFFFFFFFFFFFFFFFFFFFFFFFFFFFFFFFFFFFFFFFFFFFFFFFFFFFFFFFFFFFFFF",
"FFFFFFFFFFFFFFFFFFFFFFFFFFFFFFFFFFFFFFFFFFFFFFFFFFFFFFFFFFFFFFFF",
"FFFFFFFFFFFFFFFFFFFFFFFFFFFF33F22FFFddFFFFFFFFFFFFFFFFFFFFFFFFFF",
"FFFFFFFFFFFFFFFFFFFFFFFFFF4F3jjj222ddFFFFFFFFFFFFFFFFFFFFFFFFFFF",
"FFFFFFFFFFFFFFFFFFFFFFFF4z4k2jjjj2sDddB,,,,,FFFFFFFFFFFFFFFFFFFF",
"FFFFFFFFFFFFFFFFFFFFFFFF4zzz2jjjjj2VVB,,,,,,,FFFFFFFFFFFFFFFFFFF",
"FFFFFFFFFFFFFFFFFFFFFFFF4zSSkjjjj33VDDB,,,,,FFFFFFFFFFFFFFFFFFFF",
"FFFFFFFFFFFFFFFFFFFFFFFFzzSSS233333VDDD,;F;;;;;;FFFFFFFFFFFFFFFF",
"FFFFFFFFFFFFFFFFFFFFFFFFFzzzzFF3333VVVV<;;;;;;;;;FFFFFFFFFFFFFFF",
"FFFFFFFFFFFFFFFFFFFFFFFFFzzzz4FF333VVVV<<;;;;qq;;FFFFFFFFFFFFFFF",
"FFFFFFFFFFFFFFFFFFFFFFFF4zzzz4FFF3FddDaaaFFq&qq;;FFFFFFFFFFFFFFF",
"FFFFFFFFFFFFFFFFFFFFFFFFF4zz4FFFFFFddFa1aa&&&&FFFFFFFFFFFFFFFFFF",
"FFFFFFFFFFFFFFFFFFFFFFFFF444FFFFFFFFdF11a1ttt&FFFFFFFFFFFFFFFFFF",
"FFFFFFFFFFFFFFFFFFFFFFFFF4F44FFFFFFFFFF1aaMtteFFFFFFFFFFFFFFFFFF",
"FFFFFFFFFFFFFFFFFFFFFFFFFFFFFFFFFFFFFFFFaMMMvn----FFFFFFFFFFFFFF",
"FFFFFFFFFFFFFFFFFFFFFFFFFFFFFFFFFFFFFFFF<<rc0x000FFFFFFFFFFFFFFF",
"FFFFFFFFFFFFFFFFFFFFFFFFFFFFFFFFFFFFFFFFFrcbbx00%%%%FFFFFFFFFFFF",
"FFFFFFFFFFF.FFFFFFFFFFFFFFFFFFFFFFFFFFFFFFwbbbF%%%%%FFFFFFFFFFFF",
"FFFFFFFFFFF..FFFFFFFFFFFFFFFFFFFFFFFFFFFFF0bb<FFF%%%%FFFFFFFFFFF",
"FFFFFFFFFFF..FFFFFFFFFFFFFFFFFFFFFFFFFFFFF0$$<FFF==%%FFFFFFFFFFF",
"FFFFFFFFFFF..FFFFFFFFFFFFFFFFFFFFFFFFFFF#F$$$FFF===FFFFFFFFFFFFF",
"FFFFFFFFFFFF..FFFFFFFpppppFFFFFFFFFFFFFF#F$$FFFF===FFFFFFFFFFFFF",
"FFFFFFFFFFFF..FFFFFppppppFFFFFFFFFFFFFFF##F$FFF===FFFFFFFFFFFFFF",
"FFFFFFFFFFFFF.FFFFppppFFFFFFFFFFFFFFFFF6##9**F====FFFFFFFFFFFFFF",
"FFFFFFFFFFFFFFFFFFFFFFFFFFFFFFFFFFFFFF$86#9**qqq==FFFFFFFFFFFFFF",
"FFFFFFFFFFFFF::::F:FFFFFFFFFFFFFFFFFFF5gff6#*qq**FFFFFFFFFFFFFFF",
"FFFFFFFFFFFFFF:::::::FFFFuuFFFFFFF FF5555666FF****FFFFFFFFFFFFFF",
"FFFFFFFFFFFFFFFFFFFFFFFFuuC>F7oDllFF@555$666$FFF**FFFFFFFFFFFFFF",
"FFFFFFFFFFFFFFFFFFFFFFFFuC>>yFANllo6@@$$$$$6$$FFFFFFFFFFFFFFFFFF",
"FFFFFFFFFFFFFFFFFFFFFFimmC>>yXDDhoo66F$$FFFFF$FFFFFFFFFFFFFFFFFF",
"FFFFFFFFFFFFFFFFFFFiiiimC>>yyXZD+FFFFFF$FFFFFFFFFFFFFFFFFFFFFFFF",
"FFFFFFFFFFFFFFFFFFiiiimu>>>yyXZD++FFFFF$FFFFOFFFFFFFFFFFFFFFFFFF",
"FFFFFFFFFFFFFFFFFFFFFFFFF>yyyZZX++FFFFFFFFFOOFFFFFFFFFFFFFFFFFFF",
"FFFFFFFFFFFFFFFFFFFFFFFF>>yyFXXFF+FFFFFFFFFOOOFFFFFFFFFFFFFFFFFF",
"FFFFFFFFFFFFFFFFFFFFFFFFFyyFFFXFFFFFFFFFFFOOOFFFFFFFFFFFFFFFFFFF",
"FFFFFFFFFFFFFFFFFFFFFFFFFyFFFXXFFFFFFFFFFFOOOFFFFFFFFFFFFFFFFFFF",
"FFFFFFFFFFFFFFFFFFFFFFF@FF@@@FFFFFFFFFFFFOOOFFFFFFFFFFFFFFFFFFFF",
"FFFFFFFFFFFFFFFFFFFFF@@@@@@@@FFFFFFFFFFFFOOOFFFFFFFFFFFFFFFFFFFF",
"FFFFFFFFFFFFFFFFFFFFFFF@@@@FFFFFFFFFFFFFFOFFFFFFFFFFFFFFFFFFFFFF",
"FFFFFFFFFFFFFFFFFFFFFFFFFFFFFFFFFFFFFFFFFFFFFFFFFFFFFFFFFFFFFFFF",
"FFFFFFFFFFFFFFFFFFFFFFFFFFFFFFFFFFFFFFFFFFFFFFFFFFFFFFFFFFFFFFFF",
"FFFFFFFFFFFFFFFFFFFFFFFFFFFFFFFFFFFFFFFFFFFFFFFFFFFFFFFFFFFFFFFF",
"FFFFFFFFFFFFFFFFFFFFFFFFFFFFFFFFFFFFFFFFFFFFFFFFFFFFFFFFFFFFFFFF",
"FFFFFFFFFFFFFFFFFFFFFFFFFFFFFFFFFFFFFFFFFFFFFFFFFFFFFFFFFFFFFFFF",
"FFFFFFFFFFFFFFFFFFFFFFFFFFFFFFFFFFFFFFFFFFFFFFFFFFFFFFFFFFFFFFFF",
"FFFFFFFFFFFFFFFFFFFFFFFFFFFFFFFFFFFFFFFFFFFFFFFFFFFFFFFFFFFFFFFF",
"FFFFFFFFFFFFFFFFFFFFFFFFFFFFFFFFFFFFFFFFFFFFFFFFFFFFFFFFFFFFFFFF",
"FFFFFFFFFFFFFFFFFFFFFFFFFFFFFFFFFFFFFFFFFFFFFFFFFFFFFFFFFFFFFFFF",
"FFFFFFFFFFFFFFFFFFFFFFFFFFFFFFFFFFFFFFFFFFFFFFFFFFFFFFFFFFFFFFFF",
"FFFFFFFFFFFFFFFFFFFFFFFFFFFFFFFFFFFFFFFFFFFFFFFFFFFFFFFFFFFFFFFF",
"FFFFFFFFFFFFFFFFFFFFFFFFFFFFFFFFFFFFFFFFFFFFFFFFFFFFFFFFFFFFFFFF",
"FFFFFFFFFFFFFFFFFFFFFFFFFFFFFFFFFFFFFFFFFFFFFFFFFFFFFFFFFFFFFFFF",
"FFFFFFFFFFFFFFFFFFFFFFFFFFFFFFFFFFFFFFFFFFFFFFFFFFFFFFFFFFFFFFFF"
};
