/* XPM */
static char *result[] = {
/* columns rows colors chars-per-pixel */
"64 64 75 1 ",
"  c #D07B64",
". c #E2942E",
"X c #E2942F",
"o c #E3942F",
"O c #E49531",
"+ c #E49532",
"@ c #E79735",
"# c #E99837",
"$ c #E99838",
"% c #EA9838",
"& c #EA9839",
"* c #EC9A3C",
"= c #DA8944",
"- c #D98847",
"; c #D58352",
": c #D3805A",
"> c #EF9B40",
", c #EF9C40",
"< c #F19D43",
"1 c #F49F47",
"2 c #F69F48",
"3 c #F6A049",
"4 c #FBA350",
"5 c #FDA452",
"6 c #FFFF5D",
"7 c #FFFF60",
"8 c #FFFF6A",
"9 c #FFFF6C",
"0 c #FFFF6F",
"q c #FFFF71",
"w c #FFFF73",
"e c #FFFF75",
"r c #FFFF78",
"t c #FFFF79",
"y c #FFFF7C",
"u c #FFFF7F",
"i c #BE649A",
"p c #B85CAE",
"a c #C46C89",
"s c #C06696",
"d c #FFFF80",
"f c #FFFF81",
"g c #FFFF83",
"h c #FFFF85",
"j c #FFFF8A",
"k c #FFFF8B",
"l c #FFFF8F",
"z c #FFFF90",
"x c #FFFF91",
"c c #FFFF92",
"v c #FFFF93",
"b c #FFFF9A",
"n c #FFFF9E",
"m c #FFFFA1",
"M c #FFFFA2",
"N c #FFFFA4",
"B c #FFFFAF",
"V c #FFFFB1",
"C c #FFFEB6",
"Z c #FFFFBC",
"A c #FFFFC0",
"S c #FFFFC1",
"D c #FFFFC2",
"F c #FFFFCC",
"G c #FFEEDD",
"H c #FFF4D0",
"J c #FFCAFF",
"K c #FFFFE2",
"L c #FFFFE4",
"P c #FFFFE5",
"I c #FFFFEA",
"U c #FFFFF8",
"Y c #FFFFFC",
"T c white",
"R c None",
/* pixels */
"RRRRRRRRRRRRRRRRRRRRRRRRRRRRRRRRRRRRRRRRRRRRRRRRRRRRRRRRRRRRRRRR",
"RRRRRRRRRRRRRRRRRRRRRRRRRRRRRRRRRRRRRRRRRRRRRRRRRRRRRRRRRRRRRRRR",
"RRRRRRRRRRRRRRRRRRRRRRRRRRRRRRRRRRRRRRRRRRRRRRRRRRRRRRRRRRRRRRRR",
"RRRRRRRRRRRRRRRRRRRRRRRRRRRRRRRRRRRRRRRRRRRRRRRRRRRRRRRRRRRRRRRR",
"RRRRRRRRRRRRRRRRRRRRRRRRRRRRRRRRRRRRRRRRRRRRRRRRRRRRRRRRRRRRRRRR",
"RRRRRRRRRRRRRRRRRRRRRRRRRRRRRRRRRRRRRRRRRRRRRRRRRRRRRRRRRRRRRRRR",
"RRRRRRRRRRRRRRRRRRRRRRRRRRRRRRRRRRRRRRRRRRRRRRRRRRRRRRRRRRRRRRRR",
"RRRRRRRRRRRRRRRRRRRRRRRRRRRRRRRRRRRRRRRRRRRRRRRRRRRRRRRRRRRRRRRR",
"RRRRRRRRRRRRRRRRRRRRRRRRRRRRRRRRRRRRRRRRRRRRRRRRRRRRRRRRRRRRRRRR",
"RRRRRRRRRRRRRRRRRRRRRRRRRRRRRRRRRRRRRRRRRRRRRRRRRRRRRRRRRRRRRRRR",
"RRRRRRRRRRRRRRRRRRRRRRRRRRRRRRRRRRRRRRRRRRRRRRRRRRRRRRRRRRRRRRRR",
"RRRRRRRRRRRRRRRRRRRRRRRRRRRRRRRRRRRRRRRRRRRRRRRRRRRRRRRRRRRRRRRR",
"RRRRRRRRRRRRRRRRRRRRRRRRRRRRRRRRRRRRRRRRRRRRRRRRRRRRRRRRRRRRRRRR",
"RRRRRRRRRRRRRRRRRRRRRRRRRRRR55RRRRRbbRRRRRRRRRRRRRRRRRRRRRRRRRRR",
"RRRRRRRRRRRRRRRRRRRRRRRRRRRR55MM444bbRRRRRRRRRRRRRRRRRRRRRRRRRRR",
"RRRRRRRRRRRRRRRRRRRRRRRRRRRR5MMMM44Tbb1R111RRRRRRRRRRRRRRRRRRRRR",
"RRRRRRRRRRRRRRRRRRRRRRRRRRR4MMMMMMIKKT11111111RRRRRRRRRRRRRRRRRR",
"RRRRRRRRRRRRRRRRRRRRRRRRRR444MMMM5RKTTl1111111RRRRRRRRRRRRRRRRRR",
"RRRRRRRRRRRRRRRRRRRRRRRRRR4444M5555TTTT111j<<<<RRRRRRRRRRRRRRRRR",
"RRRRRRRRRRRRRRRRRRRRRRRRRRRRRR5555bKKKTlk<<<<<<RRRRRRRRRRRRRRRRR",
"RRRRRRRRRRRRRRRRRRRRRRRRRRRRRRR555RbKT2kk<<<<uuuRRRRRRRRRRRRRRRR",
"RRRRRRRRRRRRRRRRRRRRRRRRRRRRRRRR55bbb2xxxx<<uuu<<<RRRRRRRRRRRRRR",
"RRRRRRRRRRRRRRRRRRRRRRRRRRRRRRRRR5RbRR33xx3h***RRRRRRRRRRRRRRRRR",
"RRRRRRRRRRRRRRRRRRRRRRRRRRRRRRRRRRRRRRR3zzzhh**RRRRRRRRRRRRRRRRR",
"RRRRRRRRRRRRRRRRRRRRRRRRRRRRRRRRRRRRRRR3zzFFhh3RRRRRRRRRRRRRRRRR",
"RRRRRRRRRRRRRRRRRRRRRRRRRRRRRRRRRRRRRRRRR1gFeD,,,,RRRRRRRRRRRRRR",
"RRRRRRRRRRRRRRRRRRRRRRRRRRRRRRRRRRRRRRRRR1gZYVtrrRRRRRRRRRRRRRRR",
"RRRRRRRRRRRRRRRRRRRRRRRRRRRRRRRRRRRRRRRRRggZAUrr%%%RRRRRRRRRRRRR",
"RRRRRRRRRRRR:RRRRRRRRRRRRRRRRRRRRRRRRRRRRRZAAAr%%%%%RRRRRRRRRRRR",
"RRRRRRRRRRRR:RRRRRRRRRRRRRRRRRRRRRRRRRRRRRtAAA1%%%r%%RRRRRRRRRRR",
"RRRRRRRRRRR::RRRRRRRRRRRRRRRRRRRRRRRRRRRRRtt&dRRRrr%%RRRRRRRRRRR",
"RRRRRRRRRRR:::RRRRRRRRRRRRRRRRRRRRRRRRRR@R&&&RR>>>>RRRRRRRRRRRRR",
"RRRRRRRRRRRR::RRRRRRRpppRRRRRRRRRRRRRRRR@@R&&RR>>>>RRRRRRRRRRRRR",
"RRRRRRRRRRRR::RRRRRRpppppRRRRRRRRRRRRRRR@@R&RR>>>>RRRRRRRRRRRRRR",
"RRRRRRRRRRRRR:RRRRRpppppRRRRRRRRRRRRRRR0@@qR*R>>>>RRRRRRRRRRRRRR",
"RRRRRRRRRRRRRRRRRRppRRRRRRRRRRRRRRRRRRR0N9q**yyy>RRRRRRRRRRRRRRR",
"RRRRRRRRRRRRR=======RRRRRRRRRRRRRRRRRR88nn9qyyy**RRRRRRRRRRRRRRR",
"RRRRRRRRRRRRRRR======RRRRsRR-RRRRR;RR+88m999w*****RRRRRRRRRRRRRR",
"RRRRRRRRRRRRRRRRRRRRRRRRssR-R6RcddRR+888$#99##RR**RRRRRRRRRRRRRR",
"RRRRRRRRRRRRRRRRRRRRRRRsss--a6SLdd.7++8$$R#99##RRRRRRRRRRRRRRRRR",
"RRRRRRRRRRRRRRRRRRRRRiiJJG-HaRvTBd.7++$$$RRRRRRRRRRRRRRRRRRRRRRR",
"RRRRRRRRRRRRRRRRRRRiiiJJs--aa PPfR.7.RR$$RRRRRRRRRRRRRRRRRRRRRRR",
"RRRRRRRRRRRRRRRRRiiiiisRR-Haa CPfRRRRRR$$RRXXRRRRRRRRRRRRRRRRRRR",
"RRRRRRRRRRRRRRRRRRRRRRRRR-Haa CCoRRRRRRRRRRXXRRRRRRRRRRRRRRRRRRR",
"RRRRRRRRRRRRRRRRRRRRRRRR--aaR C oRRRRRRRRRXXXRRRRRRRRRRRRRRRRRRR",
"RRRRRRRRRRRRRRRRRRRRRRRRRaaRRR  RRRRRRRRRRXXXRRRRRRRRRRRRRRRRRRR",
"RRRRRRRRRRRRRRRRRRRRRRRRRaRRRR RRRRRRRRRRXXXXRRRRRRRRRRRRRRRRRRR",
"RRRRRRRRRRRRRRRRRRRRRROOOOOOORRRRRRRRRRRRXXXRRRRRRRRRRRRRRRRRRRR",
"RRRRRRRRRRRRRRRRRRRRROOOOOOORRRRRRRRRRRRRXXRRRRRRRRRRRRRRRRRRRRR",
"RRRRRRRRRRRRRRRRRRRRRRROORRRRRRRRRRRRRRRXRRRRRRRRRRRRRRRRRRRRRRR",
"RRRRRRRRRRRRRRRRRRRRRRRRRRRRRRRRRRRRRRRRRRRRRRRRRRRRRRRRRRRRRRRR",
"RRRRRRRRRRRRRRRRRRRRRRRRRRRRRRRRRRRRRRRRRRRRRRRRRRRRRRRRRRRRRRRR",
"RRRRRRRRRRRRRRRRRRRRRRRRRRRRRRRRRRRRRRRRRRRRRRRRRRRRRRRRRRRRRRRR",
"RRRRRRRRRRRRRRRRRRRRRRRRRRRRRRRRRRRRRRRRRRRRRRRRRRRRRRRRRRRRRRRR",
"RRRRRRRRRRRRRRRRRRRRRRRRRRRRRRRRRRRRRRRRRRRRRRRRRRRRRRRRRRRRRRRR",
"RRRRRRRRRRRRRRRRRRRRRRRRRRRRRRRRRRRRRRRRRRRRRRRRRRRRRRRRRRRRRRRR",
"RRRRRRRRRRRRRRRRRRRRRRRRRRRRRRRRRRRRRRRRRRRRRRRRRRRRRRRRRRRRRRRR",
"RRRRRRRRRRRRRRRRRRRRRRRRRRRRRRRRRRRRRRRRRRRRRRRRRRRRRRRRRRRRRRRR",
"RRRRRRRRRRRRRRRRRRRRRRRRRRRRRRRRRRRRRRRRRRRRRRRRRRRRRRRRRRRRRRRR",
"RRRRRRRRRRRRRRRRRRRRRRRRRRRRRRRRRRRRRRRRRRRRRRRRRRRRRRRRRRRRRRRR",
"RRRRRRRRRRRRRRRRRRRRRRRRRRRRRRRRRRRRRRRRRRRRRRRRRRRRRRRRRRRRRRRR",
"RRRRRRRRRRRRRRRRRRRRRRRRRRRRRRRRRRRRRRRRRRRRRRRRRRRRRRRRRRRRRRRR",
"RRRRRRRRRRRRRRRRRRRRRRRRRRRRRRRRRRRRRRRRRRRRRRRRRRRRRRRRRRRRRRRR",
"RRRRRRRRRRRRRRRRRRRRRRRRRRRRRRRRRRRRRRRRRRRRRRRRRRRRRRRRRRRRRRRR"
};
