/* XPM */
static char *result[] = {
/* columns rows colors chars-per-pixel */
"64 64 74 1 ",
"  c #CD776E",
". c #D17D61",
"X c #C7707E",
"o c #C97279",
"O c #DD8E3A",
"+ c #DC8C3E",
"@ c #DF9035",
"# c #E1922E",
"$ c #E3942F",
"% c #E39430",
"& c #E49531",
"* c #E59532",
"= c #E89736",
"- c #EA9839",
"; c #EA9939",
": c #EB993A",
"> c #ED9A3D",
", c #D7864C",
"< c #D88748",
"1 c #EF9C40",
"2 c #F09C41",
"3 c #F29D43",
"4 c #F39E45",
"5 c #F8A14B",
"6 c #F9A24D",
"7 c #F9A24E",
"8 c #FBA350",
"9 c #FDA452",
"0 c #FFFF5E",
"q c #FFFF5F",
"w c #FFFF69",
"e c #FFFF6A",
"r c #FFFF6B",
"t c #FFFF6F",
"y c #FFFF70",
"u c #FFFF73",
"i c #FFFF75",
"p c #FFFF76",
"a c #FFFF7D",
"s c #B659B4",
"d c #C16794",
"f c #B354C0",
"g c #B152C5",
"h c #A947DE",
"j c #FFFF82",
"k c #FFFF83",
"l c #FFFF84",
"z c #FFFF89",
"x c #FFFF8B",
"c c #FFFF8F",
"v c #FFFF90",
"b c #FFFF93",
"n c #FFFF98",
"m c #FFFF99",
"M c #FFFF9B",
"N c #FFFF9E",
"B c #FFFFA0",
"V c #FFFFA2",
"C c #FFFFAA",
"Z c #FFFFAC",
"A c #FFFFB6",
"S c #FFFCBC",
"D c #FFA6FF",
"F c #FFF7C6",
"G c #FFFFC6",
"H c #FFFFC9",
"J c #FFFFDC",
"K c #FFC0FF",
"L c #FFCBFF",
"P c #FFD7FF",
"I c LightYellow",
"U c #FFFFEB",
"Y c white",
"T c None",
/* pixels */
"TTTTTTTTTTTTTTTTTTTTTTTTTTTTTTTTTTTTTTTTTTTTTTTTTTTTTTTTTTTTTTTT",
"TTTTTTTTTTTTTTTTTTTTTTTTTTTTTTTTTTTTTTTTTTTTTTTTTTTTTTTTTTTTTTTT",
"TTTTTTTTTTTTTTTTTTTTTTTTTTTTTTTTTTTTTTTTTTTTTTTTTTTTTTTTTTTTTTTT",
"TTTTTTTTTTTTTTTTTTTTTTTTTTTTTTTTTTTTTTTTTTTTTTTTTTTTTTTTTTTTTTTT",
"TTTTTTTTTTTTTTTTTTTTTTTTTTTTTTTTTTTTTTTTTTTTTTTTTTTTTTTTTTTTTTTT",
"TTTTTTTTTTTTTTTTTTTTTTTTTTTTTTTTTTTTTTTTTTTTTTTTTTTTTTTTTTTTTTTT",
"TTTTTTTTTTTTTTTTTTTTTTTTTTTTTTTTTTTTTTTTTTTTTTTTTTTTTTTTTTTTTTTT",
"TTTTTTTTTTTTTTTTTTTTTTTTTTTTTTTTTTTTTTTTTTTTTTTTTTTTTTTTTTTTTTTT",
"TTTTTTTTTTTTTTTTTTTTTTTTTTTTTTTTTTTTTTTTTTTTTTTTTTTTTTTTTTTTTTTT",
"TTTTTTTTTTTTTTTTTTTTTTTTTTTTTTTTTTTTTTTTTTTTTTTTTTTTTTTTTTTTTTTT",
"TTTTTTTTTTTTTTTTTTTTTTTTTTTTTTTTTTTTTTTTTTTTTTTTTTTTTTTTTTTTTTTT",
"TTTTTTTTTTTTTTTTTTTTTTTTTTTTTTTTTTTTTTTTTTTTTTTTTTTTTTTTTTTTTTTT",
"TTTTTTTTTTTTTTTTTTTTTTTTTTTTTTTTTTTTTTTTTTTTTTTTTTTTTTTTTTTTTTTT",
"TTTTTTTTTTTTTTTTTTTTTTTTTTTTT5v44TTTzTTTTTTTTTTTTTTTTTTTTTTTTTTT",
"TTTTTTTTTTTTTTTTTTTTTTTTTTTTTvvv4444zzTT>>>TTTTTTTTTTTTTTTTTTTTT",
"TTTTTTTTTTTTTTTTTTTTTTTT66Mb4vvvv44TzGG>>>>>TTTTTTTTTTTTTTTTTTTT",
"TTTTTTTTTTTTTTTTTTTTTTTTT6II44vvv5xHzGG>>>>>>TTTTTTTTTTTTTTTTTTT",
"TTTTTTTTTTTTTTTTTTTTTTTTTMIII44555x1YYG>>>pTT;TTTTTTTTTTTTTTTTTT",
"TTTTTTTTTTTTTTTTTT9TTTTTTMMMMTT55551HHzG;;;;;;;;TTTTTTTTTTTTTTTT",
"TTTTTTTTTTTTTTTTTT999V8887MMM6T5555HHHH1;;;;;;;;;TTTTTTTTTTTTTTT",
"TTTTTTTTTTTTTTTTTT99VV888NUUM6TT5551HHH1TT;;rrr;;;TTTTTTTTTTTTTT",
"TTTTTTTTTTTTTTTTTTVVVVVV8NUUMTTTT55zHY111TT***rTTTTTTTTTTTTTTTTT",
"TTTTTTTTTTTTTTTTTT8VVVVVVNNMMTTTTTTTzTkkk3****TTTTTTTTTTTTTTTTTT",
"TTTTTTTTTTTTTTTTTTTVVV999T7M6TTTTTTTTT33l3ii**TTTTTTTTTTTTTTTTTT",
"TTTTTTTTTTTTTTTTTTTTTT999B7T6TTTTTTTTT33lliii$::TTTTTTTTTTTTTTTT",
"TTTTTTTTTTTTTTTTTTTTTTTT9TTTTTTTTTTTTTTTlAAiZa:::TTTTTTTTTTTTTTT",
"TTTTTTTTTTTTTTTTTTTTTTTTTTTTTTTTTTTTTTTT2uVJwmee%%%TTTTTTTTTTTTT",
"TTTTTTTTTTTTTTTTTTTTTTTTTTTTTTTTTTTTTTTT2uJCCwe%%%%%TTTTTTTTTTTT",
"TTTTTTTTTTToTTTTTTTTTTTTTTTTTTTTTTTTTTTTTTCCC:T%%%%%%TTTTTTTTTTT",
"TTTTTTTTTTToTTTTTTTTTTTTTTTTTTTTTTTTTTTTT$wCy2TTTT%%%TTTTTTTTTTT",
"TTTTTTTTTTTooTTTTTTTTTTTTTTTTTTTTTTTTTTTTT$$y2TTTT-TTTTTTTTTTTTT",
"TTTTTTTTTTTooTTTTTTTTTTTTTTTTTTTTTTTTTTTTT$$TTTTT---TTTTTTTTTTTT",
"TTTTTTTTTTTToTTTTTTTThhhhTTTTTTTTTTTTTTT#T$$TTTT---TTTTTTTTTTTTT",
"TTTTTTTTTTTToTTTTTThhhhTTTTTTTTTTTTTTTT##TTTTTT----TTTTTTTTTTTTT",
"TTTTTTTTTTTTToTTTThhhTTTTTTTTTTTTTTTTTTq##T===t---TTTTTTTTTTTTTT",
"TTTTTTTTTTTTTTTTTTTTTTTTTTTTTTTTTTTTTT&c0#T===ttt-TTTTTTTTTTTTTT",
"TTTTTTTTTTTTTTTTTTTTTTTTTTTTTTTTTTTTTrrMn0#T=ttttTTTTTTTTTTTTTTT",
"TTTTTTTTTTTTTT.......TTTTTf TTTTTXTTOrrr000TT-T===TTTTTTTTTTTTTT",
"TTTTTTTTTTTTTTTT.TTTTTTTTfL TTYYFF<OOrr&%000%TTTTTTTTTTTTTTTTTTT",
"TTTTTTTTTTTTTTTTTTTTTTTTfL TTTYYF<<jOr&&T%00%%TTTTTTTTTTTTTTTTTT",
"TTTTTTTTTTTTTTTTTTTTTTTgYL TsdYSST<j<T&&TTT%%%TTTTTTTTTTTTTTTTTT",
"TTTTTTTTTTTTTTTTTTTTTggDL  ssdPS++TTTT&&TTTTTTTTTTTTTTTTTTTTTTTT",
"TTTTTTTTTTTTTTTTTTgggggf  TsKdP++TTTTT&&TTTTTTTTTTTTTTTTTTTTTTTT",
"TTTTTTTTTTTTTTTTTTTggTfT  TssPPT++TTTTTTTTTT,,TTTTTTTTTTTTTTTTTT",
"TTTTTTTTTTTTTTTTTTTTTTTT TssTddTT+TTTTTTTTT,,,TTTTTTTTTTTTTTTTTT",
"TTTTTTTTTTTTTTTTTTTTTTTTTTsTTddTTTTTTTTTTTT,,TTTTTTTTTTTTTTTTTTT",
"TTTTTTTTTTTTTTTTTTTTTTTTTTTTTTTTTTTTTTTTTT,,,TTTTTTTTTTTTTTTTTTT",
"TTTTTTTTTTTTTTTTTTTTTTTTTTTTTTTTTTTTTTTTTT,,,TTTTTTTTTTTTTTTTTTT",
"TTTTTTTTTTTTTTTTTTTTT@@@@@@@@TTTTTTTTTTTT,,,TTTTTTTTTTTTTTTTTTTT",
"TTTTTTTTTTTTTTTTTTTTTT@@@@@@TTTTTTTTTTTTT,TTTTTTTTTTTTTTTTTTTTTT",
"TTTTTTTTTTTTTTTTTTTTTTTTTTTTTTTTTTTTTTTTTTTTTTTTTTTTTTTTTTTTTTTT",
"TTTTTTTTTTTTTTTTTTTTTTTTTTTTTTTTTTTTTTTTTTTTTTTTTTTTTTTTTTTTTTTT",
"TTTTTTTTTTTTTTTTTTTTTTTTTTTTTTTTTTTTTTTTTTTTTTTTTTTTTTTTTTTTTTTT",
"TTTTTTTTTTTTTTTTTTTTTTTTTTTTTTTTTTTTTTTTTTTTTTTTTTTTTTTTTTTTTTTT",
"TTTTTTTTTTTTTTTTTTTTTTTTTTTTTTTTTTTTTTTTTTTTTTTTTTTTTTTTTTTTTTTT",
"TTTTTTTTTTTTTTTTTTTTTTTTTTTTTTTTTTTTTTTTTTTTTTTTTTTTTTTTTTTTTTTT",
"TTTTTTTTTTTTTTTTTTTTTTTTTTTTTTTTTTTTTTTTTTTTTTTTTTTTTTTTTTTTTTTT",
"TTTTTTTTTTTTTTTTTTTTTTTTTTTTTTTTTTTTTTTTTTTTTTTTTTTTTTTTTTTTTTTT",
"TTTTTTTTTTTTTTTTTTTTTTTTTTTTTTTTTTTTTTTTTTTTTTTTTTTTTTTTTTTTTTTT",
"TTTTTTTTTTTTTTTTTTTTTTTTTTTTTTTTTTTTTTTTTTTTTTTTTTTTTTTTTTTTTTTT",
"TTTTTTTTTTTTTTTTTTTTTTTTTTTTTTTTTTTTTTTTTTTTTTTTTTTTTTTTTTTTTTTT",
"TTTTTTTTTTTTTTTTTTTTTTTTTTTTTTTTTTTTTTTTTTTTTTTTTTTTTTTTTTTTTTTT",
"TTTTTTTTTTTTTTTTTTTTTTTTTTTTTTTTTTTTTTTTTTTTTTTTTTTTTTTTTTTTTTTT",
"TTTTTTTTTTTTTTTTTTTTTTTTTTTTTTTTTTTTTTTTTTTTTTTTTTTTTTTTTTTTTTTT"
};
