/* XPM */
static char *result[] = {
/* columns rows colors chars-per-pixel */
"64 64 80 1 ",
"  c #D17D60",
". c #CC7670",
"X c #DC8D3B",
"o c #E1932D",
"O c #E2932E",
"+ c #E09131",
"@ c #E69634",
"# c #E79635",
"$ c #E79735",
"% c #E99837",
"& c #EA9839",
"* c #EC9A3C",
"= c #EE9B3F",
"- c #DA8943",
"; c #D7854D",
": c #D7864C",
"> c #D38059",
", c #EF9B40",
"< c #F09C40",
"1 c #F59F48",
"2 c #F6A04A",
"3 c #F7A04A",
"4 c #FAA24F",
"5 c #FBA350",
"6 c #FCA351",
"7 c #FFFF62",
"8 c #FFFF68",
"9 c #FFFF69",
"0 c #FFFF6C",
"q c #FFFF6D",
"w c #FFFF6E",
"e c #FFFF72",
"r c #FFFF74",
"t c #FFFF76",
"y c #FFFF77",
"u c #FFFF7A",
"i c #FFFF7C",
"p c #FFFF7F",
"a c #B95CAC",
"s c #C66F81",
"d c #C46B89",
"f c #C06695",
"g c #A23DF6",
"h c #B050C9",
"j c #AC4BD5",
"k c #AA48DA",
"l c #FFFF82",
"z c #FFFF84",
"x c #FFFF88",
"c c #FFFF8A",
"v c #FFFF8F",
"b c #FFFF94",
"n c #FFFF99",
"m c #FFFF9F",
"M c #FFFFA0",
"N c #FFFFA1",
"B c #FFFFA5",
"V c #FFFFA8",
"C c #FFFFAB",
"Z c #FFFFAC",
"A c #FFFFB1",
"S c #FFFFB2",
"D c #FFFFBB",
"F c #FFFFBE",
"G c #FF93FF",
"H c #FFACFF",
"J c #FFBAFF",
"K c #FFFFC0",
"L c #FFFFD4",
"P c #FFFFDE",
"I c #FFC2FF",
"U c #FFEBE2",
"Y c #FFE6EE",
"T c #FFFFE7",
"R c #FFFFEA",
"E c ivory",
"W c #FFFFF7",
"Q c #FFFFFE",
"! c white",
"~ c None",
/* pixels */
"~~~~~~~~~~~~~~~~~~~~~~~~~~~~~~~~~~~~~~~~~~~~~~~~~~~~~~~~~~~~~~~~",
"~~~~~~~~~~~~~~~~~~~~~~~~~~~~~~~~~~~~~~~~~~~~~~~~~~~~~~~~~~~~~~~~",
"~~~~~~~~~~~~~~~~~~~~~~~~~~~~~~~~~~~~~~~~~~~~~~~~~~~~~~~~~~~~~~~~",
"~~~~~~~~~~~~~~~~~~~~~~~~~~~~~~~~~~~~~~~~~~~~~~~~~~~~~~~~~~~~~~~~",
"~~~~~~~~~~~~~~~~~~~~~~~~~~~~~~~~~~~~~~~~~~~~~~~~~~~~~~~~~~~~~~~~",
"~~~~~~~~~~~~~~~~~~~~~~~~~~~~~~~~~~~~~~~~~~~~~~~~~~~~~~~~~~~~~~~~",
"~~~~~~~~~~~~~~~~~~~~~~~~~~~~~~~~~~~~~~~~~~~~~~~~~~~~~~~~~~~~~~~~",
"~~~~~~~~~~~~~~~~~~~~~~~~~~~~~~~~~~~~~~~~~~~~~~~~~~~~~~~~~~~~~~~~",
"~~~~~~~~~~~~~~~~~~~~~~~~~~~~~~~~~~~~~~~~~~~~~~~~~~~~~~~~~~~~~~~~",
"~~~~~~~~~~~~~~~~~~~~~~~~~~~~~~~~~~~~~~~~~~~~~~~~~~~~~~~~~~~~~~~~",
"~~~~~~~~~~~~~~~~~~~~~~~~~~~~~~~~~~~~~~~~~~~~~~~~~~~~~~~~~~~~~~~~",
"~~~~~~~~~~~~~~~~~~~~~~~~~~~~~~~~~~~~~~~~~~~~~~~~~~~~~~~~~~~~~~~~",
"~~~~~~~~~~~~~~~~~~~~~~~~~~~~~~~~~~~~~~~~~~~~~~~~~~~~~~~~~~~~~~~~",
"~~~~~~~~~~~~~~~~~~~~~~~~~~~~1x,,,~~~~~~~~~~~~~~~~~~~~~~~~~~~~~~~",
"~~~~~~~~~~~~~~~~~~~~~~~~~~,,xxxx,,,ll~&&&&~~~~~~~~~~~~~~~~~~~~~~",
"~~~~~~~~~~~~~~~~~~~~~~~~2b3c,xxxx,~lDD&&&&&&~~~~~~~~~~~~~~~~~~~~",
"~~~~~~~~~~~~~~~~~~~~~~~~2LLc,xxx1z~DDD&&&&&~~~~~~~~~~~~~~~~~~~~~",
"~~~~~~~~~~~~~~~~~~~~~~~~2LLL~~111z*WDDD~~w####~~~~~~~~~~~~~~~~~~",
"~~~~~~~~~~~~~~~~44~~~~332bbb~~~11zzFFll~#######~~~~~~~~~~~~~~~~~",
"~~~~~~~~~~~~~~~~~44~33333Pbb2~~11z*FFll~########~~~~~~~~~~~~~~~~",
"~~~~~~~~~~~~~~~~~44nn3333PPbb~~~11*FFF*~~~#o7####~~~~~~~~~~~~~~~",
"~~~~~~~~~~~~~~~~~nnnnn33bPbbb~~~~1~FQF*~~oooo~~~~~~~~~~~~~~~~~~~",
"~~~~~~~~~~~~~~~~~nRRn4n3~3bb2~~~~~~lQiii~oooo~~~~~~~~~~~~~~~~~~~",
"~~~~~~~~~~~~~~~~~5MEm444~332~~~~~~~~<<i<qqoo~~~~~~~~~~~~~~~~~~~~",
"~~~~~~~~~~~~~~~555NEEmm4~3~~~~~~~~~~~<<pZqqXe~%%~~~~~~~~~~~~~~~~",
"~~~~~~~~~~~~~~555NNNNNmm~~~~~~~~~~~~~~<pZZVSy8%~~~~~~~~~~~~~~~~~",
"~~~~~~~~~~~~~~~~55NNNN55~~~~~~~~~~~~~~~=ZTeS%8++++~~~~~~~~~~~~~~",
"~~~~~~~~~~~~~~~~~~66NN555~~~~~~~~~~~~~~=0AAe%~+++++~~~~~~~~~~~~~",
"~~~~~~~~~~d~~~~~~66666~~~~~~~~~~~~~~~~~~tAAA~~~~++++~~~~~~~~~~~~",
"~~~~~~~~~~d~~~~~~~6666~~~~~~~~~~~~~~~~~~XAu=~~~~~++++~~~~~~~~~~~",
"~~~~~~~~~~d~~~~~~~666~~~~~~~~~~~~~~~~~~~XXX==~~~~~~~~~~~~~~~~~~~",
"~~~~~~~~~~dd~~~~~~6~~~~~~~~~~~~~~~~~~~~~~XX~~~~~~$$~~~~~~~~~~~~~",
"~~~~~~~~~~dd~~~~~~~ggggg~~~~~~~~~~~~~~-~~X~~~~~$$$~~~~~~~~~~~~~~",
"~~~~~~~~~~~d~~~~~~gggg~~~~~~~~~~~~~~~~--~~~~~~~$$$~~~~~~~~~~~~~~",
"~~~~~~~~~~~d~~~~~gg~~~~~~~~~~~~~~~~~~O---~@@@@9$$$~~~~~~~~~~~~~~",
"~~~~~~~~~~~~~~~~~~~~~~~~~~~~~~~~~~~~~Ovv-~~@@999$~~~~~~~~~~~~~~~",
"~~~~~~~~~~~~~~~~~~~~~~~~~~~~~~~~~~~~uuKKr-~~@999@~~~~~~~~~~~~~~~",
"~~~~~~~~~~~~~......~~~~~~js~~~>ff~~:uuCrr-~~$~@@@@~~~~~~~~~~~~~~",
"~~~~~~~~~~~~~~~...~~~~~~JJs~~!!YY>::uO~+rr+~~~~~~~~~~~~~~~~~~~~~",
"~~~~~~~~~~~~~~~~~~~~~~~jJs~~a!U!>BBBOOO++r++~~~~~~~~~~~~~~~~~~~~",
"~~~~~~~~~~~~~~~~~~~~~~~JJs~hHIU;~>>>OOO~~~+++~~~~~~~~~~~~~~~~~~~",
"~~~~~~~~~~~~~~~~~~~~~kGJs~~hIIU;;~~~~O~~~~~~~~~~~~~~~~~~~~~~~~~~",
"~~~~~~~~~~~~~~~~~~kkkkjss~hHII~;;~~~~O~~~~~~~~~~~~~~~~~~~~~~~~~~",
"~~~~~~~~~~~~~~~~~kkkk~~s~~hHIa~~;~~~~~~~~~~  ~~~~~~~~~~~~~~~~~~~",
"~~~~~~~~~~~~~~~~~~~~~~~s~hhhaa~~;~~~~~~~~~~  ~~~~~~~~~~~~~~~~~~~",
"~~~~~~~~~~~~~~~~~~~~~~~~~hh~a~~~~~~~~~~~~~  ~~~~~~~~~~~~~~~~~~~~",
"~~~~~~~~~~~~~~~~~~~~~~~~~h~~~~~~~~~~~~~~~~  ~~~~~~~~~~~~~~~~~~~~",
"~~~~~~~~~~~~~~~~~~~~~~~~~~~~~~~~~~~~~~~~~   ~~~~~~~~~~~~~~~~~~~~",
"~~~~~~~~~~~~~~~~~~~~~-------~~~~~~~~~~~~~  ~~~~~~~~~~~~~~~~~~~~~",
"~~~~~~~~~~~~~~~~~~~~~------~~~~~~~~~~~~~ ~~~~~~~~~~~~~~~~~~~~~~~",
"~~~~~~~~~~~~~~~~~~~~~~~~~~~~~~~~~~~~~~~~~~~~~~~~~~~~~~~~~~~~~~~~",
"~~~~~~~~~~~~~~~~~~~~~~~~~~~~~~~~~~~~~~~~~~~~~~~~~~~~~~~~~~~~~~~~",
"~~~~~~~~~~~~~~~~~~~~~~~~~~~~~~~~~~~~~~~~~~~~~~~~~~~~~~~~~~~~~~~~",
"~~~~~~~~~~~~~~~~~~~~~~~~~~~~~~~~~~~~~~~~~~~~~~~~~~~~~~~~~~~~~~~~",
"~~~~~~~~~~~~~~~~~~~~~~~~~~~~~~~~~~~~~~~~~~~~~~~~~~~~~~~~~~~~~~~~",
"~~~~~~~~~~~~~~~~~~~~~~~~~~~~~~~~~~~~~~~~~~~~~~~~~~~~~~~~~~~~~~~~",
"~~~~~~~~~~~~~~~~~~~~~~~~~~~~~~~~~~~~~~~~~~~~~~~~~~~~~~~~~~~~~~~~",
"~~~~~~~~~~~~~~~~~~~~~~~~~~~~~~~~~~~~~~~~~~~~~~~~~~~~~~~~~~~~~~~~",
"~~~~~~~~~~~~~~~~~~~~~~~~~~~~~~~~~~~~~~~~~~~~~~~~~~~~~~~~~~~~~~~~",
"~~~~~~~~~~~~~~~~~~~~~~~~~~~~~~~~~~~~~~~~~~~~~~~~~~~~~~~~~~~~~~~~",
"~~~~~~~~~~~~~~~~~~~~~~~~~~~~~~~~~~~~~~~~~~~~~~~~~~~~~~~~~~~~~~~~",
"~~~~~~~~~~~~~~~~~~~~~~~~~~~~~~~~~~~~~~~~~~~~~~~~~~~~~~~~~~~~~~~~",
"~~~~~~~~~~~~~~~~~~~~~~~~~~~~~~~~~~~~~~~~~~~~~~~~~~~~~~~~~~~~~~~~",
"~~~~~~~~~~~~~~~~~~~~~~~~~~~~~~~~~~~~~~~~~~~~~~~~~~~~~~~~~~~~~~~~"
};
