/* XPM */
static char *result[] = {
/* columns rows colors chars-per-pixel */
"64 64 65 1 ",
"  c #4C2712",
". c #4E2913",
"X c #522C15",
"o c #522D18",
"O c #573017",
"+ c #55321D",
"@ c #5A351E",
"# c #573621",
"$ c #583722",
"% c #5A3A25",
"& c #5C3E2B",
"* c #5E412E",
"= c #574131",
"- c #5E4331",
"; c #594739",
": c #54493F",
"> c #5C4B3E",
", c #61422E",
"< c #614532",
"1 c #644936",
"2 c #69513E",
"3 c #574E43",
"4 c #5D4E42",
"5 c #5E5346",
"6 c #5F5850",
"7 c #615346",
"8 c #685040",
"9 c #615649",
"0 c #655A4D",
"q c #695B4F",
"w c #645E55",
"e c #6A5E52",
"r c #705F51",
"t c #666057",
"y c #6B6156",
"u c #676158",
"i c #6A635A",
"p c #6E685F",
"a c #706052",
"s c #73675D",
"d c #726A5E",
"f c #6F6961",
"g c #736C64",
"h c #736E6A",
"j c #786F68",
"k c #767169",
"l c #7A756C",
"z c #7D796E",
"x c #7B7771",
"c c #7E7A72",
"v c #837C6E",
"b c #817D73",
"n c #858376",
"m c #868479",
"M c #89867B",
"N c #8B897E",
"B c #8D8C82",
"V c #918E85",
"C c #929186",
"Z c #93928A",
"A c #98978F",
"S c #99988F",
"D c #989790",
"F c #9B9A92",
"G c None",
/* pixels */
"GGGGGGGGGGGGGGGGGGGGGGGGGGGGGGGGGGGGGGGGGGGGGGGGGGGGGGGGGGGGGGGG",
"GGGGGGGGGGGGGGGGGGGGGGGGGGGGGGGGGGGGGGGGGGGGGGGGGGGGGGGGGGGGGGGG",
"GGGGGGGGGGGGGGGGGGGGGGGGGGGGGGGGGGGGGGGGGGGGGGGGGGGGGGGGGGGGGGGG",
"GGGGGGGGGGGGGGGGGGGGGGGGGGGGGGGGGGGGGGGGGGGGGGGGGGGGGGGGGGGGGGGG",
"GGGGGGGGGGGGGGGGGGGGGGGGGGGGGGGGGGGGGGGGGGGGGGGGGGGGGGGGGGGGGGGG",
"GGGGG@&&,,,,,11<<<<<,*<,*,%GGGGGGGGGG@&*,,,<<<<<<<<,,<<,**%GGGGG",
"GGGG<MmZCCCVVNVVVBBBBBBBNpp$GGGGGGGG,MMCZVVVVVVBVVNNBBBBBpp#GGGG",
"GGGG1zvVCCCVVVVNBVBBBBBBBeq@GGGGGGGG1lvZCCVVVVBVVNVVBBBBNqe$GGGG",
"GGGG<vvZC0000q9q0000999BNe0%GGGGGGGG1vvCC09q09q00009999BBqq$GGGG",
"GGGG<xjCC&%<<<<<-,,*&*&BNqq%GGGGGGGG<ljCC,&<<<<<,<<,&&&BBqq$GGGG",
"GGGG,xvCC,qqeeeeayaayy&BMe0@GGGGGGGG,lvZZ,qqrrrreeeyei&Bmeq$GGGG",
"GGGG,vxVV&qsssf,,jjddd&Mme0*GGGGGGGG,lvVV&qrsss,,hgggg&mmqq$GGGG",
"GGGG,vjVV&qsss2NN,ddgp*mm00%GGGGGGGG<vlNB&0sss2NN,jdgg*mMq0$GGGG",
"GGGG,vvBV&qs882NN,,,ll*mm00@GGGGGGGG<lvVV&qs222NN,,,ll*nn00$GGGG",
"GGGG<vvVV%r@NMNNNMMM*k=mmq0@GGGGGGGG<vvVV%e%NMNMNMMM%k*mM00$GGGG",
"GGGG<vvCV%r@CCCNNCNN*l*mm00OGGGGGGGG<bbVV%e%VVCNNCCN*k*mM00OGGGG",
"GG%&,bbCZ&royiyMMyew&l&mm00XX.GGGG$*,bbZZ&eXyyyMnaae%l&mm00X..GG",
"G<bZ<nbZZ%aa@@@nnO@Oll&mm99O05.GG*nZ<bnZZ&aa@@@nvO@#xx&mM90.e5.G",
"%bbZ,bbZZ&rldd$bbOddxk&mm09o095.%bbZ<nbCZ&rldd%bbOssxk&mm09o059.",
"&bbZ<bnZZ&akll@bbollll&mm99X059.&bbZ,bnZZ%rlll@bboxlxh&bm59o095.",
"&bbZ<nbCV$rkjlovcocxlh&mm99o995.&bbC<nbCN&rlllOlvXbxll&Bm97o965.",
"&bbC<nbCB$rbbcOxcoccll&mm99o099.*bbC<cbCV@azccOczXcbll&mn99o055.",
",bbC<bbCB$rccbOBNXcmcc=Mm99o059.*bbV<nnZN$rbxcONNXbcxc&mM96o097.",
",bcC<bnNB$rbccO90Xbccc&mm99o095.,bbC,bnNN$rbbb+90Xbccc-mm95O057.",
",bbV*nbNB$accbfXXdcbcc;mm67o099.*bbC*nbBN$abccdoofcmbz-nm55O055X",
"*bcC*nbNN$accbvfsccccc-mm55oe55.*bcC,bbNN$abcbcspcccbz-nm95X065.",
",zcC*nnNN$abccccbcbccc&mn97oq55.,bbV,nbBN$ycccccbbcccc-nn95.q05X",
"<bcC*ncNN$qccccbcccccx&mn75oe56.<ccC,bcNN@rccccbcbcccc-mm99Ow55.",
"1cbV*cbNN$rcccxbccmccc&Bm95Xq55X<bcV-cbNB$yccccccccccc=nn05Xq50.",
"<ccB,czNN@rcxxbxmccccc=mm96Xe65.1ccV,czNM+rzcccxcccccc-mn56oe55.",
"1czV<zzMN#excxxxxxcccc&mm99Oe50.<czV<czNB#uccxxxcccczc*mn99Ot59X",
"<cbV-zzNM@rcxcbxxxcccc&mn99Oe55X<ccC*zzmM+yxxccxcccczz*mm99Xe05.",
"<cbB-zzmNorjjcxxxclczz*nm99oy99.<zcV*zzmm+rjjxxcxcxccc&bB69oe99X",
"<ccB*zzMMorjjjjxxxcccz*nm09Xq99.<ccB-zlNNorjljjxxxcccx&mb69oe96.",
"<zcV-zlNNXegjjjxxxcccl*nm99Ot99.<czV-lzNmXeghlkxxxccxx&mm99oe99.",
"<ccB-zlNMXeg447qw06:kl*mm99oe99.-ccV<zlMNXeg;170009;xh&mm99oe99.",
"-czB<llNNXqfbMMMmmccxk=mN99Xq99.-zbB-zlNNXefbmMNmbbbxx&mM99oe99.",
"<ccB-czNB.qpfhhjkkklkk=mN99oy99.-bzB-zzNN.0sgghhhlhhxh&BN99.w99.",
"<zcV<lkBB.0w447477:=kk=NN9wXy99.-bzV-lzNNX0i4477973&hh&BN9eoy99.",
"<czB<llNB.eejxxbbccckg-NN0wXy99X-zzV-zlNNX0ilkxxbcbxhh&BMe0oy99.",
"-zxB*zkBB 6eiiiifffhhh&BNtqXi99.-zzB*zlNN.0iwiiiffgfhh&BBwwXi99X",
"-ccB*zlNB &%&-*&--<<&<-BNqqXi99.-ccB*llNB.%%&&--&-<---=BN00Xp55.",
"-czB*llBBBBBBBBBBBBBBBBBNqwXp99.-ccB=klBBBBBBBBBBBBBBBBBBq0Xp59X",
"-zzB%zkFFDDDDDZDDAZDDFFDSt0.i99.-zcB=llFSFSADDDDDDDDSDFSFtq.i99.",
"-xxB$kZZZZZZZZZZZZZZCZZVVSw.y59.*xlB#lZZZZZZZZZZZZZZCCZZCS0.i99.",
"*xlB#CZZZDDZZZZZZZZZZZZZCCS.i99.*zlB#VZZZZZDZZZZZZVZCCZZZCS.i99.",
"-xkB#ktuiuuuuiiiwwwuiwwwttg.i99.-zlB+huuiiuuuiuiiwwwttttttg.y99.",
"*zlB+kuuuuuuuuwuuwiwwwwwttd.y95.*clB+huuuuuuuuwuwuwwwtttttd.i59.",
"*llB+o   .X..X...........  tt99.=lxB+X.....X....o      ....ei77.",
"*lkZN+5555474>>>>;>>>>>>5>.yy59 &llVB#54474>54>>43>>>>1434.iy97.",
"=llZN#53545444>>>>;;>>>3>> yy95 *llZM#344454>4>>>3>>334444.wy55.",
"=llZN#ppitwwewwwwwtw6w6wwp.yy55.&lkCB#pppituwwwwwww00w6wwe.wy55.",
"%llZN+ppfuuuwwuww6ww6w666i.ud55.&klZB+fppuuwtwtwwwww6w666i.tg55.",
"%llZB$pfwuwwuwwwww6w66w6wi.dg55 %llZB+ppwwwuwwwww06066666p.dd55.",
"#kkZN#puuwwuwwwwt6w63::66iodd55.#kkZB#fuwiuwwwwwww6633:6wi+pd55.",
"#kkAB+puwuwwwww6663:33366i+fg55.$kkDB#fiwwuwww6w663:33366i+gd55 ",
"#kkAN#$%%%%%%%&%%%$@$+O++++pM55 $kkAN##%%%$%%$%&&$$$$++++++pN55.",
"#kkDZNMmnnbnbvvvvzvnznvnbbnnB55 #kkFZMmmnnbnnbvvvvznvvnbnbbnN55 ",
"Okkiuuuiwuwuiwwttttwttwwtwwww55 +kkuuiituuuuetwttt6ttwwwwtwww55 ",
".kuuuuuuuuuuwtwttt6twwwwwwwwww5  kuuuuutuwuutwuwtwttwwwtwwwwww5 ",
".iuuiuuuuwuuuwuwtwttttttwwwwttw .iiiuiuuuuuwttttwttttwwwwtttwww ",
"..................     .     .  .............. .    ..     .    ",
"GGGGGGGGGGGGGGGGGGGGGGGGGGGGGGGGGGGGGGGGGGGGGGGGGGGGGGGGGGGGGGGG",
"GGGGGGGGGGGGGGGGGGGGGGGGGGGGGGGGGGGGGGGGGGGGGGGGGGGGGGGGGGGGGGGG"
};
