/* XPM */
static char *result[] = {
/* columns rows colors chars-per-pixel */
"64 64 23 1 ",
"  c black",
". c #010000",
"X c #060404",
"o c #100D0E",
"O c #1F1114",
"+ c #251914",
"@ c #2F1418",
"# c gray18",
"$ c #21283A",
"% c #6F221B",
"& c #401A22",
"* c #56312B",
"= c #74362D",
"- c #415163",
"; c #925F33",
": c #837C7B",
"> c #E79837",
", c #547290",
"< c #A3A8C4",
"1 c #B1CDD9",
"2 c #DFE1E9",
"3 c #D7EBEF",
"4 c None",
/* pixels */
"4444444444444444444444444444444444444444444444444444444444444444",
"4444444444444444444444444444444444444444444444444444444444444444",
"4444444444444444444444444444444444444444444444444444444444444444",
"4444444444444444444444444444444444444444444444444444444444444444",
"4444444444444444444444444444444444444444444444444444444444444444",
"4444444444444444444444444444444444444444444444444444444444444444",
"4444444444444444444444444444444444444444444444444444444444444444",
"4444444444444444444444444444444444444444444444444444444444444444",
"4444444444444444444444444444444444444444444444444444444444444444",
"4444444444444444444444444444444444444444444444444444444444444444",
"4444444444444444444444444444444444444444444444444444444444444444",
"4444444444444444444444444444444444444444444444444444444444444444",
"4444444444444444444444444444444444444444444444444444444444444444",
"4444444444444444444444444444444444444444444444444444444444444444",
"4444444444444444444444444444444444444444444444444444444444444444",
"4444444444444444444444444444444444444444444444444444444444444444",
"4444444444444444444444444444444444444444444444444444444444444444",
"4444444444444444444444444444444444444444444444444444444444444444",
"4444444444444444444444444444444444444444444444444444444444444444",
"44444444444444444444444444444444.....444444444444444444444444444",
"4444444444444444444444444444444.<3333.44444444444444444444444444",
"444444444444444444444444444444.<<<<<<3.4444444444444444444444444",
"44444444444444444444444444444.,<<<<<<<3.444444444444444444444444",
"44444444444444444444444444444.,<<XX.<<3.444444444444444444444444",
"4444444444444444444444444444.,,<<<3X.<<.444444444444444444444444",
"4444444444444444444444444...-,,<<<X3X.<.444444444444444444444444",
"444444444444444444444444X#2.--,,<X,X3X.4444444444444444444444444",
"44444444444444444444444    2.-,,X,X,,,3.444444444444444444444444",
"4444444444444444444444 111- 2.-,,X,,--..444444444444444444444444",
"444444444444444444444...  -- XX-----...4444444444444444444444444",
"44444444444444444444..1---- $ 2X--..#1.4444444444444444444444444",
"4444444444444444444.11.---- X 22X.::X-1.444444444444444444444444",
"444444444444444444.1---.$$ ;  :2:#X2# -.444444444444444444444444",
"44444444444444444.1----$.$....222:22# -.444444444444444444444444",
"44444444444444444..---$...&&& 2:2:2:. -.444444444444444444444444",
"44444444444444444.1..$.33.&&&.XX:X:XX.-.444444444444444444444444",
"4444444444444444.1---.3<,.OOO.<<X:X<<.-.444444444444444444444444",
"4444444444444444.--..3<,       <<<<<<.-.444444444444444444444444",
"444444444444444.1..33<, ;;;;;;; <<<<<.-.444444444444444444444444",
"44444444444444.1.33<<,.<       ;.<<<.-.4444444444444444444444444",
"44444444444444..3<<<,.<<<<o-$,;&; <,.-.4444444444444444444444444",
"4444444444444.1.,,,,..,<<<o-$..;&X,.--.4444444444444444444444444",
"4444444444444.1-....4 ,,,,o-$>=.&&.$--.4444444444444444444444444",
"44444444444444.-$$.44 -,,,$-$>...&.....4444444444444444444444444",
"444444444444444...444 .--.$-o.@@.&.$--1.444444444444444444444444",
"444444444444444444444 ...*$,o%%**..$$--.444444444444444444444444",
"444444444444444444444 ....$,o;;.....$$..444444444444444444444444",
"444444444444444444444.OOOX$,oXX;XO..$.<3.44444444444444444444444",
"444444444444444444444.OOXX$,oXX;XO.4.,,<.44444444444444444444444",
"444444444444444444444.....$<o;;....44.,<<..444444444444444444444",
"444444444444444444444.***O$<oOO++...4.,,3.3.44444444444444444444",
"44444444444444444444O.. .Oo<oOOO+.<<...,<..3.4444444444444444444",
"44444444444444444444.333< o3oOOO..<<<<..,.@.3.444444444444444444",
"4444444444444444444.33<<<,o3oOO..--<<<<<.@.$.3.44444444444444444",
"4444444444444444444.3<<<<<o3oO..-----<<<<..$$.3.4444444444444444",
"444444444444444444.3<<<<<<o3o.$--------<<<.$$$.3.444444444444444",
"444444444444444444.3<<<<<<o3o$$$$$------<<<.$$$.3.44444444444444",
"44444444444444444O.3<<<<<,o3o..$$$$$-----<<<.$$$.3.4444444444444",
"44444444444444444..3<<<<<,o3o....$$$$$----<<..$$$.3.444444444444",
"44444444444444...;.3<<<<,,o3o.......$$$$----<..$.@.3.44444444444",
"4444444444....@@@o.3<<<,,,o3o..$$$$$..$$$$---.4.@...3.4444444444",
"444444444.@@@@@@XX..<<,,,.o3o...$$$$$$...$$....@.$$X.3.444444444",
"44444444.XXXXXXX44.3.....3o3o.....$$$$$$$.3333.X4.XXX3.444444444",
"444444444...4444444.33333.o3o..444...$$$.$$$$.4444.....444444444"
};
