/* XPM */
static char *result[] = {
/* columns rows colors chars-per-pixel */
"64 64 22 1 ",
"  c black",
". c #010000",
"X c #060404",
"o c #100D0E",
"O c #1F1114",
"+ c #2F1418",
"@ c gray18",
"# c #21283A",
"$ c #401A22",
"% c #56312B",
"& c #74362D",
"* c #415163",
"= c #925F33",
"- c #837C7B",
"; c #E79837",
": c #547290",
"> c #A3A8C4",
", c #B1CDD9",
"< c #CEC7C2",
"1 c #DFE1E9",
"2 c #D7EBEF",
"3 c None",
/* pixels */
"3333333333333333333333333333333333333333333333333333333333333333",
"3333333333333333333333333333333333333333333333333333333333333333",
"3333333333333333333333333333333333333333333333333333333333333333",
"3333333333333333333333333333333333333333333333333333333333333333",
"3333333333333333333333333333333333333333333333333333333333333333",
"3333333333333333333333333333333333333333333333333333333333333333",
"3333333333333333333333333333333333333333333333333333333333333333",
"3333333333333333333333333333333333333333333333333333333333333333",
"3333333333333333333333333333333333333333333333333333333333333333",
"3333333333333333333333333333333333333333333333333333333333333333",
"3333333333333333333333333333333333333333333333333333333333333333",
"3333333333333333333333333333333333333333333333333333333333333333",
"3333333333333333333333333333333333333333333333333333333333333333",
"3333333333333333333333333333333333333333333333333333333333333333",
"3333333333333333333333333333333333333333333333333333333333333333",
"3333333333333333333333333333333333333333333333333333333333333333",
"3333333333333333333333333333333333333333333333333333333333333333",
"3333333333333333333333333333333333333333333333333333333333333333",
"3333333333333333333333333333333333333333333333333333333333333333",
"3333333333333333333333333333333333333333333333333333333333333333",
"3333333333333333333333333333333333333333333333333333333333333333",
"3333333333333333333333333333333333333333333333333333333333333333",
"3333333333333333333333333333333333333333333333333333333333333333",
"3333333333333333333333333333333333333333333333333333333333333333",
"3333333333333333333333333333333333333333333333333333333333333333",
"3333333333333333333333333333333333333333333333333333333333333333",
"3333333333333333333333333333333333333333333333333333333333333333",
"3333333333333333333333333333333333333333333333333333333333333333",
"3333333333333333333333333333333333333333333333333333333333333333",
"3333333333333333333333333333333333333333333333333333333333333333",
"33333333333333333333333333...33333333333333333.....3333333333333",
"3333333333333333 3333333..,,,...........XXX33.>2222.333333333333",
"333333333333333 = 3333..22.#.,,,,,.,,,,,..1X..>>>>>2.33333333333",
"3333333333333333.333..22>>:.##****.****.,,.11.>>>>>>2.3333333333",
"333333333333333.=...22>>::..####**.****.**,.1.:XX.>>2.3333333333",
"33333333333333...O.::::...33...##.#****.**,.1.:>>X.>>.3333333333",
"33333333333333.OOO.....33333333..###**.***,..:**X*X.>.3333333333",
"333333333333.       333333333333...##.#****.X::X:X*X.33333333333",
"333333333333 ======= 3333333333.>>>..###*#.1X*X:X:::*.3333333333",
"3333333333333       3333333333.>>>>$$..##.11<.*X****..3333333333",
"333333333333333o*#33333333333 :>>>>...$...-1X*****..333333333333",
"333333333333333o*#3333333333 *:>>>>>>>...<11..**..33333333333333",
"333333333333333o*#333333333..*::>>>>>>>.X-11.....333333333333333",
"333333333333333#*#33333333XX.*::::>>>>.$.-11-X-..333333333333333",
"333333333333333#*o3333333XOOX....:::>.$X>X<<111X.333333333333333",
"333333333333333#:o3333333XOOXX%&&...>=$X>XX--@...333333333333333",
"333333333333333#:o333333  X$$X%%&&;&=$=>>>>XX.*.3333333333333333",
"333333333333333#:o33333. .%X$$X&&;&&.= >>>>:.#*.3333333333333333",
"333333333333333#:o333O.22>.X$$==;&&&.$X::::.##.33333333333333333",
"333333333333333#>o333.2>>>:.X=$$=&&&.$.....##*.33333333333333333",
"333333333333333#>o33.2>>>>:.%=$$=X&&...33....*.33333333333333333",
"333333333333333o>o3.2>>>>::.%&==$$X....33.##*.333333333333333333",
"333333333333333o2o.2>>>>>::.&&XX$OXX.333.###*.333333333333333333",
"333333333333333o2o2>>>>>:::.&&&XXXX33333..#*.3333333333333333333",
"333333333333333o2o2>>>>>::.XX&..X 333333.>.*.3333333333333333333",
"333333333333333o2o>>>>>::.....***> 3333.::>.33333333333333333333",
"333333333333333o2o>>>>:::.#####***> 333.:>.333333333333333333333",
"33333333333....o2o>>>:::.#.#####**> 33.:>>.333333333333333333333",
"3333333333.+++.o2o>>:::.###.#####**> 3.:>.3333333333333333333333",
"333333333.XXX.2o2o>:::.####..#####*> .:>.33333333333333333333333",
"3333333333....2o2o:::.#....##.#####*> :.333333333333333333333333",
"333333333333..2o2o.....#######..###*> .3333333333333333333333333",
"33333333333....o2o2.###########..##*> .3333333333333333333333333",
"33333333333....o2o.............*..... 33333333333333333333333333"
};
