/* XPM */
static char *result[] = {
/* columns rows colors chars-per-pixel */
"64 64 20 1 ",
"  c black",
". c #010000",
"X c #060404",
"o c #100D0E",
"O c #1F1114",
"+ c gray18",
"@ c #21283A",
"# c #401A22",
"$ c #56312B",
"% c #74362D",
"& c #415163",
"* c #925F33",
"= c #837C7B",
"- c #E79837",
"; c #547290",
": c #A3A8C4",
"> c #B1CDD9",
", c #DFE1E9",
"< c #D7EBEF",
"1 c None",
/* pixels */
"1111111111111111111111111111111111111111111111111111111111111111",
"1111111111111111111111111111111111111111111111111111111111111111",
"1111111111111111111111111111111111111111111111111111111111111111",
"1111111111111111111111111111111111111111111111111111111111111111",
"1111111111111111111111111111111111111111111111111111111111111111",
"1111111111111111111111111111111111111111111111111111111111111111",
"1111111111111111111111111111111111111111111111111111111111111111",
"1111111111111111111111111111111111111111111111111111111111111111",
"1111111111111111111111111111111111111111111111111111111111111111",
"1111111111111111111111111111111111111111111111111111111111111111",
"1111111111111111111111111111111111111111111111111111111111111111",
"1111111111111111111111111111111111111111111111111111111111111111",
"1111111111111111111111111111111111111111111111111111111111111111",
"1111111111111111111111111111111111111111111111111111111111111111",
"1111111111111111111111111111111111111111111111111111111111111111",
"1111111111111111111111111111111111111111111111111111111111111111",
"1111111111111111111111111111111111111111111111111111111111111111",
"1111111111111111111111111111111111111111111111111111111111111111",
"1111111111111111111111111111111111111111111111111111111111111111",
"1111111111111111111111111111111111111111111111111111111111111111",
"1111111111111111111111111111111111111111111111111111111111111111",
"1111111111111111111111111111111111111111111111111111111111111111",
"1111111111111111111111111111111111111111111111111111111111111111",
"1111111111111111111111111111111111111111111111111111111111111111",
"1111111111111111111111111111111111111111111111111111111111111111",
"1111111111111111111111111111111111111111111111111111111111111111",
"1111111111111111111111111111111111111111111111111111111111111111",
"1111111111111111111111111111111111111111111111111111111111111111",
"1111111111111111111111111111111111111111111111111111111111111111",
"1111111111111111111111111111111111111111111111111111111111111111",
"1111111111111111111111111111111111111111111111111111111111111111",
"11111111111111 1111111111111111111111111111111111111111111111111",
"1111111111111 * 111111111111111111111111111111111111111111111111",
"11111111111111.1111111111111111111111111111111111111111111111111",
"1111111111111.*.111111111111111111111111111111111111111111111111",
"1111111111111.*...1111111111111111111111111111111111111111111111",
"1111111111111.*..#.111111111111111111111111111111111111111111111",
"11111111111       #.11111111111111111111111111111111111111111111",
"1111111111 ******* #...11111111111111111111111111111111111111111",
"11111111111       ..;:<....1111111111111111111111111111111111111",
"1111111111111o&@111..;:::<<......11111111111111111.....111111111",
"1111111111111o&@11111..;::::<.>>>...........XXX11.:<<<<.11111111",
"1111111111111o&@1111111..;;:::.@.>>>>>.>>>>>..,X..:::::<.1111111",
"1111111111111@&@111111111...;;;.@@&&&&.&&&&.>>.,,.::::::<.111111",
"1111111111111@&o111111111111....@@@@&&.&&&&.&&>.,.;XX.::<.111111",
"1111111111111@;o1111111111111111...@@.@&&&&.&&>.,.;::X.::.111111",
"1111111111111@;o1111111111111111111..@@@&&.&&&>..;&&X&X.:.111111",
"1111111111111@;o11111111111111111111...@@.@&&&&.X;;X;X&X.1111111",
"1111111111111@;o1111111111111111111.<::..@@@&@.,X&X;X;;;&.111111",
"1111111111111@:o111111111111111111.<:::.#..@@.,,,.&X&&&&..111111",
"1111111111111@:o11111111111111111 <:::::..#...=,X&&&&&..11111111",
"1111111111111o:o1111111111111111 <;:::::::...,,,..&&..1111111111",
"1111111111111o<o111111111111111..&;;:::::::.X=,,.....11111111111",
"1111111111111o<o11111111111111.O.&;;;;::::.#.=,==X=..11111111111",
"1111111111111o<o1111111111111..O.....;;;:.#X:X,=,,,X.11111111111",
"1111111111111o<o111111111111...O.$$$%...:*#X:XX==+.@.11111111111",
"1111111111111o<o111111111....$.O#.$%%%%-*#*:::;XX.@.111111111111",
"1111111111111o<o1111.....<<<<...#.%%%%-%.* ::;;;.@@.111111111111",
"1111111111111o<o1...<<<<<:::::..##.%%-%%.#X;;;;.@@.1111111111111",
"1111111111111o<o.<<<::::::::::.$.#*.-%%%.#.....@@.11111111111111",
"11111111111..o<o<::::::::::::;.$%*#*%%%%..@@@@@..111111111111111",
"111111111..<.o<o:::::;;;;;;;;;.%%*#*.%..@@.@@@.11111111111111111",
"11111111...<.o<o;;;;;;;;;;;;;.$$$$*...;;.@@...111111111111111111",
"11111111...<.o<o..............$.....;;;;....11111111111111111111"
};
