/* XPM */
static char *result[] = {
/* columns rows colors chars-per-pixel */
"64 64 23 1 ",
"  c black",
". c #050403",
"X c #0C0C0C",
"o c #0E0C0C",
"O c #171516",
"+ c #21181B",
"@ c #1B1F21",
"# c #3B2027",
"$ c #282C3C",
"% c #323232",
"& c #4F342F",
"* c #673931",
"= c #485262",
"- c #855F39",
"; c #807B7A",
": c #D39741",
"> c #5E718E",
", c #A69E9A",
"< c #A3A7C2",
"1 c #B8CCD8",
"2 c #DFE0E8",
"3 c #DCEAEE",
"4 c None",
/* pixels */
"4444444444444444444444444444444444444444444444444444444444444444",
"4444444444444444444444444444444444444444444444444444444444444444",
"4444444444444444444444444444444444444444444444444444444444444444",
"4444444444444444444444444444444444444444444444444444444444444444",
"4444444444444444444444444444444444444444444444444444444444444444",
"4444444444444444444444444444444444444444444444444444444444444444",
"4444444444444444444444444444444444444444444444444444444444444444",
"4444444444444444444444444444444444444444444444444444444444444444",
"4444444444444444444444444444444444444444444444444444444444444444",
"4444444444444444444444444444444444444444444444444444444444444444",
"4444444444444444444444444444444444444444444444444444444444444444",
"4444444444444444444444444444444444444444444444444444444444444444",
"4444444444444444444444444444444444444444444444444444444444444444",
"4444444444444444444444444444444444444444444444444444444444444444",
"4444444444444444444444444444444444444444444444444444444444444444",
"4444444444444444444444444444444444444444444444444444444444444444",
"4444444444444444444444444444444444444444444444444444444444444444",
"4444444444444444444444444444444444444444444444444444444444444444",
"4444444444444444444444444444444444444444444444444444444444444444",
"4444444444444444444444444444444444444444444444444444444444444444",
"4444444444444444444444444444444444444444444444444444444444444444",
"4444444444444444444444444444444444444444444444444444444444444444",
"4444444444444444444444444444444444444444444444444444444444444444",
"4444444444444444444444444444444444444444444444444444444444444444",
"4444444444444444444444444444444444444444444444444444444444444444",
"4444444444444444444444444444444444444444444444444444444444444444",
"4444444444444444444444444444444444444444444444444444444444444444",
"4444444444444444444444444444444444444444444444444444444444444444",
"4444444444444444444444444444444444444444444444444444444444444444",
"4444444444444444444444444444444444444444444444444444444444444444",
"4444444444444444444444444444444444444444444444444444444444444444",
"4444444444444 44444444444444444444444444444444444444444444444444",
"444444444444 - 4444444444444444444444444444444444444444444444444",
"4444444444444.44444444444444444444444444444444444444444444444444",
"444444444444.-.4444444444444444444444444444444444444444444444444",
"444444444444.-.4444444444444444444444444444444444444444444444444",
"444444444444.-.4444444444444444444444444444444444444444444444444",
"4444444444       44444444444444444444444444444444444444444444444",
"444444444 ------- 4444444444444444444444444444444444444444444444",
"4444444444       44444444444444444444444444444444444444444444444",
"444444444444O=$4444444444444444444444444444444444444444444444444",
"444444444444O=$4444444444444444444444444444444444444444444444444",
"444444444444O=$4444444444444444444444444444444444444444444444444",
"444444444444$=$4444444444444444444444444444444444444444444444444",
"444444444444$=O4444444444444444444444444444444444444444444444444",
"444444444444$>O4444444444444444444444444444444444444444444444444",
"444444444444$>O44.4.44444444444444444444444444444444444444444444",
"444444444444$>O44..#.4444444444444444444444444444444444444444444",
"444444444444$>O44.###.444444444444444444444444444444444444444444",
"444444444444$<O444.###...444444444444444444444444444444444444444",
"444444444444$<O4444...3<3.........444444444444444444444444444444",
"444444444444O<O444444..<<3<333.111...........4444444444444444444",
"444444444444O3O44444444..<<<<<>.$.11111.11111..44444444444444444",
"444444444444O3O4444444444..>>>...$$====.====.11.@@o44...oo444444",
"444444444444O3O44444444.......+..$$$$==.====.==1.2,o.$$>>>o44444",
"444444444444O3O44444...33<<<.o..o...$$.$====.==1.2,2oo>>><<o4444",
"444444444444O3O44...333<<<<<.o##o&.>..$$$==.===1.,22%.o><<<<o444",
"444444444444O3O..333<<<<<<<>.o##o&*.>>..$$.$====.,222.oX<<3<o444",
"444444444444O3O33<<<<<<<<<>>.o##o.*.>><<..$$$=$.2222<.<o.3<<o444",
"444444444444O3O<<<<<<<<<<>>.&.--o*.*.><<<...$$.2,22.=<<o.<<3o444",
"4444444444..O3O<<<<<<<<<>>>.&.##-:.::.><.#....2,2o.<<.3o.<<3o444",
"44444444..3<O3O<<<<<<>>>>..&&.##-:*.*.-.#.>o;;;22o...<3o.<3o4444",
"4444444...3<O3O>>>>>>>...o&&&o--o**..-#-.>>o%;;;o<<<<.<o.3o44444",
"4444444...3.O3O...........o&&o##o&..##-.==o%%%;ooooo<<3o.o444444"
};
