/* XPM */
static char *result[] = {
/* columns rows colors chars-per-pixel */
"64 64 24 1 ",
"  c black",
". c #010000",
"X c #040404",
"o c #060404",
"O c #100D0E",
"+ c #0F1112",
"@ c #1F1114",
"# c #12191B",
"$ c #2F1418",
"% c #21283A",
"& c #401A22",
"* c #56312B",
"= c #74362D",
"- c #415163",
"; c #925F33",
": c #837C7B",
"> c #E79837",
", c #547290",
"< c #AA9F9B",
"1 c #A3A8C4",
"2 c #B1CDD9",
"3 c #DFE1E9",
"4 c #D7EBEF",
"5 c None",
/* pixels */
"555555555555555555555555555555555ooooo55555555555555555555555555",
"55555555555555555555555555555555o44111o5555555555555555555555555",
"5555555555555555555555555555555o4111411o555555555555555555555555",
"555555555555555555555555555555o41114111,o55555555555555555555555",
"555555555555555555555555555555......11,,o55555555555555555555555",
"5555555555555555555555555555ooooooooX,,,.55555555555555555555555",
"5555555555555555555555555555o1414411oo,%.55555555555555555555555",
"55555555555555555555555555555o1.1.11,oo%.55555555555555555555555",
"55555555555555555555555555555o11.1.1,o%.oo5555555555555555555555",
"555555555555555555555555555555o1.1.,o%.:33.555555555555555555555",
"555555555555555555555555555555o1.1,,.o:33<<o55555555555555555555",
"55555555555555555555555555555.o11,,oo33<<3:#55555555555555555555",
"5555555555555555555555555555..o1,.o33<33:ooo55555555555555555555",
"555555555555555555555555555.2.o..o33<3ooo-2o55555555555555555555",
"55555555555555555555555555.2-.3oo:3<3o---ooo55555555555555555555",
"5555555555555555555555555.2- .33:333o-%oo-22o5555555555555555555",
"5555555555555555555555555.-- .<3:3<o%%o-----2o555555555555555555",
"5555555555555555555555555.- 4oo<o<&o%O-------2o55555555555555555",
"5555555555555555555555555.- 411o.&&.%O-------- o5555555555555555",
"5555555555555555555555555.- 411.&&.1o%------- 2o5555555555555555",
"5555555555555555555555555.% 11.&&.11 o%----- -2o5555555555555555",
"5555555555555555555555555.O 41@&.1111 o%%--O--2o5555555555555555",
"555555555555555555555555.2% 4.;.111111 o OO---2o5555555555555555",
"55555555555555555....555.-% 1;&;1111111 o%%--- o5555555555555555",
"555555555555555..4444..5.%%  &;  11111,,,o%-  -2o555555555555555",
"55555555555555.44111114.....&& =>  ,,,,,- o ----o555555555555555",
"5555555555555.411111111.11,.& ==>== ,,,- 55o%%+  555555555555555",
"555555555555.4111111.1.11,.5.===>===  -- 555 +-22 55555555555555",
"55555555555.1111111.&...1,..====>===** - 555 %--2 55555555555555",
"55555555555.11111111.&&@..4.===>>=*****  555 %--- 55555555555555",
"5555555555.--11111111..&@.1oooo;;ooooooo 555  --- 55555555555555",
"5555555555.---111 111.,.&.1o@&;&&;&&&@@@o555 1  - 55555555555555",
"5555555555.----- &.1.,,O.& o&&;&&;&&&&@@o555 111 555555555555555",
"5555555555.------.&.O,O....oooo;;ooooooo.555 114o555555555555555",
"5555555555.-------. &OO.$$$..====***.--4.555 114o555555555555555",
"55555555555.------&& &...oo..===***.-1114.555 14o555555555555555",
"55555555555.------.& &.-.....o=***.-11114.555 14o555555555555555",
"555555555555.------...& --.11.o**.--11114.555 14o555555555555555",
"5555555555555.%------- & -.111.o@.-111114.o55 14o555555555555555",
"55555555555555.%------- --.1111,o.-111114.;o   4o.55555555555555",
"555555555555555.%---------.111,,-.-111114.o;&&  ;.55555555555555",
"5555555555555555.%-------.1111,,-.-11111OOO;o@& ...5555555555555",
"55555555555555555.%%-----.111,,--..11OOO,,-o;@ $$$$.555555555555",
"555555555555555555.%%%%--.111,--.-OOO,,,--OO;ooooooo.55555555555",
"5555555555555555555..%%%%. 411,OOO,,,--OOO55o;555...555555555555",
"555555555555555555555..%% o4OOO,,---OOO44.555o555555555555555555",
"55555555555555555555555..OOO11,,,OOO11444.5555555555555555555555",
"5555555555555555555555OOO44111OOO%.5OO....5555555555555555555555",
"5555555555555555555OOO44411OOO ....5.222-.5555555555555555555555",
"555555555555555555O44441OOO-- 555555.2----.555555555555555555555",
"55555555555555555O441OOO5 --% 5555555.---%.555555555555555555555",
"555555555555555555OOO55555 %3 .555555.--%%.555555555555555555555",
"5555555555555555555555555 33 % 555555.%%%%2.55555555555555555555",
"55555555555555555555555555o %, 5555555.222%.55555555555555555555",
"55555555555555555555555555 %1, 5555555.%%%1.55555555555555555555",
"55555555555555555555555555.11, 5555555.O--1.55555555555555555555",
"55555555555555555555555555.11, 55555555.,11.55555555555555555555",
"55555555555555555555555555.1,, 55555555.,11.55555555555555555555",
"55555555555555555555555555.,%.555555555.,11.55555555555555555555",
"55555555555555555555555555.,%.5555555555%,1.55555555555555555555",
"55555555555555555555555555.OO.5555555555.%%.55555555555555555555",
"5555555555555555555555555o444.5555555555o44o55555555555555555555",
"555555555555555555555555.....4.5555555554..455555555555555555555",
"5555555555555555555555...oooo.5555555555.oo.55555555555555555555"
};
