/* XPM */
static char *result[] = {
/* columns rows colors chars-per-pixel */
"64 64 24 1 ",
"  c black",
". c #010000",
"X c #040404",
"o c #060404",
"O c #100D0E",
"+ c #0F1112",
"@ c #1F1114",
"# c #12191B",
"$ c #2F1418",
"% c #21283A",
"& c #401A22",
"* c #56312B",
"= c #74362D",
"- c #415163",
"; c #925F33",
": c #837C7B",
"> c #E79837",
", c #547290",
"< c #AA9F9B",
"1 c #A3A8C4",
"2 c #B1CDD9",
"3 c #DFE1E9",
"4 c #D7EBEF",
"5 c None",
/* pixels */
"55555555555555555555555555ooooo555555555555555555555555555555555",
"5555555555555555555555555o11144o55555555555555555555555555555555",
"555555555555555555555555o1141114o5555555555555555555555555555555",
"55555555555555555555555o,11141114o555555555555555555555555555555",
"55555555555555555555555o,,11......555555555555555555555555555555",
"55555555555555555555555.,,,Xoooooooo5555555555555555555555555555",
"55555555555555555555555.%,oo1144141o5555555555555555555555555555",
"55555555555555555555555.%oo,11.1.1o55555555555555555555555555555",
"5555555555555555555555oo.%o,1.1.11o55555555555555555555555555555",
"555555555555555555555.33:.%o,.1.1o555555555555555555555555555555",
"55555555555555555555o<<33:o.,,1.1o555555555555555555555555555555",
"55555555555555555555#:3<<33oo,,11o.55555555555555555555555555555",
"55555555555555555555ooo:33<33o.,1o..5555555555555555555555555555",
"55555555555555555555o2-ooo3<33o..o.2.555555555555555555555555555",
"55555555555555555555ooo---o3<3:oo3.-2.55555555555555555555555555",
"5555555555555555555o22-oo%-o333:33. -2.5555555555555555555555555",
"555555555555555555o2-----o%%o<3:3<. --.5555555555555555555555555",
"55555555555555555o2-------O%o&<o<oo4 -.5555555555555555555555555",
"5555555555555555o --------O%.&&.o114 -.5555555555555555555555555",
"5555555555555555o2 -------%o1.&&.114 -.5555555555555555555555555",
"5555555555555555o2- -----%o 11.&&.11 %.5555555555555555555555555",
"5555555555555555o2--O--%%o 1111.&@14 O.5555555555555555555555555",
"5555555555555555o2---OO o 111111.;.4 %2.555555555555555555555555",
"5555555555555555o ---%%o 1111111;&;1 %-.555....55555555555555555",
"555555555555555o2-  -%o,,,11111  ;&  %%.5..4444..555555555555555",
"555555555555555o---- o -,,,,,  >= &&.....41111144.55555555555555",
"555555555555555  +%%o55 -,,, ==>== &.,11.111111114.5555555555555",
"55555555555555 22-+ 555 --  ===>===.5.,11.1.1111114.555555555555",
"55555555555555 2--% 555 - **===>====..,1...&.1111111.55555555555",
"55555555555555 ---% 555  *****=>>===.4..@&&.11111111.55555555555",
"55555555555555 ---  555 ooooooo;;oooo1.@&..11111111--.5555555555",
"55555555555555 -  1 555o@@@&&&;&&;&@o1.&.,.111 111---.5555555555",
"555555555555555 111 555o@@&&&&;&&;&&o &.O,,.1.& -----.5555555555",
"555555555555555o411 555.ooooooo;;oooo....O,O.&.------.5555555555",
"555555555555555o411 555.4--.***====..$$$.OO& .-------.5555555555",
"555555555555555o41 555.4111-.***===..oo...& &&------.55555555555",
"555555555555555o41 555.41111-.***=o.....-.& &.------.55555555555",
"555555555555555o41 555.41111--.**o.11.-- &...------.555555555555",
"555555555555555o41 55o.411111-.@o.111.- & -------%.5555555555555",
"55555555555555.o4   o;.411111-.o,1111.-- -------%.55555555555555",
"55555555555555.;  &&;o.411111-.-,,111.---------%.555555555555555",
"5555555555555... &@o;OOO11111-.-,,1111.-------%.5555555555555555",
"555555555555.$$$$ @;o-,,OOO11..--,,111.-----%%.55555555555555555",
"55555555555.ooooooo;OO--,,,OOO-.--,111.--%%%%.555555555555555555",
"555555555555...555;o55OOO--,,,OOO,114 .%%%%..5555555555555555555",
"555555555555555555o555.44OOO---,,OOO4o %%..555555555555555555555",
"5555555555555555555555.44411OOO,,,11OOO..55555555555555555555555",
"5555555555555555555555....OO5.%OOO11144OOO5555555555555555555555",
"5555555555555555555555.-222.5.... OOO11444OOO5555555555555555555",
"555555555555555555555.----2.555555 --OOO14444O555555555555555555",
"555555555555555555555.%---.5555555 %-- 5OOO144O55555555555555555",
"555555555555555555555.%%--.555555. 3% 55555OOO555555555555555555",
"55555555555555555555.2%%%%.555555 % 33 5555555555555555555555555",
"55555555555555555555.%222.5555555 ,% o55555555555555555555555555",
"55555555555555555555.1%%%.5555555 ,1% 55555555555555555555555555",
"55555555555555555555.1--O.5555555 ,11.55555555555555555555555555",
"55555555555555555555.11,.55555555 ,11.55555555555555555555555555",
"55555555555555555555.11,.55555555 ,,1.55555555555555555555555555",
"55555555555555555555.11,.555555555.%,.55555555555555555555555555",
"55555555555555555555.1,%5555555555.%,.55555555555555555555555555",
"55555555555555555555.%%.5555555555.OO.55555555555555555555555555",
"55555555555555555555o44o5555555555.444o5555555555555555555555555",
"555555555555555555554..4555555555.4.....555555555555555555555555",
"55555555555555555555.oo.5555555555.oooo...5555555555555555555555"
};
