/* XPM */
static char *result[] = {
/* columns rows colors chars-per-pixel */
"64 64 216 2 ",
"   c #35354D",
".  c #3B3A4F",
"X  c #37384E",
"o  c #3B3B52",
"O  c #373A54",
"+  c #433E4E",
"@  c #403F56",
"#  c #3F4258",
"$  c #3D496E",
"%  c #3D4967",
"&  c #45414E",
"*  c #4C424D",
"=  c #424154",
"-  c #43445D",
";  c #4A4859",
":  c #534D57",
">  c #58515A",
",  c #554F53",
"<  c #69564A",
"1  c #675A55",
"2  c #735B4F",
"3  c #55765A",
"4  c #766758",
"5  c #706F51",
"6  c #4A4B63",
"7  c #474B65",
"8  c #4E516B",
"9  c #54546B",
"0  c #595767",
"q  c #455873",
"w  c #555872",
"e  c #5C5E73",
"r  c #555974",
"t  c #625A65",
"y  c #5B6576",
"u  c #5A6665",
"i  c #66636E",
"p  c #636375",
"a  c #676678",
"s  c #78727D",
"d  c #6E7071",
"f  c #99693E",
"g  c #A36E3E",
"h  c #BA7936",
"j  c #B67837",
"k  c #AD743E",
"l  c #C17C34",
"z  c #845F43",
"x  c #8B6443",
"c  c #946641",
"v  c #9D6D46",
"b  c #966E4E",
"n  c #8E784A",
"m  c #896F52",
"M  c #806A55",
"N  c #8A7557",
"B  c #997852",
"V  c #AA7444",
"C  c #957B6D",
"Z  c #73B965",
"A  c #72BF76",
"S  c #7ACB65",
"D  c #7FCB6A",
"F  c #73C074",
"G  c #F2941C",
"H  c #F1991F",
"J  c #EF941E",
"K  c #D4862C",
"L  c #CA8131",
"P  c #C68035",
"I  c #D28835",
"U  c #D39B37",
"Y  c #CF832D",
"T  c #E58E25",
"R  c #EF9F24",
"E  c #EA9122",
"W  c #F19B22",
"Q  c #DAA439",
"!  c #F2AC29",
"~  c #F0A125",
"^  c #F3B32C",
"/  c #F5BC2F",
"(  c #E3A937",
")  c #F2B42F",
"_  c #F8CD36",
"`  c #F3CE3A",
"'  c #F7CF36",
"]  c #FCD537",
"[  c #F9D338",
"{  c #FCD637",
"}  c #E4C23F",
"|  c #97864B",
" . c #9F8E54",
".. c #A4884A",
"X. c #B19958",
"o. c #AE8F4E",
"O. c #BDA44B",
"+. c #89B26E",
"@. c #92BD78",
"#. c #8DB378",
"$. c #CDB143",
"%. c #D7B842",
"&. c #DBBA42",
"*. c #C4AB51",
"=. c #E0BF40",
"-. c #C49B4B",
";. c #91D177",
":. c #A5DD76",
">. c #A4DC79",
",. c #A4D979",
"<. c #ADE279",
"1. c #E4C345",
"2. c #3D5992",
"3. c #425D91",
"4. c #566987",
"5. c #476989",
"6. c #6A7187",
"7. c #767687",
"8. c #78798A",
"9. c #6B7387",
"0. c #416AAE",
"q. c #476AA4",
"w. c #4474BF",
"e. c #4775A9",
"r. c #447BCD",
"t. c #4778C4",
"y. c #437BD1",
"u. c #847B81",
"i. c #6E9190",
"p. c #68B18A",
"a. c #76B197",
"s. c #5485A9",
"d. c #5898AB",
"f. c #4D8CB5",
"g. c #5493BA",
"h. c #4F8CB5",
"j. c #6EBCBC",
"k. c #71BEB9",
"l. c #6CA8B0",
"z. c #5C9690",
"x. c #79C3B0",
"c. c #74C1B8",
"v. c #7DC4A9",
"b. c #4884CB",
"n. c #4682D0",
"m. c #4B93D5",
"M. c #5294C9",
"N. c #5EB4CE",
"B. c #52ADDC",
"V. c #52A9D6",
"C. c #57B2DA",
"Z. c #50A5D3",
"A. c #62B6CA",
"S. c #71BECA",
"D. c #67B8DD",
"F. c #52B2E0",
"G. c #65B5E0",
"H. c #88848B",
"J. c #938689",
"K. c #998C8D",
"L. c #878795",
"P. c #8B8C9A",
"I. c #93929C",
"U. c #8D9093",
"Y. c #A69695",
"T. c #A99996",
"R. c #AB9B9A",
"E. c #A29C9B",
"W. c #AFA19F",
"Q. c #9899A5",
"!. c #8896AA",
"~. c #80BEA0",
"^. c #A2A2AC",
"/. c #ACA3A6",
"(. c #B2A6A3",
"). c #B9ADAC",
"_. c #ABABB4",
"`. c #A6A7B3",
"'. c #B5B5BD",
"]. c #BDB7B8",
"[. c #A09EA4",
"{. c #C6BFBD",
"}. c #9ED880",
"|. c #99D486",
" X c #89CC9C",
".X c #84C49D",
"XX c #8FCA90",
"oX c #ADDE90",
"OX c #BBE983",
"+X c #B5E695",
"@X c #84C9A3",
"#X c #86CAA6",
"$X c #A7DEA7",
"%X c #C2EE86",
"&X c #CCF48B",
"*X c #C7F187",
"=X c #C7F190",
"-X c #BDBDC4",
";X c #B6B7C0",
":X c #A6D9D4",
">X c #91CBEA",
",X c #81C6CB",
"<X c #CAC3C2",
"1X c #C6C6CB",
"2X c #CCCCD1",
"3X c #DDDBDC",
"4X c #D3D3D5",
"5X c #E0DDDD",
"6X c #DEDEE0",
"7X c #E3E3E4",
"8X c #E8E7E7",
"9X c #EDEDED",
"0X c #E7E7E8",
"qX c #F0F0EF",
"wX c #F1F1F1",
"eX c None",
/* pixels */
"eXeXeXeXeXeXeXeXeXeXeXeXeXeXeXeXeXeXeXeXeXeXeXeXeXeXeXeXeXeXeXeXeXeXeXeXeXeXeXeXeXeXeXeXeXeXeXeXeXeXeXeXeXeXeXeXeXeXeXeXeXeXeXeX",
"eXeXeXeXeXeXeXeXeXeXeXeXeXeXeXeXeXeXeXeXeXeXeXeXeXeXeXeXeXeXeXeXeXeXeXeXeXeXeXeXeXeXeXeXeXeXeXeXeXeXeXeXeXeXeXeXeXeXeXeXeXeXeXeX",
"eXeXeXeXeXeXeXeXeXeXeXeXeXeXeXeXeXeXeXeXeXeXeXeXeXeXeXeXeXeXeXeXeXeXeXeXeXeXeXeXeXeXeXeXeXeXeXeXeXeXeXeXeXeXeXeXeXeXeXeXeXeXeXeX",
"eXeXeXeXeXeXeXeXeXeXeXeXeXeXeXeXeXeXeXeXeXeXeXeXeXeXeXeXeXeXeXeXeXeXeXeXeXeXeXeXeXeXeXeXeXeXeXeXeXeXeXeXeXeXeXeXeXeXeXeXeXeXeXeX",
"eXeXeXeXeXeXeXeXeXeXeXeXeXeXeXeXeXeXeXeXeXeXeXeXeXeXeXeXeXeXeXeXeXeXeXeXeXeXeXeXeXeXeXeXeXeXeXeXeXeXeXeXeXeXeXeXeXeXeXeXeXeXeXeX",
"eXeXeXeXeXeXeXeXeXeXeXeXeXeXeXeXeXeXeXeXeXeXeXeXeXeXeXeXeXeXeXeXeXeXeXeXeXeXeXeXeXeXeXeXeXeXeXeXeXeXeXeXeXeXeXeXeXeXeXeXeXeXeXeX",
"eXeXeXeXeXeXeXeXeXeXeXeXeXeXeXeXeXeXeXeXeXeXeXeXeXeXeXeXeXeXeXwX9XqXqXqX9X9X9XwXqX9XeXeXeXeXeXeXeXeXeXeXeXeXeXeXeXeXeXeXeXeXeXeX",
"eXeXeXeXeXeXeXeXeXeXeXeXeXeXeXeXeXeXeXeXeXeXeXeXeXeXeXeXeXeX9X1X-X-X-X;X;X'.'.'.'.2X9XeXeXeXeXeXeXeXeXeXeXeXeXeXeXeXeXeXeXeXeXeX",
"eXeXeXeXeXeXeXeXeXeXeXeXeXeXeXeXeXeXeXeXeXwXqX9X9X9X9X9X9X9X8X6.w w 8 - 7 - o o X I.wX9X9XeXeXeXeXeXeXeXeXeXeXeXeXeXeXeXeXeXeXeX",
"eXeXeXeXeXeXeXeXeXeXeXeXeXeXeXeXeXeXeXeX9X6X5X7X6X5X5X5X6X6X4XZ i p 0 > : : * = & K.6X6X7X9XeXeXeXeXeXeXeXeXeXeXeXeXeXeXeXeXeXeX",
"eXeXeXeXeXeXeXeXeXeXeXeXeXeXeXeXeXeXeXqX2X6.6.6.6.e e e 9 9 u *.1.=.%.U Q Q K Y Y b 9 9 a 6X9XeXeXeXeXeXeXeXeXeXeXeXeXeXeXeXeXeX",
"eXeXeXeXeXeXeXeXeXeXeXeXeXeXeXeXeX9XqXwX1Xw 9 9 - - - @   @ & ( { ] _ ^ ^ ^ H J G f     6 3XqXqX9XeXeXeXeXeXeXeXeXeXeXeXeXeXeXeX",
"eXeXeXeXeXeXeXeXeXeXeXeXeXeXeXeXeX;XQ.Q.!.s.s.s.e.e.e.4.X # . 5 B | n n m x x x f n ..o. .U.i.P.1X9XeXeXeXeXeXeXeXeXeXeXeXeXeXeX",
"eXeXeXeXeXeXeXeXeXeXeXeXeXeX9X9XqXi.8 w 4.B.F.B.G.V.F.s.# #             X X       | { { } &     Q.wXqXqXeXeXeXeXeXeXeXeXeXeXeXeX",
"eXeXeXeXeXeXeXeXeXeXeXeXeX0X2X2X2XU.d d i.S.S.S.D.G.G.g.$ $ q $ $ $ $ $ $ $ $ $ $ 5 %.$.O.5 < < K.1X1X1X0XeXeXeXeXeXeXeXeXeXeXeX",
"eXeXeXeXeXeXeXeXeXeXeXeXwX2Xp e e #.>.,.oX=X=X&X:X>X>X>XV.V.V.b.r.r.r.w.t.r.t.r.r.2.& o , } ' ' | o @ e 7X9XeXeXeXeXeXeXeXeXeXeX",
"eXeXeXeXeXeXeXeXeXeX9X0X0X1Xy e e #.<.:.<.&X&X&X:X>X>X>XF.B.B.b.r.t.r.r.r.r.r.y.y.2.O O , 1.` ` n o # 0 5X8X8X0XeXeXeXeXeXeXeXeX",
"eXeXeXeXeXeXeXeXeX9X`.8.u.i.@.@.#.OX%X%X*X&X&X&X,XC.D.G.B.B.B.@XXXXXl.r.y.r.r.r.r.t.0.0.q.1 < 1  .$.$.O.u i i -XqXeXeXeXeXeXeXeX",
"eXeXeXeXeXeXeXeXeXwXI.9 r a :.:.:.%X&X&X&X&X&X&XS.F.B.B.B.B.C.|.:.:.~.r.r.r.r.r.r.y.y.y.w.# O    .{ { ( &   # _.qXeXeXeXeXeXeXeX",
"eXeXeXeXeXeXeXeXeX9XP.6 8 y v.@X@X+X&X&X&XOXOXOX@Xc.x.c.x.x.x.;.:.:.~.m.m.m.r.y.r.r.r.y.w.% @ O o.{ { %.#     _.qXeXeXeXeXeXeXeX",
"eXeXeXeXeXeXeXeXeX9XL.- - q V.B.B.$X&X&X%X>.:.:.:.:.:.:.:.:.:.:.:.:. XV.B.B.n.r.r.r.r.y.t.7 - @ X.{ { %.# #   /.qXeXeXeXeXeXeXeX",
"eXeXeXeXeXeXeXeXeX9XL.- - q A.N.A.$X*X*XOX>.:.>.:.:.:.:.:.:.:.:.:.:.#XB.B.B.n.r.r.r.r.y.t.7 7 7  .{ [ %.# # # _.qXeXeXeXeXeXeXeX",
"eXeXeXeXeXeXeXeXeX9XL.- - i ;.}.,.>.>.>.>.:.:.>.>.:.>.>.:.:.:.:.:.:.#XV.B.V.n.r.r.r.r.r.t.r w w O.{ [ %.# X X _.qXeXeXeXeXeXeXeX",
"eXeXeXeXeXeXeXeXeX9XL.; - u ,.:.>.>.:.:.:.>.:.:.:.:.>.:.:.:.:.:.>.:.@XB.B.B.n.r.r.r.r.n.t.r w w X.{ [ %.&   # /.qXeXeXeXeXeXeXeX",
"eXeXeXeXeXeXeXeXeX9XP.8 8 y j.S.j.XX:.:.:.:.:.:.:.:.:.:.:.:.:.x.j.j.A.B.B.B.y.y.r.d.p.p.A q w w o._ } Q * X . _.qXeXeXeXeXeXeXeX",
"eXeXeXeXeXeXeXeXeXwXI.w w 4.V.B.B. X:.:.:.:.:.:.:.:.:.:.:.:.:.N.B.B.B.B.B.B.y.r.r.d.S S Z y w r o.^ ^ U = o X _.qXeXeXeXeXeXeXeX",
"eXeXeXeXeXeXeXeXeX9XP.8 9 4.V.B.C. X:.:.;. X Xv. X X X X X Xv.N.B.B.N.k.j.j.d.d.d.p.S S Z u 8 7 ..! ^ U & . X _.qXeXeXeXeXeXeXeX",
"eXeXeXeXeXeXeXeXeX9XL.- ; q V.V.C. X:.:.XXC.C.B.B.B.C.F.V.V.C.B.B.B.c.>.:.:.;.D S S S S Z 6 - 7 ..^ ^ Q & o . _.qXeXeXeXeXeXeXeX",
"eXeXeXeXeXeXeXeXeXwXQ.9 9 y Z.Z.Z. X>.}. XB.B.B.B.B.B.B.B.B.B.B.B.B.j.,.;.;.;.S S S Z S Z ; - - V ^ ^ U & X . _.qXeXeXeXeXeXeXeX",
"eXeXeXeXeXeXeXeXeXeX6X4X4X;X7 % # d.C.N.N.B.B.B.B.B.B.B.B.B.C.B.B.C.m.b.b.g.Z S S S S S Z ; o O g H W K & . X _.qXeXeXeXeXeXeXeX",
"eXeXeXeXeXeXeXeXeXeX9X9XwX1Xo X   f.F.F.B.B.B.Z.B.B.B.C.C.B.B.B.F.B.m.y.r.b.F S F S ;.S Z # X   g G G Y & X   _.qXeXeXeXeXeXeXeX",
"eXeXeXeXeXeXeXeXeXeXeXeX9X6X`.^.^.9.5.5.s.B.B.B.B.B.B.N.v. Xv. Xv. Xl.r.t.b.d.d.s.Z 3 3 3 f g g c z z m Q.^.^.4X9XeXeXeXeXeXeXeX",
"eXeXeXeXeXeXeXeXeXeXeXeXeX9XqXqX9Xs     q B.B.B.F.F.F.c.<.:.:.:.:.<.a.y.y.y.y.y.y.2.X   + T G G c     8 7XwXwX9XeXeXeXeXeXeXeXeX",
"eXeXeXeXeXeXeXeXeXeXeXeXeXeXeXeXeXI.p a 6.g.g.g.f.g.g.z.+.+.+.+.+.+.A q.0.0.0.0.0.r < < 2 j l l b 6.p u.0XeXeXeXeXeXeXeXeXeXeXeX",
"eXeXeXeXeXeXeXeXeXeXeXeXeXeXeXeXeX0X0X0X;X7 6 6 # O . . # . + + # # . . O O   O X c E J l + + + Q.9X0X0XeXeXeXeXeXeXeXeXeXeXeXeX",
"eXeXeXeXeXeXeXeXeXeXeXeXeXeXeXeXeXeXeXqX-X7 - - + @ + + + & + + # + + + + + + @ . c E E K , + @ ^.wXeXeXeXeXeXeXeXeXeXeXeXeXeXeX",
"eXeXeXeXeXeXeXeXeXeXeXeXeXeXeXeXeXeXeXqX-X; 6 6 V Y L L l Y l Y l Y l l l l l l l f < * 1 ;X1X1X6X9XeXeXeXeXeXeXeXeXeXeXeXeXeXeX",
"eXeXeXeXeXeXeXeXeXeXeXeXeXeXeXeXeXeXeXqX-X- @ - l G G G G G G G G G G G G G G G G f     8 3XwXwXwXeXeXeXeXeXeXeXeXeXeXeXeXeXeXeX",
"eXeXeXeXeXeXeXeXeXeXeXeXeXeXeXeXeXeXeX9X4XQ.Q.Q.B v v v v v v v V v v f c f g g f C I.P.[.7X9XeXeXeXeXeXeXeXeXeXeXeXeXeXeXeXeXeX",
"eXeXeXeXeXeXeXeXeXeXeXeXeXeXeXeXeXeXeXeX9X9X9X9X6.# - - - - 7 - - - @ O . X       I.wXqXqXeXeXeXeXeXeXeXeXeXeXeXeXeXeXeXeXeXeXeX",
"eXeXeXeXeXeXeXeXeXeXeXeXeXeXeXeXeXeXeXeXeXeXeX0XL.p a w - - ; > 1 1 :   . @ 9 t 9 ^.9XeXeXeXeXeXeXeXeXeXeXeXeXeXeXeXeXeXeXeXeXeX",
"eXeXeXeXeXeXeXeXeXeXeXeXeXeXeXeXeXeXeXeXeXeXeXeX7X7X7X`.o o * l T T v X X ; 1X7X7X8XeXeXeXeXeXeXeXeXeXeXeXeXeXeXeXeXeXeXeXeXeXeX",
"eXeXeXeXeXeXeXeXeXeXeXeXeXeXeXeXeXeXeXeX9X0X0X9X9X0X9X_.o o + l G G g X @ 6 4X9X9X0X9X0X0XeXeXeXeXeXeXeXeXeXeXeXeXeXeXeXeXeXeXeX",
"eXeXeXeXeXeXeXeXeXeXeXeXeXeXeXeXeXeXeX9X2X8.7.7.7.7.8.p @ - ; L G G V @ @ @ 6.7.7.7.7.7.L.7X9XeXeXeXeXeXeXeXeXeXeXeXeXeXeXeXeXeX",
"eXeXeXeXeXeXeXeXeXeXeXeXeXeXeXeXeXwXwXwX1X; - # - - - - @ 7 > l G G V 7 @ 6 - - - o - @ w 6XwXwX9XeXeXeXeXeXeXeXeXeXeXeXeXeXeXeX",
"eXeXeXeXeXeXeXeXeXeXeXeXeXeXeXeXeX-X_.`.I.m m m m m m 4 8 8 > I G G V 8 6 6 M m m m m m N `._._.4X9XeXeXeXeXeXeXeXeXeXeXeXeXeXeX",
"eXeXeXeXeXeXeXeXeXeXeXeXeXeX9X9XeX8.@ 7 4 ) ^ ^ ^ ^ ! -.w w e I G G V r r t ( ) ) ^ ^ ^ ( > - - ^.qX9X9XeXeXeXeXeXeXeXeXeXeXeXeX",
"eXeXeXeXeXeXeXeXeXeXeXeXeX9X7X7X7X8.- - 4 ) ) ) ) ^ ^ -.i i d I E W V d i d ( ! ) ^ ! ) Q > 7 @ [.8X7X7X9XeXeXeXeXeXeXeXeXeXeXeX",
"eXeXeXeXeXeXeXeXeXeXeXeX9X5X(.R.W.p @ - 4 ` _ _ ` _ _ 1.1.1.1.) ! ! ( ( ( Q ) ^ ^ ^ ^ ^ Q > - - u.W.W.).8XeXeXeXeXeXeXeXeXeXeXeX",
"eXeXeXeXeXeXeXeXeXeXeXeX9X3XR.Y.Y.p 6 @ N 1.[ _ [ [ { ] [ _ [ ) ^ ^ ^ ^ ^ ^ ^ ^ ^ ^ ^ ^ Q > 7 6 7.Y.Y.(.8XeXeXeXeXeXeXeXeXeXeXeX",
"eXeXeXeXeXeXeXeXeXeXeXeX9X3XR.Y.Y.t @ O 2 ! ! ! ! ! ! ! ! ! ! R R R R R R R ~ W W R W ~ K , o o s T.Y.(.0XeXeXeXeXeXeXeXeXeXeXeX",
"eXeXeXeXeXeXeXeXeXeXeXeX9X3XR.Y.Y.0 X X < G G G G G G G G G G G G G J G G G G G G G G G K *     s T.T.(.0XeXeXeXeXeXeXeXeXeXeXeX",
"eXeXeXeXeXeXeXeXeXeXeXeX9X3XY.Y.Y.d > 9 2 h h h h h h h h h h h h h h h h h h h h h h h k t 0 > C E.Y.(.0XeXeXeXeXeXeXeXeXeXeXeX",
"eXeXeXeXeXeXeXeXeXeXeXeX9X3XT.Y.T.Y.Y.Y.u.@ . o . . . @ . . . + . . . o . X . . X . . . ; K.Y.Y.Y.Y.Y.(.0XeXeXeXeXeXeXeXeXeXeXeX",
"eXeXeXeXeXeXeXeXeXeXeXeX9X5XW.R.R.T.Y.T.H.= = = @ @ @ @ @ @ @ @ = = = = = - = = = = = = ; Y.Y.Y.T.R.R.).0XeXeXeXeXeXeXeXeXeXeXeX",
"eXeXeXeXeXeXeXeXeXeXeXeXeX8X5X5X5X).Y.T.Y.J.J.J.J.J.J.J.J.J.J.J.J.J.J.J.J.J.J.J.J.J.J.J.J.Y.Y.Y.{.5X5X6X9XeXeXeXeXeXeXeXeXeXeXeX",
"eXeXeXeXeXeXeXeXeXeXeXeXeXeXqX9X9X).T.Y.Y.T.Y.Y.Y.Y.T.Y.Y.Y.T.Y.T.Y.Y.Y.Y.T.Y.Y.T.T.Y.Y.Y.Y.Y.Y.<XqX9X9XeXeXeXeXeXeXeXeXeXeXeXeX",
"eXeXeXeXeXeXeXeXeXeXeXeXeXeXeXeXeX4X<X<X<X<X<X<X<X<X<X<X<X<X<X<X<X<X<X<X<X<X<X<X<X<X<X<X<X<X<X<X5X9XeXeXeXeXeXeXeXeXeXeXeXeXeXeX",
"eXeXeXeXeXeXeXeXeXeXeXeXeXeXeXeXeX9X9X9X9X9X9X9X9X9X9X9X9X9X9X9X9X9X9X9X9X9X9X9X9X9X9X9X9X9X9X9X9XeXeXeXeXeXeXeXeXeXeXeXeXeXeXeX",
"eXeXeXeXeXeXeXeXeXeXeXeXeXeXeXeXeXeXeXeXeXeXeXeXeXeXeXeXeXeXeXeXeXeXeXeXeXeXeXeXeXeXeXeXeXeXeXeXeXeXeXeXeXeXeXeXeXeXeXeXeXeXeXeX",
"eXeXeXeXeXeXeXeXeXeXeXeXeXeXeXeXeXeXeXeXeXeXeXeXeXeXeXeXeXeXeXeXeXeXeXeXeXeXeXeXeXeXeXeXeXeXeXeXeXeXeXeXeXeXeXeXeXeXeXeXeXeXeXeX",
"eXeXeXeXeXeXeXeXeXeXeXeXeXeXeXeXeXeXeXeXeXeXeXeXeXeXeXeXeXeXeXeXeXeXeXeXeXeXeXeXeXeXeXeXeXeXeXeXeXeXeXeXeXeXeXeXeXeXeXeXeXeXeXeX",
"eXeXeXeXeXeXeXeXeXeXeXeXeXeXeXeXeXeXeXeXeXeXeXeXeXeXeXeXeXeXeXeXeXeXeXeXeXeXeXeXeXeXeXeXeXeXeXeXeXeXeXeXeXeXeXeXeXeXeXeXeXeXeXeX",
"eXeXeXeXeXeXeXeXeXeXeXeXeXeXeXeXeXeXeXeXeXeXeXeXeXeXeXeXeXeXeXeXeXeXeXeXeXeXeXeXeXeXeXeXeXeXeXeXeXeXeXeXeXeXeXeXeXeXeXeXeXeXeXeX"
};
