/* XPM */
static char *result[] = {
/* columns rows colors chars-per-pixel */
"64 64 10 1 ",
"  c #3A4466",
". c #822632",
"X c #A22633",
"o c #BE4A2F",
"O c #F77622",
"+ c #E43C44",
"@ c #8B9BB4",
"# c #CFD8E7",
"$ c #E9E5E0",
"% c None",
/* pixels */
"%%%%%%%%%%%%%%%%%%%%%%%%%%%%%%%%%%%%%%%%%%%%%%%%%%%%%%%%%%%%%%%%",
"%%%%%%%%%%%%%%%%%%%%%%%%%%%%%%%%%%%%%%%%%%%%%%%%%%%%%%%%%%%%%%%%",
"%%%%%%%%%%%%%%%%%%%%%%%%%%%%%%%%%%%%%%%%%%%%%%%%%%%%%%%%%%%%%%%%",
"%%%%%%%%%%%%%%%%%%%%%%%%%%%%%%%%%%%%%%%%%%%%%%%%%%%%%%%%%%%%%%%%",
"%%%%%%%%%%%%%%%%%%%%%%%%%%%%%%%%%%%%%%%%%%%%%%%%%%%%%%%%%%%%%%%%",
"%%%%%%%%%%%%%%%%%%%%%%%%%%%%%%%%%%%%%%%%%%%%%%%%%%%%%%%%%%%%%%%%",
"%%%%%%%%%%%%%%%%%%%%%%%%%%%%%%%%%%%%%%%%%%%%%%%%%%%%%%%%%%%%%%%%",
"%%%%%%%%%%%%%%%%%%%%%%%%%%%%%%%%%%%%%%%%%%%%%%%%%%%%%%%%%%%%%%%%",
"%%%%%%%%%%%%%%%%%%%%%%%%%%%%%%%%%%%%%%%%%%%%%%%%%%%%%%%%%%%%%%%%",
"%%%%%%%%%%%%%%%%%%%%%%%%%%%%%%%%%%%%%%%%%%%%%%%%%%%%%%%%%%%%%%%%",
"%%%%%%%%%XXX+++OOOoooXXX..+++OOOoooXXX...++OOOoooXXX...%%%%%%%%%",
"%%%%%%%%%XXX+++OOOoooXXX..+++OOOoooXXX...++OOOoooXXX...%%%%%%%%%",
"%%%%%%%%%XXX+++OOOoooXXX..+++OOOoooXXX...++OOOoooXXX...%%%%%%%%%",
"%%%%%%%%%XXX+++OOOoooXXX..+++OOOoooXXX...++OOOoooXXX...%%%%%%%%%",
"%%%%%%%%%XXX+++OOOoooXXX..+++OOOoooXXX...++OOOoooXXX...%%%%%%%%%",
"%%%%%%%%%XXX+++OOOoooXXX..+++OOOoooXXX...++OOOoooXXX...%%%%%%%%%",
"%%%%%%%%%XXX+++OOOoooXXX..+++OOOoooXXX...++OOOoooXXX...%%%%%%%%%",
"%%%%%%%%%XXX+++OOOoooXXX..+++OOOoooXXX...++OOOoooXXX...%%%%%%%%%",
"%%%%%%%%%XXX+++OOOoooXXX..+++OOOoooXXX...++OOOoooXXX...%%%%%%%%%",
"%%%%%%%%%XXX+++OOOoooXXX..+++OOOoooXXX...++OOOoooXXX...%%%%%%%%%",
"%%%%%%%%%XXX+++OOOoooXXX..+++OOOoooXXX...++OOOoooXXX...%%%%%%%%%",
"%%%%%%%%%XXX+++OOOoooXXX..+++OOOoooXXX...++OOOoooXXX...%%%%%%%%%",
"%%%%%%%%%XXX+++OOOoooXXX..+++OOOoooXXX...++OOOoooXXX...%%%%%%%%%",
"%%%%%%%%%XXX+++OOOoooXXX..+++OOOoooXXX...++OOOoooXXX...%%%%%%%%%",
"%%%%%%%%%###$$$$$$$$$###@@$$$$$$$$$###@@@$$$$$$$$######%%%%%%%%%",
"%%%%%%%%%###$$$$$$$$$###@@$$$$$$$$$###@@@$$$$$$$$######%%%%%%%%%",
"%%%%%%%%%###$$$$$$$$$###@@$$$$$$$$$###@@@$$$$$$$$######%%%%%%%%%",
"%%%%%%%%%###$$$         @@   $$$$$$   @@@        ######%%%%%%%%%",
"%%%%%%%%%###$$$         @@   $$$$$$   @@@        ######%%%%%%%%%",
"%%%%%%%%%###$$$         @@   $$$$$$   @@@        ######%%%%%%%%%",
"%%%%%%%%%###$$$$$$   ###@@      $$$   @@@$$   $$$######%%%%%%%%%",
"%%%%%%%%%###$$$$$$   ###@@      $$$   @@@$$   $$$######%%%%%%%%%",
"%%%%%%%%%###$$$$$$   ###@@   $$$      @@@$$   $$$######%%%%%%%%%",
"%%%%%%%%%###$$$$$$   ###@@   $$$      @@@$$   $$$######%%%%%%%%%",
"%%%%%%%%%###$$$$$$   ###@@   $$$      @@@$$   $$$######%%%%%%%%%",
"%%%%%%%%%###$$$$$$   ###@@   $$$$$$   @@@$$   $$$######%%%%%%%%%",
"%%%%%%%%%###$$$$$$   ###@@   $$$$$$   @@@$$   $$$######%%%%%%%%%",
"%%%%%%%%%###$$$$$$   ###@@   $$$$$$   @@@$$   $$$######%%%%%%%%%",
"%%%%%%%%%###$$$$$$$$$###@@$$$$$$$$$###@@@$$$$$$$$######%%%%%%%%%",
"%%%%%%%%%###$$$$$$$$$###@@$$$$$$$$$###@@@$$$$$$$$######%%%%%%%%%",
"%%%%%%%%%###$$$$$$$$$###@@$$$$$$$$$###@@@$$$$$$$$######%%%%%%%%%",
"%%%%%%%%%###$$$$$$$$$###@@$$$$$$$$$###@@@$$$$$$$$######%%%%%%%%%",
"%%%%%%%%%###$$$$$$$$$###@@$$$$$$$$$###@@@$$$$$$$$######%%%%%%%%%",
"%%%%%%%%%###$$$$$$$$$###@@$$$$$$$$$###@@@$$$$$$$$######%%%%%%%%%",
"%%%%%%%%%XXX+++OOOoooXXX..+++OOOoooXXX...++OOOoooXXX...%%%%%%%%%",
"%%%%%%%%%XXX+++OOOoooXXX..+++OOOoooXXX...++OOOoooXXX...%%%%%%%%%",
"%%%%%%%%%XXX+++OOOoooXXX..+++OOOoooXXX...++OOOoooXXX...%%%%%%%%%",
"%%%%%%%%%XXX+++OOOoooXXX..+++OOOoooXXX...++OOOoooXXX...%%%%%%%%%",
"%%%%%%%%%XXX+++OOOoooXXX..+++OOOoooXXX...++OOOoooXXX...%%%%%%%%%",
"%%%%%%%%%XXX+++OOOoooXXX..+++OOOoooXXX...++OOOoooXXX...%%%%%%%%%",
"%%%%%%%%%XXX+++OOOoooXXX..+++OOOoooXXX...++OOOoooXXX...%%%%%%%%%",
"%%%%%%%%%XXX+++OOOoooXXX..+++OOOoooXXX...++OOOoooXXX...%%%%%%%%%",
"%%%%%%%%%XXX+++OOOoooXXX..+++OOOoooXXX...++OOOoooXXX...%%%%%%%%%",
"%%%%%%%%%XXX+++OOOoooXXX..+++OOOoooXXX...++OOOoooXXX...%%%%%%%%%",
"%%%%%%%%%XXX+++OOOoooXXX..+++OOOoooXXX...++OOOoooXXX...%%%%%%%%%",
"%%%%%%%%%%%%%%%%%%%%%%%%%%%%%%%%%%%%%%%%%%%%%%%%%%%%%%%%%%%%%%%%",
"%%%%%%%%%%%%%%%%%%%%%%%%%%%%%%%%%%%%%%%%%%%%%%%%%%%%%%%%%%%%%%%%",
"%%%%%%%%%%%%%%%%%%%%%%%%%%%%%%%%%%%%%%%%%%%%%%%%%%%%%%%%%%%%%%%%",
"%%%%%%%%%%%%%%%%%%%%%%%%%%%%%%%%%%%%%%%%%%%%%%%%%%%%%%%%%%%%%%%%",
"%%%%%%%%%%%%%%%%%%%%%%%%%%%%%%%%%%%%%%%%%%%%%%%%%%%%%%%%%%%%%%%%",
"%%%%%%%%%%%%%%%%%%%%%%%%%%%%%%%%%%%%%%%%%%%%%%%%%%%%%%%%%%%%%%%%",
"%%%%%%%%%%%%%%%%%%%%%%%%%%%%%%%%%%%%%%%%%%%%%%%%%%%%%%%%%%%%%%%%",
"%%%%%%%%%%%%%%%%%%%%%%%%%%%%%%%%%%%%%%%%%%%%%%%%%%%%%%%%%%%%%%%%",
"%%%%%%%%%%%%%%%%%%%%%%%%%%%%%%%%%%%%%%%%%%%%%%%%%%%%%%%%%%%%%%%%"
};
