/* XPM */
static char *result[] = {
/* columns rows colors chars-per-pixel */
"64 64 196 2 ",
"   c #36364D",
".  c #3B3A4F",
"X  c #383B4E",
"o  c #3C3C51",
"O  c #3F3F58",
"+  c #453D4D",
"@  c #5B3A54",
"#  c #713B58",
"$  c #374352",
"%  c #394152",
"&  c #374952",
"*  c #3E4F5A",
"=  c #3C4957",
"-  c #395558",
";  c #33665B",
":  c #34695C",
">  c #3B645F",
",  c #3B6461",
"<  c #3A7163",
"1  c #46404E",
"2  c #5E494F",
"3  c #5E474D",
"4  c #434254",
"5  c #42435B",
"6  c #434A5E",
"7  c #4D4A5B",
"8  c #4B4657",
"9  c #594F5A",
"0  c #584A55",
"q  c #40545D",
"w  c #52505F",
"e  c #565057",
"r  c #6B4D4C",
"t  c #634E55",
"y  c #66555B",
"u  c #6A545B",
"i  c #765A58",
"p  c #676E5F",
"a  c #63705C",
"s  c #444D61",
"d  c #4D4D63",
"f  c #4C4F68",
"g  c #504E66",
"h  c #4B5267",
"j  c #465B65",
"k  c #4E576B",
"l  c #545162",
"z  c #5E5967",
"x  c #535369",
"c  c #585769",
"v  c #5A5A6B",
"b  c #5B5565",
"n  c #535B72",
"m  c #585B72",
"M  c #6D5C62",
"N  c #715F67",
"B  c #456669",
"V  c #496C6E",
"C  c #456768",
"Z  c #44766E",
"A  c #44786E",
"S  c #4A706E",
"D  c #4B7370",
"F  c #457E71",
"G  c #497C78",
"H  c #496A71",
"J  c #676469",
"K  c #73646A",
"L  c #686677",
"P  c #726E74",
"I  c #7B6979",
"U  c #912C4F",
"Y  c #942C50",
"T  c #843556",
"R  c #873759",
"E  c #92395C",
"W  c #A3345A",
"Q  c #8F5D4D",
"!  c #9C634C",
"~  c #956B5B",
"^  c #98705F",
"/  c #BD704A",
"(  c #B97B53",
")  c #AA6F54",
"_  c #997361",
"`  c #9B7866",
"'  c #847A7F",
"]  c #857B76",
"[  c #B5687E",
"{  c #C07249",
"}  c #C47D50",
"|  c #BB8156",
" . c #8C827C",
".. c #A2836C",
"X. c #AE917A",
"o. c #C78152",
"O. c #C88656",
"+. c #C88855",
"@. c #737485",
"#. c #847E89",
"$. c #8A7F83",
"%. c #B76B80",
"&. c #898389",
"*. c #998C88",
"=. c #99938E",
"-. c #9E9083",
";. c #8B8691",
":. c #8E8E9A",
">. c #858595",
",. c #918E99",
"<. c #9F8F90",
"1. c #9F9090",
"2. c #93919D",
"3. c #9F9992",
"4. c #BE808F",
"5. c #A39594",
"6. c #A49995",
"7. c #A99996",
"8. c #A99D9C",
"9. c #AA948E",
"0. c #9494A1",
"q. c #9D9EAA",
"w. c #9997A2",
"e. c #A29EA9",
"r. c #A3A3AD",
"t. c #B6AFA1",
"y. c #B7A7AD",
"u. c #BDB3A5",
"i. c #A5A5B0",
"p. c #A9AAB3",
"a. c #ACADB8",
"s. c #B0AFB6",
"d. c #B8B7BC",
"f. c #D4869F",
"g. c #C08593",
"h. c #CABF8A",
"j. c #D18CA0",
"k. c #CE96A1",
"l. c #CEABAD",
"z. c #C2B9AB",
"x. c #C0B7A8",
"c. c #D9AEB5",
"v. c #DCB1B7",
"b. c #D9B6BA",
"n. c #C7B2BC",
"m. c #E1B8BF",
"M. c #BDD08F",
"N. c #B4D593",
"B. c #A8C6B7",
"V. c #C6C98B",
"C. c #CCD798",
"Z. c #CBD798",
"A. c #C7C1B5",
"S. c #C9C1B5",
"D. c #CCC6BB",
"F. c #D1C9BD",
"G. c #D3CBB9",
"H. c #CFD9B2",
"J. c #E2BBC1",
"K. c #9CCEC0",
"L. c #86D4C4",
"P. c #A4D7C9",
"I. c #CBC7C7",
"U. c #D2CCC1",
"Y. c #D9CEC4",
"T. c #DBD5CB",
"R. c #DDD9CF",
"E. c #D6D0C7",
"W. c #DDD9D1",
"Q. c #DADADC",
"!. c #D3D2D5",
"~. c #CBCBD0",
"^. c #E5C3CD",
"/. c #E1D8CE",
"(. c #E2DDD5",
"). c #ECD3D4",
"_. c #E7C6D0",
"`. c #E6E3DD",
"'. c #EAE2DA",
"]. c #E8E1D7",
"[. c #F2E5DE",
"{. c #DDDDE0",
"}. c #E5E4E4",
"|. c #E9E6E1",
" X c #EDE9E4",
".X c #EEEEEE",
"XX c #E6E5E8",
"oX c #F5ECE5",
"OX c #F1EFEC",
"+X c #F2F1EE",
"@X c #FDF5EE",
"#X c #F5F4F2",
"$X c #FBF7F4",
"%X c #FEFAF4",
"&X c #FEFDFC",
"*X c None",
/* pixels */
"*X*X*X*X*X*X*X*X*X*X*X*X*X*X*X*X*X*X*X*X*X*X*X*X*X*X*X*X*X*X*X*X*X*X*X*X*X*X*X*X*X*X*X*X*X*X*X*X*X*X*X*X*X*X*X*X*X*X*X*X*X*X*X*X",
"*X*X*X*X*X*X*X*X*X*X*X*X*X*X*X*X*X*X*X*X*X*X*X*X*X*X*X*X*X*X*X*X*X*X*X*X*X*X*X*X*X*X*X*X*X*X*X*X*X*X*X*X*X*X*X*X*X*X*X*X*X*X*X*X",
"*X*X*X*X*X*X*X*X*X*X*X*X*X*X*X*X*X*X*X*X*X*X*X*X*X*X*X*X*X*X*X*X*X*X*X*X*X*X*X*X*X*X*X*X*X*X*X*X*X*X*X*X*X*X*X*X*X*X*X*X*X*X*X*X",
"*X*X*X*X*X*X*X*X*X*X*X*X*X*X*X*X*X*X*X*X*X*X*X*X*X*X*X*X*X*X*X*X*X*X*X*X*X*X*X*X*X*X*X*X*X*X*X*X*X*X*X*X*X*X*X*X*X*X*X*X*X*X*X*X",
"*X*X*X*X*X*X*X*X*X*X*X*X*X*X*X*X*X*X*X*X*X*X*X*X*X*X*X*X*X*X*X*X*X*X*X*X*X*X*X*X*X*X*X*X*X*X*X*X*X*X*X*X*X*X*X*X*X*X*X*X*X*X*X*X",
"*X*X*X*X*X*X*X*X*X*X*X*X*X*X*X*X*X*X*X*X*X*X*X*X*X*X*X*X*X*X*X*X*X*X*X*X*X*X*X*X*X*X*X*X*X*X*X*X*X*X*X*X*X*X*X*X*X*X*X*X*X*X*X*X",
"*X*X*X*X*X*X*X*X*X*X*X*X*X*X*X*X*X*X*X*X*X*X*X*X*X*X*X*X*X*X*X*X*X*X*X*X*X*X*X*X*X*X*X*X*X*X*X*X*X*X*X*X*X*X*X*X*X*X*X*X*X*X*X*X",
"*X*X*X*X*X*X*X*X*X*X*X*X*X*X*X*X*X*X*X*X*X*X*X*X*X*X.X.X#X.X.X.X#X.X.X#X.X*X*X*X*X*X*X*X*X*X.X.X*X*X*X*X*X*X*X*X*X*X*X*X*X*X*X*X",
"*X*X*X*X*X*X*X*X*X*X*X*X*X*X*X*X*X*X*X*X*X*X*X*X.X{.a.i.i.i.r.r.i.i.i.q.s.XX*X*X*X*X*X*X*X.Xa.s..X*X*X*X*X*X*X*X*X*X*X*X*X*X*X*X",
"*X*X*X*X*X*X*X*X*X*X.X.X.X+X#X.X.X.X.X#X.X.X.X.X.XQ.@.d O + = 5 O O O   v XX+X+X+X.X#X.X.XXXv @..X#X.X+X+X+X*X*X*X*X*X*X*X*X*X*X",
"*X*X*X*X*X*X*X*X*X.X~.a.i.p.a.i.i.i.i.i.p.i.i.i.p.a.e.w.0.2.2.w.0.0.0.0.2.r.i.i.e.r.i.i.i.p.;.#.r.r.e.q.q.a.XX*X*X*X*X*X*X*X*X*X",
"*X*X*X*X*X*X*X*X*X.Xq.x s d n 5 O 5 + = s O O 5 s @. X%X$X$X&X&X&X&X&X&XQ.g 5 5 X O 5 5 f L n.y.5 o X X   c Q..X*X*X*X*X*X*X*X*X",
"*X*X*X*X*X*X*X*X*X.Xq.g h h x >.0.0.0.0.0.2.,.,.:.e.oX+X X].`.OX+X#X#X&XXX,.m 6 * j j f v K 9.<.y 1 o = o v {..X*X*X*X*X*X*X*X*X",
"*X*X*X*X*X*X*X*X*X.X2.6 Z B k {.&X&X&X&X&X%X%X$XoX[.@XoXW.u.A.W.W.W. X&X$XoX;.6 F F F n N ~ ~ ~ ~ 8 & ; & c {..X*X*X*X*X*X*X*X*X",
"*X*X*X*X*X*X*X*X*X.X0.s G B x {.&X#X#X+X+X'.[.@XoX[.@X).G.Y.W. X X|.|.#X&X[.;.6 Z F F x K ` ^ ^ _ 0 & ; & c {..X*X*X*X*X*X*X*X*X",
"*X*X*X*X*X*X*X*X*X.X0.s G H f {.&X X(.W.W.A.z.@XoX[.$X(.z.oX&X&X&X#XW.#X$X[.;.s Z F Z s K X._ _ ..9 $ ; & c {..X*X*X*X*X*X*X*X*X",
"*X*X*X*X*X*X*X*X*X.X0.s G H f {.$X}.H.G.J.l.l.).'.[.@X/.x./. X#X&X#XW.#X&X[.&.5 A F A s K X._ _ ` 9 $ : & c {..X*X*X*X*X*X*X*X*X",
"*X*X*X*X*X*X*X*X*X.X0.s Z B g {.#XW.Z.h.j.f.j.u.Y.[.@X/.u.u.F. X&X#XW.#X$X[.#.$ Z F A s K X._ _ ..9 $ ; & c {..X*X*X*X*X*X*X*X*X",
"*X*X*X*X*X*X*X*X*X.X2.= Z B g {.#XR.Z.V.k.j.j.u.Y.[.@X/.x.F.(.#X&X#X(.+X&X[.#.$ Z F A s K X._ _ ..9 $ ; & c {..X*X*X*X*X*X*X*X*X",
"*X*X*X*X*X*X*X*X*X.X:.o Z B g {.#XW.C.V.x.j.j.x.Y.[.@XR.x.oX%X&X&X#XW.#X$X[.#.$ F F A s K X._ _ ..9 $ ; & v {..X*X*X*X*X*X*X*X*X",
"*X*X*X*X*X*X*X*X*X.X0.O Z B f {.+XR.Z.M.s.s.y.u.Y.[.@X(.S.(.'.+X#X.X(.$X$X X#.o Z F F s K X._ _ ..9 $ ; & c {.OX*X*X*X*X*X*X*X*X",
"*X*X*X*X*X*X*X*X*X.X0.s Z B g {.#XT.Z.N.L.L.L.u.Y.[.@XoXR.z.S.W.R.W. X&X$X[.#.O Z F Z s K X._ _ ..9 $ ; & c Q..X*X*X*X*X*X*X*X*X",
"*X*X*X*X*X*X*X*X*X.X2.= Z B g {.$X(.H.H.P.K.B.G./.[.@XoX].Y.T.|.|. X#X$X&X[.#.% Z F Z s M ..^ ^ ` 0 $ ; & c Q..X*X*X*X*X*X*X*X*X",
"*X*X*X*X*X*X*X*X*X.X:.o Z B f {.&X XW.R.R.A.S.@XoX[.@X%X%X$X&X&X&X&X&X&X$X X#.% Z F Z % t ~ ~ ~ ~ 0 $ ; & c {..X*X*X*X*X*X*X*X*X",
"*X*X*X*X*X*X*X*X*X.X:.o Z B g {.&X+X X}.|.T.T.@XoX[.@XoX].].oX&X#X#X#X&X$X X#.$ Z F Z - e i i i i 8 - ; & c Q..X*X*X*X*X*X*X*X*X",
"*X*X*X*X*X*X*X*X*X.X:.o Z B x {.&X&X&X&X&X%X@X%XoX[.@X/.u.u.Y.&X`.W.W.#X&X'.#.o Z F F , - X o   $ - ; ; & c }..X*X*X*X*X*X*X*X*X",
"*X*X*X*X*X*X*X*X*X.X:.$ Z B g !.&X&X#X#X#X X].].'.[.@X'.F.G.].&X.X}.`.$X$X[.#.$ Z F F < > = * * - > < : & c Q.+X*X*X*X*X*X*X*X*X",
"*X*X*X*X*X*X*X*X*X.X:.o Z B g d.|.&X`.W.W.S.u.x.Y.oX@X@X$X$X%X&X&X&X&X&X&X[.#.$ Z F F F F F F F A A < ; & c Q..X*X*X*X*X*X*X*X*X",
"*X*X*X*X*X*X*X*X*X.X:.o A B g I.OX&X.X`.`.T.G.S.b.c.b.).@X@X@X%X&X%X$X&X$X[.#.o Z F F F F F F F F F A : & c Q..X*X*X*X*X*X*X*X*X",
"*X*X*X*X*X*X*X*X*X.X:.o Z B g {.&X&X&X&X&X&X@X[.4.U U 4.[.@XoX[.@X@X[.@X@XoX&.o A F F F F F F F F F < : & c }..X*X*X*X*X*X*X*X*X",
"*X*X*X*X*X*X*X*X*X+X:.X B j f n._._._.^.^.^.m.b.[ U U [ b.J.m.m.m.m.v.J.J.v.I o B S D < Z S Z Z D S Z > $ c Q..X*X*X*X*X*X*X*X*X",
"*X*X*X*X*X*X*X*X*X.X:.X 5 6 8 E W W W W W W W W W W W W W W W W W W W W W W @ o s f n , , n , , n d 5 5 O v {..X*X*X*X*X*X*X*X*X",
"*X*X*X*X*X*X*X*X*X.X,.o t b g # R R T R T T T T T R T R T R T T T T T T T R @ 4 y N K a K K a p K M i u 4 v Q..X*X*X*X*X*X*X*X*X",
"*X*X*X*X*X*X*X*X*X.X:.+ ( _ m d +   .   . o   o     .   .   .   o o X o     + l | O.+.+.+.+.+.+.+.+.o./ r c {.+X*X*X*X*X*X*X*X*X",
"*X*X*X*X*X*X*X*X*X.X:.+ ( ) N y y 2 2 2 2 2 3 2 t 2 2 2 2 2 t 3 3 2 2 2 2 2 t i } o.o.} o.o.o.o.o.o.} / r c {..X*X*X*X*X*X*X*X*X",
"*X*X*X*X*X*X*X*X*X+X,.+ ) / / / / / / / / / / / / / / / / / / / / / / / / / / / { { { { { { { { { { { / r c {..X*X*X*X*X*X*X*X*X",
"*X*X*X*X*X*X*X*X*X.X:.+ Q ! ! ! ! ! ! ! ! ! ! ! ! ! ! ! ! ! ! ! ! ! ! ! ! ! ! ! ! ! ! ! ! ! ! ! ! ! ! ! t c {..X*X*X*X*X*X*X*X*X",
"*X*X*X*X*X*X*X*X*X.X:.  o + . o o o . o . + . . . . . o o o o . . . . + o o o   + o o X . . . . + . . .   c {..X*X*X*X*X*X*X*X*X",
"*X*X*X*X*X*X*X*X*X.Xi.m % 4 e % + l g l l l l l l l g 9 l l l l g l l l l l l l l l 9 l l l l 7 o 7 7 . l @.}.+X*X*X*X*X*X*X*X*X",
"*X*X*X*X*X*X*X*X*X*X.X!.d J -.7 v 5.5.5.5.5.5.5.5.5.5.5.5.5.5.5.5.5.5.5.5.5.5.5.5.5.5.5.5.5.5.' o ]  .o r..X*X*X*X*X*X*X*X*X*X*X",
"*X*X*X*X*X*X*X*X*X*X.XQ.d J 9.7 M *X*X*X*X*X*X*X*X*X*X*X*X*X*X*X*X*X*X*X*X*X*X*X*X*X*X*X*X*X7.' .  .*.o i.#X*X*X*X*X*X*X*X*X*X*X",
"*X*X*X*X*X*X*X*X*X*X.XQ.g P t.w v 5.*X*X*X*X*X*X*X*X*X*X*X*X*X*X*X*X*X*X*X*X*X*X*X*X*X*X*X*X7.' % =.3.o p..X*X*X*X*X*X*X*X*X*X*X",
"*X*X*X*X*X*X*X*X*X*X.XQ.l P t.w M 6.*X*X*X*X*X*X*X*X*X*X*X*X*X*X*X*X*X*X*X*X*X*X*X*X*X*X*X*X7.' + =.3.O i.+X*X*X*X*X*X*X*X*X*X*X",
"*X*X*X*X*X*X*X*X*X*X.XQ.d P t.w v 5.*X*X*X*X*X*X*X*X*X*X*X*X*X*X*X*X*X*X*X*X*X*X*X*X*X*X*X*X7.' o =.3.4 i..X*X*X*X*X*X*X*X*X*X*X",
"*X*X*X*X*X*X*X*X*X*X.XQ.g P t.w z 5.*X*X*X*X*X*X*X*X*X*X*X*X*X*X*X*X*X*X*X*X*X*X*X*X*X*X*X*X7.' o =.3.% p.+X*X*X*X*X*X*X*X*X*X*X",
"*X*X*X*X*X*X*X*X*X*X.XQ.w P t.w z 8.*X*X*X*X*X*X*X*X*X*X*X*X*X*X*X*X*X*X*X*X*X*X*X*X*X*X*X*X7.$.+ =.3.+ i..X*X*X*X*X*X*X*X*X*X*X",
"*X*X*X*X*X*X*X*X*X*X.XQ.d P t.w z 5.*X*X*X*X*X*X*X*X*X*X*X*X*X*X*X*X*X*X*X*X*X*X*X*X*X*X*X*X7.' O 1.3.= p.+X*X*X*X*X*X*X*X*X*X*X",
"*X*X*X*X*X*X*X*X*X*X.XW.g P u.g v 8.*X*X*X*X*X*X*X*X*X*X*X*X*X*X*X*X*X*X*X*X*X*X*X*X*X*X*X*X7.' o 2.3.+ i.+X*X*X*X*X*X*X*X*X*X*X",
"*X*X*X*X*X*X*X*X*X*X.XQ.d J 3.7 v 5.*X*X*X*X*X*X*X*X*X*X*X*X*X*X*X*X*X*X*X*X*X*X*X*X*X*X*X*X7.' o &.&.% p..X*X*X*X*X*X*X*X*X*X*X",
"*X*X*X*X*X*X*X*X*X*X.XQ.d . 4 X M 7.*X*X*X*X*X*X*X*X*X*X*X*X*X*X*X*X*X*X*X*X*X*X*X*X*X*X*X*X7.' X + + . i..X*X*X*X*X*X*X*X*X*X*X",
"*X*X*X*X*X*X*X*X*X*X.XQ.N 7 6 7 J *X*X*X*X*X*X*X*X*X*X*X*X*X*X*X*X*X*X*X*X*X*X*X*X*X*X*X*X*X7.$.7 8 d 7 s.#X*X*X*X*X*X*X*X*X*X*X",
"*X*X*X*X*X*X*X*X*X*X.X}.8.<.1.<.5.*X*X*X*X*X*X*X*X*X*X*X*X*X*X*X*X*X*X*X*X*X*X*X*X*X*X*X*X*X*X5.5.5.<.<.I..X*X*X*X*X*X*X*X*X*X*X",
"*X*X*X*X*X*X*X*X*X*X*X*X*X*X*X*X*X*X*X*X*X*X*X*X*X*X*X*X*X*X*X*X*X*X*X*X*X*X*X*X*X*X*X*X*X*X*X*X*X*X*X*X*X*X*X*X*X*X*X*X*X*X*X*X",
"*X*X*X*X*X*X*X*X*X*X*X*X*X*X*X*X*X*X*X*X*X*X*X*X*X*X*X*X*X*X*X*X*X*X*X*X*X*X*X*X*X*X*X*X*X*X*X*X*X*X*X*X*X*X*X*X*X*X*X*X*X*X*X*X",
"*X*X*X*X*X*X*X*X*X*X*X*X*X*X*X*X*X*X*X*X*X*X*X*X*X*X*X*X*X*X*X*X*X*X*X*X*X*X*X*X*X*X*X*X*X*X*X*X*X*X*X*X*X*X*X*X*X*X*X*X*X*X*X*X",
"*X*X*X*X*X*X*X*X*X*X*X*X*X*X*X*X*X*X*X*X*X*X*X*X*X*X*X*X*X*X*X*X*X*X*X*X*X*X*X*X*X*X*X*X*X*X*X*X*X*X*X*X*X*X*X*X*X*X*X*X*X*X*X*X",
"*X*X*X*X*X*X*X*X*X*X*X*X*X*X*X*X*X*X*X*X*X*X*X*X*X*X*X*X*X*X*X*X*X*X*X*X*X*X*X*X*X*X*X*X*X*X*X*X*X*X*X*X*X*X*X*X*X*X*X*X*X*X*X*X",
"*X*X*X*X*X*X*X*X*X*X*X*X*X*X*X*X*X*X*X*X*X*X*X*X*X*X*X*X*X*X*X*X*X*X*X*X*X*X*X*X*X*X*X*X*X*X*X*X*X*X*X*X*X*X*X*X*X*X*X*X*X*X*X*X",
"*X*X*X*X*X*X*X*X*X*X*X*X*X*X*X*X*X*X*X*X*X*X*X*X*X*X*X*X*X*X*X*X*X*X*X*X*X*X*X*X*X*X*X*X*X*X*X*X*X*X*X*X*X*X*X*X*X*X*X*X*X*X*X*X",
"*X*X*X*X*X*X*X*X*X*X*X*X*X*X*X*X*X*X*X*X*X*X*X*X*X*X*X*X*X*X*X*X*X*X*X*X*X*X*X*X*X*X*X*X*X*X*X*X*X*X*X*X*X*X*X*X*X*X*X*X*X*X*X*X",
"*X*X*X*X*X*X*X*X*X*X*X*X*X*X*X*X*X*X*X*X*X*X*X*X*X*X*X*X*X*X*X*X*X*X*X*X*X*X*X*X*X*X*X*X*X*X*X*X*X*X*X*X*X*X*X*X*X*X*X*X*X*X*X*X",
"*X*X*X*X*X*X*X*X*X*X*X*X*X*X*X*X*X*X*X*X*X*X*X*X*X*X*X*X*X*X*X*X*X*X*X*X*X*X*X*X*X*X*X*X*X*X*X*X*X*X*X*X*X*X*X*X*X*X*X*X*X*X*X*X",
"*X*X*X*X*X*X*X*X*X*X*X*X*X*X*X*X*X*X*X*X*X*X*X*X*X*X*X*X*X*X*X*X*X*X*X*X*X*X*X*X*X*X*X*X*X*X*X*X*X*X*X*X*X*X*X*X*X*X*X*X*X*X*X*X",
"*X*X*X*X*X*X*X*X*X*X*X*X*X*X*X*X*X*X*X*X*X*X*X*X*X*X*X*X*X*X*X*X*X*X*X*X*X*X*X*X*X*X*X*X*X*X*X*X*X*X*X*X*X*X*X*X*X*X*X*X*X*X*X*X"
};
