/* XPM */
static char *result[] = {
/* columns rows colors chars-per-pixel */
"64 64 71 1 ",
"  c #4C2611",
". c #4E2914",
"X c #4F2D19",
"o c #502A14",
"O c #502E1A",
"+ c #53321D",
"@ c #58361F",
"# c #553622",
"$ c #573925",
"% c #593A25",
"& c #563C2B",
"* c #5B3E2A",
"= c #5D422D",
"- c #574131",
"; c #5C4433",
": c #5B4739",
"> c #5D4B3B",
", c #63442E",
"< c #624531",
"1 c #644935",
"2 c #634D3C",
"3 c #694E3B",
"4 c #64503D",
"5 c #69513E",
"6 c #5D4E41",
"7 c #5E5144",
"8 c #5F5449",
"9 c #624E40",
"0 c #635344",
"q c #6A5544",
"w c #6B5946",
"e c #635649",
"r c #695649",
"t c #655A4C",
"y c #6C5B4C",
"u c #715E4E",
"i c #655D52",
"p c #6A5E51",
"a c #6C614E",
"s c #676056",
"d c #6C6254",
"f c #6C655A",
"g c #6F695E",
"h c #736454",
"j c #726659",
"k c #736A5C",
"l c #7A6B5C",
"z c #6F6960",
"x c #746D61",
"c c #7A6F61",
"v c #767164",
"b c #7A7366",
"n c #777368",
"m c #7A7669",
"M c #7D796D",
"N c #7F7C71",
"B c #807364",
"V c #817669",
"C c #817B6E",
"Z c #827E72",
"A c #858275",
"S c #898477",
"D c #868479",
"F c #89867A",
"G c #8C897C",
"H c #908C7F",
"J c #8E8C81",
"K c #918E83",
"L c #939085",
"P c #969489",
"I c None",
/* pixels */
"IIIIIIIIIIIIIIIIIIIIIIIIIIIIIIIIIIIIIIIIIIIIIIIIIIIIIIIIIIIIIIII",
"IIIIIIIIIIIIIIIIIIIIIIIIIIIIIIIIIIIIIIIIIIIIIIIIIIIIIIIIIIIIIIII",
"IIIIIIIIIIIIIIIIIIIIIIIIIIIIIIIIIIIIIIIIIIIIIIIIIIIIIIIIIIIIIIII",
"IIIIIIIIIIIIIIIIIIIIIIIIIIIIIIIIIIIIIIIIIIIIIIIIIIIIIIIIIIIIIIII",
"IIIIIIIIIIIIIIIIIIIIIIIIIIIIIIIIIIIIIIIIIIIIIIIIIIIIIIIIIIIIIIII",
"IIIIIIIIIIIIIIIIIIIIIIIIIIIIIIIIIIIIIIIIIIIIIIIIIIIIIIIIIIIIIIII",
"IIIIIIIIIIIIIIIIIIIIIIIIIIIIIIIIIIIIIIIIIIIIIIIIIIIIIIIIIIIIIIII",
"IIIIIIIIIIIIIIIIIIIIIIIIIIIIIIIIIIIIIIIIIIIIIIIIIIIIIIIIIIIIIIII",
"IIIIIIIIIIIIIIIIIIIIIIIIIahhhlhllllhhaIIIIIIIIIIIIIIIIIIIIIIIIII",
"IIIIIIIIIIIIIIIIIIIIIIIIIkZFSSSADASSSAhIIIIIIIIIIIIIIIIIIIIIIIII",
"IIIIIIIIIIIIIIIIIIIIIIIIIbFFSFSAAhGSGSlIIIIIIIIIIIIIIIIIIIIIIIII",
"IIIIIIIIIIIIIIIIIIIIII,,1lFFSFAaddGSSSl+%<IIIIIIIIIIIIIIIIIIIIII",
"IIIIIIIIIIIIIIIIII1wkbCCAlSSSGCAlxSGSSchvNch5,IIIIIIIIIIIIIIIIII",
"IIIIIIIIIIIIIIIIIaDAAa1,1lSGGSGGLLSGGGc111hmAD5IIIIIIIIIIIIIIIII",
"IIIIIIIIIIIIII<bAlS3hbSSSlSSGSSGGGGGSSBSFFMc5Dw,,IIIIIIIIIIIIIII",
"IIIIIIIIIIII5uFAml1bASSSSlGGGGGHGGGSGGlSSFSFFwBlmh43IIIIIIIIIIII",
"IIIIIIIIIII<ZFZVlVZCZSAAAhHSGHHHKKLGFLyZZAFFFFZjlCCm*IIIIIIIIIII",
"IIIIIIIIIIlJFDyuZZAASSSSb=GGAaffzgxFKKdFDNDDFZDFq4CAAuIIIIIIIIII",
"IIIIIIIII<jpJ9ZZAAASDFGC8#taaaaayuyxxxyMFJNANNNDAA=Dyj#IIIIIIIII",
"IIIIIIIIbFJZ2ZZSAAAFFMtta->>>@%==;<2qpqbnnDFDNZZAAN<AFFlIIIIIIII",
"IIIIIIIAZZZ1ZZDDDFDMt8t;+;0wwkkkkklx02>2dmxvFNZZNNNN%DDAZIIIIIII",
"IIIIII3SZCuFFDFSDFm88-&>aakkkkkkxbbbbe0gjytzzZDZNNANNqZZF1IIIIII",
"IIIIIIyCCmjFFFKGKN>>XtdjkkvkkkkvvbnbgmMvvbM*gfDFFNNNDyCCZqIIIIII",
"IIIII#huu,kzZJKKM>&-ajgjkkkkkvvvvvbfvvvxvvxnyeiCGFFMjj1hhh%IIIII",
"IIuGFZZZNNmNp9eda->akkkkmMMMMNNMNZv0ANZNNxvnnc0ju92hGHFZZSZSZK,I",
"I<JDDDZZZNNNNZCx&;sgkgdk48484wttttttttttpxvvnnu;ZKZGZZZZSZSSSK,I",
"I1GZZZZZZZZNZZZZ+tgkgxvatsvvkvvvvnvvvnMdyNxnnmM%ZJZZZZZFSZZZSL,I",
"I<JASZckDZZZZZJ6:axkxfxstvxvvvvvvbbvvbbnpennnnnj9KZZZFFZBlSSSP,I",
"I1JDDtJJxDZZDZJ+4vxxxggatvvvvvvvvbmbbbbvpdcnxnnx%KZZZFFZuHCBSL,I",
"I<JDDrZDxDDDDJK+4vvxvntttvnnvvmvmmbbbbbbdpcnnxnn%KZZSSFFqAVBSL,I",
"I,KFSJyrFFFFDDK+7vnvvnZiavmmMMmmbmmmmnvbdcnnnnxn&KFFSFSGqqGGHL,I",
"I<LFFFGGFFFSDDK#7nvnvnmxsmmmMMmmmmmmmnnnfnncnxnn%LZFFFSGGHGGGP,I",
"I<LJFJGFFFFFFFJ#4nnmvmvxammmmmbMMMMMbMMMdmbnvvvg$JFDSFFJGGHFGK<I",
"I*PJGFFFFFFFF92O>mvMMMmkgmMmMMMMmMMMMMMMgmmnvgga=trFGGJGGAVmGL,I",
"I#JJJDFSFZhhkFFM>MNMNMnvkvmmmMbMMMMMMMMmgbmnvxgybDDptqrcDSFFSS%I",
"Iovgsidsi1bADDANmaNNMMnxgMmmmmMMMMMMMMMAgmmmmm0bCCCZZlxpiiifixoI",
"IojiyhhhyquJFZDNAZhMCMMvfknnvbbbbbbvvvvafmmmmyfmZZNZZpyhhhhyfz.I",
"Iofi9ZZmbl:KZFDDADFaMMmMCkhkkkkkkkkkkkaknmmmydNDZZZNJ>xZDFG9iz.I",
"II..&JZZMM2rZFFZDDGAhvNMMNNNNNAAAMMvkMAMMmjylbDDDDZZ91NZDDG&..II",
"IIIII6DZZZm&iKFFDDSDAk<NMMMmMMbMMMMMAMMMm,kFADDDSDJ6ObNZFF6IIIII",
"IIIII&nZZZMp9xVCGFFFDAAaywmmCmVVMMMMbmkauGSSFFFDFZe;1bZAFx$IIIII",
"IIIII.iJZZqq%fzrDGFFDAAAVm1335334333amuASSFGFFFJK76;j2ZFF6.IIIII",
"IIIIII&scCFDbhplMHGGSDDACBBGGGGSAAAAmllADFFGGGJke62bnmhjt#IIIIII",
"IIIIIIIiiFDAZZq1kxFGFSAASBSSGSSSSAAAAHhSDFGGGFee&0CCZVZ-eIIIIIII",
"IIIIIIIIegZFAZDZ55fkmAHGSBASSSSSSSSSAAbSFKClse;>bCCCMn6&IIIIIIII",
"IIIIIIIIIsgFDDDGGB,afaabHBSSSGSCAbSSSABSbytee;hbmCMCZ6>IIIIIIIII",
"IIIIIIIIII8fvJFGHvAk=%aa5BHSHHSZSbSGSSB1ww#*cDcACZZi6-IIIIIIIIII",
"IIIIIIIIIII+sfZSlSAACM=%@BHHHSFlaSGSSSB@%=MZDFDbZxe6.IIIIIIIIIII",
"IIIIIIIIIIII#*gixKKNZNmmmBHHGHGGHAGFGFBavAAAFJJit8#OIIIIIIIIIIII",
"IIIIIIIIIIIIII.9jffDDFZZCBKKKKHHHHHGHGBdvAAAC66:; IIIIIIIIIIIIII",
"IIIIIIIIIIIIIIII#&ssiigsprMcxxxxxxxnmny20aa404$XIIIIIIIIIIIIIIII",
"IIIIIIIIIIIIIIIIIIX>66ie99xffffsdissij>;4w>-- IIIIIIIIIIIIIIIIII",
"IIIIIIIIIIIIIIIIIIIIIIOOO2sgsiiiiiisis>.oXIIIIIIIIIIIIIIIIIIIIII",
"IIIIIIIIIIIIIIIIIIIIIIIII2itetiiiiiiti>IIIIIIIIIIIIIIIIIIIIIIIII",
"IIIIIIIIIIIIIIIIIIIIIIIIIoX............IIIIIIIIIIIIIIIIIIIIIIIII",
"IIIIIIIIIIIIIIIIIIIIIIIIIIIIIIIIIIIIIIIIIIIIIIIIIIIIIIIIIIIIIIII",
"IIIIIIIIIIIIIIIIIIIIIIIIIIIIIIIIIIIIIIIIIIIIIIIIIIIIIIIIIIIIIIII",
"IIIIIIIIIIIIIIIIIIIIIIIIIIIIIIIIIIIIIIIIIIIIIIIIIIIIIIIIIIIIIIII",
"IIIIIIIIIIIIIIIIIIIIIIIIIIIIIIIIIIIIIIIIIIIIIIIIIIIIIIIIIIIIIIII",
"IIIIIIIIIIIIIIIIIIIIIIIIIIIIIIIIIIIIIIIIIIIIIIIIIIIIIIIIIIIIIIII",
"IIIIIIIIIIIIIIIIIIIIIIIIIIIIIIIIIIIIIIIIIIIIIIIIIIIIIIIIIIIIIIII",
"IIIIIIIIIIIIIIIIIIIIIIIIIIIIIIIIIIIIIIIIIIIIIIIIIIIIIIIIIIIIIIII",
"IIIIIIIIIIIIIIIIIIIIIIIIIIIIIIIIIIIIIIIIIIIIIIIIIIIIIIIIIIIIIIII",
"IIIIIIIIIIIIIIIIIIIIIIIIIIIIIIIIIIIIIIIIIIIIIIIIIIIIIIIIIIIIIIII"
};
