/* XPM */
static char *result[] = {
/* columns rows colors chars-per-pixel */
"38 38 6 1 ",
"  c #0C0D14",
". c #181C28",
"X c #406D6B",
"o c #70D38B",
"O c #CBFFD8",
"+ c None",
/* pixels */
"++++++++++++++++++++++++++++++++++++++",
"+++++++++++++++++OOOOOOO++++++++++++++",
"+++++++++++++++OOOOOOOO+O+++++++++++++",
"++++++++++++++OOOOOOOOOO+O++++++++++++",
"++++++++++++++OOOOOOOOOO+O++++++++++++",
"+++++++++++++OOOOOOooOOOO+++++++++++++",
"+++++++++++++OOOOOooooOOO+++++++++++++",
"+++++++++++++OOOOOooooOOO+++++++++++++",
"+++++++++++++OOOOOOooOOOO+++++++++++++",
"++++++++++++++OOOOOOOOOO++++++++++++++",
"++++++++++++++OOOOOOOOOO++++++++++++++",
"+++++++++++++++OOOOOOOO+++++++++++++++",
"+++++++++++++++++OOOO+++++++++++++++++",
"+++++++++++++++.++++++.+++++++++++++++",
"+++++++++++++++..++++..+++++++++++++++",
"+++++++++++++++........    +++++++++++",
"+++++++++++++++.........+++ ++++++++++",
"++++++++++++++...........+++ +++++++++",
"+++++++++++++............+++ +++++++++",
"+++++++++++  .............+ ++++++++++",
"++++++++++ ++............. +++++++++++",
"+++++++++ ++..............++++++++++++",
"+++++++++ ++..............++++++++++++",
"+++++++++ ++...............+++++++++++",
"++++++++++ +...............+++++++++++",
"+++++++++++ ...............+++++++++++",
"++++++++++++...............+++++++++++",
"++++++++++++.............+++++++++++++",
"++++++++++++..............++++++++++++",
"++++++++++++........ ....+++++++++++++",
"++++++++++++.......   ...+++++++++++++",
"++++++++++++++....     ..+++++++++++++",
"++++++++++++++....     +.+++++++++++++",
"+++++++++++++++.. +++ ++++++++++++++++",
"+++++++++++++XX.X XXX XXX+++++++++++++",
"++++++++++XXXXXXX XXX XXXXXX++++++++++",
"++++++++++XXXXXXXXXXXXXXXXXX++++++++++",
"+++++++++++++XXXXXXXXXXXX+++++++++++++",
"++++++++++++++++++++++++++++++++++++++",
};
