/* XPM */
static char *result[] = {
/* columns rows colors chars-per-pixel */
"64 64 48 1 ",
"  c #4F2A13",
". c #512F19",
"X c #4F311A",
"o c #54321C",
"O c #553720",
"+ c #553923",
"@ c #5A3C25",
"# c #5C422C",
"$ c #5F4632",
"% c #5D4935",
"& c #534A3D",
"* c #5F4C38",
"= c #604732",
"- c #604E3A",
"; c #5F5648",
": c #615749",
"> c #635A4B",
", c #685E4E",
"< c #665E50",
"1 c #695F50",
"2 c #676051",
"3 c #6B6354",
"4 c #6E6857",
"5 c #6E6758",
"6 c #6F6958",
"7 c #746E5E",
"8 c #75705F",
"9 c #766F60",
"0 c #767060",
"q c #7B7464",
"w c #7C7866",
"e c #7D7668",
"r c #817C6E",
"t c #837E70",
"y c #84806F",
"u c #868271",
"i c #898576",
"p c #8D8877",
"a c #8B8778",
"s c #8D8979",
"d c #928D7D",
"f c #8F8C80",
"g c #918E82",
"h c #959184",
"j c #96948A",
"k c #9A968E",
"l c #9B988F",
"z c None",
/* pixels */
"zzzzzzzzzzzzzzzzzzzzzzzzzzzzzzzzzzzzzzzzzzzzzzzzzzzzzzzzzzzzzzzz",
"zzzzzzzzzzzzzzzzzzzzzzzzzzzzzzzzzzzzzzzzzzzzzzzzzzzzzzzzzzzzzzzz",
"zzzzzzzzzzzzzzzzzzzzzzzzzzzzzzzzzzzzzzzzzzzzzzzzzzzzzzzzzzzzzzzz",
"zzzzzzzzzzzzzzzzzzzzzzzzzzzzzzzzzzzzzzzzzzzzzzzzzzzzzzzzzzzzzzzz",
"zzzzzzzzzzzzzzzzzzzzzzzzzzzzzzzzzzzzzzzzzzzzzzzzzzzzzzzzzzzzzzzz",
"zzzzzzzzzzzzzzzzzzzzzzzzzzzzzzzzzzzzzzzzzzzzzzzzzzzzzzzzzzzzzzzz",
"zzzzzzzzzzzzzzzzzzzzzzzzzzzzzzzzzzzzzzzzzzzzzzzzzzzzzzzzzzzzzzzz",
"zzzzzzzzzzzzzzzzzzzzzzzzzzzzzzzzzzzzzzzzzzzzzzzzzzzzzzzzzzzzzzzz",
"zzzzzzzzzzzzzzzzzzzzzzzzzzzzzzzzzzzzzzzzzzzzzzzzzzzzzzzzzzzzzzzz",
"zzzzzzzzzzzzzzzzzzzzzzzzzzzzzzzzzzzzzzzzzzzzzzzzzzzzzzzzzzzzzzzz",
"zzzzzzzzzzzzzzzzzzzzzzzzzzzzzzzzzzzzzzzzzzzzzzzzzzzzzzzzzzzzzzzz",
"zzzzzzzzzzzzzzzzzzzzzzzzzzzzzzzzzzzzzzzzzzzzzzzzzzzzzzzzzzzzzzzz",
"zzzzzzzzzzzzzzzzzzzzzzzzzzzzzzzzzzzzzzzzzzzzzzzzzzzzzzzzzzzzzzzz",
"zzzzzzzzzzzzzzzzzzzzzzzzzzzzzzzzzzzzzzzzzzzzzzzzzzzzzzzzzzzzzzzz",
"zzzzzzzzzzzzzzzzzzzzzzzzzzzzzzzzzzzzzzzzzzzzzzzzzzzzzzzzzzzzzzzz",
"zzzzzzzzzzzzzzzzzzzzzzzzzzzzzzzzzzzzzzzzzzzzzzzzzzzzzzzzzzzzzzzz",
"zzzzzzzzzzzzzzzzzzzzzzzzzzzzzzzzzzzzzzzzzzzzzzzzzzzzzzzzzzzzzzzz",
"zzzzzzzzzzzzzzzzzzzzzzzzzzzzzzzzzzzzzzzzzzzzzzzzzzzzzzzzzzzzzzzz",
"zzzzzzzzzzzzzzzzzzzzzzzzzzzz=%$==%==zzzzzzzzzzzzzzzzzzzzzzzzzzzz",
"zzzzzzzzzzzzzzzzz===========ttreetet=zzzzzzzzzzzzzzzzzzzzzzzzzzz",
"zzzzzzzzzzzzzzzz=870rtttttttterrtetee$zzzzzzzzzzzzzzzzzzzzzzzzzz",
"zzzzzzzzzzzzzzz#7877ttttttttrrrretet31$zzzzzzzzzzzzzzzzzzzzzzzzz",
"zzzzzzzzzzzzzz#8787ttrtttttrrrrret5333=zzzzzzzzzzzzzzzzzzzzzzzzz",
"zzzzzzzzzzzzz=7777tttspdtttrrrrr;:;3353$zzzzzzzzzzzzzzzzzzzzzzzz",
"zzzzzzzzzzzz#87778ttssssfttarrrr>;::115$zzzzzzzzzzzzzzzzzzzzzzzz",
"zzzzzzzzzzzz#77878ttasssasatirrr::;;5515=zzzzzzzzzzzzzzzzzzzzzzz",
"zzzzzzzzzzzz#878897hsaaasssittrreeeee155=====zzzzzzzzzzzzzzzzzzz",
"zzzzzzzzzzz#77789999ggjjssssspspeeeeeeeeqeqeq$zzzzzzzzzzzzzzzzzz",
"zzzzzzzzzz#rr888879333<5gdssssssseeeeeeeqqeqeq$zzzzzzzzzzzzzzzzz",
"zzzzzzzzz#rrrrw8993131513gsdssssssseeeeeeqeqqqe$=%==zzzzzzzzzzzz",
"zzzzzzzz#rryrrryd133315q9qhhssssassseeeeeeeeeeeqeeee=zzzzzzzzzzz",
"zzzzzzzz#rrryrypgassssa9q9q9gsssssssiaiteeeuututttqee%zzzzzzzzzz",
"zzzzzzz#rruerugfaaiaiaaa8q8qqhhdsspsiuiiuuiuuipdppppqq=zzzzzzzzz",
"zzzzzz#trrtuysggaaaasaaspiqqq8qssddsiiiipuuipppppppps9q=zzzzzzzz",
"zzzzz#87q834ffffaaaaaasasisiiiissdddddiipuppppppppppa<<<$zzzzzzz",
"zzzzz#q84334ggfaaaasisaassiiiiddgdddddddpppdppppppppi<<<#zzzzzzz",
"zzzzz#043446ffaaaaaaaaaasaiiiddddddddddddddpppdppppd,,<<#zzzzzzz",
"zzzzz#0666667haaaaaaaaaiiiiaddsdddddddddddpdddppppd:,1<,,#zzzzzz",
"zzzzz%%*668676faaaaaaaiiiiiidsdddddddddddpdddpdppd:,::1,,<@zzzzz",
"zzzz%iii%686768faaaaauiiiiiihdddddddddddddddddddk,,::::&&&@zzzzz",
"zzz@iiiii&767690ggfggjhiiiiihgddddhdddddddddddld,>,:::;&&&+zzzzz",
"zz@uiiiiai%76769;;<;;;;ghaiihhddddddddddlllldd,,-,>:::;&&&Ozzzzz",
"zz@7hiiitit;960;<<;;;;<;3jjjhhhdhdddhhhl8877r4,,,,>:::&&&&Xzzzzz",
"zz@89giiiiit#0;<;;;<<<;33333jjhddddhhhl877774,,,,,,>::&&& zzzzzz",
"zz+090ggiiiii#;;;>;;;;33333378jjhhdhhh8777777@O@@@@,>>&&ozzzzzzz",
"zz+09335ggfffaX;<;>2322333338888upuui3311777Or4r3,2@>:&ozzzzzzzz",
"zzO05355355>;>X&;;2<2232333377787uuu111131rOrr6r83,3O:ozzzzzzzzz",
"zzz+353555;>>;X&;3<222323337777877u,113133Orr7r6w832;ozzzzzzzzzz",
"zzzzooX43>;>;;O;&2222<222277777778t1,331##w88wqq88w,&ozzzzzzzzzz",
"zzzzzzzo3>>><oz <22222222744677878,,,,,@yyyywqqqwwy&&ozzzzzzzzzz",
"zzzzzzzzooooozzzoo2222336466667777,,,1@tyyyuyyuqwu&&& zzzzzzzzzz",
"zzzzzzzzzzzzzzzzzzoo22236556665778,,,@gyyyyuyytud2-&;ozzzzzzzzzz",
"zzzzzzzzzzzzzzzzzzzzoooo555555555,,,@dgryyyyuuya>>>;&&.zzzzzzzzz",
"zzzzzzzzzzzzzzzzzzzzzzzzoooo33553,,,@77gddhpaah>>>>;&&ozzzzzzzzz",
"zzzzzzzzzzzzzzzzzzzzzzzzzzzzoooo1<,>+777878dsh>>;;>>&&Xzzzzzzzzz",
"zzzzzzzzzzzzzzzzzzzzzzzzzzzzzzzzoOoo+7777884h>>>>>>>XXzzzzzzzzzz",
"zzzzzzzzzzzzzzzzzzzzzzzzzzzzzzzzzzzz@7777744::>>>>  zzzzzzzzzzzz",
"zzzzzzzzzzzzzzzzzzzzzzzzzzzzzzzzzzzz 9777566::::  zzzzzzzzzzzzzz",
"zzzzzzzzzzzzzzzzzzzzzzzzzzzzzzzzzzzzz 777556::  zzzzzzzzzzzzzzzz",
"zzzzzzzzzzzzzzzzzzzzzzzzzzzzzzzzzzzzzz        zzzzzzzzzzzzzzzzzz",
"zzzzzzzzzzzzzzzzzzzzzzzzzzzzzzzzzzzzzzzzzzzzzzzzzzzzzzzzzzzzzzzz",
"zzzzzzzzzzzzzzzzzzzzzzzzzzzzzzzzzzzzzzzzzzzzzzzzzzzzzzzzzzzzzzzz",
"zzzzzzzzzzzzzzzzzzzzzzzzzzzzzzzzzzzzzzzzzzzzzzzzzzzzzzzzzzzzzzzz",
"zzzzzzzzzzzzzzzzzzzzzzzzzzzzzzzzzzzzzzzzzzzzzzzzzzzzzzzzzzzzzzzz"
};
