/* XPM */
static char *result[] = {
/* columns rows colors chars-per-pixel */
"64 64 188 2 ",
"   c #25010D",
".  c #29030F",
"X  c #270312",
"o  c #2B0314",
"O  c #26021B",
"+  c #2E041D",
"@  c #210F1C",
"#  c #2E0818",
"$  c #320517",
"%  c #3B0612",
"&  c #33051B",
"*  c #38061D",
"=  c #340A1C",
"-  c #3A0C1D",
";  c #2F181E",
":  c #2B151B",
">  c #3B101E",
",  c #371C1C",
"<  c #260226",
"1  c #2C0324",
"2  c #25012C",
"3  c #2A022E",
"4  c #280D24",
"5  c #340324",
"6  c #3B0623",
"7  c #340429",
"8  c #3B052C",
"9  c #36082E",
"0  c #3D0B2E",
"q  c #3A0C24",
"w  c #241526",
"e  c #291526",
"r  c #3B1226",
"t  c #3E1B2F",
"y  c #39172B",
"u  c #2D0233",
"i  c #2C0B36",
"p  c #310236",
"a  c #3C0632",
"s  c #35023A",
"d  c #3A033D",
"f  c #310D3B",
"g  c #3E0938",
"h  c #2C193C",
"j  c #351E36",
"k  c #3C242B",
"l  c #2D233F",
"z  c #31253F",
"x  c #37293D",
"c  c #3C2A3C",
"v  c #3A243F",
"b  c #420611",
"n  c #430814",
"m  c #6E0E16",
"M  c #740F19",
"N  c #531825",
"B  c #420E34",
"V  c #42043C",
"C  c #450B3A",
"Z  c #431435",
"A  c #421937",
"S  c #44143B",
"D  c #45193A",
"F  c #58173B",
"G  c #721E2A",
"H  c #621933",
"J  c #472926",
"K  c #422D3A",
"L  c #492F3A",
"P  c #482438",
"I  c #4C3037",
"U  c #47303B",
"Y  c #4B333A",
"T  c #533436",
"R  c #5B3736",
"E  c #563937",
"W  c #5D3A35",
"Q  c #52353C",
"!  c #56393E",
"~  c #5F3A39",
"^  c #633C34",
"/  c #6A3D31",
"(  c #633F3A",
")  c #74432F",
"_  c #7C452D",
"`  c #7B482F",
"'  c #624035",
"]  c #6B4333",
"[  c #6B453F",
"{  c #734531",
"}  c #7C4A32",
"|  c #74493B",
" . c #794737",
".. c #3D0341",
"X. c #3C0842",
"o. c #381343",
"O. c #2E2441",
"+. c #302744",
"@. c #322946",
"#. c #3C2E44",
"$. c #352D4A",
"%. c #392D4B",
"&. c #37304D",
"*. c #39304E",
"=. c #3C3554",
"-. c #3C3856",
";. c #3D3958",
":. c #430345",
">. c #480446",
",. c #470D43",
"<. c #4A0B45",
"1. c #460449",
"2. c #4C044D",
"3. c #4A0949",
"4. c #4A1141",
"5. c #422F4A",
"6. c #443141",
"7. c #48384C",
"8. c #533A44",
"9. c #593D41",
"0. c #50354F",
"q. c #412652",
"w. c #403757",
"e. c #443A5C",
"r. c #4A3B50",
"t. c #503550",
"y. c #523B57",
"u. c #583C59",
"i. c #6A384D",
"p. c #6C3B56",
"a. c #463B60",
"s. c #4C3F64",
"d. c #684442",
"f. c #70435F",
"g. c #53426C",
"h. c #534062",
"j. c #5A4472",
"k. c #674868",
"l. c #6E4A6D",
"z. c #774961",
"x. c #7E4769",
"c. c #794D69",
"v. c #784F70",
"b. c #961419",
"n. c #A3161C",
"m. c #8A1E25",
"M. c #B2591F",
"N. c #BB5E1C",
"B. c #BD621D",
"V. c #82462B",
"C. c #844B2E",
"Z. c #8A4C2A",
"A. c #934F2B",
"S. c #89522C",
"D. c #9F5525",
"F. c #9B5827",
"G. c #94532B",
"H. c #9C5628",
"J. c #97592A",
"K. c #9C5A2A",
"L. c #814B32",
"P. c #894E32",
"I. c #8F5431",
"U. c #855332",
"Y. c #A45624",
"T. c #A45B25",
"R. c #AB5C23",
"E. c #A25F2C",
"W. c #A76025",
"Q. c #A06028",
"!. c #B56623",
"~. c #B56A25",
"^. c #BC6C22",
"/. c #B96522",
"(. c #C46D1F",
"). c #C0651D",
"_. c #C26E21",
"`. c #CA7520",
"'. c #CF7B22",
"]. c #824E64",
"[. c #8A5476",
"{. c #8F5975",
"}. c #8F5879",
"|. c #855174",
" X c #905976",
".X c #915980",
"XX c #9C6389",
"oX c None",
/* pixels */
"oXoXoXoXoXoXoXoXoXoXoXoXoXoXoXoXoXoXoXoXoXoXoXoXoXoXoXoXoXoXoXoXoXoXoXoXoXoXoXoXoXoXoXoXoXoXoXoXoXoXoXoXoXoXoXoXoXoXoXoXoXoXoXoX",
"oXoXoXoXoXoXoXoXoXoXoXoXoXoXoXoXoXoXoXoXoXoXoXoXoXoXoXoXoXoXoXoXoX3 3 3 2 2 2 2 2 2 2 oXoXoXoXoXoXoXoXoXoXoXoXoXoXoXoXoXoXoXoXoX",
"oXoXoXoXoXoXoXoXoXoXoXoXoXoXoXoXoXoXoXoXoXoXoXoXoXoXoXoXoXoX2 u 1...p u u 2 2 2 3 p s s p u u oXoXoXoXoXoXoXoXoXoXoXoXoXoXoXoXoX",
"oXoXoXoXoXoXoXoXoXoXoXoXoXoXoXoXoXoXoXoXoXoXoXoXoXoXoXoXoXu p s 1.1.1.s u 2 u u s ..1.1...s p 1.u oXoXoXoXoXoXoXoXoXoXoXoXoXoXoX",
"oXoXoXoXoXoXoXoXoXoXoXoXoXoXoXoXoXoXoXoXoXoXoXoXoXoXoXoXs s 1.:.2.2.1.1.s u u :.2.2.2.2.1.1.2.2.s oXoXoXoXoXoXoXoXoXoXoXoXoXoXoX",
"oXoXoXoXoXoXoXoXoXoXoXoXoXoXoXoXoXoXoXoXoXoXoXoXoXoXoXoX..1.2.2.2.2.2.1...s d 1.2.2.2.2.2.2.2.2...1.oXoXoXoXoXoXoXoXoXoXoXoXoXoX",
"oXoXoXoXoXoXoXoXoXoXoXoXoXoXoXoXoXoXoXoXoXoXoXoXoXoXoX..1.2.2.2.2.2.2.1...d :.1.2.2.2.2.2.2.2.2.2.2.2.oXoXoXoXoXoXoXoXoXoXoXoXoX",
"oXoXoXoXoXoXoXoXoXoXoXoXoXoXoXoXoXoXoXoXoXoXoXoXoXoX2 u ..1.2.2.2.2.1.1.:.:.2.2.2.2.2.2.2.2.2.2.2.2.1...s oXoXoXoXoXoXoXoXoXoXoX",
"oXoXoXoXoXoXoXoXoXoXoXoXoXoXoXoXoXoXoXoXoXoXoXoXoXoX2 3 p 1.2.2.2.2.2.2.X.B B 8 >.2.2.2.2.2.2.2.2.2.2.:.s 2 oXoXoXoXoXoXoXoXoXoX",
"oXoXoXoXoXoXoXoXoXoXoXoXoXoXoXoXoXoXoXoXoXoXoXoXoXoX2 2 u ..2.2.2.2.2.1.d 9 q & >.2.2.2.2.2.2.2.2.2.2.1...u 2 oXoXoXoXoXoXoXoXoX",
"oXoXoXoXoXoXoXoXoXoXoXoXoXoXoXoXoXoXoXoXoXoXoXoXoXoX3 2 u s 2.2.2.1.1.1.s 5 - r S 3.2.2.2.2.2.2.2.2.2.2...s 2 oXoXoXoXoXoXoXoXoX",
"oXoXoXoXoXoXoXoXoXoXoXoXoXoXoXoXoXoXoXoXoXoXoXoXoXoXoXu p ..2.2.2.1.:.d 3 1 = y D 4.3.3.2.2.2.2.2.2.2.2...s 2 oXoXoXoXoXoXoXoXoX",
"oXoXoXoXoXoXoXoXoXoXoXoXoXoXoXoXoXoXoXoXoXoXoXoXoXoXoXoX..1.2.2.2.1...p 3 + & 0 S D 4.3.2.2.2.2.2.2.2.2.:.p 2 oXoXoXoXoXoXoXoXoX",
"oXoXoXoXoXoXoXoXoXoXoXoXoXoXoXoXoXoXoXoXoXoXoXoXoXoXoX..1.2.2.2.2.2.V p 1 & & V C D S 3.2.2.2.2.2.2.2.2...u 2 oXoXoXoXoXoXoXoXoX",
"oXoXoXoXoXoXoXoXoXoXoXoXoXoXoXoXoXoXoXoXoXoXoXoXoXoXu s 1.2.2.2.2.2.1.d 7 & 6 2.3.S 4.3.2.2.2.2.2.2.2.2.d u 2 oXoXoXoXoXoXoXoXoX",
"oXoXoXoXoXoXoXoXoXoXoXoXoXoXoXoXoXoXoXoXoXoXoXoXoXoX....1.2.2.2.2.2.2.1.8 6 8 >.<.t j 2.2.2.2.2.2.2.2.1.s u 2 oXoXoXoXoXoXoXoXoX",
"oXoXoXoXoXoXoXoXoXoXoXoXoXoXoXoXoXoXoXoXoXoXoXoXoXoX2.1.2.2.2.2.2.2.2.V 6 * * B t Z S 3.2.2.2.2.2.2.2.2.:.p 2 oXoXoXoXoXoXoXoXoX",
"oXoXoXoXoXoXoXoXoXoXoXoXoXoXoXoXoXoXoXoXoXoXoXoXoX2 s 1.2.2.2.2.2.2.2.>.a & $ - > B <.2.2.2.2.2.2.2.2.X.d u oXoXoXoXoXoXoXoXoXoX",
"oXoXoXoXoXoXoXoXoXoXoXoXoXoXoXoXoXoXoXoXoXoXoXoXoX2 p 1.2.2.2.2.2.2.2.>.d 5 o $ = B >.2.2.2.2.2.2.2.2.1.s 2 oXoXoXoXoXoXoXoXoXoX",
"oXoXoXoXoXoXoXoXoXoXoXoXoXoXoXoXoXoXoXoXoXoXoXoXoXoXs ..1.1.2.2.2.2.2.2.:.a = n % * V 2.2.2.2.2.2.2.1.1.s oXoXoXoXoXoXoXoXoXoXoX",
"oXoXoXoXoXoXoXoXoXoXoXoXoXoXoXoXoXoXoXoXoXoXoXoXoXoXp p ....2.2.2.2.2.2.2.C N m % o 8 :.2.2.2.2.2.2.1.....oXoXoXoXoXoXoXoXoXoXoX",
"oXoXoXoXoXoXoXoXoXoXoXoXoXoXoXoXoXoXoXoXoXoXoXoXoXoX2 3 u ..2.2.2.2.2.2.3.F G b.% . 5 :.2.2.2.2.2.1...s u oXoXoXoXoXoXoXoXoXoXoX",
"oXoXoXoXoXoXoXoXoXoXoXoXoXoXoXoXoXoXoXoXoXoXoXoXoXoX2 2 u ..2.2.2.2.2.2.F H m.n.b   5 V 2.2.2.2.2...p 3 2 oXoXoXoXoXoXoXoXoXoXoX",
"oXoXoXoXoXoXoXoXoXoXoXoXoXoXoXoXoXoXoXoXoXoXoXoXoXoX2 2 3 s 1.2.2.2.2.2.<.H m.n.b . 5 :.2.2.2.2.2.s 3 2 2 oXoXoXoXoXoXoXoXoXoXoX",
"oXoXoXoXoXoXoXoXoXoXoXoXoXoXoXoXoXoXoXoXoXoXoXoXoXoX2 2 2 3 u ..2.2.2.3.,.Z N M %   7 :.2.2.2.1.s u 2 2 2 oXoXoXoXoXoXoXoXoXoXoX",
"oXoXoXoXoXoXoXoXoXoXoXoXoXoXoXoXoXoXoXoXoXoXoXoXoXoXoXoXoXoX3 u V 2.2.2.,.g > % . 5 V 1.2.1.1.1.p 2 2 oXoXoXoXoXoXoXoXoXoXoXoXoX",
"oXoXoXoXoXoXoXoXoXoXoXoXoXoXoXoXoXoXoXoXoXoXoXoXoXoXoXoXoXoX2 2 u ..1.2.>.g # . O 3 ..:.:.V ....u 2 oXoXoXoXoXoXoXoXoXoXoXoXoXoX",
"oXoXoXoXoXoXoXoXoXoXoXoXoXoXoXoXoXoXoXoXoXoXoXoXoXoXoXoXoXoX2 2 3 d 1.2.2.C + . < 1 p s s s s p 2 2 oXoXoXoXoXoXoXoXoXoXoXoXoXoX",
"oXoXoXoXoXoXoXoXoXoXoXoXoXoXoXoXoXoXoXoXoXoXoXoXoXoXoXoXoXoX3 i i f :.1.2.:.8 X O 1 u u p p 3 2 2 2 oXoXoXoXoXoXoXoXoXoXoXoXoXoX",
"oXoXoXoXoXoXoXoXoXoXoXoXoXoXoXoXoXoXoXoXoXoXoXoXoXoXoXoXoXoXoXq.q.o.X.1.2.>.V o + 1 2 2 u u 2 2 2 2 oXoXoXoXoXoXoXoXoXoXoXoXoXoX",
"oXoXoXoXoXoXoXoXoXoXoXoXoXoXoXoXoXoXoXoXoXoXoXoXoXoXoXoXoXoXoXj.s.q.o...1.2.V o O 1 2 2 2 2 2 2 2 oXoXoXoXoXoXoXoXoXoXoXoXoXoXoX",
"oXoXoXoXoXoXoXoXoXoXoXoXoXoXoXoXoXoXoXoXoXoXoXoXoXoXoXoXoXoXj.g.e.-.+.f ..>.V O < < 2 2 oXoXoXoXoXoXoXoXoXoXoXoXoXoXoXoXoXoXoXoX",
"oXoXoXoXoXoXoXoXoXoXoXoXoXoXoXoXoXoXoXoXoXoXoXoXoXoXoXoXoXoXg.e.w.%.O.h i ..:.# < 2 oXoXoXoXoXoXoXoXoXoXoXoXoXoXoXoXoXoXoXoXoXoX",
"oXoXoXoXoXoXoXoXoXoXoXoXoXoXoXoXoXoXoXoXoXoXoXoXoXoXoXoXoXs.e.-.$.K k e 4 oXoXX oXoXoXoXoXoXoXoXoXoXoXoXoXoXoXoXoXoXoXoXoXoXoXoX",
"oXoXoXoXoXoXoXoXoXoXoXoXoXoXoXoXoXoXoXoXoXoXoXoXoXoXj.s.a.e.*.%.8.J , : oXoXoX= oXoXoXoXoXoXoXoXoXoXoXoXoXoXoXoXoXoXoXoXoXoXoXoX",
"oXoXoXoXoXoXoXoXoXoXoXoXoXoXoXoXoXoXoXoXoXoXoXoXoXg.s.e.w.*.@.+.T J , oXoXoXoX- oXoXoXoXoXoXoXoXoXoXoXoXoXoXoXoXoXoXoXoXoXoXoXoX",
"oXoXoXoXoXoXoXoXoXoXoXoXoXoXoXoXoXoXoXoXoXoXoXoXoXa.e.-.$.$.O.l k ; oXoXoXoXoX= oXoXoXoXoXoXoXoXoXoXoXoXoXoXoXoXoXoXoXoXoXoXoXoX",
"oXoXoXoXoXoXoXoXoXoXoXoXoXoXoXoXoXoXoXoXoXoXoXoXe.e.-.%.@.O.l l e @ oXoXoXoXoX$ oXoXoXoXoXoXoXoXoXoXoXoXoXoXoXoXoXoXoXoXoXoXoXoX",
"oXoXoXoXoXoXoXoXoXoXoXoXoXoXoXoXoXoXoXoXoXoXoX-.-.=.$.@.O.O.l l w oXoXoXoXoXoX$ oXoXoXoXoXoXoXoXoXoXoXoXoXoXoXoXoXoXoXoXoXoXoXoX",
"oXoXoXoXoXoXoXoXoXoXoXoXoXoXoXoXoXoXoXoXoXoX-.-.-.$.$.O.l O.O.O.oXoXoXoXoXoXoX$ oXoXoXoXoXoXoXoXoXoXoXoXoXoXoXoXoXoXoXoXoXoXoXoX",
"oXoXoXoXoXoXoXoXoXoXoXoXoXoXoXoXoXoXoXoXoX-.-.-.&.@.O.l O.@.=.*.@.&.oXoXoXoXoXX oXoXoXoXoXoXoXoXoXoXoXoXoXoXoXoXoXoXoXoXoXoXoXoX",
"oXoXoXoXoXoXoXoXoXoXoXoXoXoXoXoXoXoXoX-.w.-.-.%.@.l l l O.O.$.=.@.@.$.oXoXoXoX- oXoXoXoXoXoXoXoXoXoXoXoXoXoXoXoXoXoXoXoXoXoXoXoX",
"oXoXoXoXoXoXoXoXoXoXoXoXoXoXoXoXoXoX .r.-.-.=.+.l l l U Q I @.=.$.@.$.&.w.s.l.p..XoXoXoXoXoXoXoXoXoXoXoXoXoXoXoXoXoXoXoXoXoXoXoX",
"oXoXoXoXoXoXoXoXoXoXoXoXoXoXoXoXoXM.I.d.0.=.$.O.l K E ^ ^ I @.&.=.$.@.$.=.u.v.}.XXoXoXoXoXoXoXoXoXoXoXoXoXoXoXoXoXoXoXoXoXoXoXoX",
"oXoXoXoXoXoXoXoXoXoXoXoXoXoXoXoXoXV.A.P.[ 8.#.z c ^ ) ) R K O.@.=.$.$.+.$.y.c. XXXoXoXoXoXoXoXoXoXoXoXoXoXoXoXoXoXoXoXoXoXoXoXoX",
"oXoXoXoXoXoXoXoXoXoXoXoXoXoXoXoXx T _ G.K.U.] c ] ` ) ^ I O.l +.&.=.$.O.@.0.z.]. XoXoXoXoXoXoXoXoXoXoXoXoXoXoXoXoXoXoXoXoXoXoXoX",
"oXoXoXoXoXoXoXoXoXoXoXoXoXoXoXoX] I I ` R./.Q.] T.S.R oXoXoXl O.@.*.=.$.#.t.f.i.].oXoXoXoXoXoXoXoXoXoXoXoXoXoXoXoXoXoXoXoXoXoXoX",
"oXoXoXoXoXoXoXoXoXoXoXoXoXoXoXR.^.} I I V.R.B.B.~.~.oXoXoXoXoXl O.$.=.=.-.oXx.r oXoXoXoXoXoXoXoXoXoXoXoXoXoXoXoXoXoXoXoXoXoXoXoX",
"oXoXoXoXoXoXoXoXoXoXoXoXoXoXoXT Y.F.C.` C.Y.N.N.N._.oXoXoXoXoXO.l +.$.=.e.k. X|.oXoXoXoXoXoXoXoXoXoXoXoXoXoXoXoXoXoXoXoXoXoXoXoX",
"oXoXoXoXoXoXoXoXoXoXoXoXoXoX*.#.L.K.R.K.L.{ A.N.N.).(.oXoXoXoXoXl l +.+.*.y.z.[.oXoXoXoXoXoXoXoXoXoXoXoXoXoXoXoXoXoXoXoXoXoXoXoX",
"oXoXoXoXoXoXoXoXoXoXoXoXoXoX*.*.! ` Y.R.J.L.C.Y.Y.R./._.`.`.'.oXoXoXO.+.@.6.u.p.oXoXoXoXoXoXoXoXoXoXoXoXoXoXoXoXoXoXoXoXoXoXoXoX",
"oXoXoXoXoXoXoXoXoXoXoXoXoX*.=.-.#.R V.R.R.D.S.} L.L.I.W.~._.^.oXoXoXoXl z v P P oXoXoXoXoXoXoXoXoXoXoXoXoXoXoXoXoXoXoXoXoXoXoXoX",
"oXoXoXoXoXoXoXoXoXoXoXoX-.=.*.-.$.#.~ C.D.R.J.' 0.8.9.| G.R.K.oXoXoXoXoXl j y = oXoXoXoXoXoXoXoXoXoXoXoXoXoXoXoXoXoXoXoXoXoXoXoX",
"oXoXoXoXoXoXoXoXoXoXoXoX-.-.=.*.$.$.7.! ] Z.D./ 6.#.#.!  .L.[ | oXoXoXoXoXoX4   oXoXoXoXoXoXoXoXoXoXoXoXoXoXoXoXoXoXoXoXoXoXoXoX",
"oXoXoXoXoXoXoXoXoXoXoX-.=.=.*.@.@.$.*.%.#.T V.Z.^ K L W ^ 8.%.*.oXoXoXoXoXoXoX  oXoXoXoXoXoXoXoXoXoXoXoXoXoXoXoXoXoXoXoXoXoXoXoX",
"oXoXoXoXoXoXoXoXoXoX-.-.-.*.$.l O.*.$.+.+.z I D.V.^ ] } E O.l l oXoXoXoXoXoXoX  oXoXoXoXoXoXoXoXoXoXoXoXoXoXoXoXoXoXoXoXoXoXoXoX",
"oXoXoXoXoXoXoXoXoXoX-.=.=.$.O.O.&.=.=.=.=.&.@.K ^ A.!.Q.' l l oXoXoXoXoXoXoXoX  oXoXoXoXoXoXoXoXoXoXoXoXoXoXoXoXoXoXoXoXoXoXoXoX",
"oXoXoXoXoXoXoXoXoX;.;.=.&.@.+.O.@.@.@.@.@.@.&.@.K R S.W.J.^ l oXoXoXoXoXoXoXoX  oXoXoXoXoXoXoXoXoXoXoXoXoXoXoXoXoXoXoXoXoXoXoXoX",
"oXoXoXoXoXoXoXoXoX&.$.$.@.O.+.@.@.@.@.@.@.@.@.@.z x E ) { E l oXoXoXoXoXoXoXoX  oXoXoXoXoXoXoXoXoXoXoXoXoXoXoXoXoXoXoXoXoXoXoXoX",
"oXoXoXoXoXoXoXoXoX+.@.+.O.O.+.@.$.$.$.$.$.@.O.O.l l x c U x l oXoXoXoXoXoXoXoX  oXoXoXoXoXoXoXoXoXoXoXoXoXoXoXoXoXoXoXoXoXoXoXoX",
"oXoXoXoXoXoXoXoXoXO.O.O.O.O.O.O.+.+.+.+.+.+.O.l l l l l l l l oXoXoXoXoXoXoXoX  oXoXoXoXoXoXoXoXoXoXoXoXoXoXoXoXoXoXoXoXoXoXoXoX",
"oXoXoXoXoXoXoXoXO.O.O.O.O.O.O.O.O.O.+.l l l O.O.l l O.l O.O.O.oXoXoXoXoXoXoXoX  oXoXoXoXoXoXoXoXoXoXoXoXoXoXoXoXoXoXoXoXoXoXoXoX",
"oXoXoXoXoXoXoXoXoXoXoXoXoXoXoXoXoXoXoXoXoXoXoXoXoXoXoXoXoXoXoXoXoXoXoXoXoXoXoXoXoXoXoXoXoXoXoXoXoXoXoXoXoXoXoXoXoXoXoXoXoXoXoXoX",
"oXoXoXoXoXoXoXoXoXoXoXoXoXoXoXoXoXoXoXoXoXoXoXoXoXoXoXoXoXoXoXoXoXoXoXoXoXoXoXoXoXoXoXoXoXoXoXoXoXoXoXoXoXoXoXoXoXoXoXoXoXoXoXoX"
};
