/* XPM */
static char *result[] = {
/* columns rows colors chars-per-pixel */
"64 64 193 2 ",
"   c #36364E",
".  c #37384F",
"X  c #38394F",
"o  c #3C3B50",
"O  c #3F3F58",
"+  c #433D4F",
"@  c #423E51",
"#  c #483F50",
"$  c #3F4055",
"%  c #4B404F",
"&  c #59474F",
"*  c #5F484F",
"=  c #424155",
"-  c #4C4454",
";  c #4E4856",
":  c #43435B",
">  c #4A465B",
",  c #4C4A5B",
"<  c #544652",
"1  c #594750",
"2  c #554856",
"3  c #5C4A52",
"4  c #534D5A",
"5  c #5C4E5C",
"6  c #57505C",
"7  c #5A525C",
"8  c #674C4F",
"9  c #634D52",
"0  c #694E51",
"q  c #6C5153",
"w  c #62545D",
"e  c #6A555A",
"r  c #6D595D",
"t  c #67595F",
"y  c #725655",
"u  c #755957",
"i  c #795857",
"p  c #72575B",
"a  c #745B5B",
"s  c #7B5D5A",
"d  c #785756",
"f  c #7D625D",
"g  c #474760",
"h  c #474860",
"j  c #4D4C63",
"k  c #504F63",
"l  c #555365",
"z  c #5A5664",
"x  c #5D5967",
"c  c #55556B",
"v  c #5A586B",
"b  c #5C5C72",
"n  c #615360",
"m  c #645D63",
"M  c #635D6A",
"N  c #745D61",
"B  c #785F61",
"V  c #666166",
"C  c #6D676F",
"Z  c #6F6063",
"A  c #736365",
"S  c #7D6462",
"D  c #7A6C6B",
"F  c #7F6A67",
"G  c #7F706C",
"H  c #636374",
"J  c #6F6971",
"K  c #6A6A7A",
"L  c #666374",
"P  c #726C72",
"I  c #796E75",
"U  c #7C727B",
"Y  c #70707F",
"T  c #835F5D",
"R  c #83645E",
"E  c #8C625F",
"W  c #846661",
"Q  c #8D6360",
"!  c #846A65",
"~  c #8B6C65",
"^  c #866D68",
"/  c #916561",
"(  c #956E66",
")  c #986E67",
"_  c #8C7067",
"`  c #86726D",
"'  c #8C746C",
"]  c #957167",
"[  c #987067",
"{  c #947469",
"}  c #9B766A",
"|  c #9D796C",
" . c #92796D",
".. c #897671",
"X. c #8B7A73",
"o. c #80767C",
"O. c #857C79",
"+. c #887B77",
"@. c #937D74",
"#. c #9C7E71",
"$. c #A17B6E",
"%. c #A07E70",
"&. c #8C827A",
"*. c #948176",
"=. c #9C8275",
"-. c #958379",
";. c #9F8779",
":. c #9E8A7B",
">. c #93887E",
",. c #A48374",
"<. c #A98575",
"1. c #AB8976",
"2. c #A48778",
"3. c #A38B7B",
"4. c #AC8D7A",
"5. c #A38877",
"6. c #B28F7B",
"7. c #AD917D",
"8. c #B4937E",
"9. c #B8957F",
"0. c #737284",
"q. c #7B7B8A",
"w. c #7E7F92",
"e. c #8D8286",
"r. c #80808F",
"t. c #928588",
"y. c #9B8B8B",
"u. c #958B87",
"i. c #9F9285",
"p. c #898995",
"a. c #8D8C9B",
"s. c #9A8D90",
"d. c #90909D",
"f. c #9F9090",
"g. c #A39585",
"h. c #AD9581",
"j. c #AD9D8A",
"k. c #A89A88",
"l. c #B59680",
"z. c #B99781",
"x. c #B59A84",
"c. c #B99D85",
"v. c #B19F88",
"b. c #A49694",
"n. c #A89795",
"m. c #A79996",
"M. c #AB9D9B",
"N. c #A89A96",
"B. c #AEA18D",
"V. c #BBA087",
"C. c #B3A38D",
"Z. c #BCA289",
"A. c #BDA98E",
"S. c #B6A993",
"D. c #BCAB91",
"F. c #B9AD9B",
"G. c #B7AA98",
"H. c #BCB09F",
"J. c #9A9AA6",
"K. c #9796A2",
"L. c #A19EA6",
"P. c #A7A1A6",
"I. c #B7ACAA",
"U. c #B8B4B8",
"Y. c #C1A58B",
"T. c #C1AE92",
"R. c #C6B394",
"E. c #C9B596",
"W. c #CBB897",
"Q. c #CAB798",
"!. c #CDBB9A",
"~. c #D0BE9C",
"^. c #C5BDBC",
"/. c #D3C19D",
"(. c #D9C7A6",
"). c #C8C0BF",
"_. c #E1D1B2",
"`. c #BABAC0",
"'. c #C5C5C9",
"]. c #CACACD",
"[. c #C7C3C5",
"{. c #D2CDCD",
"}. c #D4D3D6",
"|. c #D9D6D6",
" X c #DCDADB",
".X c #D5D6D9",
"XX c #DEDEE0",
"oX c #E5E5E6",
"OX c #E7E7E8",
"+X c #E8E7E8",
"@X c #EDEDED",
"#X c #F1F1F1",
"$X c None",
/* pixels */
"$X$X$X$X$X$X$X$X$X$X$X$X$X$X$X$X$X$X$X$X$X$X$X$X$X$X$X$X$X$X$X$X$X$X$X$X$X$X$X$X$X$X$X$X$X$X$X$X$X$X@X@X@X@X@X@X@X#X$X$X$X$X$X$X",
"$X$X$X$X$X$X$X$X$X$X$X$X$X$X$X$X$X$X$X$X$X$X$X$X$X$X$X$X$X$X$X$X$X$X$X$X$X$X$X$X$X$X$X$X$X$X$X$X$X$X.X].].].].].].].oX$X$X$X$X$X",
"$X$X$X$X$X$X$X$X$X$X$X$X$X$X$X$X$X$X$X$X$X$X$X$X$X$X$X$X$X$X$X$X$X$X$X$X$X$X$X$X$X$X$X$X@X@X@X@X@X@Xr.h j j j j r S }.@X$X$X$X$X",
"$X$X$X$X$X$X$X$X$X$X$X$X$X$X$X$X$X$X$X$X$X$X$X$X$X$X$X$X$X$X$X$X$X$X$X$X$X$X$X$X$X$X$X$XoXXXXXXXXX Xq.k l j l l 9 p {.@X$X$X$X$X",
"$X$X$X$X$X$X$X$X$X$X$X$X$X$X$X$X$X$X$X$X$X$X$X$X$X$X$X$X$X$X$X$X$X$X$X$X$X$X$X$X$X$X$X@XJ.b b H H H i.G.C.C.G.S.z > ].@X$X$X$X$X",
"$X$X$X$X$X$X$X$X$X$X$X$X$X$X$X$X$X$X$X$X$X$X$X$X$X$X$X$X$X$X$X$X$X$X$X$X$X$X$X$X@XOX@X@Xa.: g > : > k.~.E.E.!.W.7 > ].@X$X$X$X$X",
"$X$X$X$X$X$X$X$X$X$X$X$X$X$X$X$X$X$X$X$X$X$X$X$X$X$X$X$X$X$X$X$X$X$X$X$X$X$X$X@X`.0.q.q.t.i.g.g.i.i.T.(.E.R.!.W.z : ].@X$X$X$X$X",
"$X$X$X$X$X$X$X$X$X$X$X$X$X$X$X$X$X$X$X$X$X$X$X$X$X$X$X$X$X$X@X@X@X#X@X@X#X@X#X#XJ.$ $ : &.W.~.~.W.Q.!.!.E.E.!.W.7 : ].@X$X$X$X$X",
"$X$X$X$X$X$X$X$X$X$X$X$X$X$X$X$X$X$X$X$X$X$X$X$X$X$X$X$X$X@X.XJ.J.J.J.J.J.J.J.J.p.+.O.e.j.R.!.~.W.R.W.W.W.W.R.A.7 : ].@X$X$X$X$X",
"$X$X$X$X$X$X$X$X$X$X$X$X$X$X$X$X$X$X$X@X@X#X@X@X@X@X#X@X#X#X`.$ : : : $ $ : : O +.W.!./.!.R.!.~.W.R.R.R././.A.9.6 : ].#X$X$X$X$X",
"$X$X$X$X$X$X$X$X$X$X$X$X$X$X$X$X$X$XoX).).`.`.`.`.`.`.`.`.`.L.P J C J J J J J J i.E.W./.!.E.!.~.W.W.R.R.V.v.3.=.4 = ].@X$X$X$X$X",
"$X$X$X$X$X@X@X@X@X@X@X@X@X@X@X@X@X@X|.B 9 g g g h h h h h h P W.Q.R.Q.!.E.R.Q.!.E.R.!.!.~.~.~.~././././.^ 0 q q = = ].#X$X$X$X$X",
"$X$X$X$X@XXX.X}.}.}..X}.|.|.|.}..X|.[.! a z v v v z l v x z U /.!.E.Q.~.!.R.W.~.W.E.W.!.~.!.!.~.W.!.E.A.~ y y q = = ].@X$X$X$X$X",
"$X$X$X$XOXa.H b c c c N s A N v c N ^ T.E.D.D.R.R.A.D.R.D.S.R./.Q.R.!.~.!.R.!.~.~.!.W.E.E.E.!.~.W.R.' a ~ } { ] ; : ].@X$X$X$X$X",
"$X$X$X$XOXw.c j j h , e y q q , , q S Q.!.E.W.!.W.E.W./.!.E.Q.!.!.Q.W.!.W.E.Q.~.~.!.!.R.R.R.!.~.W.R._ q _ | ,. .< : ].#X$X$X$X$X",
"$X$X$X$XOX0.j i.C.j.j.C.Z.x.v.C.C.v.V.!.!.E.W.!.!.E.W.!.W.R.Q./.!.!.W.Q.Q.!.!.~.!.E.!.!.E.E.!.~.W.R.,._ 8.A.Z.Z.6 = ].#X$X$X$X$X",
"$X$X$X$XOX0.h C.(.E.E.~.~.E.E.~.~.E.E.~.!.E.E.~.!.R.E./.!.R.Q./././.!.R.E././.!.Q.R.W./.W.R.W./.W.R.1.| Z.W.R.T.7 : ].@X$X$X$X$X",
"$X$X$X$XOX0.g F.(.!.R.!.~.E.E.!.~.E.E.E.W.W.!.~.!.E.W.W.W.W.W./.W.Q.Q.W.W.E.W./.Q.E.W.!.W.E.W./.W.T.1.| V.R.R.T.7 = ].@X$X$X$X$X",
"$X$X$X$XoX0.h H._.!.E.!.~.E.E.~.!.E.E.E.E.~.~.~././.W.R.E././.!.!.R.E./.W.R.!./.W.E.W./.W.E.!./.W.R.1.| Z.W.W.T.7 : ].@X$X$X$X$X",
"$X$X$X$XoX0.: G.(.!.E.!.W.E.E.~.~.E.E.E.Q.!.W.~./.!.W.E.W.!.W./.!.R.E./.!.R.E.!.E.R.W./.V.5.>.>.:.5.=.} *.&.&.&.7 6 ].@X$X$X$X$X",
"$X$X$X$XOXK o j.~.~.~.E.R.~.~.~.~.~.~.~.!.R.Q.~./.R.R././.R.R./.!.R.E./.W.R.W./.!.E.!./.@.8 % . & 0 _ | 2 . X X * a {.@X$X$X$X$X",
"$X$X$X$XOXK o B.(.!.!.E.E.!.!.~.~.!.!.~.!.E.E.~.!.R.E./.W.R.R./.!.R.E./.W.R.!./.D.g.B.A. .d e 6 f f E _ t 6 ; 2 3 t {.@X$X$X$X$X",
"$X$X$X$XoXK o F._.W.E.~.~.E.E.!.~.E.E.!.!.R.E.~.W.R.D././.D.W./.!.E.E././.R.W./.&.$ 1 q W | 4.x.x.x.F q =.V.=.] ; : ].#X$X$X$X$X",
"$X$X$X$XOXK = F._.!.R.!.!.E.E.!.!.E.E.~.!.E.E.~./.R.W././.R.R.R.D.D.D.D.D.A.D.R.G = 3 y W { 5.h.7.7.f q =.7.| _ ; : ].#X$X$X$X$X",
"$X$X$X$XOXK o F._.!.E.!.~.E.E.~.!.E.E.!.W.W.W./.W.R.W./.!.E.h.f r 4 4 4 4 4 , 4 I 7.=.] e = > ; ; ; 9 q 4 ; - - X ; ].@X$X$X$X$X",
"$X$X$X$XOXK o F._.!.E.!.!.E.R.!.~.E.E.!.W.R.R.W.W.R.E.!.W.R.7.q 1 $ X X X X X X D c.<.| w X . . o X * 0 % . . X X > ].@X$X$X$X$X",
"$X$X$X$XOXK o C.(.Q.R.!.!.E.E.~.!.E.A.' ! V m V V m V V A ! ~ ~ ' *.*.*.*.*.*.*.D n p s 5 : $ : $ : - = 1 1 + $ J.U.oX#X$X$X$X$X",
"$X$X$X$X+XK o j./.Q.Q.!.~.E.E.~./.W.Z.y * X             % 0 i | 5.Z.Z.V.V.Y.Z.Z.D   < 0 2 > h g g g o X 3 q = = ].#X@X$X$X$X$X$X",
"$X$X$X$X+XU < ' ;.1.4.6.h.#.@.=.=.=.*.;.=.G D G D D D D ! R R R f D D D D D D D l X # 2 > @ @ @ O $ : $ 3 q # : '.@X$X$X$X$X$X$X",
"$X$X$X$X+X+.0 0 0 T Q / Q 0 0 0 8 8 f !./.Z.Y.Z.Z.Z.Z.Z.l.| ~ q 2 . . X X   .   . . X . . . . . . . $ > 3 q + = '.#X$X$X$X$X$X$X",
"$X$X$X$X+Xo.3 y s | <.<.%. .' ~ ! ! _ h.7.*.*.=.;.*.X.*.@.~ R i q 2 2 2 2 2 2 2 2 2 2 2 2 2 2 2 2 2 l w p d < 2 '.#X$X$X$X$X$X$X",
"$X$X$X$X+XK X ~ $.R.~.~.~.~.~.c.x.V.7.y 3 X = 0 * X X o % 0 d E / / / / / / E / / / / / / / / Q / / / / / Q y y ].@X$X$X$X$X$X$X",
"$X$X$X$XoXK X A { B.D.D.D.D.D.7.7.7.3.f r ; 4 f r ; ; ; 6 u R [ ) ) ] ] [ ) ) ) ] [ ) ] ) ) ] [ ] ) ) ] ) ( y q ].@X$X$X$X$X$X$X",
"$X$X$X$X+XK X $ = = = = ; e u y y y f 7.8.4.4.8.l.4.7.h.8.4.8.l.8.8.8.x.8.8.8.l.9.6.8.c.9.6.8.c.8.8.l.z.8.4.5 : '.@X$X$X$X$X$X$X",
"$X$X$X$X+XY $ o X $ $ X $ * 9 0 0 9 a 7.x.7.7.l.l.7.8.l.l.7.8.l.8.7.8.8.8.8.8.v.7.7.8.8.8.4.8.7.8.7.l.l.l.7.6 $ '.@X$X$X$X$X$X$X",
"$X$X$X$X+X}.'.x $ _ =.q * % % = % = % 4 6 4 4 6 4 4 4 6 4 4 w f r 4 4 6 4 4 4 4 e f t 6 4 4 6 6 4 6 r f 4.c.6 = '.@X$X$X$X$X$X$X",
"$X$X$X$X$X#XOXH X =.6.u 8 %   X . X X X . . X . o . . . o . # 0 1 X X X . X X . & 8 %   . . . . . X * q 5.c.6 = '.@X$X$X$X$X$X$X",
"$X$X$X$X$X$XoXH $ =.7.9 - F ` ..G 3 < $ o o $ 1 1 1 1 2 1 1 9 T W ` ` X.` ` ` X.R R f f F ` ..X.` ` 7 - *.8.5 : '.@X$X$X$X$X$X$X",
"$X$X$X$X$X$XoXH = =.4.; = 5.9.V.8.u 8 . . . + q q q q q q q i / | z.z.Z.c.9.c.Z.<./ [ =.1.9.V.V.z.8.w o  .8.6 = '.@X$X$X$X$X$X$X",
"$X$X$X$X$X$XoXV $ =.7.4 = 5.9.V.8. .^ A A V N q 8 & & & < 1 e Q $.8.l.V.z.8.l.V.<.( ( ] <.9.9.V.9.8.w o @.l.6 = '.#X$X$X$X$X$X$X",
"$X$X$X$X$X$XoXH X 3.8., = 5.9.V.V.V.V.V.V.V.3.q 8 . . X . . < Q } 8.z.c.9.9.c.V.3.} ] / <.8.9.V.l.8.w $ -.c.6 O '.@X$X$X$X$X$X$X",
"$X$X$X$X$X$XOXH $ :.x.4 = 3.9.V.x.V.c.V.c.c.7.R A 7 6 7 7 6 N / $.8.l.l.4.,.1.8.1.,.] E 5.9.9.V.l.9.w X -.x.7 : '.@X$X$X$X$X$X$X",
"$X$X$X$X$X$XoXH X 3.l.; = 7.V.8.8.8.9.V.V.8.9.V.x.x.x.l.x.x.4.Q #.c.4.$.~ q R | 1.V._ 0 *.9.9.9.c.V.m X -.c.z @ '.@X$X$X$X$X$X$X",
"$X$X$X$X$X$XoXH $ 3.h.4 = 3.9.9.8.8.8.V.c.8.8.V.c.c.V.V.V.c.4.Q $.c.4.[ R y R [ 5.V.{ q =.9.9.9.c.x.w X *.c.l @ '.@X$X$X$X$X$X$X",
"$X$X$X$X$X$XoXH X =.8.; = 5.8.x.c.c.x.V.V.x.c.V.c.9.z.c.c.8.4.[ ,.9.| q R { R y { 9.$.E [ ,.6.V.9.8.7 $  .l.5 : '.@X$X$X$X$X$X$X",
"$X$X$X$X$X$XOXH $ =.4.4 = 5.9.V.V.V.V.x.c.V.V.c.z.8.l.V.c.9.1.} ,.9.} q R | R 0 { 9.$./ ] } 7.9.8.8.w X @.l.4 @ '.@X$X$X$X$X$X$X",
"$X$X$X$X$X$XoXH X ;.8.4 = ,.9.V.c.8.9.V.V.8.8.V.c.8.8.c.c.c.4.( $.8.,.Q R i R ~ ,.9.,.] ] / $.,.8.8.w $ @.c.6 @ '.#X$X$X$X$X$X$X",
"$X$X$X$X$X$XOXH $ :.l.; = 5.9.x.V.8.8.V.c.8.8.V.c.9.z.Z.c.c.7./ } 9.1.$.R q R | ,.9.<.} ( / [ | 1.8.7 X -.c.6 : '.@X$X$X$X$X$X$X",
"$X$X$X$X$X$XoXH $ :.x., = ,.9.V.c.8.8.c.c.9.8.1.,._ { 1.1.9.1./ | 8.6.4.,.{ =.1.6.9.4.4.~ i | 4.8.8.7 X *.c.7 $ '.#X$X$X$X$X$X$X",
"$X$X$X$X$X$XoXH $ 5.l.; = 5.9.c.c.8.8.Z.c.8.6.| ( 8 u } ,.9.1.Q | 9.9.V.9.9.9.V.z.8.c.V._ 0 =.V.9.8.t X -.c.7 : '.@X$X$X$X$X$X$X",
"$X$X$X$X$X$XOXL X =.1.7 1 =.1.7.8.8.l.c.z.9.4.~ R s R ~ { 9.,.R ] 1.4.6.7.1.4.8.4.1.4.8.! 1 ' 8.4.1.r - @.4.6 @ '.@X$X$X$X$X$X$X",
"$X$X$X$X$X$XOXH X _ } d q { | | $.8.l.c.c.z.<.q i | ~ 0 R 9.| 0 f | | | | | | | | | | | w . S | | } s q ~ } 2 : '.@X$X$X$X$X$X$X",
"$X$X$X$X$X$XoXL o S ~ q 0 W _ ~ ] 4.4.l.9.8.,.u f ] R u R 9.| 9 y ~ ~ ~ ~ ~ ~ ~ ~ ~ ~ ~ w + r ~ ~ ~ p 9 S ~ ; : '.@X$X$X$X$X$X$X",
"$X$X$X$X$X$X+XK : = o @ X + o $ ; { | $.| | | | E q f { ,.9.' $ $ + $ $ = X = + = + X $ 1 0 < o o @ o o o @ : j ].@X$X$X$X$X$X$X",
"$X$X$X$X$X$XOXY g O o o o @ o o - ~ { { { { [ | ] q f } ,.6._ $ X = $ = = $ $ $ = = = = 2 y - . o o @ @ o o > c ].@X$X$X$X$X$X$X",
"$X$X$X$X$X$X+XP.e.; o p T R i = X ; - - ; - 7 { | ] ] } } ,.R X 7 u.e.e.t.t.t.t.t.t.t.t.y.y.n o e T T s - o U s.}.@X$X$X$X$X$X$X",
"$X$X$X$X$X$X+XI.b., o T / / Q # . . o o o . < { | | [ | } | S X V m.m.N.m.m.m.m.m.m.m.m.m.m.M o p / / Q 2 o e.M. X@X$X$X$X$X$X$X",
"$X$X$X$X$X$X+XI.b.l # l n n n @ > U U o.o.q.I 7 5 w 7 5 7 5 < . M m.m.m.m.m.m.m.m.m.m.m.m.m.L O 5 n n z > > e.M. X@X$X$X$X$X$X$X",
"$X$X$X$X$X$X+XI.s.l : : : : g : l y.m.n.n.N.e.+         .   . . x n.b.b.b.m.b.b.b.b.b.m.m.b.L : @ g : g @ g e.N. X@X$X$X$X$X$X$X",
"$X$X$X$X$X$X@X].^.K.d.d.a.d.d.a.d.^.^.^.^.^.U.p.p.p.p.p.p.p.p.p.L.^.^.^.^.^.^.^.^.^.^.^.^.^.P.d.d.d.d.d.d.d.U.).XX@X$X$X$X$X$X$X",
"$X$X$X$X$X$X$X@X@X@X@X@X#X#X@X@X@X@X@X@X@X@X@X@X@X@X@X@X@X@X@X@X@X@X@X@X@X@X@X@X@X@X@X@X@X@X@X@X@X@X@X#X@X@X@X@X$X$X$X$X$X$X$X$X",
"$X$X$X$X$X$X$X$X$X$X$X$X$X$X$X$X$X$X$X$X$X$X$X$X$X$X$X$X$X$X$X$X$X$X$X$X$X$X$X$X$X$X$X$X$X$X$X$X$X$X$X$X$X$X$X$X$X$X$X$X$X$X$X$X",
"$X$X$X$X$X$X$X$X$X$X$X$X$X$X$X$X$X$X$X$X$X$X$X$X$X$X$X$X$X$X$X$X$X$X$X$X$X$X$X$X$X$X$X$X$X$X$X$X$X$X$X$X$X$X$X$X$X$X$X$X$X$X$X$X",
"$X$X$X$X$X$X$X$X$X$X$X$X$X$X$X$X$X$X$X$X$X$X$X$X$X$X$X$X$X$X$X$X$X$X$X$X$X$X$X$X$X$X$X$X$X$X$X$X$X$X$X$X$X$X$X$X$X$X$X$X$X$X$X$X"
};
