/* XPM */
static char *result[] = {
/* columns rows colors chars-per-pixel */
"64 64 183 2 ",
"   c #36374D",
".  c #37384F",
"X  c #39394F",
"o  c #3B3B51",
"O  c #413F54",
"+  c #3F4056",
"@  c #414055",
"#  c #4B4657",
"$  c #4A4855",
"%  c #45455D",
"&  c #4C4659",
"*  c #4C4A5D",
"=  c #514B5B",
"-  c #555157",
";  c #565259",
":  c #5B565D",
">  c #5D585E",
",  c #4B4B63",
"<  c #534F64",
"1  c #4F5067",
"2  c #4F526A",
"3  c #535163",
"4  c #595365",
"5  c #5E5A60",
"6  c #53546C",
"7  c #59556B",
"8  c #56586F",
"9  c #5A5A6B",
"0  c #545770",
"q  c #565972",
"w  c #5C5D73",
"e  c #635664",
"r  c #625C61",
"t  c #685D65",
"y  c #645D6A",
"u  c #5E6077",
"i  c #5F6278",
"p  c #676166",
"a  c #6A6266",
"s  c #65636F",
"d  c #6B656A",
"f  c #6F696C",
"g  c #716B6E",
"h  c #7D686D",
"j  c #636275",
"k  c #696673",
"l  c #63657D",
"z  c #6A6A7D",
"x  c #6D6870",
"c  c #736572",
"v  c #796472",
"b  c #7B6B74",
"n  c #796F78",
"m  c #70707F",
"M  c #8A6C72",
"N  c #857473",
"B  c #8C7376",
"V  c #827179",
"C  c #8A747B",
"Z  c #8B787D",
"A  c #957F7B",
"S  c #AA7F7F",
"D  c #676981",
"F  c #6B6E85",
"G  c #706D86",
"H  c #6D7087",
"J  c #747385",
"K  c #79758A",
"L  c #76798D",
"P  c #7C7C8C",
"I  c #77768A",
"U  c #7F7B91",
"Y  c #8C7C83",
"T  c #827C8B",
"R  c #817D94",
"E  c #837E98",
"W  c #A67E81",
"Q  c #9F8780",
"!  c #858592",
"~  c #86849E",
"^  c #8C8C9A",
"/  c #9F8E93",
"(  c #92929E",
")  c #9B949D",
"_  c #AC8283",
"`  c #A38884",
"'  c #AB8C84",
"]  c #A58A87",
"[  c #B68887",
"{  c #BB8C85",
"}  c #B78888",
"|  c #B98988",
" . c #B18485",
".. c #AE9187",
"X. c #AF9288",
"o. c #BA9A8E",
"O. c #B5958C",
"+. c #A08F95",
"@. c #B68B94",
"#. c #A79195",
"$. c #BA9992",
"%. c #8D8BA4",
"&. c #9494A1",
"*. c #9798A6",
"=. c #9899A5",
"-. c #9A97AA",
";. c #9B96B1",
":. c #A09AB4",
">. c #A49EB9",
",. c #A4A4AE",
"<. c #AAA6AE",
"1. c #A7A7B1",
"2. c #ACACB4",
"3. c #A7A0BC",
"4. c #B0B0B7",
"5. c #B4B4BC",
"6. c #B8B8BD",
"7. c #CB948D",
"8. c #C29F92",
"9. c #CD9F95",
"0. c #DD9F94",
"q. c #DF9A9C",
"w. c #D5979A",
"e. c #E29C9B",
"r. c #CAA495",
"t. c #CFA99A",
"y. c #C7A497",
"u. c #D0A697",
"i. c #DFA49B",
"p. c #D5AD9B",
"a. c #DEA99D",
"s. c #D6A79A",
"d. c #D8B09C",
"f. c #E1A197",
"g. c #E4A59A",
"h. c #E9A29D",
"j. c #E1AB9C",
"k. c #EAA89D",
"l. c #F5AD9F",
"z. c #FAB09F",
"x. c #D4AFA3",
"c. c #DEB3A0",
"v. c #F5AFA0",
"b. c #E1B4A1",
"n. c #ECB5A4",
"m. c #E6BAA4",
"M. c #EABCA6",
"N. c #EDBEA8",
"B. c #F3B3A3",
"V. c #F9B1A1",
"C. c #FBBCA7",
"Z. c #FCBDA8",
"A. c #F4C3AA",
"S. c #FBC6AC",
"D. c #FDC9AF",
"F. c #FFCBB0",
"G. c #FFD0B3",
"H. c #B5ACC9",
"J. c #B1A9C4",
"K. c #B7B8C1",
"L. c #BDBDC3",
"P. c #BAB0CD",
"I. c #C4BECF",
"U. c #C4BAD7",
"Y. c #C6BCD8",
"T. c #C8BEDA",
"R. c #C3C3C9",
"E. c #CACACF",
"W. c #C0C0C6",
"Q. c #CECED2",
"!. c #D2D2D5",
"~. c #DBDBDD",
"^. c #D6D6D9",
"/. c #D6CFE0",
"(. c #D8D1E1",
"). c #DFDFE1",
"_. c #D7D0E1",
"`. c #E3E3E4",
"'. c #E7E7E8",
"]. c #EDEDED",
"[. c #F0F0EF",
"{. c #F1F1F1",
"}. c None",
/* pixels */
"}.}.}.}.}.}.}.}.}.}.}.}.}.}.}.}.}.}.}.}.}.}.}.}.}.}.}.}.}.}.}.}.}.}.}.}.}.}.}.}.}.}.}.}.}.}.}.}.}.}.}.}.}.}.}.}.}.}.}.}.}.}.}.}.",
"}.}.}.}.}.}.}.}.}.}.}.}.}.}.}.}.}.}.}.}.}.}.}.}.}.}.}.}.}.}.}.}.}.}.}.}.}.}.}.}.}.}.}.}.}.}.}.}.}.}.}.}.}.}.}.}.}.}.}.}.}.}.}.}.",
"}.}.}.}.}.}.}.}.}.}.}.}.}.}.}.}.}.}.}.}.}.}.}.}.}.}.}.}.}.}.}.}.}.}.}.}.}.}.}.}.}.}.}.}.}.}.}.}.}.}.}.}.}.}.}.}.}.}.}.}.}.}.}.}.",
"}.}.}.}.}.}.}.}.}.}.}.}.}.}.}.}.}.}.}.}.}.}.}.}.}.}.}.}.}.}.}.}.}.}.}.}.}.}.}.}.}.}.}.}.}.}.}.}.}.}.}.}.}.}.}.}.}.}.}.}.}.}.}.}.",
"}.}.}.}.}.}.}.}.}.}.}.}.}.}.}.}.'.'.'.`.`.`.'.'.'.`.`.`.`.`.`.`.`.`.`.`.'.`.`.`.`.`.`.`.`.'.'.}.}.}.}.}.}.}.}.}.}.}.}.}.}.}.}.}.",
"}.}.}.}.}.}.}.}.}.}.}.}.}.}.}.].`.^ I L L L L L F z z z z z z z z z z l z z z z z z z z z z W.[.}.}.}.}.}.}.}.}.}.}.}.}.}.}.}.}.",
"}.}.}.}.}.}.}.}.}.}.}.}.}.[.].{.`.F 6 8 8 6 q q , % % % % % % % % % + , % % % % % % % % % % 5.{.].[.}.}.}.}.}.}.}.}.}.}.}.}.}.}.",
"}.}.}.}.}.}.}.}.}.}.}.}.}.!.L.W.K.z w j 9 u 9 u 7 3 ; 1 < 3 * 3 3 < ; 3 3 3 < * * , * * * * ( L.K.W.'.}.}.}.}.}.}.}.}.}.}.}.}.}.",
"}.}.}.}.}.}.}.}.}.}.}.}.].*.q q u f f g g g g g f g g f g f g g f g g g g g f 5 5 > > > > > * , % w ~.].}.}.}.}.}.}.}.}.}.}.}.}.",
"}.}.}.}.}.}.}.}.}.}.].].].&.0 q q f g g g g g g g g g g g g g g f g g g g g f 5 > > > > > > = % % 9 ~.].].'.}.}.}.}.}.}.}.}.}.}.",
"}.}.}.}.}.}.}.}.].!.^ ~ ^ J k k k g g g g g g g g g g g g g g g g g g g g g f d d d p > > > 4 ; 3 5 J P P 1.}.}.}.}.}.}.}.}.}.}.",
"}.}.}.}.}.}.}.}.[.W.q 0 6 s g g g g g g g g g g g g g g g g g g g g g g g g g g f g d > > > > > > > % % % ! ].}.}.}.}.}.}.}.}.}.",
"}.}.}.}.}.}.}.}.[.R.q 6 8 s g f g g g g g g g g g g g g g g g g g g g g g g g g g g d > > > > > > > % % % ! ].}.}.}.}.}.}.}.}.}.",
"}.}.}.}.}.}.}.}.[.L., % % y g g g g g g g g g g g g g g g g g g g g g g g g g g g g d > > > > > > 4 * % % ! ].}.}.}.}.}.}.}.}.}.",
"}.}.}.}.}.}.].[.[.W., % % 9 g g g g g g g g g g g g g g g g g g g g g g g g g f g g d > > > > > > > * % % ! ].].].].}.}.}.}.}.}.",
"}.}.}.}.}.'.,.&.&.P ; = * 5 p p p g g g g g g g g g g g g g g g g g g g g g f d p p r 5 > > > > > > = * * k &.&.&.!.[.}.}.}.}.}.",
"}.}.}.}.].).w % % $ - - - : > > > f g g g g g g g g g g g g g g g g g g g g f > > > > > > > > > > > ; - - - % % % 5.{.}.}.}.}.}.",
"}.}.}.}.].`.j % $ $ - - - : > > > d f f f f f f f g f f f f f f f f f f f f f r > > > > > > > > > > - - ; * % % % 5.].}.}.}.}.}.",
"}.}.}.}.].`.7 X + @ - - - ; : > > > r r r > r r r > r r r > r r r r r r r > > > > > > > > > > > > > ; - - $ o o o 5.[.}.}.}.}.}.",
"}.}.}.}.].).7 . X @ - - - : > > > > > > > > > > > > > > > > > > > > > > > > > > > > > > > > > > > > - - ; $ o X o 5.[.}.}.}.}.}.",
"}.}.}.}.].).9   X @ - - - : > > > > > > > > > > > > > > > > > > > > > > > > > > > > > > > > > > > > - - - $ X o X 5.].}.}.}.}.}.",
"}.}.}.}.].).7   X @ - - - : > > > > > > > > > > > r > > > > > 5 > > > > > > > > > > > > > > > > > : : - - $ o X o 5.{.}.}.}.}.}.",
"}.}.}.}.].).9   X @ - - - ; > > > r r r > r p r r r r r r r r r r r r r r p r r r r r r r > > > > : - - - $ . o o 5.{.}.}.}.}.}.",
"}.}.}.}.].).9 X X + - - - : > > r Q X.X.o.d.d.d.d.d.d.d.d.d.d.d.d.d.d.d.d.d.d.d.d.d.r.X.X.X.h > > : - - - $ . X X 5.].}.}.}.}.}.",
"}.}.}.}.].).9   X @ - - - : : > p o.r.r.d.F.F.F.F.F.F.G.F.F.F.F.F.F.F.F.G.F.F.G.F.F.N.r.r.y.b > > > ; - - $ X o X 5.{.}.}.}.}.}.",
"}.}.}.}.].).9   X @ - - - : : > a 8.d.p.m.F.F.F.F.F.F.F.D.F.F.F.F.F.D.F.F.F.F.F.F.F.A.p.d.d.N > > > ; - - $ o X X 5.].}.}.}.}.}.",
"}.}.}.}.].).9   X @ - - - : > > a m.D.D.F.F.F.F.F.F.F.F.F.F.F.F.F.F.F.F.F.F.F.D.D.F.F.F.D.D.A : > > ; - - $ X o X 5.].}.}.}.}.}.",
"}.}.}.}.].).9   X @ - - - : > > a m.F.D.F.F.F.F.F.F.F.D.F.F.D.F.F.F.F.F.D.F.F.F.F.F.F.F.F.F.A > > : ; - - $ X X o 5.[.}.}.}.}.}.",
"}.}.}.}.[.).u + @ t { { { ' Q ` ..A.F.F.F.D.F.F.F.D.D.F.F.F.F.F.F.F.F.F.F.F.D.F.F.F.F.F.F.F.y.Q Q ' { { { B % % % 5.].}.}.}.}.}.",
"}.}.}.}.[.).j % % h l.V.z.i.r.y.u.A.F.F.F.F.F.F.F.F.F.F.F.F.F.D.F.F.D.F.F.F.F.F.F.F.F.F.F.D.d.r.r.u.l.z.V.} % % , 5.{.}.}.}.}.}.",
"}.}.}.}.].).j % % v B.V.V.j.p.t.p.S.F.F.S.d.m.c.A.F.F.F.F.F.F.F.F.D.F.F.F.D.D.m.c.c.A.D.D.F.d.p.t.p.l.z.V.} % % % 5.{.}.}.}.}.}.",
"}.}.}.}.].).l % % c S.D.D.D.D.S.S.D.F.F.y.$ $ $ o.F.F.F.D.F.F.F.F.F.F.D.F.F.M.> $ $ N F.F.F.S.D.D.D.D.D.F.$.% % , K.].}.}.}.}.}.",
"}.}.}.}.].).u % o v F.F.F.F.D.D.F.F.F.F.8.. .   @.G.F.F.F.D.D.S.F.F.F.F.F.F.N.* .   b F.F.F.S.F.F.F.F.G.F.$.% % % 5.[.}.}.}.}.}.",
"}.}.}.}.}.'.<.=.-.) / ] ] s.Z.C.Z.F.F.F.y.7 6 6 @.B.n.v.C.Z.Z.C.Z.Z.Z.B.n.B.j.j 2 2 Y F.F.F.S.Z.Z.B...] ] / *.*.=.!.].}.}.}.}.}.",
"}.}.}.}.}.}.].[.{.L.% + O W V.l.B.S.F.F.x.H H F @.q.e.e.v.v.l.l.l.l.l.h.e.e.w.K H H / F.F.F.V.l.l.q.3 % o ~ [.[.[.].}.}.}.}.}.}.",
"}.}.}.}.}.}.}.}.{.L., , ,  .V.V.z.S.F.F.x.I J J @.e.e.e.l.v.l.V.l.l.z.k.e.e.w.T G I #.F.S.F.C.v.l.0.< , % ! ].}.}.}.}.}.}.}.}.}.",
"}.}.}.}.}.}.}.}.[.L., , , W v.v.z.v.V.V.v.i.i.g.k.l.l.l.V.v.v.l.l.l.l.l.k.l.k.g.e.i.h.V.V.V.v.v.V.f.< , O ! ].}.}.}.}.}.}.}.}.}.",
"}.}.}.}.}.}.[.].{.L., , , W V.V.V.z.V.V.V.V.B.V.z.z.l.l.V.V.V.V.l.V.V.V.z.V.V.V.V.V.V.V.V.V.V.V.V.f.4 % , ! [.].[.].}.}.}.}.}.}.",
"}.}.}.}.}.'.K.1.4.^ , , , C } } [ [ } } } } | | | } | | W | | | } } } } | | | | } } 7.W } } @.} | _ 7 , , G 4.4.5.^.].}.}.}.}.}.",
"}.}.}.}.].).7 . o % 0 0 0 , , + % % , % % % , % % % % % , % , O % % % % , % % % % % % , % % % % % , 6 q 0 2 , % , 5.[.}.}.}.}.}.",
"}.}.}.}.].).7 . X % q q q 1 , , , % , , % % % % , , , , , % , , , , , , , , % % % % % , , % , % O , q q q 0 , , % K.[.}.}.}.}.}.",
"}.}.}.}.].`.7 . o % l D D w 2 0 6 o o o % 6 6 6 E :.;.:.:.:.:.:.:.:.:.:.:.>.;.q 6 6 , O o o , 6 0 0 D D D q o , , 5.[.}.}.}.}.}.",
"}.}.].].[.).9   . % F H F i q q 0 o o o , q q 0 ;.U.T.T.U.U.U.U.Y.Y.U.U.U.U.H.D q q , o o o 2 q q q F F H q , o % K.{.[.].}.}.}.",
"}.}.^.R.R.L.n t t y i l i i w w q % o o , w w w %.>.>.>.U.U.U.T.U.U.U.J.>.>.;.D w w 2 O o o 6 q w w i i D z c x c <.R.R.Q.'.}.}.",
"}.[.&., , 7 d.D.D.8.o o o 0 F D D , , O , F F F 0 , , 7 U._././././._.R , , , D G G q % % % D D H D , , % C S.S.A.V % , j ~.].}.",
"}.].^ % % 3 b.F.F.y.o o o q H F D , % , 2 F F F 8 % % 6 I._._./.(.(.(.K O O , D F F D % % , w G H D , % % Z F.F.F.V % % w ).].}.",
"}.].^ % % 3 b.F.F.n.W W W v 1 1 1 2 2 2 6 0 0 0 , % % , K R R R R R R q , % , 6 0 0 6 2 2 2 , 1 1 7 W W _ 9.F.F.F.V % % w ~.].}.",
"}.[.^ % % 3 b.G.F.S.V.V.V.M   . o 6 q q 2 % % % % , % % % % % O O % O , , % % % % % , q q q % X X = h.V.V.C.F.F.F.V % % w ).].}.",
"}.].-.9 w j u.m.m.b.0.0.0.M     o 0 q q 0 , , , , , , , % , O , 7 0 7 2 , , , , , , 2 q u q % X X & 7.e.0.g.m.m.m.Y q w J ).].}.",
"}.}.'.~.~.!.m 4 4 < & & & O . . + i H F F F D D D D D D , % , D H.H.H.~ D D D D D D F D F F , X o o & & & = 4 4 7 4.).~.~.].}.}.",
"}.}.].].].`.w % % O       o . X + l H H F H H H H H H D , , % F Y.Y.Y.%.H H H H H H H H F F , X X X       o % % % 5.[.].].}.}.}.",
"}.}.}.}.}.'.,.&.( ( ^ ^ ^ y X X + q D i i i D i q 8 0 2 % O O 8 E E E l 6 6 6 i i D i D i i * X X % T ^ ^ ^ ( ( &.Q.].}.}.}.}.}.",
"}.}.}.}.}.}.].].].].[.[.].! . X + 2 q q 0 u 0 0 % o . o o . . .     . o o . o 0 q q q 0 0 q % X X 3 ~.].].].].[.].].}.}.}.}.}.}.",
"}.}.}.}.}.}.}.}.}.}.}.}.].! X X o 2 0 0 0 0 0 0 % o o o o o o o o o o o o o + 0 0 0 0 0 8 8 % . X 3 ~.].}.}.}.}.}.}.}.}.}.}.}.}.",
"}.}.}.}.}.}.}.}.}.}.}.}.].! . X X + + + + + + + , 0 6 2 , % % % O , O 1 0 2 2 % + + + + + + + X o 1 ~.].}.}.}.}.}.}.}.}.}.}.}.}.",
"}.}.}.}.}.}.}.}.}.}.}.}.].! X X + X X X X X X X , q q q % % + % % o , 2 q q 0 o o . . . X . X X X 3 ^.].}.}.}.}.}.}.}.}.}.}.}.}.",
"}.}.}.}.}.}.}.}.}.}.}.}.[.! . X X * , * , , , , , 1 1 6 J P P P L U P j 2 , 2 , , , * , , * + X o , ~.].}.}.}.}.}.}.}.}.}.}.}.}.",
"}.}.}.}.}.}.}.}.}.}.}.}.].! X X + l H H F F F F 1 X X * !.].].].'.].'.P   o O l F F F F F F 1 X X 3 ^.].}.}.}.}.}.}.}.}.}.}.}.}.",
"}.}.}.}.}.}.}.}.}.}.}.}.[.! X o + l F F F F F F 1 o X < !.].'.].].].'.P o o % l H F F F F F , o o 3 ~.].}.}.}.}.}.}.}.}.}.}.}.}.",
"}.}.}.}.}.}.}.}.}.}.}.}.}.E.5.6.4.9 % * % , * % ^ 6.6.6.`.].].].].].].E.5.5.<.8 % , * * , % ( 6.5.L.'.}.}.}.}.}.}.}.}.}.}.}.}.}.",
"}.}.}.}.}.}.}.}.}.}.}.}.}.[.[.[.).3     . .     1.[.[.[.].].].].].].].].[.[.~.,             5.{.[.[.}.}.}.}.}.}.}.}.}.}.}.}.}.}.",
"}.}.}.}.}.}.}.}.}.}.}.}.}.}.}.].).J w s w 9 s w 5.[.].].].].'.].].].'.].].].~.m s 9 9 u 9 j 6.[.}.}.}.}.}.}.}.}.}.}.}.}.}.}.}.}.",
"}.}.}.}.}.}.}.}.}.}.}.}.}.}.}.}.].`.`.`.`.`.`.`.'.'.'.].].'.'.].'.].].].].].].`.`.`.`.`.'.`.'.}.}.}.}.}.}.}.}.}.}.}.}.}.}.}.}.}.",
"}.}.}.}.}.}.}.}.}.}.}.}.}.}.}.}.}.].].].].].].].].].].].].].].].].].].'.].].].].].].].].].].}.}.}.}.}.}.}.}.}.}.}.}.}.}.}.}.}.}."
};
