/* XPM */
static char *result[] = {
/* columns rows colors chars-per-pixel */
"64 64 171 2 ",
"   c #050300",
".  c #150D04",
"X  c #180F06",
"o  c #1A1106",
"O  c #1D1409",
"+  c #191410",
"@  c #221706",
"#  c #261A07",
"$  c #20170A",
"%  c #241A0B",
"&  c #2A1E0C",
"*  c #251D12",
"=  c #281F14",
"-  c #2D210D",
";  c #372A0F",
":  c #382A0F",
">  c #2B2112",
",  c #322511",
"<  c #352913",
"1  c #3B2D13",
"2  c #342A19",
"3  c #3A2E19",
"4  c #3F3013",
"5  c #3E3119",
"6  c #3C3323",
"7  c #423315",
"8  c #45361A",
"9  c #4E3E1D",
"0  c #503F1E",
"q  c #433721",
"w  c #473A24",
"e  c #4A3C24",
"r  c #453E31",
"t  c #51401E",
"y  c #4E432B",
"u  c #544423",
"i  c #584723",
"p  c #5C4C26",
"a  c #54462C",
"s  c #574929",
"d  c #5A4A2C",
"f  c #4B4133",
"g  c #5F4F31",
"h  c #564D3C",
"j  c #5D5136",
"k  c #5D533C",
"l  c #604F2D",
"z  c #64532D",
"x  c #69582F",
"c  c #615436",
"v  c #685730",
"b  c #6D5C35",
"n  c #63573B",
"m  c #63583C",
"M  c #6C5E3D",
"N  c #705F38",
"B  c #6F603C",
"V  c #74633A",
"C  c #7B6B3E",
"Z  c #4F4B44",
"A  c #5B5443",
"S  c #5F5B55",
"D  c #665D44",
"F  c #655D4C",
"G  c #685D44",
"H  c #6D6244",
"J  c #66604C",
"K  c #736444",
"L  c #7D6C44",
"P  c #76694A",
"I  c #7B6D4A",
"U  c #6A6253",
"Y  c #726B57",
"T  c #7E7153",
"R  c #79725B",
"E  c #7D7760",
"W  c #7D7863",
"Q  c #84754D",
"!  c #88774E",
"~  c #88784E",
"^  c #8B7C53",
"/  c #8C7F5C",
"(  c #86795A",
")  c #8D7E60",
"_  c #817B64",
"`  c #8E8056",
"'  c #8C805E",
"]  c #918157",
"[  c #92835A",
"{  c #97895D",
"}  c #8B846B",
"|  c #8E8264",
" . c #958966",
".. c #9B8D64",
"X. c #968C6B",
"o. c #9A8D6C",
"O. c #938560",
"+. c #9E9167",
"@. c #9F916B",
"#. c #958E73",
"$. c #97937C",
"%. c #9F9373",
"&. c #A1926A",
"*. c #A89869",
"=. c #A29262",
"-. c #A49670",
";. c #A69C7B",
":. c #AA9E7C",
">. c #A99C75",
",. c #AEA477",
"<. c #ADA37A",
"1. c #B1A67E",
"2. c #A69F8A",
"3. c #A49E86",
"4. c #A7A183",
"5. c #A8A183",
"6. c #B3A682",
"7. c #B5AB85",
"8. c #B5AB89",
"9. c #B9AD89",
"0. c #BDB28D",
"q. c #AFAA90",
"w. c #B9AF90",
"e. c #BDB493",
"r. c #B7B398",
"t. c #BCB79D",
"y. c #BFBB9F",
"u. c #B6B296",
"i. c #C0B88F",
"p. c #C2B997",
"a. c #C0B998",
"s. c #C9C29D",
"d. c #C7C2A7",
"f. c #CDC3A2",
"g. c #CFC9A5",
"h. c #C8C1AB",
"j. c #CFC9AD",
"k. c #D1CAA6",
"l. c #D3CDAA",
"z. c #D5D0AC",
"x. c #CDC7B0",
"c. c #D5CEB2",
"v. c #D7D2B1",
"b. c #DAD5B3",
"n. c #DDD8B6",
"m. c #DAD3BD",
"M. c #DEDABA",
"N. c #E1DDBD",
"B. c #CDCBC8",
"V. c #DFDBC2",
"C. c #E5DEC2",
"Z. c #E4E0C1",
"A. c #E9E5C6",
"S. c #EBE7CA",
"D. c #EDE9CB",
"F. c #F0EBCE",
"G. c #EFEADA",
"H. c #F3EED1",
"J. c #F6F1D4",
"K. c #F9F3D7",
"L. c #F7F3DA",
"P. c #FBF5DA",
"I. c #FFF9DE",
"U. c #EFEDE7",
"Y. c #F7F3E1",
"T. c #FFFAE3",
"R. c #FFFBEC",
"E. c #F2F0EA",
"W. c #FFFDF4",
"Q. c #FFFFFE",
"!. c None",
/* pixels */
"!.!.!.!.!.!.!.!.!.!.!.!.!.!.!.!.!.!.!.!.!.!.!.!.!.!.!.!.!.!.!.!.!.!.!.!.!.!.!.!.!.!.!.!.!.!.!.!.!.!.!.!.!.!.!.!.!.!.!.!.!.!.!.!.",
"!.!.!.!.!.!.!.!.!.!.!.!.!.!.!.!.!.!.!.!.!.!.!.!.!.!.!.!.!.!.!.!.!.!.!.!.!.!.!.!.!.!.!.!.!.!.!.!.!.!.!.!.!.!.!.!.!.!.!.!.!.!.!.!.",
"!.!.!.!.!.!.!.!.!.!.!.!.!.!.!.!.!.!.!.!.!.!.!.!.!.!.!.!.!.!.!.!.!.!.!.!.!.!.!.!.!.!.!.!.!.!.!.!.!.!.!.!.!.!.!.!.!.!.!.!.!.!.!.!.",
"!.!.!.!.!.!.!.!.!.!.!.!.!.!.!.!.!.!.!.!.!.!.!.!.!.!.!.!.!.!.!.!.!.!.!.!.!.!.!.!.!.!.!.!.!.!.!.!.!.!.!.!.!.!.!.!.!.!.!.!.!.!.!.!.",
"!.!.!.!.!.!.!.!.!.!.!.!.!.!.!.!.!.!.!.!.!.!.!.!.!.!.!.!.!.!.!.!.!.!.!.!.!.!.!.!.!.!.!.!.!.!.!.!.!.!.!.!.!.!.!.!.!.!.!.!.!.!.!.!.",
"!.!.!.!.!.!.!.!.!.!.!.!.!.!.!.!.!.!.!.!.!.!.!.!.!.!.!.!.!.!.!.!.!.!.!.!.!.!.!.!.!.!.!.!.!.!.!.!.!.!.!.!.!.!.!.!.!.!.!.!.!.!.!.!.",
"!.!.!.!.!.!.!.!.!.!.!.!.!.!.!.!.!.!.!.!.!.!.!.!.!.!.!.!.!.!.!.!.!.!.!.!.!.!.!.!.!.!.!.!.!.!.!.!.!.!.!.!.!.!.!.!.!.!.!.!.!.!.!.!.",
"!.!.!.!.!.!.!.!.!.!.!.!.!.!.!.!.!.!.!.!.!.!.!.!.!.!.!.!.!.!.!.!.!.!.!.!.!.!.!.!.!.!.!.!.!.!.!.!.!.!.!.!.!.!.!.!.!.!.!.!.!.!.!.!.",
"!.!.!.!.!.!.!.!.!.!.!.!.!.!.!.!.!.!.!.!.!.!.!.!.!.!.!.!.!.!.!.!.!.!.!.!.!.!.!.!.!.!.!.!.!.!.!.!.!.!.!.!.!.!.!.!.!.!.!.!.!.!.!.!.",
"!.!.!.!.!.!.!.!.!.!.!.!.!.!.!.!.!.!.!.!.!.!.!.!.!.!.!.!.!.!.!.!.!.!.!.!.!.!.!.!.!.!.!.!.!.!.!.!.!.!.!.!.!.!.!.!.!.!.!.!.!.!.!.!.",
"!.!.!.!.!.!.!.!.!.!.!.!.!.!.!.!.!.!.!.!.!.!.!.!.!.!.!.!.!.!.!.!.!.!.!.!.!.!.!.!.!.!.!.!.!.!.!.!.!.!.!.!.!.!.!.!.!.!.!.!.!.!.!.!.",
"!.!.!.!.!.!.!.!.!.!.!.!.!.!.!.!.!.!.!.!.!.!.!.!.!.!.!.!.!.!.!.!.!.!.!.!.!.!.!.!.!.!.!.!.!.!.!.!.!.!.!.!.!.!.!.!.!.!.!.!.!.!.!.!.",
"!.!.!.!.!.!.!.!.!.!.!.!.!.!.!.!.!.!.!.!.!.!.!.!.!.!.!.!.!.!.!.!.!.!.!.!.!.!.!.!.!.!.!.!.!.!.!.!.!.!.!.!.!.!.!.!.!.!.!.!.!.!.!.!.",
"!.!.!.!.!.!.!.!.!.!.!.!.!.!.!.!.!.!.!.!.!.!.!.!.!.!.!.!.!.!.!.!.!.!.!.!.!.!.!.!.!.!.!.!.!.!.!.!.!.!.!.!.!.!.!.!.!.!.!.!.!.!.!.!.",
"!.!.!.!.!.!.!.!.!.!.!.!.!.!.!.!.!.!.!.!.!.!.!.!.!.!.!.X o X X X X X X X X !.!.!.!.!.!.!.!.!.!.!.!.!.!.!.!.!.!.!.!.!.!.!.!.!.!.!.",
"!.!.!.!.!.!.!.!.!.!.!.!.!.!.!.!.!.!.!.!.!.!.!.!.!.!.f A A F U U U U U U U A !.!.!.!.!.!.!.!.!.!.!.!.!.!.!.!.!.!.!.!.!.!.!.!.!.!.",
"!.!.!.!.!.!.!.!.!.!.!.!.!.!.!.!.!.!.!.!.!.!.!.!.2 6 ;.v.A.F.I.I.T.T.T.T.L.d.f f !.!.!.!.!.!.!.!.!.!.!.!.!.!.!.!.!.!.!.!.!.!.!.!.",
"!.!.!.!.!.!.!.!.!.!.!.!.!.!.!.!.!.!.!.!.!.!.!.3 O.8.b.Z.H.I.I.T.Q.Q.Q.Q.W.T.I.I.Z !.!.!.!.!.!.!.!.!.!.!.!.!.!.!.!.!.!.!.!.!.!.!.",
"!.!.!.!.!.!.!.!.!.!.!.!.!.!.!.!.!.!.!.!.!.!.q O.0.n.M.H.I.I.T.Q.Q.Q.Q.Q.Q.W.I.I.N.D !.!.!.!.!.!.!.!.!.!.!.!.!.!.!.!.!.!.!.!.!.!.",
"!.!.!.!.!.!.!.!.!.!.!.!.!.!.!.!.!.!.!.!.o y / 6.0.M.Z.J.I.I.T.Q.Q.Q.Q.Q.Q.Q.W.T.K.j.Y o !.!.!.!.!.!.!.!.!.!.!.!.!.!.!.!.!.!.!.!.",
"!.!.!.!.!.!.!.!.!.!.!.!.!.!.!.!.!.!.!.X a I &.i.v.Z.Z.A.J.I.I.R.Q.Q.Q.Q.Q.Q.T.I.P.D.y.R o !.!.!.!.!.!.!.!.!.!.!.!.!.!.!.!.!.!.!.",
"!.!.!.!.!.!.!.!.!.!.!.!.!.!.!.!.!.!.!.e P ..:.0.g.M.Z.Z.F.I.I.T.R.W.Q.Q.Q.R.I.I.T.D.M.#.X !.!.!.!.!.!.!.!.!.!.!.!.!.!.!.!.!.!.!.",
"!.!.!.!.!.!.!.!.!.!.!.!.!.!.!.!.!.!.X K ^ *.9.9.0.M.Z.Z.D.K.I.I.I.I.R.W.R.I.I.I.K.Z.z.4.A !.!.!.!.!.!.!.!.!.!.!.!.!.!.!.!.!.!.!.",
"!.!.!.!.!.!.!.!.!.!.!.!.!.!.!.!.!.!.> I [ &.6.9.0.l.M.Z.Z.S.K.K.I.I.I.I.I.I.K.K.Z.l.l.M.t.o !.!.!.!.!.!.!.!.!.!.!.!.!.!.!.!.!.!.",
"!.!.!.!.!.!.!.!.!.!.!.!.!.!.!.!.!.O b ^ ] [ &.9.9.&.k.M.N.C.N.A.P.I.I.K.I.J.Z.Z.z.l.A.I.x.X !.!.!.!.!.!.!.!.!.!.!.!.!.!.!.!.!.!.",
"!.!.!.!.!.!.!.!.!.!.!.!.!.!.!.!.!.O b V ! ] +.9.9.9.>.o.e.M.b.P.I.I.D.b.g.z.Z.Z.J.P.R.Q.B.X !.!.!.!.!.!.!.!.!.!.!.!.!.!.!.!.!.!.",
"!.!.!.!.!.!.!.!.!.!.!.!.!.!.!.!.!.O b V ! ] { &.9.9.7.@. .w.J.T.I.W.W.Y.D.n.z.J.D.A.S.S.V.q.* !.!.!.!.!.!.!.!.!.!.!.!.!.!.!.!.!.",
"!.!.!.!.!.!.!.!.!.!.!.!.!.!.!.!.!.O p b ! ] [ [ &.&.&./ I :.P.D.D.v.j.C.P.D.n.S.g.W A A Y e.* !.!.!.!.!.!.!.!.!.!.!.!.!.!.!.!.!.",
"!.!.!.!.!.!.!.!.!.!.!.!.!.!.!.!.!.O 9 b L ~ ] [ ^ [ ! Q b ..C.8.W H m Y 4.n.Z.g.R 2 . X > A % !.!.!.!.!.!.!.!.!.!.!.!.!.!.!.!.!.",
"!.!.!.!.!.!.!.!.!.!.!.!.!.!.!.!.!.o 9 z b L ^ ] [ ~ C N K  .6.g o . . o 6 X.N.k.6 X @ & %   !.!.!.!.!.!.!.!.!.!.!.!.!.!.!.!.!.!.",
"!.!.!.!.!.!.!.!.!.!.!.!.!.!.!.!.!.O 8 t x V L ~ ! C N l / >.c . o % & > - y S.I.r O > 3 2   !.!.!.!.!.!.!.!.!.!.!.!.!.!.!.!.!.!.",
"!.!.!.!.!.!.!.!.!.!.!.!.!.!.!.!.!.!.X 8 x V b b l N l 0 X.$.. o # > 5 e w k I.Q.Z = < q w + !.!.!.!.!.!.!.!.!.!.!.!.!.!.!.!.!.!.",
"!.!.!.!.!.!.!.!.!.!.!.!.!.!.!.!.!.!.o 8 t z x z p l e 5 } $.. o > 5 e 7 D M.T.T.E.S . . y V.= !.!.!.!.!.!.!.!.!.!.!.!.!.!.!.!.!.",
"!.!.!.!.!.!.!.!.!.!.!.!.!.!.!.!.!.!.o 1 t i i t p 9 7 I p.e.k . . # & m 8.A.K.f.J > J y.V.U.> !.!.!.!.!.!.!.!.!.!.!.!.!.!.!.!.!.",
"!.!.!.!.!.!.!.!.!.!.!.!.!.!.!.!.!.!.o : 8 9 9 t 9 z V 6.n.b.6.m m T #.e.b.b.6.h 3 # } P.W.G.= !.!.!.!.!.!.!.!.!.!.!.!.!.!.!.!.!.",
"!.!.!.!.!.!.!.!.!.!.!.!.!.!.!.!.!.!.!.# ; 7 7 7 1 9 Q 8.n.F.C.h.d.m.A.S.l.;.y $ % O } L.R.D.= !.!.!.!.!.!.!.!.!.!.!.!.!.!.!.!.!.",
"!.!.!.!.!.!.!.!.!.!.!.!.!.!.!.!.!.!.!.X & : 7 : & ; z I :.v.F.W.W.W.T.J.k.^ 2 O 3 % W D.D.2.> !.!.!.!.!.!.!.!.!.!.!.!.!.!.!.!.!.",
"!.!.!.!.!.!.!.!.!.!.!.!.!.!.!.!.!.!.!.o & ; 7 : & 8 1 1 a T 6.c.m.N.C.F.N.6.L > T g } S.h.+ !.!.!.!.!.!.!.!.!.!.!.!.!.!.!.!.!.!.",
"!.!.!.!.!.!.!.!.!.!.!.!.!.!.!.!.!.!.!.!.o % : : - u x C s - , 1 d K ) u.M.b.8.L <.0.f.M.u.X !.!.!.!.!.!.!.!.!.!.!.!.!.!.!.!.!.!.",
"!.!.!.!.!.!.!.!.!.!.!.!.!.!.!.!.!.!.!.!.!.O # : 7 , u ' H < t t 1 K e.8.;.Z.n.0.v.N.e.6.4.X !.!.!.!.!.!.!.!.!.!.!.!.!.!.!.!.!.!.",
"!.!.!.!.!.!.!.!.!.!.!.!.!.!.!.!.!.!.!.!.!.!.!.O $ & u ^ B 8 v V a w  . .+.b.0.b.7.g.8.H 6 !.!.!.!.!.!.!.!.!.!.!.!.!.!.!.!.!.!.!.",
"!.!.!.!.!.!.!.!.!.!.!.!.!.!.!.!.!.!.!.!.!.!.!.!.!.O t L / K p ! a Q K d P 7.` i.[ <.' c H X !.!.!.!.!.!.!.!.!.!.!.!.!.!.!.!.!.!.",
"!.!.!.!.!.!.!.!.!.!.!.!.!.!.!.!.!.!.!.!.!.!.!.!.!.o e b ^ { P P  .p.( G P H s K g M P  .;.o !.!.!.!.!.!.!.!.!.!.!.!.!.!.!.!.!.!.",
"!.!.!.!.!.!.!.!.!.!.!.!.!.!.!.!.!.!.!.!.!.!.!.!.!.X 7 s V [ +.I ;.p.8.9.%.d n u H c ' g.r.X !.!.!.!.!.!.!.!.!.!.!.!.!.!.!.!.!.!.",
"!.!.!.!.!.!.!.!.!.!.!.!.!.!.!.!.!.!.!.!.!.!.!.!.!.!.X 1 u M ` &.N o.p.b.p.-.i.{ l.8.e.A.t.X !.!.!.!.!.!.!.!.!.!.!.!.!.!.!.!.!.!.",
"!.!.!.!.!.!.!.!.!.!.!.!.!.!.!.!.!.!.!.!.!.!.!.!.!.!.!.X o , p M v Q +.,.i.N.N.N.N.V.Z.D.x.o !.!.!.!.!.!.!.!.!.!.!.!.!.!.!.!.!.!.",
"!.!.!.!.!.!.!.!.!.!.!.!.!.!.!.!.!.!.!.!.!.!.!.!.!.!.!.!.!.!.O O $ d V C ] 1.9.1.s.n.D.I.x.X !.!.!.!.!.!.!.!.!.!.!.!.!.!.!.!.!.!.",
"!.!.!.!.!.!.!.!.!.!.!.!.!.!.!.!.!.!.!.!.!.!.!.!.!.!.!.!.!.!.!.!.!.& & = e Q { =.*.G f f r !.!.!.!.!.!.!.!.!.!.!.!.!.!.!.!.!.!.!.",
"!.!.!.!.!.!.!.!.!.!.!.!.!.!.!.!.!.!.!.!.!.!.!.!.!.!.!.!.!.!.!.!.!.!.!.!.> 3 q w e 2 !.!.!.!.!.!.!.!.!.!.!.!.!.!.!.!.!.!.!.!.!.!.",
"!.!.!.!.!.!.!.!.!.!.!.!.!.!.!.!.!.!.!.!.!.!.!.!.!.!.!.!.!.!.!.!.!.!.!.!.!.X X X X !.!.!.!.!.!.!.!.!.!.!.!.!.!.!.!.!.!.!.!.!.!.!.",
"!.!.!.!.!.!.!.!.!.!.!.!.!.!.!.!.!.!.!.!.!.!.!.!.!.!.!.!.!.!.!.!.!.!.!.!.!.!.!.!.!.!.!.!.!.!.!.!.!.!.!.!.!.!.!.!.!.!.!.!.!.!.!.!.",
"!.!.!.!.!.!.!.!.!.!.!.!.!.!.!.!.!.!.!.!.!.!.!.!.!.!.!.!.!.!.!.!.!.!.!.!.!.!.!.!.!.!.!.!.!.!.!.!.!.!.!.!.!.!.!.!.!.!.!.!.!.!.!.!.",
"!.!.!.!.!.!.!.!.!.!.!.!.!.!.!.!.!.!.!.!.!.!.!.!.!.!.!.!.!.!.!.!.!.!.!.!.!.!.!.!.!.!.!.!.!.!.!.!.!.!.!.!.!.!.!.!.!.!.!.!.!.!.!.!.",
"!.!.!.!.!.!.!.!.!.!.!.!.!.!.!.!.!.!.!.!.!.!.!.!.!.!.!.!.!.!.!.!.!.!.!.!.!.!.!.!.!.!.!.!.!.!.!.!.!.!.!.!.!.!.!.!.!.!.!.!.!.!.!.!.",
"!.!.!.!.!.!.!.!.!.!.!.!.!.!.!.!.!.!.!.!.!.!.!.!.!.!.!.!.!.!.!.!.!.!.!.!.!.!.!.!.!.!.!.!.!.!.!.!.!.!.!.!.!.!.!.!.!.!.!.!.!.!.!.!.",
"!.!.!.!.!.!.!.!.!.!.!.!.!.!.!.!.!.!.!.!.!.!.!.!.!.!.!.!.!.!.!.!.!.!.!.!.!.!.!.!.!.!.!.!.!.!.!.!.!.!.!.!.!.!.!.!.!.!.!.!.!.!.!.!.",
"!.!.!.!.!.!.!.!.!.!.!.!.!.!.!.!.!.!.!.!.!.!.!.!.!.!.!.!.!.!.!.!.!.!.!.!.!.!.!.!.!.!.!.!.!.!.!.!.!.!.!.!.!.!.!.!.!.!.!.!.!.!.!.!.",
"!.!.!.!.!.!.!.!.!.!.!.!.!.!.!.!.!.!.!.!.!.!.!.!.!.!.!.!.!.!.!.!.!.!.!.!.!.!.!.!.!.!.!.!.!.!.!.!.!.!.!.!.!.!.!.!.!.!.!.!.!.!.!.!.",
"!.!.!.!.!.!.!.!.!.!.!.!.!.!.!.!.!.!.!.!.!.!.!.!.!.!.!.!.!.!.!.!.!.!.!.!.!.!.!.!.!.!.!.!.!.!.!.!.!.!.!.!.!.!.!.!.!.!.!.!.!.!.!.!.",
"!.!.!.!.!.!.!.!.!.!.!.!.!.!.!.!.!.!.!.!.!.!.!.!.!.!.!.!.!.!.!.!.!.!.!.!.!.!.!.!.!.!.!.!.!.!.!.!.!.!.!.!.!.!.!.!.!.!.!.!.!.!.!.!.",
"!.!.!.!.!.!.!.!.!.!.!.!.!.!.!.!.!.!.!.!.!.!.!.!.!.!.!.!.!.!.!.!.!.!.!.!.!.!.!.!.!.!.!.!.!.!.!.!.!.!.!.!.!.!.!.!.!.!.!.!.!.!.!.!.",
"!.!.!.!.!.!.!.!.!.!.!.!.!.!.!.!.!.!.!.!.!.!.!.!.!.!.!.!.!.!.!.!.!.!.!.!.!.!.!.!.!.!.!.!.!.!.!.!.!.!.!.!.!.!.!.!.!.!.!.!.!.!.!.!.",
"!.!.!.!.!.!.!.!.!.!.!.!.!.!.!.!.!.!.!.!.!.!.!.!.!.!.!.!.!.!.!.!.!.!.!.!.!.!.!.!.!.!.!.!.!.!.!.!.!.!.!.!.!.!.!.!.!.!.!.!.!.!.!.!.",
"!.!.!.!.!.!.!.!.!.!.!.!.!.!.!.!.!.!.!.!.!.!.!.!.!.!.!.!.!.!.!.!.!.!.!.!.!.!.!.!.!.!.!.!.!.!.!.!.!.!.!.!.!.!.!.!.!.!.!.!.!.!.!.!."
};
