/* XPM */
static char *result[] = {
/* columns rows colors chars-per-pixel */
"64 64 72 1 ",
"  c #CEBAB9",
". c #B69291",
"X c #B79392",
"o c #A88D8D",
"O c #988587",
"+ c #AC9393",
"@ c #BFA09F",
"# c #BF9F9F",
"$ c #998687",
"% c #8D4D4B",
"& c #8D4E4C",
"* c #8E4E4C",
"= c #734242",
"- c #573638",
"; c #7A4D4E",
": c #9C6564",
"> c #9B6463",
", c #583638",
"< c #8E4F4D",
"1 c #8F4F4D",
"2 c #744444",
"3 c #583739",
"4 c #7B4F4F",
"5 c #9D6665",
"6 c #7B4E4F",
"7 c #593739",
"8 c #7C4F4F",
"9 c #9E6665",
"0 c #6B4345",
"q c #6A4344",
"w c #59383A",
"e c #744343",
"r c #5A383A",
"t c #935350",
"y c #985853",
"u c #7D4B49",
"i c #623D3E",
"p c #704544",
"a c #7D4C4A",
"s c #975853",
"d c #633D3E",
"f c #A2615A",
"g c #87524E",
"h c #6B4241",
"j c #A16159",
"k c #A1615A",
"l c #86524E",
"z c #6B4342",
"x c #794A48",
"c c #A16059",
"v c #A06059",
"b c #86514D",
"n c #613C3D",
"m c #6A4241",
"M c #835755",
"N c #8C605B",
"B c #7C514E",
"V c #8C605A",
"C c #9D6564",
"Z c #A4716C",
"A c #AD7E74",
"S c #AD7E73",
"D c #AC7D73",
"F c #A4716B",
"G c #AB7C72",
"H c #6B4242",
"J c #6C4342",
"K c #8B5F5A",
"L c #7A4E4F",
"P c #835754",
"I c #623D3D",
"U c white",
/* pixels */
" .XXXXXXXXXXXXoO+@###########@+OoXXXXXXXXXXXXXoO+@###########@+$",
".%&&&&&&&&&&&*=-;:>>>>>>>>>>>:;-=*&&&&&&&&&&&*=-;:>>>>>>>>>>>:;,",
"X&<<<<<<<<<<<12345:::::::::::54321<<<<<<<<<<<12345:::::::::::567",
"X&<<<<<<<<<<<12345:::::::::::54321<<<<<<<<<<<12345:::::::::::567",
"X&<<<<<<<<<<<12345:::::::::::54321<<<<<<<<<<<12345:::::::::::567",
"X&<<<<<<<<<<<12345:::::::::::54321<<<<<<<<<<<12345:::::::::::567",
"X&<<<<<<<<<<<12345:::::::::::54321<<<<<<<<<<<12345:::::::::::567",
"X&<<<<<<<<<<<12345:::::::::::54321<<<<<<<<<<<12345:::::::::::567",
"X&<<<<<<<<<<<12345:::::::::::54321<<<<<<<<<<<12345:::::::::::567",
"X&<<<<<<<<<<<12345:::::::::::54321<<<<<<<<<<<12345:::::::::::567",
"X&<<<<<<<<<<<12345:::::::::::54321<<<<<<<<<<<12345:::::::::::567",
"X&<<<<<<<<<<<123895555555555598321<<<<<<<<<<<1238955555555555947",
"X&<<<<<<<<<<<127084444444444480721<<<<<<<<<<<12708444444444448qw",
"X&<<<<<<<<<<<1ew733333333333337we1<<<<<<<<<<<1ew733333333333337r",
"X&<<<<<<<<<<tyuipaaaaaaaaaaaaapiuysssssssssssyuipaaaaaaaaaaaaapd",
"X*1111111111yfghgfjjjjjjjjjjjfghgfkkkkkkkkkkkfghgfjjjjjjjjjjjflz",
"o=222222222eugxhlcvvvvvvvvvvvclhxlllllllllllllxhlcvvvvvvvvvvvcbz",
"O-3333333333nhhzlcvvvvvvvvvvvclzhmmmmmmmmmmmmmhzlcvvvvvvvvvvvcbz",
"+;4444444446MNBhlcvvvvvvvvvvvclhBVVVVVVVVVVVVVBhlcvvvvvvvvvvvcbz",
"@:555555555CZAVmlcvvvvvvvvvvvclmVSDDDDDDDDDDDSVmlcvvvvvvvvvvvcbz",
"#>::::::::::FDVmlcvvvvvvvvvvvclmVDGGGGGGGGGGGDVmlcvvvvvvvvvvvcbz",
"#>::::::::::FDVmlcvvvvvvvvvvvclmVDGGGGGGGGGGGDVmlcvvvvvvvvvvvcbz",
"#>::::::::::FDVmlcvvvvvvvvvvvclmVDGGGGGGGGGGGDVmlcvvvvvvvvvvvcbz",
"#>::::::::::FDVmlcvvvvvvvvvvvclmVDGGGGGGGGGGGDVmlcvvvvvvvvvvvcbz",
"#>::::::::::FDVmlcvvvvvvvvvvvclmVDGGGGGGGGGGGDVmlcvvvvvvvvvvvcbz",
"#>::::::::::FDVmlcvvvvvvvvvvvclmVDGGGGGGGGGGGDVmlcvvvvvvvvvvvcbz",
"#>::::::::::FDVmlcvvvvvvvvvvvclmVDGGGGGGGGGGGDVmlcvvvvvvvvvvvcbz",
"#>::::::::::FDVmlcvvvvvvvvvvvclmVDGGGGGGGGGGGDVmlcvvvvvvvvvvvcbz",
"#>::::::::::FDVmlcvvvvvvvvvvvclmVDGGGGGGGGGGGDVmlcvvvvvvvvvvvcbz",
"@:555555555CZAVmlfcccccccccccflmVSDDDDDDDDDDDSVmlfcccccccccccflH",
"+;4444444446MNBhxlllllllllllllxhBVVVVVVVVVVVVVBhxlllllllllllllxJ",
"O-3333333333nhhJhmmmmmmmmmmmmmhJhmmmmmmmmmmmmmhJhmmmmmmmmmmmmmhJ",
"o=222222222eugxhBVVVVVVVVVVVVVBhxlllllllllllllxhBVVVVVVVVVVVVVBz",
"X*1111111111yflmVSDDDDDDDDDDDSVmlfcccccccccccflmVSDDDDDDDDDDDSVh",
"X&<<<<<<<<<<sklmVDGGGGGGGGGGGDVmlcvvvvvvvvvvvclmVDGGGGGGGGGGGDKh",
"X&<<<<<<<<<<sklmVDGGGGGGGGGGGDVmlcvvvvvvvvvvvclmVDGGGGGGGGGGGDKh",
"X&<<<<<<<<<<sklmVDGGGGGGGGGGGDVmlcvvvvvvvvvvvclmVDGGGGGGGGGGGDKh",
"X&<<<<<<<<<<sklmVDGGGGGGGGGGGDVmlcvvvvvvvvvvvclmVDGGGGGGGGGGGDKh",
"X&<<<<<<<<<<sklmVDGGGGGGGGGGGDVmlcvvvvvvvvvvvclmVDGGGGGGGGGGGDKh",
"X&<<<<<<<<<<sklmVDGGGGGGGGGGGDVmlcvvvvvvvvvvvclmVDGGGGGGGGGGGDKh",
"X&<<<<<<<<<<sklmVDGGGGGGGGGGGDVmlcvvvvvvvvvvvclmVDGGGGGGGGGGGDKh",
"X&<<<<<<<<<<sklmVDGGGGGGGGGGGDVmlcvvvvvvvvvvvclmVDGGGGGGGGGGGDKh",
"X&<<<<<<<<<<sklmVDGGGGGGGGGGGDVmlcvvvvvvvvvvvclmVDGGGGGGGGGGGDKh",
"X&<<<<<<<<<<sklmVSDDDDDDDDDDDSVmlcvvvvvvvvvvvclmVSDDDDDDDDDDDSVh",
"X&<<<<<<<<<<sklhBVVVVVVVVVVVVVBhlcvvvvvvvvvvvclhBVVVVVVVVVVVVVBz",
"X&<<<<<<<<<<sklzhmmmmmmmmmmmmmhzlcvvvvvvvvvvvclzhmmmmmmmmmmmmmhJ",
"X&<<<<<<<<<<sklhxlllllllllllllxhlcvvvvvvvvvvvclhxlllllllllllllxJ",
"X*1111111111yflmlfcccccccccccflmlfcccccccccccflmlfcccccccccccflH",
"o=222222222eugxhlcvvvvvvvvvvvclhxlllllllllllllxhlcvvvvvvvvvvvcbz",
"O-3333333333nhhzlcvvvvvvvvvvvclzhmmmmmmmmmmmmmhzlcvvvvvvvvvvvcbz",
"+;4444444446MNBhlcvvvvvvvvvvvclhBVVVVVVVVVVVVVBhlcvvvvvvvvvvvcbz",
"@:555555555CZAVmlcvvvvvvvvvvvclmVSDDDDDDDDDDDSVmlcvvvvvvvvvvvcbz",
"#>::::::::::FDVmlcvvvvvvvvvvvclmVDGGGGGGGGGGGDVmlcvvvvvvvvvvvcbz",
"#>::::::::::FDVmlcvvvvvvvvvvvclmVDGGGGGGGGGGGDVmlcvvvvvvvvvvvcbz",
"#>::::::::::FDVmlcvvvvvvvvvvvclmVDGGGGGGGGGGGDVmlcvvvvvvvvvvvcbz",
"#>::::::::::FDVmlcvvvvvvvvvvvclmVDGGGGGGGGGGGDVmlcvvvvvvvvvvvcbz",
"#>::::::::::FDVmlcvvvvvvvvvvvclmVDGGGGGGGGGGGDVmlcvvvvvvvvvvvcbz",
"#>::::::::::FDVmlcvvvvvvvvvvvclmVDGGGGGGGGGGGDVmlcvvvvvvvvvvvcbz",
"#>::::::::::FDVmlcvvvvvvvvvvvclmVDGGGGGGGGGGGDVmlcvvvvvvvvvvvcbz",
"#>::::::::::FDVmlcvvvvvvvvvvvclmVDGGGGGGGGGGGDVmlcvvvvvvvvvvvcbz",
"#>::::::::::FDVmlcvvvvvvvvvvvclmVDGGGGGGGGGGGDVmlcvvvvvvvvvvvcbz",
"@:555555555CZAVmlfcccccccccccflmVSDDDDDDDDDDDSVmlfcccccccccccflH",
"+;666666666LPVBhxlbbbbbbbbbbblxhBVKKKKKKKKKKKVBhxlbbbbbbbbbbblxJ",
"$,7777777777IhzJJHzzzzzzzzzzzHJJzhhhhhhhhhhhhhzJJHzzzzzzzzzzzHJJ"
};
