/* XPM */
static char *result[] = {
/* columns rows colors chars-per-pixel */
"38 38 74 1 ",
"  c #61666D",
". c #5D6269",
"X c #5A5F65",
"o c #5A5F66",
"O c #5F646B",
"+ c #62676E",
"@ c #62676D",
"# c #5B6067",
"$ c #60656C",
"% c #5C6168",
"& c #595E65",
"* c #6B7076",
"= c #747A7F",
"- c #757B81",
"; c #767C81",
": c #747A80",
"> c #767C82",
", c #73797F",
"< c #646970",
"1 c #70757B",
"2 c #757B80",
"3 c #757A80",
"4 c #71777D",
"5 c #7E8489",
"6 c #7D8388",
"7 c #7E8488",
"8 c #797F85",
"9 c #656B71",
"0 c #777D83",
"q c #7D8488",
"w c #777C82",
"e c #797F84",
"r c #666B71",
"t c #777D82",
"y c #63686F",
"u c #60646C",
"i c #6F747A",
"p c #787E83",
"a c #5E636A",
"s c #6C7177",
"d c #595E66",
"f c #6B7177",
"g c #6D7278",
"h c #5E646A",
"j c #5F636B",
"k c #7C8287",
"l c #7C8286",
"z c #7C8186",
"x c #656A71",
"c c #73797E",
"v c #6A6F75",
"b c #74797D",
"n c #73787D",
"m c #73797D",
"M c #74797E",
"N c #757A7E",
"B c #72777C",
"V c #70757A",
"C c #6D7277",
"Z c #656A70",
"A c #5F646A",
"S c #585D64",
"D c #666C72",
"F c #767B81",
"G c #72787E",
"H c #70767B",
"J c #6D7379",
"K c #575C63",
"L c #6F757B",
"P c #787E84",
"I c #63686E",
"U c #5E6369",
"Y c #6C7178",
"T c white",
/* pixels */
" .XooooO+++@#$++++ #oooooooX.++++%&.+ ",
" *=====-;;;;:-;;>,<1========2;;;;3=24+",
" 15555566666766658905555555566666q55w+",
" 1666666666666666ert6666666666666666>+",
" 1666666666666666ey>6666666666666666>+",
"ui666666666666666pa26666666666666666>+",
"os566666666666666pa26666666666666666>+",
"df566666666666666pa26666666666666666>+",
"of566666666666666pa26666666666666666>+",
"&f566666666666666pa26666666666666666>+",
"%g566666666666666pa26666666666666666>+",
" 1666666666666666pa26666666666666666>+",
"$1666666666666666ph26666666666666666;+",
"O1666666666666666e<w66666666666666673#",
"j1666666666666666e9t6666666666666665=o",
"O1666666666666666e9t6666666666666665=o",
"O1566666666666666e9t6666666666666665:o",
"Oikllllzzzzlllzzlpx;klllllllllllllzkco",
"avbnnmMNNNNMbMNNNB<VNbnnnnnnnnnnnMNNC&",
"&#....yZZZZ<A+ZZZ< <Z ...........+x+%S",
"SD:===F;;;;;:-;;>GAHw2===========-;FJ&",
"Ks555566666676665pa256555555555556653o",
"Kf566666666666666pa26666666666666665=o",
"Kf566666666666666pa26666666666666665=o",
"&s566666666666666pa266666666666666673#",
"$L666666666666666pa26666666666666666;+",
" 1666666666666666pa26666666666666666>+",
" 1666666666666666pa2q666666666666666>+",
" 1666666666666666P@;6666666666666666>+",
" 1666666666666666ert6666666666666666>+",
" 1666666666666666e9t6666666666666666>+",
" 1666666666666666e9t6666666666666666>+",
" 1666666666666666e9t6666666666666666>+",
" 1666666666666666e9t6666666666666666>+",
" 1666666666666666P ;6666666666666666>I",
"$1566666666666665pU25666666666667555;O",
"OY>;;;;;;;;;;;;;>GAHw;;;;;;;;;;;:==:J&",
"O+++++++++++++++++ +++++++++++++#ooo&S"
};
