/* XPM */
static char *result[] = {
/* columns rows colors chars-per-pixel */
"64 64 59 1 ",
"  c #4C2713",
". c #4F2913",
"X c #512A13",
"o c #562F18",
"O c #553017",
"+ c #563118",
"@ c #5B341B",
"# c #5E391F",
"$ c #5E3C23",
"% c #623D23",
"& c #5F4227",
"* c #644126",
"= c #63442A",
"- c #68472C",
"; c #66492D",
": c #694A2E",
"> c #664630",
", c #674931",
"< c #6A4E31",
"1 c #674F3A",
"2 c #6C5132",
"3 c #6F5538",
"4 c #715536",
"5 c #725837",
"6 c #725738",
"7 c #755A3A",
"8 c #795D3D",
"9 c #7C613F",
"0 c #6C5742",
"q c #6D5A46",
"w c #7B5F40",
"e c #715E49",
"r c #7D6343",
"t c #72604B",
"y c #766551",
"u c #796955",
"i c #7A6A58",
"p c #816645",
"a c #836846",
"s c #846748",
"d c #856B4A",
"f c #886D4C",
"g c #8A714E",
"h c #8D7451",
"j c #8F7855",
"k c #917752",
"l c #927A56",
"z c #947E5A",
"x c #96815D",
"c c #98835F",
"v c #9A8561",
"b c #9D8862",
"n c #93836D",
"m c #958570",
"M c #968874",
"N c #9E8F7B",
"B c #9A8F80",
"V c #999081",
"C c None",
/* pixels */
"CCCCCCCCCCCCCCCCCCCCCCCCCCCCCCCCCCCCCCCCCCCCCCCCCCCCCCCCCCCCCCCC",
"CCCCCCCCCCCCCCCCCCCCCCCCCCCCCCCCCCCCCCCCCCCCCCCCCCCCCCCCCCCCCCCC",
"CCCCCCCCCCCCCCCCCCCCCCCCCCCCCCCCCCCCCCCCCCCCCCCCCCCCCCCCCCCCCCCC",
"CCCCCCCCCCCCCCCCCCCCCCCCCCCCCCCCCCCCCCCCCCCCCCCCCCCCCCCCCCCCCCCC",
"CCCCCCCCCCCCCCCCCCCCCCCCCCCCCCCCCCCCCCCCCCCCCCCCCCCCCCCCCCCCCCCC",
"CCCCCCCCCCCCCCCCCCCCCCCCCCCCCCCCCCCCCCCCCCCCCCCCCCCCCCCCCCCCCCCC",
"CCCCCCCCCCCCCCCCCCCCCCCCCCCCCCCCCCCCCCCCCCCCCCCCCCCCCCCCCCCCCCCC",
"CCCCCCCCCCCCCCCCCCCCCCCCCCCCCCCCCCCCCCCCCCCCCCCCCCCCCCCCCCCCCCCC",
"CCCCCCCCCCCCCCCCCCCCCCCCCCCCCCCCCCCCCCCCCCCCCCCCCCCCCCCCCCCCCCCC",
"CCCCCCCCCCCCCCCC@@$@@$$$**%%-%-%=%%=*%*%%$$@$@@$CCCCCCCCCCCCCCCC",
"CCCCCCCCCCCCCCCC+Nmm$fddffffffffddfdfssfddd=nnN$CCCCCCCCCCCCCCCC",
"CCCCCCCCCCCCCCCC@N,,ghhjkkllllzkzzllzkkkjhgg==N@CCCCCCCCCCCCCCCC",
"CCCCCCCCCCCCCCCC@,saooo@@2447777877664:@o+o@rr<$CCCCCCCCCCCCCCCC",
"CCCCCCCCCCCCCCCC#zpa@wprr@@@@@@@@@o@@o@9rw7@rsl@CCCCCCCCCCCCCCCC",
"CCCCCCCCCCCCCCCC%zdd@fwrwp#w9ppppppw9%s9rrd@dpj#CCCCCCCCCCCCCCCC",
"CCCCCCCCCCCCCCCC%zdfo@ffpsf%pppspppp-fffgf@@ddj$CCCCCCCCCCCCCCCC",
"CCCCCCCCCCCCCCCC%zdg@4@@kfsf%%888p>-gfsl@@7#fal%CCCCCCCCCCCCCCCC",
"CCCCCCCCCCCCCCCC%xdf#599#ksffg-9p-fggfl@788%ffl$CCCCCCCCCCCCCCCC",
"CCCCCCCCCCCCCCCC*zff%5999@zsgkg%%fgggl@8888&ffj*CCCCCCCCCCCCCCCC",
"CCCCCCCCCCCCCCCC%xgg*pdfff#bgggkk-fgv@ffffd*ggz*CCCCCCCCCCCCCCCC",
"CCCCCCCCCCCCCCCC*zgg*pafffs@czkggf<v@ffsssf%hfx%CCCCCCCCCCCCCCCC",
"CCCCCCCCCCCCCCCC*zgf%pffffff#@zkhhk@fffsfsf*hhx*CCCCCCCCCCCCCCCC",
"CCCCCCCCCCCCCCCC*zfk%9affff-gg@bzhff4fssssf%hhv%CCCCCCCCCCCCCCCC",
"CCCCCCCCCCCCCCCC*zkk%4788--kffz@#vhff--pp8p%hhv%CCCCCCCCCCCCCCCC",
"CCCCCCCCCCCCCCCC*zkk#488-fgggc@pp@cffdf-ww8%hhv%CCCCCCCCCCCCCCCC",
"CCCCCCCCCCCCCCCC%zkg@47-ffgfc@pppp@csfdp-88@hhz$CCCCCCCCCCCCCCCC",
"CCCCCCCCCCCCCCCC%zgk@%#ffgcc@pppwr8#kgprr%%@hhv$CCCCCCCCCCCCCCCC",
"CCCCCCCCCCCCCCCC#zkk+8ssfg@@ssssssss@@hrrrr@ghz$CCCCCCCCCCCCCCCC",
"CCCCCCCCCCCCCCCC@zhko8ssg@99sssssfssww@grr8+hhz@CCCCCCCCCCCCCCCC",
"CCCCCCCCCCCCCCCC#*hko@@####%#%%%%%%%%%#%@@+@gh,@CCCCCCCCCCCCCCCC",
"CCCCCCCCCCCCCCCC@M,>ffghkkkkkkkkkkkkkkhgffds>>MXCCCCCCCCCCCCCCCC",
"CCCCCCCCCCCCCCCC+NVV=zzccxccbbbbbbbbzbbzvzl>BBBXCCCCCCCCCCCCCCCC",
"CCCCCCCCCCCCCCCCOyyyX888rprpppapssapappaa9aOuuuXCCCCCCCCCCCCCCCC",
"CCCCCCCCCCCCCCCC+eeX78pppraapppapssppaapaa99XttXCCCCCCCCCCCCCCCC",
"CCCCCCCCCCCCCCCCX1X888pprpprrrprppppaappr9r99X0XCCCCCCCCCCCCCCCC",
"CCCCCCCCCCCCCCCCXXr8XXX.XOO+++o@@oooO+++OXOXr9XXCCCCCCCCCCCCCCCC",
"CCCCCCCCCCCCCCCCX888X22349X==2:<222;-X8:<;:X899.CCCCCCCCCCCCCCCC",
"CCCCCCCCCCCCCCCCX788X.2444rX=222222;X944<;XX988.CCCCCCCCCCCCCCCC",
"CCCCCCCCCCCCCCCC.888.<..374rXX2243..9422..;.798.CCCCCCCCCCCCCCCC",
"CCCCCCCCCCCCCCCC.788.22-.474raX24.rr244X=22.778.CCCCCCCCCCCCCCCC",
"CCCCCCCCCCCCCCCC.778.2<;;.7777uX.d3244.;;<2.855.CCCCCCCCCCCCCCCC",
"CCCCCCCCCCCCCCCC.887.22;;;..599rs$$4..;;=<2.525.CCCCCCCCCCCCCCCC",
"CCCCCCCCCCCCCCCC.577X22,;;;<.7774dd.><;;;<2 445.CCCCCCCCCCCCCCCC",
"CCCCCCCCCCCCCCCC.555X<2;;<. r&&3777y..;;;<2.335.CCCCCCCCCCCCCCCC",
"CCCCCCCCCCCCCCCC.755.22=;.rr545.X474ry.>=22.332.CCCCCCCCCCCCCCCC",
"CCCCCCCCCCCCCCCC.544.><= 92434.2<X7477w.=<<.333.CCCCCCCCCCCCCCCC",
"CCCCCCCCCCCCCCCC.435.><.8223..<<<<X.564w.<<.442.CCCCCCCCCCCCCCCC",
"CCCCCCCCCCCCCCCC.247...3<32.;:<2<,;=X444r. .242.CCCCCCCCCCCCCCCC",
"CCCCCCCCCCCCCCCC.<22X23<<<.&=;<;;<<&&X22;tr.422.CCCCCCCCCCCCCCCC",
"CCCCCCCCCCCCCCCC.2<2.2<<< &;*<;;<;;&&&X<<<<.222.CCCCCCCCCCCCCCCC",
"CCCCCCCCCCCCCCCC .22. .  O....XX......XX..X.22..CCCCCCCCCCCCCCCC",
"CCCCCCCCCCCCCCCC.y.2999rrrrraaurraaurrrrrrr92.i.CCCCCCCCCCCCCCCC",
"CCCCCCCCCCCCCCCC.qi.<<<<2<<<<<<<2<<22<<<2<<<.iq.CCCCCCCCCCCCCCCC",
"CCCCCCCCCCCCCCCC.eqyX<<2<<<2<<<22<2<22<222<.iqq.CCCCCCCCCCCCCCCC",
"CCCCCCCCCCCCCCCC....XX.. ...XX..XX.....XXX.....XCCCCCCCCCCCCCCCC",
"CCCCCCCCCCCCCCCCCCCCCCCCCCCCCCCCCCCCCCCCCCCCCCCCCCCCCCCCCCCCCCCC",
"CCCCCCCCCCCCCCCCCCCCCCCCCCCCCCCCCCCCCCCCCCCCCCCCCCCCCCCCCCCCCCCC",
"CCCCCCCCCCCCCCCCCCCCCCCCCCCCCCCCCCCCCCCCCCCCCCCCCCCCCCCCCCCCCCCC",
"CCCCCCCCCCCCCCCCCCCCCCCCCCCCCCCCCCCCCCCCCCCCCCCCCCCCCCCCCCCCCCCC",
"CCCCCCCCCCCCCCCCCCCCCCCCCCCCCCCCCCCCCCCCCCCCCCCCCCCCCCCCCCCCCCCC",
"CCCCCCCCCCCCCCCCCCCCCCCCCCCCCCCCCCCCCCCCCCCCCCCCCCCCCCCCCCCCCCCC",
"CCCCCCCCCCCCCCCCCCCCCCCCCCCCCCCCCCCCCCCCCCCCCCCCCCCCCCCCCCCCCCCC",
"CCCCCCCCCCCCCCCCCCCCCCCCCCCCCCCCCCCCCCCCCCCCCCCCCCCCCCCCCCCCCCCC",
"CCCCCCCCCCCCCCCCCCCCCCCCCCCCCCCCCCCCCCCCCCCCCCCCCCCCCCCCCCCCCCCC"
};
