/* XPM */
static char *result[] = {
/* columns rows colors chars-per-pixel */
"64 64 63 1 ",
"  c #4E2913",
". c #532C15",
"X c #522E19",
"o c #573016",
"O c #55321C",
"+ c #5A361F",
"@ c #573621",
"# c #593723",
"$ c #593A25",
"% c #543D2D",
"& c #5D3E29",
"* c #543F30",
"= c #57402F",
"- c #5E422E",
"; c #564232",
": c #5D4332",
"> c #56463A",
", c #57483B",
"< c #5B493C",
"1 c #61422D",
"2 c #624531",
"3 c #664934",
"4 c #684B36",
"5 c #634B3A",
"6 c #684C38",
"7 c #6B503D",
"8 c #5F594F",
"9 c #5F5950",
"0 c #655747",
"q c #6E5441",
"w c #61574C",
"e c #63594C",
"r c #635C54",
"t c #676057",
"y c #6A6256",
"u c #676159",
"i c #6B645B",
"p c #6E685D",
"a c #70675C",
"s c #706A5E",
"d c #6E6960",
"f c #736C62",
"g c #777065",
"h c #787466",
"j c #777168",
"k c #7B766C",
"l c #7E796E",
"z c #817B6F",
"x c #827D72",
"c c #838176",
"v c #868479",
"b c #89867A",
"n c #8B887D",
"m c #8E8C81",
"M c #918E84",
"N c #939187",
"B c #95938A",
"V c #99968D",
"C c #9B988F",
"Z c #999790",
"A c #9E9B94",
"S c #A19E96",
"D c None",
/* pixels */
"DDDDDDDDDDDDDDDDDDDDDDDDDDDDDDDDDDDDDDDDDDDDDDDDDDDDDDDDDDDDDDDD",
"DDDDDDDDDDDDDDDDDDDDDDDDDDDDDDDDDDDDDDDDDDDDDDDDDDDDDDDDDDDDDDDD",
"DDDDDDDDDDDDDDDDDDDDDDDDDDDDDDDDDDDDDDDDDDDDDDDDDDDDDDDDDDDDDDDD",
"DDDDDDDDDDDDDDDDDDDDDDDDDDDDDDDDDDDDDDDDDDDDDDDDDDDDDDDDDDDDDDDD",
"DDDDDDDDDDDDDDDDDDDDDDDDDDDDDDDDDDDDDDDDDDDDDDDDDDDDDDDDDDDDDDDD",
"DDDDDDDDDDDDDDDDDDDDDDDDDDDDDDDDDDDDDDDDDDDDDDDDDDDDDDDDDDDDDDDD",
"DDDDDDDDDDDDDDDDDDDDDDDDDDDDDDDDDDDDDDDDDDDDDDDDDDDDDDDDDDDDDDDD",
"DDDDDDDDDDDDDDDDDDDDDDDDDDDDDDDDDDDDDDDDDDDDDDDDDDDDDDDDDDDDDDDD",
"DDDDDDDDDDDDDDDDDDDDDDDDDDDDDDDDDDDDDDDDDDDDDDDDDDDDDDDDDDDDDDDD",
"DDDDDDDDDDDDDDDDDDDDDDDDDDDDDDDDDDDDDDDDDDDDDDDDDDDDDDDDDDDDDDDD",
"DDDDDDDDDDDDDDDDDDDDDDDDDDDDDDDDDDDDDDDDDDDDDDDDDDDDDDDDDDDDDDDD",
"DDDDDDDDDDDDDDDDDDDDDDDDDDDDDDDDDDDDDDDDDDDDDDDDDDDDDDDDDDDDDDDD",
"DDDDDDDDDDDDDDDDDDDDDDDDDDDDD44411&DDDDDDDDDDDDDDDDDDDDDDDDDDDDD",
"DDDDDDDDDDDDDDDDDDDDDDDDDDD44MNNbbb++DDDDDDDDDDDDDDDDDDDDDDDDDDD",
"DDDDDDDDDDDDDDDDDDDDDDDDDD7CCNMBbbbzzoDDDDDDDDDDDDDDDDDDDDDDDDDD",
"DDDDDDDDDDDDDDDDDDDDDDDDDqCCCBBMbbnzzs#DDDDDDDDDDDDDDDDDDDDDDDDD",
"DDDDDDDDDDDDDDDDDDDDDDDD4MCCCNMMbbbzzii1DDDDDDDDDDDDDDDDDDDDDDDD",
"DDDDDDDDDDDDDDDDDDDDD3444nCCVSSSVBBzzaa211#DDDDDDDDDDDDDDDDDDDDD",
"DDDDDDDDDDDDDDDDDDDD1MbbbnVSSgggsgfMMaabbbm2DDDDDDDDDDDDDDDDDDDD",
"DDDDDDDDDDDDDDDDDDDD4MbbbMSghhggssffsxabvbM2DDDDDDDDDDDDDDDDDDDD",
"DDDDDDDDDDDDDDDDDDDD6MbbbSfggfffgssgfflbbbm2DDDDDDDDDDDDDDDDDDDD",
"DDDDDDDDDDDDDDDDDDDD6mnbbfggsfsfsgssfffbbvM2DDDDDDDDDDDDDDDDDDDD",
"DDDDDDDDDDDDDDDDDDDD&AAASghhffffffgsfffBBBB-DDDDDDDDDDDDDDDDDDDD",
"DDDDDDDDDDDDDDDDDDDD.xppassssfffsfsfffjjfux.DDDDDDDDDDDDDDDDDDDD",
"DDDDDDDDDDDDDDDDDDDD.xappdfpa55555<dddgfiux.DDDDDDDDDDDDDDDDDDDD",
"DDDDDDDDDDDDDDDDDDDD.zpppa5555bbnnq--2iipux.DDDDDDDDDDDDDDDDDDDD",
"DDDDDDDDDDDDDDDDDDDD.zpada5vx2gfgg-klodriuf.DDDDDDDDDDDDDDDDDDDD",
"DDDDDDDDDDDDDDDDDDDD.jpipae.ooffgfoo.wiaurp.DDDDDDDDDDDDDDDDDDDD",
"DDDDDDDDDDDDDDDDDDDD.hiipppwww.ooowwwiirria.DDDDDDDDDDDDDDDDDDDD",
"DDDDDDDDDDDDDDDDDDDDD.ffppppppeewwiiiiiipf.DDDDDDDDDDDDDDDDDDDDD",
"DDDDDDDDDDDDDDDDDDDDDD.ofppppuiiiiiiiirf..DDDDDDDDDDDDDDDDDDDDDD",
"DDDDDDDDDDDDDDDDDDDDDDD.fpiiuuiiiriurirf.DDDDDDDDDDDDDDDDDDDDDDD",
"DDDDDDDDDDDDDDDDDDDDDDD.fd*%&ir%%%y%%%tf DDDDDDDDDDDDDDDDDDDDDDD",
"DDDDDDDDDDDDDDDDDDDDDDD.fi:kj*rd*fr>ff%d.DDDDDDDDDDDDDDDDDDDDDDD",
"DDDDDDDDDDDDDDDDDDDDDDD.gr<<<rrr<rr>>>fd DDDDDDDDDDDDDDDDDDDDDDD",
"DDDDDDDDDDDDDDDDDDDDDD&.fi>gr09w<<r>fjrd..DDDDDDDDDDDDDDDDDDDDDD",
"DDDDDDDDDDDDDDDDDD&1-&gOfijrrlrjfitdrrrp@0XoX DDDDDDDDDDDDDDDDDD",
"DDDDDDDDDDDDDDDDD&mcc$hOdrirrrrrrrr9r89p+0Oyyn$DDDDDDDDDDDDDDDDD",
"DDDDDDDDDDDDDDDDD-mbv$jXfirrrrrrrrrr999p+a.iln$DDDDDDDDDDDDDDDDD",
"DDDDDDDDDDDDDDDDD1Mcb&k@drrrrrrrrr99888p&i.ycn$DDDDDDDDDDDDDDDDD",
"DDDDDDDDDDDDDDDDD2nbv&hOdrrrrrrr8988999d&yXycb$DDDDDDDDDDDDDDDDD",
"DDDDDDDDDDDDDDDDD2Mbv1hh#&-&*&&2----&*$&py.icn$DDDDDDDDDDDDDDDDD",
"DDDDDDDDDDDDDDDDD2Mvv-hvxbxxbxxccvcvxvvxcyOicn$DDDDDDDDDDDDDDDDD",
"DDDDDDDDDDDDDDDDD3Mbv-AVZZZmmmMmmmmNNMZZBVOacb$DDDDDDDDDDDDDDDDD",
"DDDDDDDDDDDDDDDDD3Nbb3fiiiddddpdddddudirudOpcn$DDDDDDDDDDDDDDDDD",
"DDDDDDDDDDDDDDDDD3Bbb3fpdirdiiiiiiuddriiudOscn$DDDDDDDDDDDDDDDDD",
"DDDDDDDDDDDDDDDDD4Vbb3giiidridipiiiirurrii:fcn$DDDDDDDDDDDDDDDDD",
"DDDDDDDDDDDDDDDDD4Vbbb332222-*::::&::::::-cccb$DDDDDDDDDDDDDDDDD",
"DDDDDDDDDDDDDDDDD3Vbbbbbvvvvcccxmlccccxvcvvlcn$DDDDDDDDDDDDDDDDD",
"DDDDDDDDDDDDDDDDD1AAAAVVBBBNBVBBMNNBNNNNMBZZZC$DDDDDDDDDDDDDDDDD",
"DDDDDDDDDDDDDDDDD.fjuuiuryrrrrrr99rr9rrr9rrddd DDDDDDDDDDDDDDDDD",
"DDDDDDDDDDDDDDDDD.jruuyruryrrrrrru9rrrrrrrrrdi DDDDDDDDDDDDDDDDD",
"DDDDDDDDDDDDDDDDD..........     XX       X     DDDDDDDDDDDDDDDDD",
"DDDDDDDDDDDDDDDDDDDDDDDDDDDDDDDDDDDDDDDDDDDDDDDDDDDDDDDDDDDDDDDD",
"DDDDDDDDDDDDDDDDDDDDDDDDDDDDDDDDDDDDDDDDDDDDDDDDDDDDDDDDDDDDDDDD",
"DDDDDDDDDDDDDDDDDDDDDDDDDDDDDDDDDDDDDDDDDDDDDDDDDDDDDDDDDDDDDDDD",
"DDDDDDDDDDDDDDDDDDDDDDDDDDDDDDDDDDDDDDDDDDDDDDDDDDDDDDDDDDDDDDDD",
"DDDDDDDDDDDDDDDDDDDDDDDDDDDDDDDDDDDDDDDDDDDDDDDDDDDDDDDDDDDDDDDD",
"DDDDDDDDDDDDDDDDDDDDDDDDDDDDDDDDDDDDDDDDDDDDDDDDDDDDDDDDDDDDDDDD",
"DDDDDDDDDDDDDDDDDDDDDDDDDDDDDDDDDDDDDDDDDDDDDDDDDDDDDDDDDDDDDDDD",
"DDDDDDDDDDDDDDDDDDDDDDDDDDDDDDDDDDDDDDDDDDDDDDDDDDDDDDDDDDDDDDDD",
"DDDDDDDDDDDDDDDDDDDDDDDDDDDDDDDDDDDDDDDDDDDDDDDDDDDDDDDDDDDDDDDD",
"DDDDDDDDDDDDDDDDDDDDDDDDDDDDDDDDDDDDDDDDDDDDDDDDDDDDDDDDDDDDDDDD",
"DDDDDDDDDDDDDDDDDDDDDDDDDDDDDDDDDDDDDDDDDDDDDDDDDDDDDDDDDDDDDDDD"
};
