/* XPM */
static char *result[] = {
/* columns rows colors chars-per-pixel */
"64 64 48 1 ",
"  c #4F2A13",
". c #512F19",
"X c #4F311A",
"o c #54321C",
"O c #553720",
"+ c #553923",
"@ c #5A3C25",
"# c #5C422C",
"$ c #5F4632",
"% c #5D4935",
"& c #534A3D",
"* c #5F4C38",
"= c #604732",
"- c #604E3A",
"; c #5F5648",
": c #615749",
"> c #635A4B",
", c #685E4E",
"< c #665E50",
"1 c #695F50",
"2 c #676051",
"3 c #6B6354",
"4 c #6E6857",
"5 c #6E6758",
"6 c #6F6958",
"7 c #746E5E",
"8 c #75705F",
"9 c #766F60",
"0 c #767060",
"q c #7B7464",
"w c #7C7866",
"e c #7D7668",
"r c #817C6E",
"t c #837E70",
"y c #84806F",
"u c #868271",
"i c #898576",
"p c #8D8877",
"a c #8B8778",
"s c #8D8979",
"d c #928D7D",
"f c #8F8C80",
"g c #918E82",
"h c #959184",
"j c #96948A",
"k c #9A968E",
"l c #9B988F",
"z c None",
/* pixels */
"zzzzzzzzzzzzzzzzzzzzzzzzzzzzzzzzzzzzzzzzzzzzzzzzzzzzzzzzzzzzzzzz",
"zzzzzzzzzzzzzzzzzzzzzzzzzzzzzzzzzzzzzzzzzzzzzzzzzzzzzzzzzzzzzzzz",
"zzzzzzzzzzzzzzzzzzzzzzzzzzzzzzzzzzzzzzzzzzzzzzzzzzzzzzzzzzzzzzzz",
"zzzzzzzzzzzzzzzzzzzzzzzzzzzzzzzzzzzzzzzzzzzzzzzzzzzzzzzzzzzzzzzz",
"zzzzzzzzzzzzzzzzzzzzzzzzzzzzzzzzzzzzzzzzzzzzzzzzzzzzzzzzzzzzzzzz",
"zzzzzzzzzzzzzzzzzzzzzzzzzzzzzzzzzzzzzzzzzzzzzzzzzzzzzzzzzzzzzzzz",
"zzzzzzzzzzzzzzzzzzzzzzzzzzzzzzzzzzzzzzzzzzzzzzzzzzzzzzzzzzzzzzzz",
"zzzzzzzzzzzzzzzzzzzzzzzzzzzzzzzzzzzzzzzzzzzzzzzzzzzzzzzzzzzzzzzz",
"zzzzzzzzzzzzzzzzzzzzzzzzzzzzzzzzzzzzzzzzzzzzzzzzzzzzzzzzzzzzzzzz",
"zzzzzzzzzzzzzzzzzzzzzzzzzzzzzzzzzzzzzzzzzzzzzzzzzzzzzzzzzzzzzzzz",
"zzzzzzzzzzzzzzzzzzzzzzzzzzzzzzzzzzzzzzzzzzzzzzzzzzzzzzzzzzzzzzzz",
"zzzzzzzzzzzzzzzzzzzzzzzzzzzzzzzzzzzzzzzzzzzzzzzzzzzzzzzzzzzzzzzz",
"zzzzzzzzzzzzzzzzzzzzzzzzzzzz$$$@=$%=zzzzzzzzzzzzzzzzzzzzzzzzzzzz",
"zzzzzzzzzzzzzzzzz$$$====;===rrrrrrte=zzzzzzzzzzzzzzzzzzzzzzzzzzz",
"zzzzzzzzzzzzzzzz$799tttttttttrrrerett%zzzzzzzzzzzzzzzzzzzzzzzzzz",
"zzzzzzzzzzzzzzz#9779ttttttttrrrrrrte<3$zzzzzzzzzzzzzzzzzzzzzzzzz",
"zzzzzzzzzzzzzz#8777ttttttttrrrrrrr1131=zzzzzzzzzzzzzzzzzzzzzzzzz",
"zzzzzzzzzzzzz#7777tttsssttttrrrr::>1555=zzzzzzzzzzzzzzzzzzzzzzzz",
"zzzzzzzzzzzz#88777ttssssdtutrrrr::::333=zzzzzzzzzzzzzzzzzzzzzzzz",
"zzzzzzzzzzzz#87888ttsssspaiittrr::::5531=zzzzzzzzzzzzzzzzzzzzzzz",
"zzzzzzzzzzzz#877999hspppsdpiitrrr7r75,1,=##=#zzzzzzzzzzzzzzzzzzz",
"zzzzzzzzzzz#87789999hhhhspssappprrrrrrrrrrrr7@zzzzzzzzzzzzzzzzzz",
"zzzzzzzzzz#rr88899933333gddpaapatrr76rrrr78rrr=zzzzzzzzzzzzzzzzz",
"zzzzzzzzz#rrrrr8993333333gpsppppdttrrr77rrr77rr@=$==zzzzzzzzzzzz",
"zzzzzzzz#rrrrrrrf3333159q9jjpdpdpddtrrrrr7rr7rrrqeeq=zzzzzzzzzzz",
"zzzzzzzz#trtrtrdftssaaa99qq9gdapdtpptpttrrrrtrptttqqq$zzzzzzzzzz",
"zzzzzzz#yrrtrrsgaaaaaapa9q9q9ggddtddpptpittittppapppqq$zzzzzzzzz",
"zzzzzz#trryrrggdaaaaaaapaaq9qqqpdddpttptiiiipppppaaaaqq$zzzzzzzz",
"zzzzz#998844ddggaaaaaapaadsiiiiaddddddppatasssppppppa,<<#zzzzzzz",
"zzzzz#884446gdgaaaaaaaaaapaiiiddddddddddiidsdpspppapa<<<$zzzzzzz",
"zzzzz#844446ggaaaaaaaaaaaaiiidddddddddddsddppppppppg<<<<#zzzzzzz",
"zzzzz#q444447daaaaaaaapiiiiigdddddddddddddddpddpppg>,2<<<@zzzzzz",
"zzzzz%%&567657ffaaifiaiiiiiidddddddddddddddddddppp,,>;222>#zzzzz",
"zzzz%iui%767757gaaiiaiiiiiiihsddddddddddddddddppl,,>;;;&&&#zzzzz",
"zzz$uiiia%765750ffffgjgiiiiihdddddddddddddddddlk>,-,>;-&&&Xzzzzz",
"zz+uiiiiau&75777;<>>>;>hfippdhddddddddddlllddh,,-,>>>;;&&&Xzzzzz",
"zz@7giiiuui*077>>>;><;;;3jjjhhhdddddldll777788,,,,>>-,&&&&ozzzzz",
"zz+77jiiauii@7>;>>;>;><33355jjhddddhdldr87778,-,,,,>>>&%&Xzzzzzz",
"zz+000ggiiiie;;;>>>;;;23333378jjlddhhdrr88888@@@@@@>>>&&ozzzzzzz",
"zz+00555gfffff++>>;3322233538888ppptt,,-,886@y8r33,@>>&Xzzzzzzzz",
"zzO04343535>>>X;>;<<222233338778rttu1133138@8r880332@,ozzzzzzzzz",
"zzz+343455;>>>.&;2<<<2233337777846u,111131@r8rr8w032&ozzzzzzzzzz",
"zzzzooo35;;>;;O;;<<<22223367777876u,1111#@r8r8r8w802&Ozzzzzzzzzz",
"zzzzzzzo3>>>>XzO;;<<2222166668777r,,111@yytr8r880we;&ozzzzzzzzzz",
"zzzzzzzzooooOzzzoo<<22235566667777,,,,@tyytuutyrwu&;&ozzzzzzzzzz",
"zzzzzzzzzzzzzzzzzzOO23235556665777,,,@dtyyuuyyttd>&&&ozzzzzzzzzz",
"zzzzzzzzzzzzzzzzzzzzoOOX555455551,,,@dhtyuutyyyp>;;&&&ozzzzzzzzz",
"zzzzzzzzzzzzzzzzzzzzzzzzoo.o35554,,,@67ddddppph,>2;;&&ozzzzzzzzz",
"zzzzzzzzzzzzzzzzzzzzzzzzzzzzoooo4,,1O777777gah>:>>>;&&.zzzzzzzzz",
"zzzzzzzzzzzzzzzzzzzzzzzzzzzzzzzzoooo@7777776h>:>;>;>o.zzzzzzzzzz",
"zzzzzzzzzzzzzzzzzzzzzzzzzzzzzzzzzzzzO7777764>:>>>>X zzzzzzzzzzzz",
"zzzzzzzzzzzzzzzzzzzzzzzzzzzzzzzzzzzz 7777666:::>  zzzzzzzzzzzzzz",
"zzzzzzzzzzzzzzzzzzzzzzzzzzzzzzzzzzzzz 777444:>  zzzzzzzzzzzzzzzz",
"zzzzzzzzzzzzzzzzzzzzzzzzzzzzzzzzzzzzzz        zzzzzzzzzzzzzzzzzz",
"zzzzzzzzzzzzzzzzzzzzzzzzzzzzzzzzzzzzzzzzzzzzzzzzzzzzzzzzzzzzzzzz",
"zzzzzzzzzzzzzzzzzzzzzzzzzzzzzzzzzzzzzzzzzzzzzzzzzzzzzzzzzzzzzzzz",
"zzzzzzzzzzzzzzzzzzzzzzzzzzzzzzzzzzzzzzzzzzzzzzzzzzzzzzzzzzzzzzzz",
"zzzzzzzzzzzzzzzzzzzzzzzzzzzzzzzzzzzzzzzzzzzzzzzzzzzzzzzzzzzzzzzz",
"zzzzzzzzzzzzzzzzzzzzzzzzzzzzzzzzzzzzzzzzzzzzzzzzzzzzzzzzzzzzzzzz",
"zzzzzzzzzzzzzzzzzzzzzzzzzzzzzzzzzzzzzzzzzzzzzzzzzzzzzzzzzzzzzzzz",
"zzzzzzzzzzzzzzzzzzzzzzzzzzzzzzzzzzzzzzzzzzzzzzzzzzzzzzzzzzzzzzzz",
"zzzzzzzzzzzzzzzzzzzzzzzzzzzzzzzzzzzzzzzzzzzzzzzzzzzzzzzzzzzzzzzz",
"zzzzzzzzzzzzzzzzzzzzzzzzzzzzzzzzzzzzzzzzzzzzzzzzzzzzzzzzzzzzzzzz",
"zzzzzzzzzzzzzzzzzzzzzzzzzzzzzzzzzzzzzzzzzzzzzzzzzzzzzzzzzzzzzzzz"
};
