/* XPM */
static char *result[] = {
/* columns rows colors chars-per-pixel */
"64 64 59 1 ",
"  c #4F2913",
". c #522B14",
"X c #54321E",
"o c #59341C",
"O c #553521",
"+ c #5A3720",
"@ c #563826",
"# c #5D3B24",
"$ c #563B2A",
"% c #593D2C",
"& c #603F27",
"* c #603F28",
"= c #564635",
"- c #5A4233",
"; c #574837",
": c #574839",
"> c #5A4A3B",
", c #63432D",
"< c #654630",
"1 c #6B533F",
"2 c #5B4E40",
"3 c #5E5144",
"4 c #5F574B",
"5 c #605447",
"6 c #6D5745",
"7 c #655847",
"8 c #6F5A46",
"9 c #61564A",
"0 c #645A4C",
"q c #685E4E",
"w c #635B51",
"e c #695F50",
"r c #676056",
"t c #696154",
"y c #676158",
"u c #6A645B",
"i c #6E685F",
"p c #7D735D",
"a c #6C6760",
"s c #6E6961",
"d c #726D63",
"f c #757165",
"g c #7D7867",
"h c #767169",
"j c #79766B",
"k c #7D7A6D",
"l c #7E7C70",
"z c #80755F",
"x c #817E72",
"c c #848174",
"v c #86837A",
"b c #89867C",
"n c #8C8A7D",
"m c #8E8C81",
"M c #908E84",
"N c #929087",
"B c #949289",
"V c #9A968D",
"C c None",
/* pixels */
"CCCCCCCCCCCCCCCCCCCCCCCCCCCCCCCCCCCCCCCCCCCCCCCCCCCCCCCCCCCCCCCC",
"CCCCCCCCCCCCCCCCCCCCCCCCCCCCCCCCCCCCCCCCCCCCCCCCCCCCCCCCCCCCCCCC",
"CCCCCCCCCCCCCCCCCCCCCCCCCCCCCCCCCCCCCCCCCCCCCCCCCCCCCCCCCCCCCCCC",
"CCCCCCCCCCCCCCCCCCCCCCCCCCCCCCCCCCCCCCCCCCCCCCCCCCCCCCCCCCCCCCCC",
"CCCCCCCCCCCCCCCCCCCCCCCCCCCCCCCCCCCCCCCCCCCCCCCCCCCCCCCCCCCCCCCC",
"CCCCCCCC<<<<<<<<<<<CCCCCCCCCCCCCCCCCCCCC<*<<<<<<<<<CCCCCCCCCCCCC",
"CCCCCCC,xxxxxccccxc<CCCCCCCCCCCCCCCCCCC,xxxxccccxvx<CCCCCCCCCCCC",
"CCCCCCC*kxxxxcxccxcc<CCCCCCCCCCCCCCCCCC*gxxxccccvxxv<CCCCCCCCCCC",
"CCCCCCC&6666nnnnnnnn,CCCCCCCCCCCCCCCCCC,1886nnnnnnnn,CCCCCCCCCCC",
"CCCCCC<jgggj&2eetiii&CCCCCCCCCCCCCCCCC<jgjzj+3tutiii&CCCCCCCCCCC",
"CCCCCC<jkzkjo5uuuiiioCCCCCCCCCCCCCCCCC<zxjxjo3tuituuoCCCCCCCCCCC",
"CCCCCC<kxjxko5eetttu.CCCCCCCCCCCCCCCCC<jggxko3tyitui.CCCCCCCCCCC",
"CCCCCC<kkkkko2eeyyuu.<<<<CCCCCCCCCCCCC,xkzzko3wyetuu.<<,<CCCCCCC",
"CCCCCC<xxgxkX23wyeuu.lkkk<CCCCCCCCCCCC,jxlxjo22ettut.jxxx<CCCCCC",
"CCCCCC*kgxkkX23weetu.lkkk<CCCCCCCCCCCC,xkkkgX>2wtttu.xkkk<CCCCCC",
"CCCCCC*xgjgkX... ....bnnn<CCCCCCCCCCCC,xkkjxX .......bnnn,CCCCCC",
"CCCCCC&nbbnb ;>44w0rrttuu.CCCCCCCCCCCC,bbbbb >>4590trtttu.CCCCCC",
"CCCCCC#gdiii >>4440errtuu.CCCCCCCCCCCCXkdddu >>4450wrtttu.CCCCCC",
"CCCCCC@kddii >>>444ertttt.CCCCCCCCCCCCokdisi >>:999trrttt.CCCCCC",
"CCCCCCXhdiuu ;;;4ww4rrtry.CCCCCCCCCCCCXjdiuu >:;w9w9rrrru.CCCCCC",
"CCCCCC.hiiiu ;;;w0w40rrrr.CCCCCCCCCCCCXgiiii ;;;9w00wrrtr.CCCCCC",
"CCCCCC.fiuui ===444w0wrrr.CCCCCCCCCCCC fiuiu ===90494rrrr.CCCCCC",
"CCCCCC.fiiui    . 4rewwew.CCCCCCCCCCCC fuiiu    . 9rrr0rr CCCCCC",
"CCCCCC.fuuiu=94hfp wrrwww.CCCCCCCCCCCC fiiuu=79fff rrwr4r CCCCCC",
"CCCCCC diuiu=4ddff ==----CCCCCCCCCCCCC fayay=4ffff %=---=CCCCCCC",
"CCCCCCCOXOXOlvvccc 4443 CCCCCCCCCCCCCCCXOOOOlcxxcv 4444 CCCCCCCC",
"CCCCCC sfssfw4ww0d 44444 CCCCCCCCCCCCC fsdshw4wwwi 44444 CCCCCCC",
"CCCCCC w4wwww4wwwi 444444 CCCCCCCCCCCC 4wwwwwwww9d 444444 CCCCCC",
"CCCCCC www4w4w4wwi 444444 CCCCCCCCCCCC www444wwwwi 444444 CCCCCC",
"CCCCCC wwwwwwww44i 444444 CCCCCCCCCCCC w4wwwwwwwwi 444444 CCCCCC",
"CCCCCC 94www4wwwwi ===-=-CCCCCCCCCCCCC www4wwww99i =--%=-CCCCCCC",
"CCCCCC.wwww4www4wi q0jfjj CCCCCCCCCCCC w4wwww4wwwi 0whjjj CCCCCC",
"CCCCCC wwwwwww333i 0wjjjj CCCCCCCCCCCC.wwwwwww333a wehhjj.CCCCCC",
"CCCCCC wwww433393i 6jjhhj CCCCCCCCCCCC wwww332343a.whhjjh CCCCCC",
"CCCCCCCOXX%$%$%@OOgxkklkk CCCCCCCCCCCCCXOO$$$%%@OOzxkxklk CCCCCC",
"CC,,-< khhh$%hjjjjyyytawr      CCC,,,, jhjh$%jjjhhueyueyy.     C",
"C,jjhk wuyy@haeyyyyyueuar 77777 C<jjjj.ywaw$huaweuawueyyy 77777 ",
"<bjjkh ueaa%yyuyyyyyyyeey 77777 ,njjjj.yuaa%ueuauuwauuyyu.77777 ",
"<bjkjk.uwuy%aeyyyytuyuyyy 77670 <bjkjj.uuwa%uuueuuuwuuyyy 77777.",
"-bkjjj.uaaa%yyuuuuyyyyyyy.77006 <njjjj.uuuu%uyuewuwawuyyy 77777 ",
",nljkj.uuea-aeyytuyyytyya 00q70 ,bkkkj.uyuu-ueuaytyyawaeu 00000 ",
"<njkkj.uaeu%eauuytyyuyyuw.q00qq <nkkkj.uiyu-uuueuuuyuuwae 0q660 ",
"<nljkk.ieau-aaeuueuyuwyue q0qqq -mkkkk.uuuu-uuueytyywuewu q0q0q.",
"<mlklkkXoO@-%::<1:$$@oXXXeeeqqx <mlkxkkXoo+----:>1$$@OXXOweeeev ",
",mkklkohhhhhhhdhhhhh%uiuu.eeywl <mkklk.jhhhhhhhhhhdh%uiiu.eetec ",
",ncxxl.ddhaaaaaauaau-wwww.eerjv ,nlclc.hdhsaaaaiuaaa-ewww.eeejv ",
",nxxlx.hhaaaaaaaaaia-wwww.ttrjv ,nxlxk.dhaaaaaaiauaa-wwww.eetjv ",
",Mxxxc.daaaaaaauaaas:wwww.qtjjv ,nxxxxodaaaaaaaaaaau>wwww.ttjjv ",
"&nccxx.piiasaaaaaaaa:wwww.etljv ,nxccc.fsssaaaaiuaau>wwwe.etkjb ",
",ncxcx.psasssaywauua=wwwe.eljjm ,nxxcc.dsassaarraaaa-wwww tjkjb ",
",nxxcx.issasyyytaaauO49ww eljll ,ncxcx.dssssyryraayaO9www ekjlb ",
"&MxcxxoissyyywyyyuauO49ww ellhm &nxxcx.issyyryrtyaayO99ww.txljb ",
"#nccccco..........      .ellklm #nccccc.........   . .   wllllb ",
"&Mccccczzzppzzppppppppppfxlklkm &ncccccpzgzzppppfdppppppfllkllb ",
"#Mccccccccxcxxxxlxlxllllxlllkkm &ncccccccxccxxkxxxkxklkkxllkllb ",
"oncccccccccccxxxclllllllxkllllv oncncccccccccxcxxxxlklxxllllllv ",
"oncccccxccccxxxklxlllxllkkkxxxx onxcccccxcxxxxxllxllllllllllllm ",
"oVVVVBVVBBBBBNBBNNNNMMMNNNMNMBB #VVVVVVVBNVBBBBNNNNMMMMMMmNBNNM ",
"oniiiuiuiuiffsfdissssuuuyyyueux ontiuiuuiiidddddssaiaaauuuwweaj ",
".niiuiiuiiiiifddiiiuiiuuuuaeaax .npuiuiiiiiiddddssiaaauuuuuussl ",
".nuiiiuiiiiiiiiiaasiuaaauyyadix .nuiuiiuiiiiisiaiiiuaauuuuuassx ",
"............... .. .        .......o.............. ..      .    ",
"CCCCCCCCCCCCCCCCCCCCCCCCCCCCCCCCCCCCCCCCCCCCCCCCCCCCCCCCCCCCCCCC",
"CCCCCCCCCCCCCCCCCCCCCCCCCCCCCCCCCCCCCCCCCCCCCCCCCCCCCCCCCCCCCCCC"
};
