/* XPM */
static char *result[] = {
/* columns rows colors chars-per-pixel */
"64 64 39 1 ",
"  c #4D2711",
". c #4E2812",
"X c #512B14",
"o c #593722",
"O c #5B3A25",
"+ c #5D3E2A",
"@ c #5F412E",
"# c #52453A",
"$ c #55493D",
"% c #60412E",
"& c #574B40",
"* c #594E43",
"= c #5C5246",
"- c #5F5549",
"; c #655E55",
": c #676056",
"> c #686157",
", c #676158",
"< c #6B655C",
"1 c #6E685F",
"2 c #70685F",
"3 c #6F6A60",
"4 c #726E65",
"5 c #747067",
"6 c #76736A",
"7 c #78756D",
"8 c #797770",
"9 c #7C7A72",
"0 c #87857A",
"q c #89867B",
"w c #8B897D",
"e c #8C8A81",
"r c #918F85",
"t c #929087",
"y c #96938B",
"u c #99978F",
"i c #9C9A92",
"p c #A09C96",
"a c None",
/* pixels */
"aaaaaaaaaaaaaaaaaaaaaaaaaaaaaaaaaaaaaaaaaaaaaaaaaaaaaaaaaaaaaaaa",
"aaaaaaaaaaaaaaaaaaaaaaaaaaaaaaaaaaaaaaaaaaaaaaaaaaaaaaaaaaaaaaaa",
"aaaaaaaaaaaaaaaaaaaaaaaaaaaaaaaaaaaaaaaaaaaaaaaaaaaaaaaaaaaaaaaa",
"aaaaaaaaaaaaaaaaaaaaaaaaaaaaaaaaaaaaaaaaaaaaaaaaaaaaaaaaaaaaaaaa",
"aaaaaaaaaaaaaaaaaaaaaaaaaaaaaaaaaaaaaaaaaaaaaaaaaaaaaaaaaaaaaaaa",
"aaaaaaaaaaaaaaaaaaaaaaaaaaaaaaaaaaaaaaaaaaaaaaaaaaaaaaaaaaaaaaaa",
"aaaaaaaaaaaaaaaaaaaaaaaaaaaaaaaaaaaaaaaaaaaaaaaaaaaaaaaaaaaaaaaa",
"aaaaaaaaaaaaaaaaaaaaaaaaaaaaaaaaaaaaaaaaaaaaaaaaaaaaaaaaaaaaaaaa",
"aaaaaaaaaaaaaaaaaaaaaaaaaaaaaaaaaaaaaaaaaaaaaaaaaaaaaaaaaaaaaaaa",
"aaaa+%+%@%@@@@@@++%++++OOOaaaaaaaaaaaa+++@@@@@@@@@@@++++++Ooaaaa",
"aaa+qee0q00000qer000q00qq0Oaaaaaaaaaa+qee0qq0q000eeqqq0000q0oaaa",
"aa+ree0000000qqqq00000000qtOaaaaaaaa+tee0qqq00000q0000000000rOaa",
"aaOtqqq00q0qq0q0qqq0000000rOaaaaaaaaOtw00q0qq0qqqq0q00000000tOaa",
"aaOt0qqqqqqqqqqqqqq0qqq000rOaaaaaaaaOt0q0qqqqqq0qq0qqqqqqq00tOaa",
"aaOy00qqqqqqqqqqqqqqqrr0q0y+aaaaaaaaOy00qqqqqq0qqqqqq0qreq00y+aa",
"aaOy00qqq0qqqqqqqqqqwrrqqqy+aaaaaaaaOy000qqqqqqqqqqqqqrrrqqqy%aa",
"aaOu000qwqqqqqwqqqqwrrrqqqy%aaaaaaaaOy0qqqq00wqqqqqqqwtttqqqy%aa",
"aaou0q00qqqqqqqqqqqqqqwqqqu+aaaaaaaaOy0qqqqqqqqqqqqwqqqqqqqqu%aa",
"aaOiwwqqqqqqqqqqwqqqqqqqqqu+aaaaaaaaOiwwqqqwqqq0qqqqqqqqqqqqu+aa",
"aa+iwwqqqwqqwwqqqwwwwwwqwqi+aaaaaaaaOiwwwqqwqqwwqwqwwwwwwqqqi%aa",
"aa%uwwwqqqqwwweqwwwwwwwwqqp+aaaaaaaa+iwwqqqqqwwwwwwwwewewqqwi+aa",
"aa%iwwwyyqwwwwqqwwwwwwttrti+aaaaaaaa+iwqwyyqwewwwwwqwwwwrrrri%aa",
"aa%iwwwtywwwwwqewwwwwwtrpp5+aaaaaaaa%iwwwyywwqqewwwwwwwwrrpp4+aa",
"aaX2uwwwwewwqweewwwrtrrp454XaaaaaaaaX2uwwwwwqeqewwwwwtttrp554Xaa",
"aaX43iipiuuuuuuuuuuuippp45;XaaaaaaaaX42piiiuuuuuyuypuuuppp44;Xaa",
"aaX2e0766666554222<2<<<4w;>XaaaaaaaaX2qq7777744453<<33<322r;>Xaa",
"aaXe2<77756652<3<<24<432e>>XaaaaaaaaXe2277677662<33<<33322w;<Xaa",
"aaXe<2<<2656222<<4<<<4<<2w;XaaaaaaaaXw<22<<746223<<3<33322<e;Xaa",
"aaXe<<33223<<32224<4<2<4220.aaaaaaaaXe22<3<3<222<322<33;3<23wXaa",
"aaX0<<<<2<<32***<<<44<<4240XaaaaaaaaX92<3<3<2<2***22332332340Xaa",
"aaX9<<<3<22<<&45--2<<4<<240XaaaaaaaaX9;3<33<<<2&55--<33<23340Xaa",
"aaX9<33<2<<33&<356<42<23249XaaaaaaaaX9;3<3<<3<2&234523333<349Xaa",
"aa.9<<<3<3<3<&**33333,33<59XaaaaaaaaX93333;333,&**333<<4<3148.aa",
"aaX9<<<<<<<<<&55--;3333<<58XaaaaaaaaX93;,33,3;3&44--<33<3<348.aa",
"aa.8<<<<<<<<<5<354<<<3<5558.aaaaaaaa.9<<3,,33,34<344<<3<<4448.aa",
"aa.8,<<<<<<<<<<<<<3<3;<5358XaaaaaaaaX93;,,3,;3;3<<<<2<<<<4448oaa",
"aao8,,,,<<<<,,*&<<<<,,,5558.aaaaaaaa.8;;,,33<<,,**<<<,<,,4448.aa",
"aa.8;,,,,,,<,&43,&<;3,<5538.aaaaaaaa.7;;,,,,,,,&33,&,<,<34448.aa",
"aa.7,,,,<,<,,&3&&#;<,,,,348.aaaaaaaa.7<;,,<,<,,&3*&#,,<,;,448Xaa",
"aa.7;;,,,<,<,#332&<;,,,,548.aaaaaaaa.7<;,,,<,<,&333#,,,,,,448Xaa",
"aa.7;;;,;,,,,&&&;2;;,,,,148.aaaaaaaa.6;;,,;3,,,&&&;3;,,,,,338.aa",
"aa.6;,;;,,3,-33,;;;;,,,,,48.aaaaaaaa.6;;;;;;,,;3,3;-;;;,,,,48.aa",
"aaX5;;,;;&&;;;;;;;;;;,,,;,8.aaaaaaaa.5;;;;;&&;;,;;;;;,,,,,;,8Xaa",
"aa.6,,;;&5333;;+##;;;;,;,;8.aaaaaaaa.5;;;;&65<,,-&&#;;;;;,,,8Xaa",
"aa.4;;;*3,3,,,#3<<;;;,;,:;8.aaaaaaaaX5;;;*33,3,,&<<3;;;;,,,,7.aa",
"aa.4;;;*43,3,#;;&#;;;;,;::8.aaaaaaaa.5;;,*5,3,,+-;&&;;;,;,;;7.aa",
"aa.4;;**6,,;,3#;<<;;;;,;;;7Xaaaaaaaa.4;;**6,;;;3#;,<;;;;;,;;8.aa",
"aaa #&&6,,3;;;,###;;;;;,;:7Xaaaaaaaaa.&#&6,33;;;,##&;;;;,;;;7Xaa",
"aaaX#45<><>;;;;<<<:;;;;::,6.aaaaaaaaa $55><<>;;;;,<<;;;;;;,,7.aa",
"aaa.#4;<<<;;;;;;;:;;;;::::6.aaaaaaaaa #3><<<;;;;;;,,:,;;;;,<7.aa",
"aaaX6;;;>>;>;##;##;;;:;:,,8.aaaaaaaaaX6;;;>>;;;$#;&#;-;;;::,8.aa",
"aa.5;;;;>;>;:2#;#1-;-:::,:7.aaaaaaaa 6;;;;;;;;;1#;&,;:-;:::,6.aa",
"aa.4;;;:::::;;2:1:::::>>,,6.aaaaaaaa 3>;;;>;:;:;3;3;;;::>>,,6.aa",
"aa.4;;;,:;;:::$:$>:::>>>>,6.aaaaaaaaX4>>;>>;:;::&;&;;;::>>,,6.aa",
"aaX5;,,,:;>::$#:#$>:::::>:6.aaaaaaaa 4;>>;>;>>>$#;#&,,::>,::6.aa",
"aa.53;;,:>:::22:22>>::::>>6.aaaaaaaa 42>;>>>>>>33;33,,::::::6.aa",
"aaX53:::>>>>>><>><>><$$:::6.aaaaaaaaX61:::>>>>>>>>>>>>>$$:>>6.aa",
"aa 533,>>>>><><>><>>$==:,<6.aaaaaaaa.63<:>>>>>>><><:>>$=->,,6.aa",
"aa.54113211>2>>>>>>$==-==:6.aaaaaaaa.63312113>>>>>><>&==-$=>7.aa",
"aa.633112233>><>>>$===-==-6.aaaaaaaa.633131341<<<><>$====---6Xaa",
"aaa......... X. ..  ....X..aaaaaaaaaaX. ... ..............X. aaa",
"aaaaaaaaaaaaaaaaaaaaaaaaaaaaaaaaaaaaaaaaaaaaaaaaaaaaaaaaaaaaaaaa",
"aaaaaaaaaaaaaaaaaaaaaaaaaaaaaaaaaaaaaaaaaaaaaaaaaaaaaaaaaaaaaaaa",
"aaaaaaaaaaaaaaaaaaaaaaaaaaaaaaaaaaaaaaaaaaaaaaaaaaaaaaaaaaaaaaaa"
};
