/* XPM */
static char *result[] = {
/* columns rows colors chars-per-pixel */
"64 64 80 1 ",
"  c #4F2B14",
". c #4F2E1A",
"X c #512C16",
"o c #522F19",
"O c #54321C",
"+ c #59351E",
"@ c #543622",
"# c #593621",
"$ c #563926",
"% c #5C3A24",
"& c #563D2B",
"* c #5B3E29",
"= c #55402F",
"- c #5C412D",
"; c #564434",
": c #5C4433",
"> c #5B4836",
", c #584738",
"< c #574A3C",
"1 c #5B4B3C",
"2 c #62432C",
"3 c #634632",
"4 c #644A36",
"5 c #684B36",
"6 c #624D3C",
"7 c #684D39",
"8 c #65503E",
"9 c #6A523E",
"0 c #5A4E41",
"q c #5D5143",
"w c #5F564A",
"e c #634F40",
"r c #635344",
"t c #6B5643",
"y c #6E5945",
"u c #64574A",
"i c #695748",
"p c #655A4C",
"a c #6B5C4C",
"s c #715D4B",
"d c #655D52",
"f c #6A5F52",
"g c #73614E",
"h c #6B6255",
"j c #676059",
"k c #6C655A",
"l c #6E685D",
"z c #736454",
"x c #796655",
"c c #746857",
"v c #71675A",
"b c #726A5E",
"n c #7A6D5D",
"m c #7D705C",
"M c #6E6860",
"N c #756E62",
"B c #7A6E60",
"V c #767064",
"C c #7B7364",
"Z c #7B766A",
"A c #7E7A6C",
"S c #7F7C70",
"D c #817463",
"F c #817867",
"G c #827768",
"H c #827C6D",
"J c #827E71",
"K c #887F71",
"L c #858274",
"P c #898476",
"I c #878378",
"U c #8A8679",
"Y c #8C897C",
"T c #908C7E",
"R c #8F8C80",
"E c #918E82",
"W c #949185",
"Q c #949288",
"! c #989589",
"~ c None",
/* pixels */
"~~~~~~~~~~~~~~~~~~~~~~~~~~~~~~~~~~~~~~~~~~~~~~~~~~~~~~~~~~~~~~~~",
"~~~~~~~~~~~~~~~~~~~~~~~~~~~~~~~~~~~~~~~~~~~~~~~~~~~~~~~~~~~~~~~~",
"~~~~~~~~~~~~~~~~~~~~~~~~~~~~~~~~~~~~~~~~~~~~~~~~~~~~~~~~~~~~~~~~",
"~~~~~~~~~~~~~~~~~~~~~~~~~~~~~~~~~~~~~~~~~~~~~~~~~~~~~~~~~~~~~~~~",
"~~~~~~~~~~~~~~~~~~~~~~~~~~~~~~~~~~~~~~~~~~~~~~~~~~~~~~~~~~~~~~~~",
"~~~~~~~~~~~~~~~~~~~~~~~~~~~~~~~~~~~~~~~~~~~~~~~~~~~~~~~~~~~~~~~~",
"~~~~~~~~~~~~~~~~~~~~~~~~~~~~~~~~~~~~~~~~~~~~~~~~~~~~~~~~~~~~~~~~",
"~~~~~~~~~~~~~~~~~99999~~~~~~~~~~~~~~~~~~~~~~~~~~~~~~~~~~~~~~~~~~",
"~~~~~~~~~~~~~~yy9cAmml4~~~~~~~~~~~~~~~~~~~~~~~~~~~~~~~~~~~~~~~~~",
"~~~~~~~~~~~~99CFZAAAFAc@~~~~~~~~~~~~~~~~~~~~~~~~~~~~~~~~~~~~~~~~",
"~~~~~~~~~~~9AAZZAASHJLm+~~~595555~~~~~~~~~~~~~~~~~777~~~~~~~~~~~",
"~~~~~~~~~~tHLLHHAHJLPTA%222LYYPTm3~~~~~~~~~~~~~337AHH9~~~~~~~~~~",
"~~~~~~~~~9LHLLHLLJYWPcs%zzPUYYYTWD%~~~~~~~~~~~tJLSSASJt~~~~~~~~~",
"~~~~~~~~9CHLHLLLITSbbba-hzPYPYYTWm%~~~~~~~~~~~iUJLJJSJJi~~~~~~~~",
"~~~~~~~9mHHLLPLLTAclbcs-cPPYYYYTWD%~~~~~~~~~~~9HRJLSJLLJs~~~~~~~",
"~~~~~~9mALLLPUPYAkhclby-cPPYYTW!!D+~~~~~~~~~~~8ZSRLJLLLPHs~~~~~~",
"~~~~~-9HIIIIIUEChfkfkba2STTTTLHSHz#~~~~~~~~~~~8CZSRSLLILISs~~~~~",
"~~~~~sCLIUIUUEZfpdfhi4tDYVVVVllbNi+~~~~~~~~~~~6CVZSRLKLIIIHg~~~~",
"~~~~+xUUIIUUUQkddddr:-eBmhdhkkhcNi+~~~~~~~~~~%6ZZVMSRIIPURYJx~~~",
"~~~~yCUUUUUURZdpae4>31ppdddhhhhhli+~~~~~~~~~8yiaVVMMJYYYLASAn2~~",
"~~~%mUUYURURQuud8>-461upfphhdhhhviO~~~~~~~~%tZvthVlMlUJJNhhhi2~~",
"~~~+gLFLKGGGHure>6ypr6uufdphduttfi+~~~~~~~~%rlNk8hllhJhirrrie*~~",
"~~~79gxgsit*ee028rpdr6uwppddu855te#~~~~~~~~%rllNb2khhBt444445%~~",
"~~%FPHHLHHD50w%6pdddw>purufu3cFLz334~~~~~~~+qllMv2ahd4BJAZZJCO~~",
"~~%FRSJJJSJZ%e*4pffp8:qrrqp-mHHHKPPD22~~~~~+tllkat-h-VSSAZZSCO~~",
"~~%aJRKIKIJC%e*epddd1#+#OOOCLHLLJPPPYP2~~~~+rlkjhhy%-mSAZZSZ1O~~",
"~~#sIRKIJIKKH*0epdf>+~~~~OCLHPPPPPUYYYE2~~~~$8lhhhay%nZZZZSZ8O~~",
"~~#fJRIKRKKIJ#e0wp>+~~~~#HYLLPPPUUYYYYQ3~~~~~%>hdhpa-bASSSLZ8O~~",
"~~#fCIUKJJJJRM2eq:%~~~~~ObbUYYUUYYRUEEv2~~~~~~#>hhp-xmHHAALZ1O~~",
"~~%gMJYIIRRKKJ*0--~~~~~~OffbNNIEERYRREu#~~~~~~~->pa*mmHJLLZh8O~~",
"~~%flNJRUUUKJJv6-~~~~~~~OdhhkkBAAJQQENuo~~~~~~~~%-a%mHHLAICr6O~~",
"~~#zlkHERURKJSR7~~~~~~~~#4>fhkkkMVJKVu*o~~~~~~~~~+-+4ASSSIVr1O~~",
"~~~6flCITYYUYYH5%~~~~~~~~OO466abMMNNpuX~~~~~~~~~49yyyyamUAhq>+~~",
"~~~#rlMVUEEEPPati7~~~~~~~~~+OO>ttsNVu4o~~~~~~~~9zPLLLy8smh0<-~~~",
"~~~#tfbNGEUPziaFJz7~~~~~~~~~~~~Oo4fg4+~~~~~~~9ycJJHLLPLy@-0-O~~~",
"~~~~%ubMNZvzt9LLLJx97~~~~~~~~~~~~~#%#~~~~~~~smJJJLLLLLLh--0=X~~~",
"~~~*2rvNBZzs5IUUUPJPn55~~~~~~~~~~~~~~~~~~~symLLLLLLLPPhr-=>=X~~~",
"~~#iZi6vVZy3YYUUUPUUUUF2~322~~~~~~~~~222~yHYYULLULLLYaqr=-1=X~~~",
"~~*ikNi4BZs2VTWYYYUPUYYJtPUP7%++%%**2Bnn4FUYYUULLLTUprrr-==o~~~~",
"~~*aklNftBe2bmVY!YUYYUTJ9UPPHHHAHGCnnnnJ9AYYYULLYLppqrqq-X==o~~~",
"~~*ukkvBz4u2vBnZCYTYYYLsJUPPLLHLKHJHHLLPLgLPYTTLzg8wrqrq=%<; ~~~",
"~~*akvNNCz:2bNVnCZPQWUHyUUPLLHLJJPPPPULPLDyLTLbcfpwrrpa:=<<; ~~~",
"~~*ukkNMNCz-BNVVnnZHPKxUQWWRPLHLJPPUUUTTTTgxFcahfprupa:=<q1;o~~~",
"~~%pklbNNZPb7nVnVCVVGDyUHSAZPUUYYYTTUUSSFLggcahaaprup:=<111;o~~~",
"~~~tdkvNNZSIxtnNBNVBZn7ZblbNZJSAJJSASAbbbmyhcahppp8w:=>qqq<=o~~~",
"~~~-tkklNNZSUhttNVVVCv6VlllbNMMNMbNllNlllNyahhap8pw-@<<q0<,$~~~~",
"~~~~edkvNNVVLn4:ibBNVv4VlklNllNMbMbNllkhhlwyappy8>>O,<<<0,=~~~~~",
"~~~~~efvNNVVZ%ri6ivNBf*VllklMlvMMblblkhkhl6raw>>>.O;<<1q<=O~~~~~",
"~~~~~~4fbNVVZ&ruu>tfht*NllklMvkMllllkjjdhk:>r=OO@;;;1<1q<=~~~~~~",
"~~~~~~~>kNNNZ&eukp:##@*kffdkkMklllkpdkddph-.o=q1; ;<<<11=~~~~~~~",
"~~~~~~~~&NNNC*eklldqrq1 X#Odfkfkkhppui.@O >pww1q> ;<<<1=~~~~~~~~",
"~~~~~~~~~*NNZ%0hlllkkprrr0e%@OOOOOOOOO0068qwwwqq< ;<<<O~~~~~~~~~",
"~~~~~~~~~~&NZ$efllkkkkkdddqq6$:0161600ddwwwwww0q> <<..~~~~~~~~~~",
"~~~~~~~~~~~#$Xedkkkkhkddfddpu1pfhdpdwwdwddwwwqq1< .+~~~~~~~~~~~~",
"~~~~~~~~~~~~~~@$$rkhjhdhddhpp6fkMjddwjdwddwwwqqq; ~~~~~~~~~~~~~~",
"~~~~~~~~~~~~~~~~~$&&1hffdhdpp0dkjjjjjjddddwwwq,@@~~~~~~~~~~~~~~~",
"~~~~~~~~~~~~~~~~~~~~$&:&:dduu:uMjjjdjjdddw,&$$@~~~~~~~~~~~~~~~~~",
"~~~~~~~~~~~~~~~~~~~~~~~~X&:>:@uMjMjdd&<&:;@~~~~~~~~~~~~~~~~~~~~~",
"~~~~~~~~~~~~~~~~~~~~~~~~~ @ooX>e011>,..   ~~~~~~~~~~~~~~~~~~~~~~",
"~~~~~~~~~~~~~~~~~~~~~~~~~~~~~~~X    X~~~~~~~~~~~~~~~~~~~~~~~~~~~",
"~~~~~~~~~~~~~~~~~~~~~~~~~~~~~~~~~~~~~~~~~~~~~~~~~~~~~~~~~~~~~~~~",
"~~~~~~~~~~~~~~~~~~~~~~~~~~~~~~~~~~~~~~~~~~~~~~~~~~~~~~~~~~~~~~~~",
"~~~~~~~~~~~~~~~~~~~~~~~~~~~~~~~~~~~~~~~~~~~~~~~~~~~~~~~~~~~~~~~~",
"~~~~~~~~~~~~~~~~~~~~~~~~~~~~~~~~~~~~~~~~~~~~~~~~~~~~~~~~~~~~~~~~"
};
