/* XPM */
static char *result[] = {
/* columns rows colors chars-per-pixel */
"64 64 195 2 ",
"   c #35364D",
".  c #38384F",
"X  c #35384F",
"o  c #363950",
"O  c #3B3B50",
"+  c #413D50",
"@  c #4A404E",
"#  c #5D454D",
"$  c #444152",
"%  c #4B4351",
"&  c #43435C",
"*  c #4D495D",
"=  c #544651",
"-  c #5D4D53",
";  c #544A59",
":  c #664A4E",
">  c #684B4D",
",  c #724C4C",
"<  c #6A514F",
"1  c #7D514B",
"2  c #78564F",
"3  c #654E53",
"4  c #694E51",
"5  c #6D5353",
"6  c #695357",
"7  c #735653",
"8  c #745A55",
"9  c #7C5B53",
"0  c #755B55",
"q  c #73615A",
"w  c #4E4C61",
"e  c #535670",
"r  c #68626D",
"t  c #67616D",
"y  c #676777",
"u  c #6F6872",
"i  c #6C6875",
"p  c #736D78",
"a  c #776C69",
"s  c #89574D",
"d  c #8B594D",
"f  c #87564C",
"g  c #955A4C",
"h  c #9B5D49",
"j  c #985947",
"k  c #825E53",
"l  c #935D50",
"z  c #A65C43",
"x  c #A95F46",
"c  c #A25F48",
"v  c #99674F",
"b  c #9A684F",
"n  c #856456",
"m  c #896455",
"M  c #8E6B56",
"N  c #8B6A59",
"B  c #9B6D54",
"V  c #916959",
"C  c #997157",
"Z  c #9F795F",
"A  c #98755C",
"S  c #AA6146",
"D  c #A3624A",
"F  c #AB6449",
"G  c #A46D4E",
"H  c #AE694B",
"J  c #B16C4B",
"K  c #AE724E",
"L  c #B4744C",
"P  c #B8764D",
"I  c #B7784E",
"U  c #B97A4F",
"Y  c #A26E51",
"T  c #A67A5A",
"R  c #AA7A59",
"E  c #A97454",
"W  c #B37C55",
"Q  c #BB7D52",
"!  c #B27F5A",
"~  c #B77653",
"^  c #8B7669",
"/  c #977961",
"(  c #837277",
")  c #867B7F",
"_  c #857479",
"`  c #8C6863",
"'  c #A67F62",
"]  c #AE7E6E",
"[  c #B67E68",
"{  c #AC7F74",
"}  c #AA825D",
"|  c #BD8255",
" . c #B58158",
".. c #BB8259",
"X. c #B38A5F",
"o. c #BA8D5E",
"O. c #958169",
"+. c #9D876A",
"@. c #9B8466",
"#. c #978570",
"$. c #988670",
"%. c #AD8461",
"&. c #A88767",
"*. c #B48B63",
"=. c #B98D65",
"-. c #B58D68",
";. c #BD9164",
":. c #B7906A",
">. c #BB9369",
",. c #A28D73",
"<. c #B28579",
"1. c #BA8777",
"2. c #BB957E",
"3. c #C28555",
"4. c #C08658",
"5. c #C58B5A",
"6. c #C98D59",
"7. c #C98956",
"8. c #C5905D",
"9. c #CA925E",
"0. c #C69362",
"q. c #CA9463",
"w. c #CC9B64",
"e. c #C29669",
"r. c #C59869",
"t. c #CE9E6B",
"y. c #D09E6A",
"u. c #C28E7D",
"i. c #C58E60",
"p. c #C2A16B",
"a. c #CCA46B",
"s. c #D1A06C",
"d. c #CBA974",
"f. c #C5A878",
"g. c #CDAC78",
"h. c #C3A573",
"j. c #E2BA6F",
"k. c #E1B971",
"l. c #E3BE7B",
"z. c #E4C07E",
"x. c #717181",
"c. c #767789",
"v. c #7C7E91",
"b. c #8B7D82",
"n. c #8C8085",
"m. c #968384",
"M. c #858592",
"N. c #93939E",
"B. c #A79694",
"V. c #A89895",
"C. c #A89795",
"Z. c #B3938B",
"A. c #B9A29F",
"S. c #9C9BA4",
"D. c #A7A4A9",
"F. c #B8ADAC",
"G. c #B9AAA6",
"H. c #A6A6B0",
"J. c #ABABB6",
"K. c #BEB6B6",
"L. c #D6B8A9",
"P. c #C9B1A7",
"I. c #E4C180",
"U. c #E9C481",
"Y. c #AFB7C3",
"T. c #AFB9C4",
"R. c #BCBCC3",
"E. c #B0B8C2",
"W. c #CFC9C8",
"Q. c #CCC5C4",
"!. c #D6D2D1",
"~. c #C3D6E4",
"^. c #C4DAE7",
"/. c #C5DCE9",
"(. c #CBDDEA",
"). c #D0DFE9",
"_. c #CEE0ED",
"`. c #D3E3EE",
"'. c #DAE5EE",
"]. c #D3E5F2",
"[. c #DCEBF4",
"{. c #DAEBF5",
"}. c #E6E6E7",
"|. c #E7E7E8",
" X c #EDEDED",
".X c #E3EDF4",
"XX c #E8EFF4",
"oX c #ECF2F6",
"OX c #E5F1F8",
"+X c #E8F1F8",
"@X c #F3F5F6",
"#X c #F2F6F8",
"$X c #F9FAFA",
"%X c #F7F7F7",
"&X c None",
/* pixels */
"&X&X X@X XoX X X X@X X X X@X X XXX X X XoXoX X XoX X@X XoX X X X X@XXX X XoX X X X X XoX XoX X X@X X X@XoX XoX X X XoX X XXX&X&X",
"&X|.R.J.J.H.H.H.H.H.H.D.H.H.H.H.H.H.H.H.H.D.H.H.H.H.H.D.H.H.H.H.H.H.H.H.H.H.H.H.H.H.H.H.H.D.H.H.D.H.H.H.H.H.H.H.H.H.H.J.J.Q.|.&X",
"&X|.v.e w & & & & & & & & & & & & & & & & & & & & & & & & & & & & & & & & & & & & & & O & & & & & & & & & & & & & & & w e v.|.&X",
"&X|.c.w a O./ O.O.O.O.O.O.O.O.O.O.O.O.#.$.$.$.$.+.$.$.$.#.#.#.#.+.#.#.+.O.O.O.O.O.O.O.O.O.O.O.O.O.#.+.+.#.#.#.#.$.$.$.a * x.|.&X",
"&X|.x.& +.j.k.j.j.k.j.j.j.j.j.j.k.k.l.l.I.I.I.I.I.U.I.I.I.I.I.I.I.I.l.l.z.l.j.j.j.j.j.j.j.k.k.k.l.l.l.I.I.I.I.I.U.U.U.+.  y |.&X",
"&X|.x.& &.k.k.k.k.k.k.k.j.k.k.l.l.l.l.z.I.I.I.I.I.I.I.I.I.I.z.l.l.l.k.k.k.k.j.k.k.k.k.k.k.k.k.l.l.l.I.I.I.I.I.I.I.I.U.+.  y |.&X",
"&X|.x.& +.k.k.k.k.j.k.k.k.l.l.z.I.I.I.I.I.I.I.I.I.I.I.I.z.z.k.k.k.k.k.k.k.k.k.k.k.k.k.k.k.k.l.I.z.I.I.I.I.I.I.I.I.I.U.+.  y |.&X",
"&X|.x.& +.j.j.k.k.k.k.l.l.l.z.z.I.I.I.I.I.I.z.I.I.I.l.k.k.k.k.k.k.k.k.j.k.k.k.k.k.k.l.l.l.l.z.I.I.I.l.I.I.I.I.I.I.I.z.+.  y }.&X",
"&X}.x.& +.j.k.k.k.l.l.I.I.I.I.I.I.I.I.I.I.I.I.I.z.z.j.j.k.k.k.k.k.k.k.k.k.k.k.k.k.k.z.I.z.I.I.I.I.I.I.I.I.z.I.I.I.l.z.@.  y }.&X",
"&X}.x.& +.z.z.z.l.l.l.I.I.I.I.I.I.I.z.I.I.I.l.l.k.k.k.j.k.k.k.k.k.j.k.k.k.k.k.z.l.z.I.I.I.I.I.I.I.I.I.I.z.z.l.k.k.l.j.@.  y }.&X",
"&X}.x.& ,.U.I.I.I.I.I.I.I.I.I.l.I.I.z.z.z.I.l.l.k.k.k.a.k.k.k.j.k.k.k.k.k.k.z.z.I.z.I.I.I.I.z.z.I.z.z.z.z.l.k.k.k.k.k.O.  y }.&X",
"&X}.x.& ,.U.I.I.I.I.I.I.I.I.I.I.z.l.k.k.k.k.k.k.k.k.k.k.k.k.j.k.k.l.l.l.z.z.z.I.I.I.I.I.I.I.z.z.z.l.l.k.k.k.k.k.k.k.k.Z   y }.&X",
"&X|.x.& ,.U.I.I.I.I.I.I.I.I.I.I.z.l.k.j.k.k.k.k.k.k.k.k.k.k.k.k.k.l.I.I.I.I.I.I.I.I.I.I.I.I.l.z.l.l.k.k.k.k.k.k.k.k.j.@.  y |.&X",
"&X}.x.& ,.U.I.I.I.U.I.I.I.l.l.k.j.j.k.k.j.k.k.k.k.k.j.k.k.l.z.z.I.l.I.z.U.I.I.I.I.I.U.I.z.z.z.k.k.k.k.k.k.j.k.k.j.j.j.@.  y }.&X",
"&X|.p & #.f.f.g.g.f.f.f.f.d.f.a.a.a.a.a.p.a.a.a.p.p.p.p.h.h.h.f.f.f.f.f.f.f.f.f.f.f.g.g.d.d.p.p.p.p.p.p.p.p.p.p.r.p.p.^   y }.&X",
"&X|.x.& $ $ ; 8 6 & $ $ $ 3 8 5 7 7 8 7 7 7 7 7 = + $ $ $ $ $ $ + & $ $ $ $ $ $ O $ 6 0 7 7 = $ + $ $ + $ $ $ + $ $ $ + . y }.&X",
"&X|.y & ; - 5 n 0 - - - - 0 k k n 9 k k k 9 n 9 6 - - - - - - - - - - - - - - 3 - 3 9 n k n 6 - - - - - - - - - - - - = . y }.&X",
"&X|.y   m 5.5.5.5.6.6.5.5.6.5.6.5.5.6.6.5.6.5.5.5.6.5.5.5.5.6.6.5.5.5.6.5.5.6.7.5.5.5.6.5.7.5.6.o.8.5.5.6.6.5.5.5.5.5.m   y }.&X",
"&X XN.x.^ C C C C C C C C C C C C C C C C C C C C C C C C C C C C C C C C C C C C C C C B C C C C C C C C C C C C C C ^ x.N.|.&X",
"&X&X X XM.. . X O O . . . . o O . . . O o O o . O O . . . . . . O o . O o o . . . . o O o o o o O . . . . . . . o . . M. X X&X&X",
"&X&X&X XM.  @ > : : > > > > > > > > > > > > > > > > > > > > > > : > > > > > > > > : > > > > > > < > > > > > > > > @ . M. X&X&X&X",
"&X&X&X XM.  : S S S S S S S S S x x x x S S x S x S x x x S x x S S S S x x x x S S S S S S x x S S S S S S x S x :   M. X&X&X&X",
"&X&X&X XM.  > J F d f 1 , , , , , , , , , , , , , , , , , , , s s 2 , , , 1 d d s s s s s s s s 1 > , , , s s F J >   M. X&X&X&X",
"&X&X&X XM.  < P G < 3 .   . . . o . O o o O o . o o o . . . + 3 3 . . . . % 6 > 6 > 6 4 4 4 6 6 = . . . + 3 5 G P <   M. X&X&X&X",
"&X&X&X XM.  < 3.E = = m M M M M V V M M V M M M M M M V V M M g g M A A ^ Z } %.' ' ' &.' ' T T C M M k 9 = = G P <   M. X&X&X&X",
"&X&X&X XM.  0 6.T . $  .6.7.6.6.6.6.6.6.6.6.6.6.6.6.6.6.6.6.3.S F 8.w.s.s.s.a.t.y.t.s.t.y.y.t.w.9.6.3.P K $ . b P <   M. X&X&X&X",
"&X&X&X XM.  8 6.T + %  .6.| | P J Y m m n n n n E Q 5.w.w.y.=.7 6 ;.t.t.t.0.| Q ~ K N N N N N V E | U L G @ . b P <   M. X&X&X&X",
"&X&X&X XM.  8 6.T + $  .6.U L J F g 6 5 8 6 6 8 Y L i.y.y.y.1.w w >.s.s.a.5.L H F v 7 6 6 6 6 6 m L L L G $ + b P <   M. X&X&X&X",
"&X&X&X XM.  8 6.T $ $  .6.J S Z.R.R.Y.Y.Y.Y.Y.J.] x 4.s.s.s.:.w w :.y.s.s.=.x [ K.R.T.T.T.T.J.T.Z.S H L G $ . b P <   M. X&X&X&X",
"&X&X&X XM.  8 8.R . @  .5.J z A././././././.(.(.<.z ..s.t.s.>.w w :.s.y.t.Q x <.^.^././.^._._._.A.z F L G @ + b U <   M. X&X&X&X",
"&X&X&X XM.  8 6.T O @  .5.J S A././.^.^.^.(.XXoXm., T s.t.s.:.w w :.y.w.t.Q z <.^.^.^.^.^.^.[.%XG., k L G @ . } 9.0   M. X&X&X&X",
"&X&X&X XM.  8 6.T $ @  .5.J S A././.^./.(.(.oX@Xm.: / s.s.s.:.; ; >.y.w.w.~ z <.^.^.^.^.^._..X$XF.> k I E % $ } a.q   M. X&X&X&X",
"&X&X&X XM.X 8 6.R O $ o.9.U L A.^.^./.(.oX@XOX[.b.3 / s.a.w.0.D c 4.6.6.6.~ z <.~./.^.(.XX@XOX{.J.4 n 0.o.< 6 X.9.q   M. X&X&X&X",
"&X&X&X XM.X 8 q.R $ = *.a.| L P./.(.(.`.#X#X[.].b.3 T y.w.q.5.S S 4.6.5.5.~ z <.~./.(.).oX@XOX{.D.4 n w.;.8 5 o.9.q   M. X&X&X&X",
"&X&X&X XM.  q s.=.5 7 0.y.| L G.^.`.@X#X[.[.(.~.b.4 C 6.6.6.4.S S 4.6.6.6.P z <.~.(.@X#X.X.X_./.S.3 n w.;.2 7 X.a.q   M. X&X&X&X",
"&X&X&X XM.  q s.>.5 0 e.y.| L P.`.[.#XoX{.].(.~.b.> B 6.5.6...g g 4.6.6.5.P z 1.).].oX#X{.].(./.S.: n w.;.7 5 X.9.q   M. X&X&X&X",
"&X&X&X XM.  0 s.=.5 0 e.y...L L.%XoX{.{./.^.^.^.) > B 6.6.6.! ; ; ! 6.7.6.P z u.@X#X.X{.(.^.^./.S.: n w.o.8 7 X.w.q   M. X&X&X&X",
"&X&X&X XM.  q s.=.5 7 e.t.| L L.#XXX].]./.^.^.~.) > B 6.7.7.E w w R 3.5.6.P z 1.@X+X].]./.^.^./.S.6 n w.o.8 < } 8.8   M. X&X&X&X",
"&X&X&X XM.  q s.=.7 0 0.y.| L P.{.]./.^.^.^.^.~.b.4 B 6.3.P Y * * Y P 3.6.P z Z.[.{./.^./.^.^./.S.> n w.;.0 < K L < . M. X&X&X&X",
"&X&X&X XM.  q y.=.7 7 =.w.P H P.]._.^.^.^./.`.'.b.4 B 6.Q J v * ; v J 7.q.| S 1.(.]./.^.^.^.`..XD.> n 5. .- # b L < . M. X&X&X&X",
"&X&X&X XM.  q s.=.7 7 ..5.J z A././.~./.^./.@X@Xm.3 B 6.Q x g * * g x i.a.5.L 2.~.^.^./.~.^..X$XF.: 9 L G $ + b L <   M. X&X&X&X",
"&X&X&X XM.  0 w.X.= 3  .5.J z A./././.(.'..XXXXXm.> B 6.Q S g * * g x 4.s.5.L 2.~./.^.^.'..X.X+XF.> k L G @ + b U <   M. X&X&X&X",
"&X&X&X XM.  8 7.E O $ ! 5.J z A./././.(.%X%X.X{.b.4 B 6.Q x g w * g x i.s.6.P Z.~.~.^./.oX$XOX{.D.< 9 L G @ + b P <   M. X&X&X&X",
"&X&X&X XM.  8 6.E + %  .7.J z G./._.[..XOXOX].(.b.4 / q.5.J D w * v J i.s.7.S 1.~.(..X.X+X+X].`.S.3 9 L G $ . b P <   M. X&X&X&X",
"&X&X|. XM.  7 6.E + %  .7.J z A./.'.%X#X[.{./.~.b.: Z y.0.U G * * Y ~ 0.s.Q z ] ~.(.%X%X.X{._./.S.> k L G $ . b L <   M. X|.&X&X",
"&X|.Q.K.p   8 6.T + $ W 7.J z P.XXOXOX.X_._.^.^.b.3 Z y.w.0.} & $ [ q.w.s...z u.XXXXOXOX`._././.S.6 9 L G $ + b L < . p K.Q. X&X",
"&X|.F.B.t   8 6.T + % ..7.J z L.%X X'.`.~.~.~.~.b.3 ' s.y.y.-.$ $ -.a.y.s.Q x Z.@XoX'..X~.~.~.~.N.> k L G @ . b P < . t B.F.|.&X",
"&X XF.B.t   8 6.T + $ W 6.~ J [ 1.1.1.] ( ( ( p l j ! s.s.s.-.$ $ X.w.q.q.| J ~ 1.i.] { _ _ ( ( ` j D L G @ $ b P <   t B.F. X&X",
"&X XF.B.t . 7 5.T $ %  .8.Q U J x x S h 8 7 5 5 h x Q s.t.y.*.% % X.w.9.7.| L L z S S S 1 5 5 < g S H L G @ . b I < . t B.F.|.&X",
"&X|.F.B.t X 8 5.R < 5 ;.y.w.w.q.q.q.q.0.e.>.e.e.q.q.w.t.w.9.4.h v | 6.6.6.5.5.5.3.3.| | |  .|  .| 5.3.P G @ + b I < . r B.F.|.&X",
"&X}.F.B.r . 0 8. .2 9 =.r.r.r.e.r.r.r.r.0.r.r.r.r.>.>.=.o. .W c D I  ... ... . . .|  .o. ... ..... .W G b @ @ b L < . t V.F. X&X",
"&X XF.B.r . 0 w.o.S j 9 0 7 0 0 8 0 0 0 7 7 0 0 - * % % % @ = 7 < % $ % % % % % % $ % % % @ % % % % @ @ % - 3 G P < . t C.F.|.&X",
"&X XF.B.r . q t.i.J H k 9 9 9 9 9 q 9 0 9 9 2 7 = % % % % % = 7 2 = % % @ % % % % @ % % % % % % % % @ % = 0 9 G P < . r B.F.|.&X",
"&X}.F.B.r   q s.y.t.w.r.t.r.t.t.t.w.w.8.5...I P L K K L J L K L L K K K K K L K L L K L K K L L K L K K K L L L P 5   r B.F. X&X",
"&X}.F.B.r O 6 &.-.-.=.=.=.=.-.-.&.&.} } R ! G G G G b b b b b b b b b b b b b b b b b b b b v b b b b b b b b B B 3 O r B.F.|.&X",
"&X XF.B.u & w w ; 6 5 5 5 7 4 * + O O @ 6 5 5 5 5 5 = . O O O + . . $ . + . + O O + O . + . + . O + . + . + . & * & & u B.F. X&X",
"&X|.F.B.i + * 3 6 1 1 f 2 1 1 4 # # # : 2 1 1 1 1 f > # # # # # : # # # # # # # # # # # # # # # # # # # # # # 3 3 * + i C.F. X&X",
"&X|.F.B.r . : z x x x x x x x x S S x x x x x x S x x x x S S S S S S z S x x x S S x x x x x x x x x x x x x x x : o r C.F. X&X",
"&X XF.B.i O ; f 1 1 1 1 1 1 f 1 1 1 1 1 1 1 1 1 1 1 1 1 1 1 1 1 1 1 1 1 1 1 1 1 1 1 1 1 1 1 1 1 1 1 1 1 1 1 1 1 1 = O r B.F.|.&X",
"&X|.F.B.y w + o . . . . . . X X . . . . . . . . .     . . . . . . .   . . . .   . . . . . .   . . . . . .   . . . + w y B.F. X&X",
"&X|.F.C.n.p p u u u u i i u u u u u u u u u u u u u u u u u u u u u u u u u u u u u u u u u u u r u u u u u u u u p p n.B.F.|.&X",
"&X XF.B.C.C.C.V.V.V.V.C.C.C.C.C.V.V.V.V.V.V.V.V.V.V.V.V.V.V.V.V.V.V.V.V.B.V.V.V.V.V.V.V.V.V.V.B.V.V.V.V.V.V.V.V.B.V.V.V.B.F.|.&X",
"&X X!.W.W.W.W.W.W.W.W.W.W.W.W.W.W.W.W.W.W.W.W.W.W.W.W.W.W.W.W.W.W.W.W.W.W.W.W.W.W.W.W.W.W.W.W.W.W.W.W.W.W.W.W.W.W.W.W.W.W.!. X&X",
"&X&X X X XoX X X X X X X X X X X X X X X X XoX X X X X X X XoX X X X X X X X X X X X X X X X@X X X X X X X XoX X X X X X X X&X&X"
};
