/* XPM */
static char *result[] = {
/* columns rows colors chars-per-pixel */
"58 64 39 1 ",
"  c #4D2711",
". c #4E2812",
"X c #512B14",
"o c #593722",
"O c #5B3A25",
"+ c #5D3E2A",
"@ c #5F412E",
"# c #52453A",
"$ c #55493D",
"% c #60412E",
"& c #574B40",
"* c #594E43",
"= c #5C5246",
"- c #5F5549",
"; c #655E55",
": c #676056",
"> c #686157",
", c #676158",
"< c #6B655C",
"1 c #6E685F",
"2 c #70685F",
"3 c #6F6A60",
"4 c #726E65",
"5 c #747067",
"6 c #76736A",
"7 c #78756D",
"8 c #797770",
"9 c #7C7A72",
"0 c #87857A",
"q c #89867B",
"w c #8B897D",
"e c #8C8A81",
"r c #918F85",
"t c #929087",
"y c #96938B",
"u c #99978F",
"i c #9C9A92",
"p c #A09C96",
"a c None",
/* pixels */
"aaaaaaaaaaaaaaaaaaaaaaaaaaaaaaaaaaaaaaaaaaaaaaaaaaaaaaaaaa",
"aaaaaaaaaaaaaaaaaaaaaaaaaaaaaaaaaaaaaaaaaaaaaaaaaaaaaaaaaa",
"aaaaaaaaaaaaaaaaaaaaaaaaaaaaaaaaaaaaaaaaaaaaaaaaaaaaaaaaaa",
"aaaaaaaaaaaaaaaaaaaaaaaaaaaaaaaaaaaaaaaaaaaaaaaaaaaaaaaaaa",
"aaaaaaaaaaaaaaaaaa+%+%%%%%%%%%%@+@O@+OOoaaaaaaaaaaaaaaaaaa",
"aaaaaaaaaaaaaaaaa+wewqq000000rr000q00000Oaaaaaaaaaaaaaaaaa",
"aaaaaaaaaaaaaaaa+twwqq00q0000000000q0000rOaaaaaaaaaaaaaaaa",
"aaaaaaaaaaaaaaaaOtwq000q0w0000q000000000rOaaaaaaaaaaaaaaaa",
"aaaaaaaaaaaaaaaaOt0q0wqqqqqqqqqqq00q0000toaaaaaaaaaaaaaaaa",
"aaaaaaaaaaaaaaaaOy0q00qq0qqqqqqqqq0rr000t@aaaaaaaaaaaaaaaa",
"aaaaaaaaaaaaaaaaOy00qqqqqqqqqqqqqqrrrqqqy%aaaaaaaaaaaaaaaa",
"aaaaaaaaaaaaaaaaOy000qqqqqqqqqqqqqrrtqqqy%aaaaaaaaaaaaaaaa",
"aaaaaaaaaaaaaaaaouqqqqqqqqqqqqqqqqqqwqqqu%aaaaaaaaaaaaaaaa",
"aaaaaaaaaaaaaaaaopwwqwqqqqqqwqqwqqwqqqqqu%aaaaaaaaaaaaaaaa",
"aaaaaaaaaaaaaaaa+uwwwqqwqqwwqqqwwwwwwqqwu+aaaaaaaaaaaaaaaa",
"aaaaaaaaaaaaaaaa+uwwwqqqqwwwwwwwwewewwqqi+aaaaaaaaaaaaaaaa",
"aaaaaaaaaaaaaaaa%uwwwytwqeqwwwwwwwwwrrrti%aaaaaaaaaaaaaaaa",
"aaaaaaaaaaaaaaaa%uwwwtyweqqeqwwqwwwwtrpp4Oaaaaaaaaaaaaaaaa",
"aaaaaaaaaaaaaaaaX2uwwwwweeeewqwwwtrrrp555Xaaaaaaaaaaaaaaaa",
"aaaaaaaaaaaaaaaaX42iipiuuuyuuuuuuuuppp55;Xaaaaaaaaaaaaaaaa",
"aaaaaaaaaaaaaaaaX10076667444611122221<e;;Xaaaaaaaaaaaaaaaa",
"aaaaaaaaaaaaaaaaXe1276667472<1<<222<11e;>Xaaaaaaaaaaaaaaaa",
"aaaaaaaaaaaaaaaaXe2<222677<1<1213<23112e>Xaaaaaaaaaaaaaaaa",
"aaaaaaaaaaaaaaaaXe<<<2221211<111333<2222wXaaaaaaaaaaaaaaaa",
"aaaaaaaaaaaaaaaaX9213<3<33<***1132<333340.aaaaaaaaaaaaaaaa",
"aaaaaaaaaaaaaaaaX91<<<<3<<3&46--3<222<340Xaaaaaaaaaaaaaaaa",
"aaaaaaaaaaaaaaaaX9<<<3332<2&11663332<2249Xaaaaaaaaaaaaaaaa",
"aaaaaaaaaaaaaaaaX9<<<<<322<&**<13;3322248Xaaaaaaaaaaaaaaaa",
"aaaaaaaaaaaaaaaaX93;3<3;<2<&44--3<1<<<348Xaaaaaaaaaaaaaaaa",
"aaaaaaaaaaaaaaaaX8<<3;<3<<<4<244<3<<<5448Xaaaaaaaaaaaaaaaa",
"aaaaaaaaaaaaaaaaX8<<3;3;<<<<<2<<<<<<<4448Xaaaaaaaaaaaaaaaa",
"aaaaaaaaaaaaaaaaX7;;;3;3<,<<*&<<<<<<<4447Xaaaaaaaaaaaaaaaa",
"aaaaaaaaaaaaaaaa.8,;,<<,<<>$33<$<,<,<4448Xaaaaaaaaaaaaaaaa",
"aaaaaaaaaaaaaaaa.6,,,,,<,><$3$$$<,,,,,448.aaaaaaaaaaaaaaaa",
"aaaaaaaaaaaaaaaa.6;,;;,,,<>$333$,,,,,,448.aaaaaaaaaaaaaaaa",
"aaaaaaaaaaaaaaaa.6:;;,,,>,>$$$;<;;,,,,<38.aaaaaaaaaaaaaaaa",
"aaaaaaaaaaaaaaaa.6,;;,;,<,;<<<;;;;,,,,,48.aaaaaaaaaaaaaaaa",
"aaaaaaaaaaaaaaaa.6;,,;;&$;;;;;;;;;;,,,,,8.aaaaaaaaaaaaaaaa",
"aaaaaaaaaaaaaaaa.5;;;;$55<<;;###;;;,;,,,8.aaaaaaaaaaaaaaaa",
"aaaaaaaaaaaaaaaa.5;;;=3,<<<<#11<;;;;,,;,8.aaaaaaaaaaaaaaaa",
"aaaaaaaaaaaaaaaa.5:;;*5<><<#;;$#;;;;,,;,6.aaaaaaaaaaaaaaaa",
"aaaaaaaaaaaaaaaa 4;;**5<>;><#;1<;;;,;;,;8.aaaaaaaaaaaaaaaa",
"aaaaaaaaaaaaaaaaa.$#&6,<>>;;>##$;;;;;,,,8.aaaaaaaaaaaaaaaa",
"aaaaaaaaaaaaaaaaa.#56,<<>;;;;<<<;;;;;,,,7Xaaaaaaaaaaaaaaaa",
"aaaaaaaaaaaaaaaaa.#5;,,<;;;;;;;;;;-;;;,,7.aaaaaaaaaaaaaaaa",
"aaaaaaaaaaaaaaaaa.6:;;,<;;;##>#$-;;;;,,,7.aaaaaaaaaaaaaaaa",
"aaaaaaaaaaaaaaaa.5;-;:::>;><#;$>;;;;,,,,6.aaaaaaaaaaaaaaaa",
"aaaaaaaaaaaaaaaa.5;::;::;;>><;1;;;;;;,,,7 aaaaaaaaaaaaaaaa",
"aaaaaaaaaaaaaaaa.5;;:::;;;>>$>$>:::>>>::6.aaaaaaaaaaaaaaaa",
"aaaaaaaaaaaaaaaa.5:::;:;>>;#$>#$>>>>>:::6.aaaaaaaaaaaaaaaa",
"aaaaaaaaaaaaaaaa.51:::>>>>>33>33>>>>::::6.aaaaaaaaaaaaaaaa",
"aaaaaaaaaaaaaaaa.53::::>>>>><>>>>>>$$:::6.aaaaaaaaaaaaaaaa",
"aaaaaaaaaaaaaaaa.613>>>>>>>>><><>>*==,,>6.aaaaaaaaaaaaaaaa",
"aaaaaaaaaaaaaaaa.61111113>><>>>>>$=====:6.aaaaaaaaaaaaaaaa",
"aaaaaaaaaaaaaaaa.631331131>>>>>>$====-=-6.aaaaaaaaaaaaaaaa",
"aaaaaaaaaaaaaaaaa.......X   XX..   .... .aaaaaaaaaaaaaaaaa",
"aaaaaaaaaaaaaaaaaaaaaaaaaaaaaaaaaaaaaaaaaaaaaaaaaaaaaaaaaa",
"aaaaaaaaaaaaaaaaaaaaaaaaaaaaaaaaaaaaaaaaaaaaaaaaaaaaaaaaaa",
"aaaaaaaaaaaaaaaaaaaaaaaaaaaaaaaaaaaaaaaaaaaaaaaaaaaaaaaaaa",
"aaaaaaaaaaaaaaaaaaaaaaaaaaaaaaaaaaaaaaaaaaaaaaaaaaaaaaaaaa",
"aaaaaaaaaaaaaaaaaaaaaaaaaaaaaaaaaaaaaaaaaaaaaaaaaaaaaaaaaa",
"aaaaaaaaaaaaaaaaaaaaaaaaaaaaaaaaaaaaaaaaaaaaaaaaaaaaaaaaaa",
"aaaaaaaaaaaaaaaaaaaaaaaaaaaaaaaaaaaaaaaaaaaaaaaaaaaaaaaaaa",
"aaaaaaaaaaaaaaaaaaaaaaaaaaaaaaaaaaaaaaaaaaaaaaaaaaaaaaaaaa"
};
