/* XPM */
static char *result[] = {
/* columns rows colors chars-per-pixel */
"64 64 190 2 ",
"   c #24020E",
".  c #240212",
"X  c #2B0413",
"o  c #24021A",
"O  c #2B031C",
"+  c #320416",
"@  c #340817",
"#  c #33061C",
"$  c #39061B",
"%  c #34091D",
"&  c #390D1C",
"*  c #331B1B",
"=  c #250125",
"-  c #2B0325",
";  c #25012B",
":  c #2A022D",
">  c #2F0C2B",
",  c #330522",
"<  c #330C23",
"1  c #3E0F22",
"2  c #3B062B",
"3  c #360E2D",
"4  c #3C0C2C",
"5  c #380525",
"6  c #3B1226",
"7  c #3B102E",
"8  c #37152C",
"9  c #2C0232",
"0  c #320235",
"q  c #3F0631",
"w  c #360B35",
"e  c #35023A",
"r  c #39033D",
"t  c #3E0D3A",
"y  c #3A1835",
"u  c #35232C",
"i  c #2D253F",
"p  c #31253E",
"a  c #3D2B3D",
"s  c #3E243B",
"d  c #490C1B",
"f  c #570E1A",
"g  c #46251D",
"h  c #420D22",
"j  c #421025",
"k  c #41142B",
"l  c #4E1423",
"z  c #53162E",
"x  c #420A3E",
"c  c #420B37",
"v  c #411636",
"b  c #44123C",
"n  c #4A1F32",
"m  c #5A1933",
"M  c #641724",
"N  c #412D3E",
"B  c #452035",
"V  c #5D273F",
"C  c #46313F",
"Z  c #4C343D",
"A  c #4D3432",
"S  c #553536",
"D  c #5D3A35",
"F  c #51343A",
"G  c #563A3C",
"H  c #593D3A",
"J  c #613A27",
"K  c #613B34",
"L  c #603F3A",
"P  c #5E423C",
"I  c #76452F",
"U  c #78472E",
"Y  c #7C4A2E",
"T  c #6C4333",
"R  c #65413A",
"E  c #6C4B3B",
"W  c #66483E",
"Q  c #744431",
"!  c #754C36",
"~  c #7B4C31",
"^  c #744E3C",
"/  c #7E5334",
"(  c #73533F",
")  c #7F5439",
"_  c #745337",
"`  c #3D0341",
"'  c #2E2541",
"]  c #322742",
"[  c #332A45",
"{  c #3C2E44",
"}  c #352D4A",
"|  c #3C2F4B",
" . c #37304E",
".. c #3A314E",
"X. c #3B3553",
"o. c #3E3855",
"O. c #410344",
"+. c #440A41",
"@. c #460349",
"#. c #4B044D",
"$. c #432E42",
"%. c #5F2A43",
"&. c #473647",
"*. c #4F3647",
"=. c #423549",
"-. c #4A3648",
";. c #4C3B4C",
":. c #44394F",
">. c #543C43",
",. c #583E40",
"<. c #523E4D",
"1. c #423653",
"2. c #453952",
"3. c #4D3E55",
"4. c #413758",
"5. c #443B5B",
"6. c #483C5A",
"7. c #563853",
"8. c #573D5B",
"9. c #613F40",
"0. c #6A3E58",
"q. c #4E3F65",
"w. c #5C4043",
"e. c #54414B",
"r. c #5A444B",
"t. c #5A435A",
"y. c #604647",
"u. c #684547",
"i. c #6C4B45",
"p. c #65484F",
"a. c #684B4E",
"s. c #654A56",
"d. c #7B4F57",
"f. c #75425C",
"g. c #4F4065",
"h. c #504067",
"j. c #54436C",
"k. c #594674",
"l. c #604464",
"z. c #704864",
"x. c #754B6B",
"c. c #8E4F2A",
"v. c #84492B",
"b. c #85502E",
"n. c #985927",
"m. c #91562E",
"M. c #9B5E2A",
"N. c #945B2B",
"B. c #834E32",
"V. c #835432",
"C. c #895631",
"Z. c #865B33",
"A. c #8D5B35",
"S. c #85583F",
"D. c #88563E",
"F. c #935E33",
"G. c #905D3A",
"H. c #A75D28",
"J. c #A15A27",
"K. c #9B632B",
"L. c #8F6434",
"P. c #986231",
"I. c #956038",
"U. c #9A633B",
"Y. c #956132",
"T. c #AC6225",
"R. c #A96927",
"E. c #A3662A",
"W. c #A76A2B",
"Q. c #AB6A29",
"!. c #B16A26",
"~. c #B36F29",
"^. c #B86923",
"/. c #AC732B",
"(. c #BE7525",
"). c #B37328",
"_. c #A26F30",
"`. c #BA7032",
"'. c #C27324",
"]. c #C17F25",
"[. c #804E69",
"{. c #86506A",
"}. c #8C556F",
"|. c #8E5875",
" X c #855473",
".X c #BA852B",
"XX c #AE8530",
"oX c #CA8424",
"OX c #CB9425",
"+X c None",
/* pixels */
"+X+X+X+X+X+X+X+X+X+X+X+X+X+X+X+X+X+X+X+X+X+X+X+X+X+X+X+X+X+X+X+X+X+X+X+X+X+X+X+X+X+X+X+X+X+X+X+X+X+X+X+X+X+X+X+X+X+X+X+X+X+X+X+X",
"+X+X+X+X+X+X+X+X+X+X+X+X+X+X+X+X+X+X+X+X+X+X+X+X+X+X+X+X+X+X+X+X+X` +X+X+X+X#.+X+X+X+X+X+X+X+X+X+X+X+X+X+X+X+X+X+X+X+X+X+X+X+X+X",
"+X+X+X+X+X+X+X+X+X+X+X+X+X+X+X+X+X+X+X+X+X+X+X+X+X+X+X+X+X+X+X+X+X+X+X+X+X+X+X+X+X+X+X+X+X+X+X+X+X+X+X+X+X+X+X+X+X+X+X+X+X+X+X+X",
"+X+X+X+X+X+X+X+X+X+X+X+X+X+X+X+X+X+X+X+X+X+X+X+X+X+X+X+X+X+X+X+X+X+X+X+X+X+X+X+X+X+X+X+X+X+X+X+X+X+X+X+X+X+X+X+X+X+X+X+X+X+X+X+X",
"+X+X+X+X+X+X+X+X+X+X+X+X+X+X+X+X+X+X+X+X+X+X+X+X+X+X+X+X+X+X+X+X+X+X+X+X+X+X+X+X+X+X+X+X+X+X+X+X+X+X+X+X+X+X+X+X+X+X+X+X+X+X+X+X",
"+X+X+X+X+X+X+X+X+X+X+X+X+X+X+X+X+X+X+X+X+X+X+X+X+X+X+X+X+X+X+X+X+X+X+X+X+X+X+X+X+X+X+X+X+X+X+X+X+X+X+X+X+X+X+X+X+X+X+X+X+X+X+X+X",
"+X+X+X+X+X+X+X+X+X+X+X+X+X+X+X+X+X+X+X+X+X+X+X+X+X+X+X+X+X+X+X+X+X+X+X+X+X+X+X` O.+X+X+X+X+X+X+X+X+X+X+X+X+X+X+X+X+X+X+X+X+X+X+X",
"+X+X+X+X+X+X+X+X+X+X+X+X+X+X+X+X+X+X+X+X+X+X+X+X+X+X+X+X+X+X+X+X+X+X+X+X+X+X+X` 9 +X+X+X+X+XO.+X+X+X+X+X+X+X+X+X+X+X+X+X+X+X+X+X",
"+X+X+X+X+X+X+X+X+X+X+X+X+X+X+X+X+X+X+X+X+X+X+X+X+X+X+X+X+X+X+X+X+X+X#.+X+X+X: 9 +X+X+X+X+X+Xr +X+X+X+X+X+X+X+X+X+X+X+X+X+X+X+X+X",
"+X+X+X+X+X+X+X+X+X+X+X+X+X+X+X+X+X+X+X+X+X+X+X+X+X+X+X+X+X+X+X+X+X+X` ` 9 ; ; : 9 +X+X+X+X+X0 +X+X+X+X+X+X+X+X+X+X+X+X+X+X+X+X+X",
"+X+X+X+X+X+X+X+X+X+X+X+X+X+X+X+X+X+X+X+X+X+X+X+X+X+X+X+X+X+X+X+X+X+Xe e : ; ; ; ; e +X+X+X+X+X+X+X+X+X+X+X+X+X+X+X+X+X+X+X+X+X+X",
"+X+X+X+X+X+X+X+X+X+X+X+X+X+X+X+X+X+X+X+X+X+X+X+X+X+X+X+X+X+X+X+X+X+X9 9 : ; ; ; 9 r ` +X+X+X+X+X+X+X+X+X+X+X+X+X+X+X+X+X+X+X+X+X",
"+X+X+X+X+X+X+X+X+X+X+X+X+X+X+X+X+X+X+X+X+X+X+X+X+X+X+X+X+X+X+X+X+X+Xr 9 9 ; = - : e ` ` +X+X+X+X+X+X+X+X+X+X+X+X+X+X+X+X+X+X+X+X",
"+X+X+X+X+X+X+X+X+X+X+X+X+X+X+X+X+X+X+X+X+X+X+X+X+X+X+X+X+X+X+X+X+X#.O.e : - - - : 9 e ` ` +X+X+Xr +X+X+X+X+X+X+X+X+X+X+X+X+X+X+X",
"+X+X+X+X+X+X+X+X+X+X+X+X+X+X+X+X+X+X+X+X+X+X+X+X+X+X+X+X+X+X+X+X#.#.` 0 : - # , 9 ; 9 0 e r +X+Xe +X+X+X+X+X+X+X+X+X+X+X+X+X+X+X",
"+X+X+X+X+X+X+X+X+X+X+X+X+X+X+X+X+X+X+X+X+X+X+X+X+X+X+X+X+X#.+X#.#.#.r : - # < 7 e 9 ; ; ; 9 +X+X+X+X+X+X+X+X+X+X+X+X+X+X+X+X+X+X",
"+X+X+X+X+X+X+X+X+X+X+X+X+X+X+X+X+X+X+X+X+X+X+X+X+X+X+X` ` ` +X#.#.` 0 - O % 6 v w w ; : 9 e +X+X+X+X+X+X+X+X+X+X+X+X+X+X+X+X+X+X",
"+X+X+X+X+X+X+X+X+X+X+X+X+X+X+X+X+X+X+X+X+X+X+X+X+X+X+X9 9 9 +X@.O.e 9 : , , 4 b v w 9 0 r O.#.+X+X+X+X+X+X+X+X+X+X+X+X+X+X+X+X+X",
"+X+X+X+X+X+X+X+X+X+X+X+X+X+X+X+X+X+X+X+X+X+X+X+X+X+X+X: : ; 0 ` 0 9 : , 5 2 x b v ` r r ` @.#.+X+X+X+X+X+X+X+X+X+X+X+X+X+X+X+X+X",
"+X+X+X+X+X+X+X+X+X+X+X+X+X+X+X+X+X+X+X+X+X+X+X+X+X+X+X+X; ; 9 9 9 : - - 5 q x x B +.` ` ` O.@.` +X+X+X+X+X+X+X+X+X+X+X+X+X+X+X+X",
"+X+X+X+X+X+X+X+X+X+X+X+X+X+X+X+X+X+X+X+X+X+X+X+X+X+X+X+X+X; ; 9 : ; - - 5 2 c b y +.` r e r r ` +X+X+X+X+X+X+X+X+X+X+X+X+X+X+X+X",
"+X+X+X+X+X+X+X+X+X+X+X+X+X+X+X+X+X+X+X+X+X+X+X+X+X+X+X+X+X+X: 0 e 9 : , % , 1 v b +.r 0 9 9 9 +X+X+X+X+X+X+X+X+X+X+X+X+X+X+X+X+X",
"+X+X+X+X+X+X+X+X+X+X+X+X+X+X+X+X+X+X+X+X+X+X+X+X+X+X+X+X+X+X+X@.O.0 0 2 , @ $ 4 +.+.e 9 ; ; +X+X+X+X+X+X+X+X+X+X+X+X+X+X+X+X+X+X",
"+X+X+X+X+X+X+X+X+X+X+X+X+X+X+X+X+X+X+X+X+X+X+X+X+X+X+X+X+X+X+X#.#.e e x 4 % O 2 +.` 0 9 ; ; +X+X+X+X+X+X+X+X+X+X+X+X+X+X+X+X+X+X",
"+X+X+X+X+X+X+X+X+X+X+X+X+X+X+X+X+X+X+X+X+X+X+X+X+X+X+X+X+X+X+X@.r 9 w y k & + O 2 0 : ; ; +X+X+X+X+X+X+X+X+X+X+X+X+X+X+X+X+X+X+X",
"+X+X+X+X+X+X+X+X+X+X+X+X+X+X+X+X+X+X+X+X+X+X+X+X+X+X+X+X+X+X+Xr 9 ; 3 z M f + X , - ; ; ; +X+X+X+X+X+X+X+X+X+X+X+X+X+X+X+X+X+X+X",
"+X+X+X+X+X+X+X+X+X+X+X+X+X+X+X+X+X+X+X+X+X+X+X+X+X+X+X+X+X+X+X9 ; ; 3 z M f +   O = ; ; +X+X+X+X+X+X+X+X+X+X+X+X+X+X+X+X+X+X+X+X",
"+X+X+X+X+X+X+X+X+X+X+X+X+X+X+X+X+X+X+X+X+X+X+X+X+X+X+X+X+X+X+X+X; ; > k f d +   o = ; +X+X+X+X+X+X+X+X+X+X+X+X+X+X+X+X+X+X+X+X+X",
"+X+X+X+X+X+X+X+X+X+X+X+X+X+X+X+X+X+X+X+X+X+X+X+X+X+X+X+X+X+X+X+X; ; : < & @ X . o ; +X+X+X+X+X+X+X+X+X+X+X+X+X+X+X+X+X+X+X+X+X+X",
"+X+X+X+X+X+X+X+X+X+X+X+X+X+X+X+X+X+X+X+X+Xj.h.q.q.+X+X+X+X+X+X+X; ; ; = O X   o = ; +X+X+X+X+X+X+X+X+X+X+X+X+X+X+X+X+X+X+X+X+X+X",
"+X+X+X+X+X+X+X+X+X+X+X+X+X+X+X+X+X+X+Xk.j.q.6.<...+X+X+X+X+X+X+X+X+X= o .   . o ; +X+X+X+X+X+X+X+X+X+X+X+X+X+X+X+X+X+X+X+X+X+X+X",
"+X+X+X+X+X+X+X+X+X+X+X+X+X+X+X+X+X+X+Xj.j.t.u.c.g +X+X+X+X+X+X+X+X+X+X      +X+X+X+X+X+X+X+X+X+X+X+X+X+X+X+X+X+X+X+X+X+X+X+X+X+X",
"+X+X+X+X+X+X+X+X+X+X+X+X+X+X+X+X+X+X+X6.6.3.u.n.g &.+X+X+X+X+X+X+X+X+X      +X+X+X+X+X+X+X+X+X+X+X+X+X+X+X+X+X+X+X+X+X+X+X+X+X+X",
"+X+X+X+X+X+X+X+X+X+X+X+X+X+X+X+X+X'.'.G.i.r.,.J * a ( XX+X+X+X+X+X+X+X    . +X+X+X+X+X+X+X+X+X+X+X+X+X+X+X+X+X+X+X+X+X+X+X+X+X+X",
"+X+X+X+X+X+X+X+X+X+X+X+X+X+X+X+X+XU.F.G.S.( W A u H L..XOX+X+X+X+X+X+XX X X +X+X+X+X+X+X+X+X+X+X+X+X+X+X+X+X+X+X+X+X+X+X+X+X+X+X",
"+X+X+X+X+X+X+X+X+X+X+X+X+X+X+X+X+Xs.p.i.) F.L.( P Z./.].oX+X+X+X+X+X+X+ + @ +X+X+X+X+X+X+X+X+X+X+X+X+X+X+X+X+X+X+X+X+X+X+X+X+X+X",
"+X+X+X+X+X+X+X+X+X+X+X+X+X+X+X+X+Xq.o.-.R C.W.K.P.).).).Q.+X+X+X+X+X+X@ @ + +X+X+X+X+X+X+X+X+X+X+X+X+X+X+X+X+X+X+X+X+X+X+X+X+X+X",
"+X+X+X+X+X+X+X+X+X+X+X+X+X+X+X+X+Xo.} { Z Q E.(.!.Q.K.b.E +X+X+X+X+X+X6 6 1 +X+X+X+X+X+X+X+X+X+X+X+X+X+X+X+X+X+X+X+X+X+X+X+X+X+X",
"+X+X+X+X+X+X+X+X+X+X+X+X+X+X+X+X5.X.+X+X+XK c.H.m.c.I Z | } +X+X+X+X+X%.%.V +X+X+X+X+X+X+X+X+X+X+X+X+X+X+X+X+X+X+X+X+X+X+X+X+X+X",
"+X+X+X+X+X+X+X+X+X+X+X+X+X+X+X+X4. .+X+X+X+XL D.r.>.+Xp ] [  . .X.4.8.z.[.{.+X+X+X+X+X+X+X+X+X+X+X+X+X+X+X+X+X+X+X+X+X+X+X+X+X+X",
"+X+X+X+X+X+X+X+X+X+X+X+X+X+X+Xo. .+X+X+X+X+X*.d.a.<.+X+X+X+X[ [  .X.=.7.0.f.+X+X+X+X+X+X+X+X+X+X+X+X+X+X+X+X+X+X+X+X+X+X+X+X+X+X",
"+X+X+X+X+X+X+X+X+X+X+X+X+X+X+XX.} +X+X+X+X+X+Xt.S.y.+X+X+X+X+X' [ [ ] s B n +X+X+X+X+X+X+X+X+X+X+X+X+X+X+X+X+X+X+X+X+X+X+X+X+X+X",
"+X+X+X+X+X+X+X+X+X+X+X+X+X+X+XX.} +X+X+X+X+XW r.A.i.) +X+X+X+Xi ' i y 8 8 +X+X+X+X+X+X+X+X+X+X+X+X+X+X+X+X+X+X+X+X+X+X+X+X+X+X+X",
"+X+X+X+X+X+X+X+X+X+X+X+X+X+X+XX.} +X+X+X+X+X_ i.Z./ Y.R.+X+X+X+X+X+Xv k j +X+X+X+X+X+X+X+X+X+X+X+X+X+X+X+X+X+X+X+X+X+X+X+X+X+X+X",
"+X+X+X+X+X+X+X+X+X+X+X+X+X+X+X3...+X+X+X+X+XL.L.D.P.E.R.Q.+X+X+X+X+Xz z z +X+X+X+X+X+X+X+X+X+X+X+X+X+X+X+X+X+X+X+X+X+X+X+X+X+X+X",
"+X+X+X+X+X+X+X+X+X+X+X+X+X+X+Xj.8.+X+X+X+XW _ K.K.~.R.K.N.+X+X+X+X+Xz z z +X+X+X+X+X+X+X+X+X+X+X+X+X+X+X+X+X+X+X+X+X+X+X+X+X+X+X",
"+X+X+X+X+X+X+X+X+X+X+X+X+X+X+X Xx.+X+Xo.X.=.H b.^.'.!.n.m.+X+X+X+X+X1 1 h +X+X+X+X+X+X+X+X+X+X+X+X+X+X+X+X+X+X+X+X+X+X+X+X+X+X+X",
"+X+X+X+X+X+X+X+X+X+X+X+X+X+X+X|.}.+X+XX.X.{ C I H.'.^.^.T.+X+X+X+X+XX X X +X+X+X+X+X+X+X+X+X+X+X+X+X+X+X+X+X+X+X+X+X+X+X+X+X+X+X",
"+X+X+X+X+X+X+X+X+X+X+X+X+X+X+X}.}.+Xe.2.=.| C T V.H.J.c.v.+X+X+X+X+X+ + + +X+X+X+X+X+X+X+X+X+X+X+X+X+X+X+X+X+X+X+X+X+X+X+X+X+X+X",
"+X+X+X+X+X+X+X+X+X+X+X+X+X+X+X+X+X`.G.^ w.G H P y.B.I K S +X+X+X+X+X5 $ $ +X+X+X+X+X+X+X+X+X+X+X+X+X+X+X+X+X+X+X+X+X+X+X+X+X+X+X",
"+X+X+X+X+X+X+X+X+X+X+X+X+X+X+X+X+X+XF.V.! ! ! w.;.9.G N { +X+X+X+X+X$ $ $ +X+X+X+X+X+X+X+X+X+X+X+X+X+X+X+X+X+X+X+X+X+X+X+X+X+X+X",
"+X+X+X+X+X+X+X+X+X+X+X+X+X+X+X+X+X+X^ ! / b.V.e.2.;.&.{ } +X+X+X+X+X+ + + +X+X+X+X+X+X+X+X+X+X+X+X+X+X+X+X+X+X+X+X+X+X+X+X+X+X+X",
"+X+X+X+X+X+X+X+X+X+X+X+X+X+X+X+X+X+X;.P T V.C.e.:.2... .} +X+X+X+X+XX X +X+X+X+X+X+X+X+X+X+X+X+X+X+X+X+X+X+X+X+X+X+X+X+X+X+X+X+X",
"+X+X+X+X+X+X+X+X+X+X+X+X+X+X+X+X+XX.X.&.P ~ b.F =.X. .[ [ +X+X+X+X+X& +X+X+X+X+X+X+X+X+X+X+X+X+X+X+X+X+X+X+X+X+X+X+X+X+X+X+X+X+X",
"+X+X+X+X+X+X+X+X+X+X+X+X+X+X+X+X+Xo...&.R Y ~ F &.X...] i +X+X+X+Xm +X+X+X+X+X+X+X+X+X+X+X+X+X+X+X+X+X+X+X+X+X+X+X+X+X+X+X+X+X+X",
"+X+X+X+X+X+X+X+X+X+X+X+X+X+X+X+Xo.o.X...*.K K T Z =.} ] i +X+X+X+Xh +X+X+X+X+X+X+X+X+X+X+X+X+X+X+X+X+X+X+X+X+X+X+X+X+X+X+X+X+X+X",
"+X+X+X+X+X+X+X+X+X+X+X+X+X+X+Xo.X.o.X.X.} N S Q b.P { p ' +X+X+X+X$ +X+X+X+X+X+X+X+X+X+X+X+X+X+X+X+X+X+X+X+X+X+X+X+X+X+X+X+X+X+X",
"+X+X+X+X+X+X+X+X+X+X+X+X+X+X+Xo.o.o.X.X.} ] a S Y T F a p +X+X+X+X$ +X+X+X+X+X+X+X+X+X+X+X+X+X+X+X+X+X+X+X+X+X+X+X+X+X+X+X+X+X+X",
"+X+X+X+X+X+X+X+X+X+X+X+X+X+X+Xo.X.o.X. .} } { N D T K K K +X+X+X+X+ +X+X+X+X+X+X+X+X+X+X+X+X+X+X+X+X+X+X+X+X+X+X+X+X+X+X+X+X+X+X",
"+X+X+X+X+X+X+X+X+X+X+X+X+X+X+XX.X. .X. . . .} } a S T U Y +X+X+X+XX +X+X+X+X+X+X+X+X+X+X+X+X+X+X+X+X+X+X+X+X+X+X+X+X+X+X+X+X+X+X",
"+X+X+X+X+X+X+X+X+X+X+X+X+X+X}  .} } } }  .X. .} [ N F D K +X+X+X+X  +X+X+X+X+X+X+X+X+X+X+X+X+X+X+X+X+X+X+X+X+X+X+X+X+X+X+X+X+X+X",
"+X+X+X+X+X+X+X+X+X+X+X+X+X+X[ } ' ' ' [ [ [ [ [ [ ] p p p +X+X+X+X  +X+X+X+X+X+X+X+X+X+X+X+X+X+X+X+X+X+X+X+X+X+X+X+X+X+X+X+X+X+X",
"+X+X+X+X+X+X+X+X+X+X+X+X+X+X' ' i i i i i i i i i i i i +X+X+X+X+X+X+X+X+X+X+X+X+X+X+X+X+X+X+X+X+X+X+X+X+X+X+X+X+X+X+X+X+X+X+X+X",
"+X+X+X+X+X+X+X+X+X+X+X+X+X+X+X+X+X+X+X+X+X+X+X+X+X+X+X+X+X+X+X+X+X+X+X+X+X+X+X+X+X+X+X+X+X+X+X+X+X+X+X+X+X+X+X+X+X+X+X+X+X+X+X+X"
};
